<mxfile host="65bd71144e">
    <diagram id="DGkd9Mv6Q9bRBDV6UPl6" name="Page-1">
        <mxGraphModel dx="1823" dy="1216" grid="1" gridSize="10" guides="1" tooltips="1" connect="1" arrows="1" fold="1" page="1" pageScale="1" pageWidth="1920" pageHeight="1200" math="0" shadow="0">
            <root>
                <mxCell id="0"/>
                <mxCell id="1" parent="0"/>
                <mxCell id="112" value="" style="shape=image;verticalLabelPosition=bottom;labelBackgroundColor=default;verticalAlign=top;aspect=fixed;imageAspect=0;image=data:image/jpeg,/9j/4AAQSkZJRgABAQAAAQABAAD/2wCEAAkGBxISEhUQExEVFRUVFhgWFRcWFRIVFRUZGBgYGhcVFhUYHSggGBonGxcXITEhJSkrLi4uFx8zODMtNygtLisBCgoKDg0OFRAQGisdHR0tKy0tKy4tLS0tLS0uKy0tLS0tNzE3Ny0rNy0tLS0rKzctLTAtLS4rLS4rLTcxNy0tM//AABEIAOEA4QMBIgACEQEDEQH/xAAcAAEAAQUBAQAAAAAAAAAAAAAABQIDBAYHCAH/xABKEAABAwIDAwgFCAcHAwUAAAABAAIDBBESITEFBkETIlFSYXGBkQcyocHRFBYkQpKTsbIjVWKC0vDxQ1NUcnOi4WOzwhU0ZHSU/8QAGAEBAQEBAQAAAAAAAAAAAAAAAAECAwT/xAAfEQEBAAIDAQADAQAAAAAAAAAAAQIRAxIhMUJhcUH/2gAMAwEAAhEDEQA/AO4oiICIiAiIgIiICIiAiIgIiICIiAiIgIiICIiAiIgIiICIiAiIgIiICIiAiIgIiICIiAiIgLGrdoRQgGSRrATYYja6yVzH0xzXdTx9Ae4+JaB+UqybqW6jolFtGKa/JSNfa18Jva97X8j5FZS5R6IJ8NRNH14g77DgP/NdXTKapLuCIiiiIiAiIgIiICIiAiIgIiICIiAiIgIiICIiAiIgIiIC436WanFWhvUiaPMl3/kuyLgPpCqse0Kg9D8P2AG+5aw+s5/Eh6NanDtCIddr2f7S78WhduXnTdOr5Otp39ErB4OOE+wr0Wrn9TD4IiLDYiIgIiICIiAiIgIiICIiAiIgIiICIiAiIgL4TbVfVCbaMjnhrSQAG5jg6R+Fpt0gNP2kEyHjpX3EFCv3bY43dUVROVyKiVt8rXs0gDwCwtq7JpqeMyyVFUANB8qqLuPBoGLMoNmc8AXuvNe2KjlJ5ZOvI532nErfazbUZaWs+UtJFgXVU0gHewmx8clqJ2XD15T92Pct4+MZXaEikLXBw1BBHeDkvTlHUCRjJBo9ocO4gH3rz9/6RAfrS+cf8K2nZu0o2MaxwndhAAIqpo8hkBhYQ3yCZemN067dMS1bZGyqSpjEjH1HQ4GqqbtPQees35p0/TP/APqqv41htN8oNL5qpa7VbI5IBsL5ecHgB8r5AHAEhwLySDftU7TS4mNd1mg+YuguoiICIiAiIgIiICIiAiIgIiICItY3z3xioA1hGOaRrzE36t22AxnUNJOoB0KDYqipZGLve1g6XODR5lQ9ZvRC3KP9Kf2fU+3x8LriVVK6SQ1NVIZpdcT8mM7GM0YLBSNEyqqAORhke3gQMMfg9xDT4Fb6s9nRJ95p3aGNnkT5uPuWBLtCd1yZwLkE2I4aeqFBt2NVw4HytiLS4DAJHEnImznYbAZZ2ubXt0qmk2gyqa0CJ1O7lWR3be5DnsY4YJLgkYwb2uLZ62U8PU26tqP8WftP/hWFWQPltylRjtpiMht3ZKTo92oJLn5TUOwmx59P0A54I8tf5ussbq03F0x75SPygK7iarVXbHb/AHrfJ3wVB2Iz++b5OW2/Nak6Jfv5/c5BuvSdST7+o/jTZpqY2I0f2zfslXG7IZ/fN+yVtB3YpP7uT7+o/jVJ3Yo+pJ9/Ufxps0g6WmMfqVGG+uHEPwWYyST/ABTvORZ43XpOiX7+f+JWZd3qVr2sxTAu0tMSdDc2dfLLXtCbhqrYqnjP5QbjjeT4Kqn23LGA1s7cIsADa1hoOcLrWa/aRgfHAyNkofJIx7pGiRzQJC3nm4AAFxpb9GSsiDYMtRyj45I2BshaGOD3D1Wuykve3OtYtJFtU8NVu9FvaP7VotxeznAd7czbuJ7lIUO9NFNJyMdVE6TqYgHa29U2JXINobCr4edyRcOtC7H7Mn/7VrVU9sptI2z2nW2CRhyPgbgajgnWHavTiLl3o337e98Wzp7vfZ4bM485waAWNcDfE6wdd17nLI5ldRWLGxERAREQEREBERAREQFx3bGw5to7XnlxBkMFomn1nOEYzDG6XLy/MnwK7C42zWg+jx+MPlOr3F5/eOL3qxKR7t01O4Foix6iSoIlce1rLtazj6pUyHuMd2uY51jhd9Q5m2hOVsvBW9pxwtJJjaSeFhn3qFrttsgZcuZFGOJLWgeJQSNVQyTRujmcyxIIMeMObY8CfrYcujM5EGyjNk7osgcZPlE0rwCIzJydoza2INja25t06cLHNa7N6QoAbCpv2hryPPDZZ2zt+mP+syQccJAcPL3hXRtulFE5gIfIZCTfEWtadALHDrp7VeJWDQ7SjmbiY644jiO8K+XqDW9sUe0HTSSwyFjC0MY1sgxcMUha+8YyvkG4iSOcBdYw2TWl2N7gTZoILmPaB+lxck14POwuZm+4xDqgKb2zXTRtYYYOWLpA14xWwtIN3adNh0C9ys4vU1G+1k88a5DsqpGXNY4yMc6RpjuGGOJjw1uGwcC159W1ze2ay936WqjMhneHB2Ets7EAcIEl7i4u4XFja3AamXD1gbIq5pIy6eIRPxEBodiysDfzJHbhvoVdRm5W3VSeJY9ZTufYtkLLXzABJvbp8fNV4li7R2myFt3HM6NGp+A7VUYG191oKh5kcZGOdbGYpCzHa1i4Z2OQ5wschmsyl2e+FjIoHMYxgyGEm5JJLiSSSSTcm9ySTxWobW36DDYyNjHVGbviouL0gxXzlk78MlldDqMj8LQXOA9W7srXuAdenTxURXxU1RhEhhlBvblG2d24JW2LbDoB4aXUXsjedkw/RzNktqCbkd7TmFsezp4pD6jQ7os3NQc93s3XNBPDWU7zdj2vwPIOEggkB4AuOGY8V3KnmD2NeNHNDh3EXC0H0kwXgBWz7k1HKUFM868k1p/d5vuSkTaIiyoiIgIiICIiAiIgw9sy4KeZ/ViefJpK0rcaQRUpeeAAA6TwC2zet1qKpP8A0JfyFavuxTXpm9F/d/VWI1/fbeZtHEZX2fK+4jZ0kauPQ0XHmBxXFdpbZkqHmWZ7nu4XtZvYxujR2Bbdv1JHVVs+OWzYSYYmjjgycT+/jPl0LS9oRxiYsizYCACcyTYXPnfyWoj4ysABFjnbo4I2tsQW3BGhGRHjdbHtDc+SNnKtgndGL4pOTdhGf+XIW4qF2/s75O6O1yJIxI3E2xLToR0g2Nj2KjbNzd7Xh4z5414B7eINuP8AVdkpqtsjGyNN2uFx8D2g5eC8+Q0UbJC5kmQF2EjPFYGx7Pgut7jVuOFzOqQ4dzxp5j2qUbXjWPUmS7MDmAB15MTSS5tjk0gizr2zN+KrAyJ4NFyo6arhL3MIle5hs7Dha0G17c4Z66j2KKzKUyDHyjmOu8lmFpbhZlha65OJ2tyLDPRXuUUdFUR3wtEgc71Q8sLSQL2u0Xbpqb9xWY4ZNeL4XtDm31seB7QgVVYI2OedGjzPAea5LvtvQ5ri0OvI71j1BwDe38FvO99XhYxvDnOP7osPxK5MaSGSTlZpTYm78INwSDYA2tYGw81ZEQTqq5ubknUk3J8VUawWAtoSfO3wWyRUmzAc3Snxt7lfdDsrgx/i93wVRq8W0Cxwewlrm6EGxHcQut+j3eX5Y0seQJ2C+WWNoI54HAgkXA6QeNhpBi2X1X/bKu7HqaemqIaiB7gWS3e12YdEXkOz6eTJGfYeCVXZ97pOUorn1m5O+KkPRbLi2fGOq+Rv+8n3q3vPSWpZe5WvRG76E4dE8g/Kfes34rdkRFlRERAREQEREBERBEb3/wDsan/Rk/KVEbqm1KweKl97h9Cqf9CT8pUXuyz6MwqxHnfeVhiraljhmKiY+BkcR7CtfY28g7XDTXXgunemrdp8c/y+McyazZehsgAaCegOaB4tPSFzG7+geQWkd92jv/SwQtDo5DMWBoitzXZWviBwgd5vbtXJvSAbuo+aW4KKGOxw6sL7kWJy53sWvz1kr7YnudbIXN7dyolmkcbuOI9JsT2ZlTWlZbJ8i3K19bZ+B8l1zcFhDX36kY/H4Fcq3d2Y+eUAjmtsXns6PFdu2BR8nFnq84j3fVHln4qo2FpHyaU8b+4fErlu8G8RgqZ2DFi5V2lrWyte/u6FuOzd5qeZ0tLHJdwa7EObcYTY5A31Nlou8DMVTUgTRxkyEc/K4s03D+GvSkGVu7vG6apgZzrmTO9tMD8hbLUBdOaPocB4iw8LH4Bcn3eaG1dKOVjkcJLHBnYYH6utmfFb3tLeWCHkaV77EMZYdJcbX8xZKIzfGO4Z2tcPw+K47LoTbja+Xlp713ja9JykZA1acQ948vwC4jvbst8ExcBzHkublofrN96QQscl334En2qRdGRYHCRwyzz/ABV7Y2y4ZzFC18rZ3vDb8m0xDEba475DPRb96Rt3xDSQOjcfo5bHmL3DssQsTne2WWXcqOVB9n9l9FKxHG4MaM3c0d5FgPNWK2CDAOS5Z0uK7i9jGsPThwuJGdrd5W5+iLdd9TVNqZB+ip3Bxvo6Qc5jB2g2cejCOsFB3Lb4+iyt/YI8lD+iA/RZR0VDvyMU3tdv0eX/AClQvoiH0ab/AOw78jFP8VvSIiyoiIgIiICIiAiIgjN6G3o6kf8AQk/IVF7pG9MFNbbbenmHTFIP9hXMPR/v6x0OB8EgIAN2FjxbucWnyurEroc9LFOx0ErQ5rwWua7RwP8APguS70eiCoY4vopOVZmRFI/DK3sa88147y09+q3OTfSicbctgP7bJG2/eIt7Vm0m90RybUwSD/UYT7DfzV9HCpdzNpMu19DPfK3NxDXrAke1Z+y/R7WyWMv6BnG7g9/g1psPE+C7hNtsPHqt8HX9y1XfLeCanbE6JjDykjmOLmucGhrC4HIjMnLVNizsbduKnaGgZDPnG7nnpcf57MlMPWobG3pqJpoY3CMiSYRuwsfiaCJOfcvPFg4fWW2F6I5nuzU4q1zAW3Alvh9bI252Q4246rcZtyYquZ0gxteSC44wGXyaL3a62nDoKkmU7GkuaxjSdSGNBNukgXKyaasLA9tsntDSRa4texF8jqcjZUQVNufFSytkIcX3JaS8Fl7lpIs0aZ69IWm73VZZVNjJALmR2BYHE3JbzXE5ZgjQrptZWOlwjDYMDgOJJc7EXG2XRYDo7crbI2ixs240Ja0kdxIuFBfao7aewo5wWltw7UaEHpaRoe5Z/KDpHmFp2296aiGpmiaIwyORrGFzHEuaQy77h4FruOg4Ki3s3caWkq4qlr+WhjficxxwyAWI4811r34Xstq9I0MtbTCCliknkMgN2hrGsYDfnOcQOAy7eFlibr7ekqGzcs5lmckGuaCwHG1xcLlxuQW9PHRbFs7bMUANnx59Z7fipRo27noeqnuD6yYQsGZjjdjld2F3qs7xi8F1SlooKSJtPCwNawWa0XNr5lzicyScyTmSoep3zh0NVC3sbIy/4kqMk30omazFx/ZZIb/vEW9qeq2naR+jSdxUT6J22pZT01D/AMrFr28fpCYKV3JU73YsrvcxniA3ET7FO+hqcybO5Qi2OaU5dhA9yX4N6REWVEREBERAREQEREFErMTS08QR5rzPuM4xSGN2oGE94yPtC9NrzTVR/J9pVMfVqZbdznlzfYQtYpWNt1tpHd6i8Xatg3mj52LpAWuuWmVRcOzyVl8muevcF8cVkUFs3WuRb/krKsVjyNHEKrlXdb8FsGyTHjPKyWaW2YXcpYFzg0vOHTC0ud3gKT2a+gdJU8qXtYAeQs9/qi4xNJzdIciA7LMrnycvTflv89XTTOXd1l8Mzj9ZS0TwRm6S9+BuLZWyvrrxVwFvWm8h/EuiITlHdZfC4niPIKbaW586bXLTMZa55HX2L5KRYkOkvfIO+IKbEIHdo8gqX56qV5V3WPmV9EjjliPmU2ItvgrrezLuWTXWLQeINr8Te+vksRpVgyA89JVyA5gLGBWTRNu4d6qJXeSW0DGLs/ofgwbJpv2uUd9qR5XCN4J7kN6AvRe4FPyezaNv/wAeMnvc0OP4rOSxPoiLLQiIgIiICIiAiIgLzz6UqbkdrTO/vBFKPFgYfbG5ehlxj070Vqimnt68T4yf9Nwc3/uOVx+pWt1o5SEHsWqOWy7DlxRlh4LXqxmF7h0ErbLFcVkUR9Ydn4EH3LGcr1D69ukEeYKyqXj2e82BAFxisb3A6SADa44HXwVFbQuiNntNjoQTY+bRY9hsVVLtSZwzfrmSA1pJve9wLqwZ3uyc9xGti4n8VjHt+TeXT8dr1LNhBsbc12RLcyQA3Xz8FksmaAy5aSOccxcnC4kHLLnFo46BYkcYBuC3ozcOjX1VS6a4thtp1R+A7Vy5OGZXbtxc9wx0zYKgWJcRmTkXNJsG5aNscyehYkjGtBs7Fl1m9vDyVUkls+ac+Fu39nTP8OhUlwfrZtu0N17m9iuHFcctzzf7OTmmWOr7Z+lVRs6RjsDo3YrXsCHZXI+qDxBVApZLZRPz44Tpl2do81XW1UjnYnSOcbWvivkSXcAOJJPaSrHyh/Xd9oru87Gr8mgHrG47gPisJpWVtF5OG5vkTn329yxAVYi6CpCgFs1HNUkThZ4Kowqu73kDUmw8V6woYBHGyMaMY1o/dAHuXmHdSk5Wtpo+tPHfuxgn2Ar1Ks5NQREWVEREBERAREQEREBc69OFDjoY5R/YztJ/yva5lvtOZ5Loqh98NlGqop6doBc+M4L5DG3nMz4c4BIPOuxZsMluBVneCPDKT0gH3e5VS074nlr2OY9hs5rhZzewhXtvjExkngfH+h810YQLlVTvs5p6CCqSqVFShZmR0e5VwEBwLhccRmeHYQfavmbgC3MG17dPG6rhYQ4EtJHEf1BUEbTzuMr2l1wNBlcaar7y7uWwYubhvbL+qyGbMLXOlvfH9UcL2+CrGzTi5W4vh045ZW70ViVEzxIxodZp1GWaV87mllnWu6x0z0yCyjszG9ry4Nw3yN8+3+ehJdmmXCS7Dhdex4/zZBdkIIbbUDna5m+uZ8MraK3ZX5mHIBugsSLWOZzGXRbp4q2GHoy4308URg7QPOA6Gt9ov71jBXKqTE9xGhOXdwVC1EXYBdwHasytdo1Y9COdfoCre67iehBt/olo+U2nCeEbZJD4MLR7XhehVyj0J7AlYZa2Rha17AyIuFi4F2J7gNcPNZY8c11dYv1qCIiiiIiAiIgIiICIiAiIghd4916atbaaPnAWbI2zZG9zuI7Dcdi4nvjsP5I+Wk5QPEbGyBxAYcLjlqbHPLJehlampmP9djXf5mg/irKljyM7I2Oq+WXquq3do5BhfSQOBN84ozn06LE+ZOzf8BTfcx/BXsaeXwLcVVcdYr06dx9mfq+m+5j+C+fMXZf6vpvuY/gnZNPMoLesfJVWZ1z9n/lemPmLsz9X033TPgvnzF2Z+r6b7pnwTsaeaCGdc/Z/5Vp2HrHyK9OfMTZf6vpvumfBfPmHsv8AV9N90z4J2NPMRI6xVN+1en/mHsv9X033TPgnzD2X+r6b7pnwV7HV5fsqgV6e+Yey/wBX033TPgsmi3ToIbmOip2E5EiKO9ujRTsaeZ6eIiNzzYAFoNyLjFk0Ydb6rvO6noxpKSz5fpEozu8ARtP7EeY8XEnuW1w7GpmEObTwtI0LYowR3EBZylqyPgC+oiiiIiAiIgIiICIiAiIgIiICIiAiIgIiICIiAiIgIiICIiAiIgIiICIiAiIgIiICIiAiIgIiICIiAiIgIiICIiAiIgIiICIiAiIgIiICIiAiIgIiIP/Z;" parent="1" vertex="1">
                    <mxGeometry x="1127.37" y="770" width="225" height="225" as="geometry"/>
                </mxCell>
                <mxCell id="109" value="" style="verticalLabelPosition=bottom;html=1;verticalAlign=top;align=center;strokeColor=none;fillColor=#00BEF2;shape=mxgraph.azure.laptop;pointerEvents=1;fontSize=16;fontColor=#000000;" parent="1" vertex="1">
                    <mxGeometry x="1160" y="300" width="600" height="330" as="geometry"/>
                </mxCell>
                <mxCell id="77" value="Flight Control Computer" style="rounded=1;fillColor=#647687;fontColor=#ffffff;strokeColor=#314354;fontSize=16;" parent="1" vertex="1">
                    <mxGeometry x="270" y="451" width="230" height="60" as="geometry"/>
                </mxCell>
                <mxCell id="78" value="Mission Computer" style="rounded=1;fillColor=#647687;fontColor=#ffffff;strokeColor=#314354;fontSize=16;" parent="1" vertex="1">
                    <mxGeometry x="550" y="451" width="420" height="60" as="geometry"/>
                </mxCell>
                <mxCell id="79" value="" style="shape=step;perimeter=stepPerimeter;fixedSize=1;rounded=1;strokeColor=#432D57;strokeWidth=3;fontSize=16;fontColor=#ffffff;rotation=90;fillColor=#76608a;arcSize=14;" parent="1" vertex="1">
                    <mxGeometry x="706.25" y="382.24" width="107.5" height="80" as="geometry"/>
                </mxCell>
                <mxCell id="80" value="Telemetry" style="text;strokeColor=none;fillColor=none;align=center;verticalAlign=middle;rounded=0;strokeWidth=3;fontSize=16;fontColor=#FFFFFF;" parent="1" vertex="1">
                    <mxGeometry x="730" y="407.24" width="60" height="30" as="geometry"/>
                </mxCell>
                <mxCell id="81" value="" style="shape=step;perimeter=stepPerimeter;fixedSize=1;rounded=0;strokeColor=#432D57;strokeWidth=3;fontSize=16;fontColor=#ffffff;fillColor=#76608a;" parent="1" vertex="1">
                    <mxGeometry x="1120" y="571" width="110" height="50" as="geometry"/>
                </mxCell>
                <mxCell id="82" value="Telemetry" style="text;strokeColor=none;fillColor=none;align=center;verticalAlign=middle;rounded=0;strokeWidth=3;fontSize=16;fontColor=#FFFFFF;" parent="1" vertex="1">
                    <mxGeometry x="1150" y="581" width="60" height="30" as="geometry"/>
                </mxCell>
                <mxCell id="90" value="Unmanned Quad Copter" style="rounded=1;fillColor=#647687;fontColor=#ffffff;strokeColor=#314354;fontSize=16;" parent="1" vertex="1">
                    <mxGeometry x="270" y="541" width="700" height="60" as="geometry"/>
                </mxCell>
                <mxCell id="91" value="" style="endArrow=classic;startArrow=classic;fontColor=#FFFFFF;strokeWidth=6;dashed=1;exitX=0;exitY=0.5;exitDx=0;exitDy=0;entryX=0.5;entryY=0;entryDx=0;entryDy=0;fillColor=#76608a;strokeColor=#432D57;" parent="1" source="79" target="81" edge="1">
                    <mxGeometry width="50" height="50" relative="1" as="geometry">
                        <mxPoint x="1010" y="200" as="sourcePoint"/>
                        <mxPoint x="1060" y="150" as="targetPoint"/>
                        <Array as="points">
                            <mxPoint x="760" y="150"/>
                            <mxPoint x="1175" y="150"/>
                        </Array>
                    </mxGeometry>
                </mxCell>
                <mxCell id="92" value="Caption" style="swimlane;fontStyle=0;childLayout=stackLayout;horizontal=1;startSize=30;horizontalStack=0;resizeParent=1;resizeParentMax=0;resizeLast=0;collapsible=1;marginBottom=0;rounded=1;glass=0;strokeColor=#000000;strokeWidth=3;fontSize=18;fontColor=#000000;fillColor=none;" parent="1" vertex="1">
                    <mxGeometry x="270" y="200" width="310" height="120" as="geometry"/>
                </mxCell>
                <mxCell id="93" value="Telemetry Link" style="text;strokeColor=none;fillColor=none;align=left;verticalAlign=middle;spacingLeft=4;spacingRight=4;overflow=hidden;points=[[0,0.5],[1,0.5]];portConstraint=eastwest;rotatable=0;rounded=1;glass=0;strokeWidth=3;fontSize=18;fontColor=#000000;" parent="92" vertex="1">
                    <mxGeometry y="30" width="310" height="30" as="geometry"/>
                </mxCell>
                <mxCell id="94" value="" style="endArrow=classic;startArrow=classic;strokeWidth=3;fontSize=18;fontColor=#FFFFFF;dashed=1;fillColor=#76608a;strokeColor=#432D57;" parent="92" edge="1">
                    <mxGeometry width="50" height="50" relative="1" as="geometry">
                        <mxPoint x="140" y="44.40999999999997" as="sourcePoint"/>
                        <mxPoint x="260" y="44.40999999999997" as="targetPoint"/>
                    </mxGeometry>
                </mxCell>
                <mxCell id="95" value="WiFi Link" style="text;strokeColor=none;fillColor=none;align=left;verticalAlign=middle;spacingLeft=4;spacingRight=4;overflow=hidden;points=[[0,0.5],[1,0.5]];portConstraint=eastwest;rotatable=0;rounded=1;glass=0;strokeWidth=3;fontSize=18;fontColor=#000000;" parent="92" vertex="1">
                    <mxGeometry y="60" width="310" height="30" as="geometry"/>
                </mxCell>
                <mxCell id="96" value="" style="endArrow=classic;startArrow=classic;strokeWidth=3;fontSize=18;fontColor=#FFFFFF;dashed=1;fillColor=#60a917;strokeColor=#2D7600;" parent="92" edge="1">
                    <mxGeometry width="50" height="50" relative="1" as="geometry">
                        <mxPoint x="140" y="104.22999999999985" as="sourcePoint"/>
                        <mxPoint x="260" y="104.22999999999985" as="targetPoint"/>
                    </mxGeometry>
                </mxCell>
                <mxCell id="97" value="Radio Link" style="text;strokeColor=none;fillColor=none;align=left;verticalAlign=middle;spacingLeft=4;spacingRight=4;overflow=hidden;points=[[0,0.5],[1,0.5]];portConstraint=eastwest;rotatable=0;rounded=1;glass=0;strokeWidth=3;fontSize=18;fontColor=#000000;" parent="92" vertex="1">
                    <mxGeometry y="90" width="310" height="30" as="geometry"/>
                </mxCell>
                <mxCell id="98" value="" style="endArrow=classic;startArrow=classic;strokeWidth=3;fontSize=18;fontColor=#FFFFFF;dashed=1;fillColor=#f0a30a;strokeColor=#BD7000;" parent="92" edge="1">
                    <mxGeometry width="50" height="50" relative="1" as="geometry">
                        <mxPoint x="140" y="74.40999999999997" as="sourcePoint"/>
                        <mxPoint x="260" y="74.40999999999997" as="targetPoint"/>
                    </mxGeometry>
                </mxCell>
                <mxCell id="100" value="Remote Controller" style="text;strokeColor=none;fillColor=none;align=center;verticalAlign=middle;rounded=0;fontColor=#000000;fontSize=16;" parent="1" vertex="1">
                    <mxGeometry x="1144.87" y="965" width="190" height="30" as="geometry"/>
                </mxCell>
                <mxCell id="101" value="" style="shape=image;verticalLabelPosition=bottom;labelBackgroundColor=default;verticalAlign=top;aspect=fixed;imageAspect=0;image=data:image/jpeg,/9j/4AAQSkZJRgABAQEAeAB4AAD/4QAiRXhpZgAATU0AKgAAAAgAAQESAAMAAAABAAEAAAAAAAD/7AARRHVja3kAAQAEAAAAZAAA/9sAQwACAQECAQECAgICAgICAgMFAwMDAwMGBAQDBQcGBwcHBgcHCAkLCQgICggHBwoNCgoLDAwMDAcJDg8NDA4LDAwM/9sAQwECAgIDAwMGAwMGDAgHCAwMDAwMDAwMDAwMDAwMDAwMDAwMDAwMDAwMDAwMDAwMDAwMDAwMDAwMDAwMDAwMDAwM/8AAEQgBDQGCAwEiAAIRAQMRAf/EAB8AAAEFAQEBAQEBAAAAAAAAAAABAgMEBQYHCAkKC//EALUQAAIBAwMCBAMFBQQEAAABfQECAwAEEQUSITFBBhNRYQcicRQygZGhCCNCscEVUtHwJDNicoIJChYXGBkaJSYnKCkqNDU2Nzg5OkNERUZHSElKU1RVVldYWVpjZGVmZ2hpanN0dXZ3eHl6g4SFhoeIiYqSk5SVlpeYmZqio6Slpqeoqaqys7S1tre4ubrCw8TFxsfIycrS09TV1tfY2drh4uPk5ebn6Onq8fLz9PX29/j5+v/EAB8BAAMBAQEBAQEBAQEAAAAAAAABAgMEBQYHCAkKC//EALURAAIBAgQEAwQHBQQEAAECdwABAgMRBAUhMQYSQVEHYXETIjKBCBRCkaGxwQkjM1LwFWJy0QoWJDThJfEXGBkaJicoKSo1Njc4OTpDREVGR0hJSlNUVVZXWFlaY2RlZmdoaWpzdHV2d3h5eoKDhIWGh4iJipKTlJWWl5iZmqKjpKWmp6ipqrKztLW2t7i5usLDxMXGx8jJytLT1NXW19jZ2uLj5OXm5+jp6vLz9PX29/j5+v/aAAwDAQACEQMRAD8A/fyiiigAooooAKKKKACiiigAooooAKKKKACioNR1O30eza4u7iC1t4+XlmcIi/UngV5x4q/bR+FPgt2W/wDH3hneoyUtrsXTD8Itxz7daAPTqK+b/Ef/AAVj+B3h2Yp/wlF5ekDJNtpN0w/NkFczf/8ABa34G6efmvfFDe66LIR/OgD62or5B07/AILkfs/Xer2trca5r2mpcSrE1zeaPKkEGTjdIwztUdzjjr619XeF/FWm+NvD9nq2j6hZ6ppeoRia2u7SZZoZ0PRldSQQfagDJ+K979l8K+Xnm4lVOPQfN/SvO4hha674yXe64sLcZ+UPIfxwB/I1yUYyKynuVEfu/wDrU4UzB96XHqKQ9h1fzR/8F0LiG2/4K3/Fie43fZ7fxDJNLt6lEt7dmA9yFIFf0uZr+aP/AILkzLH/AMFdvipuVWH/AAkpDKTjcDDbgg/UEj8aqG4pHj/jmx+LHifwJoHj7S/Dmm+ML7VrNri4v5ryK+t9LhnUJDb2lnvCQLAnyvKVZjKSSRsJb2r4Ca7rGq/sKeNLPxNqmmXnirSYpLfULW2uEkm05f8Almk6qSEkOHJxx0HByK5e4+Dvjj4c/CW6+Hth4X0P4leC7jedIuLnUYrG90mOXLmKdJflbYzkrLGd65JUg4C2f2e/2R5v2b/2cPihrGv6lHrHjLxBpohupoZmkhtIN28xhzzI7Oqsz9PlAGeSdCT9tf8Aggkcf8ElPhN/uX3/AKVSV9fA5r5A/wCCCXzf8ElPhN/uX3/pVJX171rN7lWHZoLZo/D8KQ9OlAcrL1h4ivtNh8u3uJI064B4FWf+Ez1Qf8vkn5D/AArJAINOCk9AfypXCx6F4A1i41jTZ2uZPMaOXarEYONqn+tb1fNPxb/4KK/CP9jWddH8aeJkTXryUSHStPha9vLZNijfKiZ8sHHG8gnPAODjjof+C63wDn+7feK2Hr/Ycn+NaR2JPsevNbnxlqZmb/S5BznjArxXTf8Agtj8Ab9hv17XLUHvNolxj/x1TVHQ/wDgoh8D/Fdwq2vxJ0O3aTGFvkmtT9DvQDP40pX6FI9zbxZqLf8AL5P+DmsyaVppCzMzM3UnqayfCvxB8PeP4FfQfEOg62rdPsOoRTsf+Aq2f0rWmhe3fbIrI3cMMEVn6lDaUGrOj6JceIb+O2tiqySZZpHG5YUGMsR36gAdyfQGuri+D9qqLu1TVmbuQ8Sgn6bKauxaHGA+9NmGVrtLn4QwmBvI1TUFmx8pl8uRM+67RkfQj61yOo2E2mXUlvcKqzRHa4U5XPqD6EYIz2NN+YjLmkaKQMvUcivz8/4Kv/8ABOXxdqnxQs/2lv2ef7S034peHZk1HW9O0VFOoXk8UZjGp2cbApLciEtFcWzArdwkjax3K/6C3keazxdTafcrJCxjkU5BHepjKw2rnz3/AME1f+C/Pw5/a10TT/DfxKvNL+GvxOUizkiupTDo+tzqQhNrPLjypGbraTkTISVHmgbz+gUUyzRqyMrKwyrKcgj1Ffn7+19/wTG+Bn7cV/dap4s8P3HhXxleDE/iXw6Utbm+OD/x9RlWhuu3MqFuPv1826P/AMEVPj38C0W2+DP7WV3pejxgmGzuJ9R0zyx2Xy4ZZYAOTnCAZPStOZEWZ+yxbA+lfGP/AAUU/wCC3Pwn/YT0HVNNsdS0/wAefEW2QrH4f0+9UQ2D4B339yAyWqAEHacyt0VD1Hxzq/8AwR8/ah+Mkf2P4oftcNNosylbi3h1LVb/AHL0K+WXgiYEdQ2R6g17F+yp/wAEff2f/wBj7ULPWP7Pvvip4usGEltf+IYojYWEoJPmQWSL5CPnkO4kcEcEHmjmQHwXe/ty/wDBRD4iXk3iDTbr9oSHT9dc6hax6L8Nbf8As1IpT5iC1821eTyArDZ5ju+zbuZjkkr9oJPijr0kjN9qjXcc4+Y4/Wio9qiuVn0NRRRWpIUUUUAFFFFABRRRQAUUV8q/8FQP+Cg6/sa/D+HSPD9rPqvxA8SQt/ZtvCisLOLJX7Q5YhFGVYKXO0bHY52hHAPQv2ov28/h5+ygv2XX9U+2eIJU3w6NY7ZLtgRlWfJCxKexcgnnaGxivhX46/8ABZPx14veSHQZNM8D6ZISqFMTXbDtmSQc/wDAI0Iz1PWvhmy8OeIvGHiO/wDEHirxDNeaxrE7Xd7JbytNJJIxyf3z8n/eAyeua6TSdIsfD8oktLeOObqZ3/eTH6u2T+WKAO28UfFPxT8XL5rzVtQ17XHkO77TqNywQfR5myAPQVQj0yycltQ8Qabb+qW6SXko/wC+QFz+Nc9c3bTuWkYux7ud1VpLvcfTFAHZxy+A7RFadvFmrSdxGsVmh/EkmnDxf8O7UcfD/UL71N5rbYP4KK4N7rC9aha4x3oA9EPxJ8ARMu34M+Ebhf8Ap6vriQmu++EX/BQDVP2ftDn0vwP4I8N+FtLuJfPezsNSvorfzP74RXABPfAAPevnpp8n9KQzcf54oA+mtd/4KtfFHWZhIsPh2FlGFaRbm6Kj0y8vvWBqX/BS34yXgKx69otlntDo0eR9CxbmvAvN55HvQZ8j8fWgD3OP9vL4zXZ3N481Be+IrSBAPb7lL/w3T8Yx934gav658mDj/wAcrwv7Tx94/TPWmi5J/ib8+lFkB7p/w3R8ZlP/ACUPW8Z6+VB/8brxr4l+EdD+M/jy88U+MPDPhXxR4m1Kb7RearqOkQy3dzLhRvZsD5sKozj+EVQ+0kjG5vb5jzQbo/3mJ+poA6EXEeFC6ZoaqoAH/Erg4x0H3abdvDqOl3VjcaToE9jfLsuLd9KhMc6+jDbyKteE/gd4/wDiDo0epeH/AAN4017TZmZIrzT9HuLi3kKnDBZFUq2DwcHg5HY1zGowXOj6jPZXsF1Z3lpI0Nxbzo0U1vIvDI6NgqwPBBGRQB6j8Lv2mPH3wO8Baf4V8F+JJfCfhfSQwstJ0y0ghtbQOxZti7DjLEk89TW+v7d3xnD/APJRNaP1gg5/8h14Sbg5+8fzoNySfvNjp1oA94tv29PjMZefiBqzLnvbwEf+gVuaf/wUN+LmlwhpvF1nMvrd6ZA/H4AGvmn7ST/Ew/HpTfO59frQB9TR/wDBVb4kaem2RvDWpEdf+JY8IP4rIPzqyv8AwVu8cbMTeFvDMmRtOy+vI93boGOPwr5Qa44phnoA9buPjl8N7+7muLz9nb4Z3F1dSGaecX17507k5Lu7MSzH1JJpv/C0/g3eDF18A9NtexbTPElzCR9NwryMz7l/DPFNNxjn86APWn1X4A6yxWbwX8UPD+eN1h4ggvEU/wC7IozWfefCz4N+ItzaR8UvFGgsekXiTwuXhH1lt2P54rzNrjPr9PWo2ufyxQB2037I+vX8xufBPir4f+MnU7kbRPEC2N8D7Qz+VJn0wakj/bb/AGlf2H7yG31LU/GGm6fD93T/ABfp73thIP8AZkkzwfVJa84v0juR+8hjkPbcobH51seGfjn40+GtlJb6F4q1qzs3G2Sxkn+12Ug/utBMHiK+o20Afav7Iv8Awcm/DN/Edlpvxi0tvhzc3eLca9aO15oTkkcynHm24yB8zB0HdgOR+oejfFHw94k0Ox1TTtYsdQ03VIFurO8tJRcW93EwyskciZV1I6MpIr+aX4w2/wAM/jfp08Pjz4cw6TfXOQ/iHwDIul3m4/xy2Eu6zm9wvkk9Aa9d/wCCN37Ruvf8E9/HcnguHx/Z/FP9n3VrkPKIUlttT8DTSkBbi502bM1nGzkh5ITNat1MiHBM7bAf0BzePtKijZhc+Zt/hVDk/pXAa/qx1zVprkrtEjcD0A4H6AVRDLIiukiSRyKHR0O5XUjIYHuCCDmnZwKzlJsqJHOm8fWs+8tetaTVHLHv7VJRztzantWbc2OT/q+fpXT3FiGPSqkumk5oA51bBWP+ryfUipo7FiR0X6VsDTMEU+LTMDpSsBlDTkPb9aK3BZewopge+UUUV0GYUUUUAFFFFABRRVDxR4nsfBfhvUNY1S4js9N0u3ku7qeQ/LDFGpZ2PsFBNAHjn7dP7c3h39ib4ZyalqATUNevI2/szTQ2PNI48yQ/wxgkD1Y8DozL+LfxM+PPir9qr4oaj4x8YXxub7UHBjgT5Le0jACqkadFAAHXJ4ySSSToft5ftI3/AO1X+0Zq2rXBkWC4uP3Nu3W0tkyIIDjIyq8tg4Ls7D71cr4esxb2qL/+qgDahOxe2e9WIdPuLw/u0Y/pXP8AjP4p6D8LdKku9Uuo18sZ25/QV478SP2tvE39ni6VrXwNo9x/x7S30DT6lfA8ZitVIbB7NIVHsaAPogeErqQZzGn1NQzeDboAlWjf/davhPxV+03m6b+0NX8W3r8Za/1pdO3Z/uwwLkD6sah8MftF6dc3A8u88RW7A/K9j4nmaRffbIGB456YoA+3b7SLqxP7yNl7Z6iqXnMODx6cV4f4B+Nni+eASeGfFtr4qVcltJ8Qwrb3bAD7qXEY2E/7yj8K9A8AftA6H8T9Vm0W9tbrwz4stVDXGk34EcpH95CPlkQ9mQkfjxQB1nn4/wDrUef/APqqvcq1vIytULTjOP1oAt6bcHV9avLVZPs9tpNst5qV4Y/N+zI27y440/imcKzAHgKueSVFap0LTtXs7gadea7pd5bqCP7Ysikb7gSN0bKrFTjkoQy/ofC/HHxmj/Zw+JXiG58QQv8A8If8QIbNk1GRS1vaXlvAbeS0nI+4skex0Y4B+Ydckee/EL9sPwzo+p/2lDq+jqzXTXkflwRPcFimzaJlYyMuOi4PQCgD6N8JeMIfF9hcyKgt7zTryXTdQtfM8z7FdREB49+BuXBV1YABkdT6gafncev9a8l/ZR0jXLLwJrGueIoprPUvGmrya0lnMu2aytjFHFAkg/hkKRhyOo3AHnNemfaMjrQBcNxhfT3xSPcLHDJI0kccUKb5HkcIka/3mY4Cj3PFUzcKF3NIscajLOxwqKOSxPoBk59q9s/4J5/8EcJP+CsXwnvPih8TvEXiTwV8Kbm4ZPA+jaYI4Z9YiifD6reecjo0chVljjK4CAtxwWAPDvD/APwVKtPhPpa6Dof7QWpaDpuns4Ww0jXLr7JaksWbiIFFBYknBxkk07Qvi1pvxq+2a9pfiez8XSXUzT31/Fffa5pZWOWkmJPmbiTyXAJNfor4b+Ilv+znpV94P8Cz6DqXhfSs2tvfN4ftCZYgdoct5IGC2VDOGRsfLwRXnOq/8G/Hhv8AbF0DWvi34U+N3ijT/ibdQsdFkSwsbew0O+TLPaXiQ26S3ERYhWDnhGyoZSuQD4+aXnr7U3z8N/niuZ8FeIdYvo9W0vxRpP8Awj3jTwlqlx4f8S6VztsNQt22yBM9YnG2RD0KsMEgZraE+T75oAvJIzuqL95jgZOB7f8A66PBV1pvibwlb+JNS1RtO8O6lIV0wxRt51+gLKJ2O1jGjlWKKFyVAYsNwFUEeObdHIW8qRSjlRyAwwfyBzXhWi/tM2vw68BaX8N/HNw2i+JvB8S2eSyww6tBHuWC6t5HBV43iC5A+ZWVgelAHvHj/wARaP4W8PXWuaTqcuq6XpZDajA0bG4gj6tJESqFyi/MyEcqrYYEAGX7SrL8rLIrDcrIcq6nkEH0IwQfSvkDx5+0hN4+S88H+Cppta1zxAptbe3SRZSrOpQuxQALGqkszNgAL1r6m0DTF8M+GdL0xZjcrpdlBZiVusvlRKm78dufxoA1mnyv3qY1wwI9qqNcY+v86ja4GPyx7UAW3nyf5GvQfhn+zF4s+KOhR6vCljo2j3C74LvUpGQ3Kf30iRWcxn++wVT2JrzPwze2GqfGT4feHNSkhW08Va+lncCTpNBFDJcSxfWQRKn0Y1+gXgH4wzfDbxrBrjGO4sQrQalabsRXlk42ywkdMBOVHQFF7VnWlOMG6ceaVtFe132v0uONr6nxH8f/AIS+Jv2ddEk1jWNPXWfDsILXOpaEzXTWajq8luQJNo7lNxA7Vwdprdn4i0i11DTry1vtPvohPbXVs/mQ3CH+JWHUdvUEYIBr7i/4Ko/Grwn+yd+zxf8AgXTdT3WeoIde1G5uAEkuo5QTY2/PJWKLBPq2D1yK/GP/AIJz/HKbWvGXi7wqzH+yr2aTWNNjJ4tXLHzQo7B12nb0yufWufA4v61RVeKtGXw33a6NrpfdLtZ7uyc48rsfT3iK2+0Qsvv1PGK8P+LXh2aG4hvrOa4stQ08mS1u7aVobiA9ykiEMuR1wRkcHIr3XU8Sxn17c9q4Hx5pIurV2wp+U+9dhJ9t/wDBET/gt7qFzcaT8FfjZfR3UcLCy8O+LZAI5ocn93a3oACtHk4SYAFcgMCOR+wUjrGxVpIsj/poD/Wv5IfEHneAvGtvqUO5VVwTj681/Rr/AMEUvjV4V/bj/Zas7fWLi6m8YeFY0tb0i4Aa5g6RvjHO0YU9TypJ+YARKL6DPqfzk/56R/8AfYpvnR/89Iv++x/jXTf8MweF/wC5f/8AgR/9aj/hmHwv/cvv+/8A/wDWqeVjucuzIf8AlpF/32KYfLJ/1kf/AH2K6v8A4Zh8L/8APO+/8CP/AK1H/DMPhc/wX/8A4Ef/AFqOVhzHJFI8/fi/77FLtXsyH6MK6z/hmLwuP4b/AP8AAj/61Dfsw+GSPlOpJ7i4H/xNLkYcxyvln/JorpD+y54f/wCfvWP+/wCv/wATRRyMfMelUUUVsQFFFFABRRRQAV8H/wDBbT9reP4b/DKH4f6dcKt5qyLqOr7SCUtlY+RCe4Mkq78j+GAggiSvtzxv4y0/4d+DNW1/Vpvs+l6JZy313Ljd5cUSF3OO52g8DrX8+v7ev7QeofH744atql8WW51a8a8li3Z+zpgJDDxwfLiVEz/Fs3dSaAPOfCRbUL6S8nOZbhjIxNa3iPxp/Ytp5Vv80zDCjHSufg1NdM070GMmquh3i3VpdahM3LEohP8ACOpOPYA0Acd4/wBZtvA8cniLWlTUNWXLafbOdyW5/vlehYevY4A5yR4VpHhzxB8ffiFeKt9JFclg+p6tJ8xtB/zyi9x0yO/oBXSfGvxQ+v8AiSGRvmDbpY1IxtVVJReexHXvnmtz4EXMPhr4eWu35Z7xmuJ2/ikYkjnucAUAdV4O/Zj8AeCbJVOi2+sXXWS61E+dI7dzjoM+2frUPjb9n/wH4jt2X+wbPT5uqzWI8h0PY8cHHoRVqXxiMfe9uKzb/wAW5z+8b6UAeQ+IPC+qfBrXY1W6N5bNzaT8p5wHOxwD94DPOcg8g16Zp2p6f8ePDtrpmr3E1nq1iwk0bW4yBfaTOehLd1J+VlPyuDgjJDDD8c3qa/olzC37xo181AM7gQR0xz69K82034gx/D/xCrTN/oL3kMN233nCTYTdngZVijcc8GgD6q+Afxm1Dxemo+F/FEUdr4y8MP5F6qH93crjMc8Z7xyLhgevODyDXoLTY+nrXzb8WNXm8KeJfA3xAjl8i5tbk+G9aIH/AB8ROS0Tse+11YDPaQ19AW2qLewRyoyskihgQfagC5qNrb6vptxZXlvDeWd0nlz29xGssMy+jKwII+orj/DH7PXgDwRrq6lo/gvw3p+oRtujuIrNS8R9U3Z2/wDAcYrpjc4P+c/lSG5x/SgC81zvbJyxYk5PU037R8v4elUjcc/hTTc5XrQBT+JUd5qXwz8T2+nsyX9xo93HbEdpDA4X/D8a/Saw/battE/Ye/Yx+Afwk06XV/FPx+8JWVtb/Z32xaPpdpYxG+up2H3Y929Wx8xVZgAWAFfnIl40cisrbWUggg9D25r0f/gmt+1Xpv8AwTg/afPjHxB4Z17x14Dk0e40TTYdMxdah8O47i8N5dGytGx51pNMdzrEwlTGNrqAKAP3W+DP7MHhX4NfDGTwzb6fa6hHqEQTVbi5hV31RsYPmA5GzsqfdUcDuT+fOsWPxO/4JOf8Fi/BJtf7T8Sfsy/tESL4ZZY4mmk8J6znNqbhsH5ATsSRmG6F5A+426s30h4c/wCC737JvifQ1vo/jf4I08bcvbapcvp15CR1VoJkWQMOhGK+Qf8Agqv/AMFnPh/+2B+zd4g+EvwXTXfFE/iR4EuvGkaT6To+giG4jnDwzuqy3cpaIL5cCgEFsyKOaAPmj9vzXNM17/gqP+0leaPLHNYr4g0uwuHiOUe9t9KgS5XPQsjFVYdiMHkV5wbnHesXRLL+xbFo2u7u/uLiea9vL27ffc6hdzyGWe5lPeSSRmYntkDoBVo3GGoA0PtOQfvex71i+N/AmgfEvSo7PxFoul65awndHHe26y+ST3Un5l/AirYuMHt+HpSNc5/z0oAzfAnwz8L/AArgmj8N+H9I0RbgYmNnbrG8w9Gb7x+hOK23uPzzxiqcl1t/zxUUl2VUbVeRiQqpGpZ3YkAKoHJJYgADqSBQBca5xUb3eP6/Svpr4IfsEWerfZ4/Fcl1qWvXEbSjR7G9FrBbbV3GNph800oAOQpVc8DdjJPjN+xl4Uh+F9x4k8PrqPhvyZTBFLLeNdW9xKq7ihikO/AHVkYbfrxVezk1dLT/AC3/ADX3mbrQUuVtX00v3vb77O3o+x8KftV6NqWpeAdN1rRTdf2x4M1aHXLdbY/vpFjDLKsfq+xiQO5THevmDxJ/wVY+Kn2G602HWILiF0aKO7WNkZ1IwH2k8HnkdjxX2J4d8aWXjCPUIYZI/tekXJs7+3VtzQS4yD7oy/MrY5GRwQRXh/xt/YN8O/EvVZtSsJpNFvp2LymADypWPcp0z7jGalOzuaHif7eH7e/ir/gon8XtI1a40+60lo9D0vQf7Mivmuo7qW0gEPn8quDI2W24O3PU4zXWfsDfBm68K/F671L7da3lvo1lJDfyWr+Zb/a5V2rbpIPlkaNCzOykqCQATwxteE/+CatrbXytq2vXFxahvmihjEW8ehbk/lX0p4Q8J6X8MvCkOnadb2+n6ZYoTtHypGo5ZmP5kk1y4LB0sJh4YWgrQgkkm27Jbattv5tlSk5NyZtXUwA/Hpj8q53X496kHuDxX098Cv2C7z4k6LY6t4p1S/0WLVIxPZ6XZQq9/LEy7leVpPli3L8wTDNggnGcVxP7fv7JM37K3w4k8WaANW1jTbMbrqx1Mokrr38uaMbQ/UgMuD7V0OcU+VvU0jh6sqbqxg3FbuzsvV7I+LPi34dE1tL8q/KMivov/gh1+3VefseftSaTNPNM+j3Tiw1KBW/11vIcYx6hsEDgblUngV4D/wAJppHxY8HR63otw1xZz5Rg67ZbeQD5o5F7MMg9wQQQcGvN9K1R/BPj+G5jO1N4Lc9QeKoxP7TNK1W213S7a+s54rqzvIlngmiYMk0bAMrKR1BBBB9DVivhf/gg1+2in7S37KUPhnUbpZvEHgVI7YbmG6azYHyiO52YKnHCgxjvX3RQAUUUUAFFFFABRRRQAUUUUAFFFFABRRTXcRoWYhVUZJJ4AoA+Kf8Ags/+0nD8PfhNY+B7a4RbrXMapqYDfNFZwuDEp9PMnUEHoRbyKRg1+Jd1rknibxJeX0p3GVyR7CvqD/gqb+1G/wAcPipr+tw3EzWerXX2fTUc8RWEOUhx6B8NKR2aZq+T/Do22jN69aAE8b66bLTW9MYzS2GtmT4c3Xlks0NtI+Bxkniuc+Klw0Wny/MexHHFJ8LtVGq6TNakqftULwgt0DEcZ9jQB4Z408YpN8RNYt5Arf2HqCWUgJ5MEkKsvHofmGT16V0/hLWHi8ONHC0kn9n8uMjcYmyRIAP4ByMgYH0BNeR/tRRzfC/40Ra5PHJLo/iizW3vFQZKSw4RsZ43jCsM84Y1X8L/ABSm8MyWtxHMZIsbre7gfcwBwSAeh9CjdPagD2iTxmGXiTI7Y/nVO88ZKgbc4UL1JOP/AK1ctD8XvDWshrjUNNiMjnmW0uWs2k9S6YK578dcfjSXnxo8NeFo/O07TYYbjkJLPKb6ZD/sBsIuOPmI7UAdTr1//Yvhiae+/cyXa7vKkBDQW4OWkYdmJwAp5+mRXzf8YfGn23R7xk2xm+uU8sIfuBTu478YHPuK7XT7jxh+1J8SdN8KeFNLvdY1nXJ/3EKZZnP8U0zn5UiRcs8r4SNFLHAFeYw+HH8UfHfT/DcNxaapb2+qLYLNZyGS3uUWXEksbHG5GAZg2BlcHigD7M+L0hvf2aNb84fvFuNNuFB/57Exk/rn869j+FmrNeeB9PdmJdoV7ewrxL426il94N0/SYx82p6h9vYKOBDGdqZ+rEAf7tev/Dwf2d4Ws4W/hjAyO3FAHXi5wR7dD/8AXoFzk/54rNF1g0fasLxQBoNccHnNNa5689PWqP2jB49PWmm7/wBr8BQBeec7frQJmcrjduzxVE3AP/66Z4B8T+HdS8e6/Z+ILlTb+HYbQR2BcxreS3CNJ5shUgtGqgKqAgbixOcAUAad6v26VZbi3W4lT7rzQiRx9GYEj8KW4uppZFaZpmOMAuScewzT9Z+LHw30vV44V0Twz5SyOt489yY5IlCblaNcnduPA3EfnXJ/tEfGPwT4E+F8/iHRYYdN1WxhS7htoZCI75OC1vKhJHzKSAy4ZWAIOMggHSfaMfn27UC5wfvde9Z4uVdVdNwjkRXTd1CkAjPvg80puPp6nmgC+Lrj7x96Q3OF6k1Ra5z6fnTHuMGgC6bvB4JrLX40aV8FfjZ8K9U15tminxKWuJWO1YnitZngLe3nFTzxlQe1Pe547fnXB/tA+AJPih8PJLO1+ytqNjOl/Yrcput5JYwR5cg7xurOh9mz2oA/QTwX+2L4T8Y+KNHsvD+swya1qF1GliElG5Zc7g5/2UALE+imvA/+CvP/AAU80PRvh9pN54F1KHxHoGqPeaXb3FhHtt7XUIZf9KRyCQGkZllUn7yEYyBX5A6X8SPFnwB8daw2jyXnh3Ubi1udLeOdVlns4J12SpGzg7SUyokTDFScEZNZWgfEvXLT4c6h4NW+jj8M6xfwX9zDNAsiw3EQZVmRsFkbYzKdhG4HBB4r2MNXwkcJKjU5uaV3dWsmrOC31T1Utre61fl18LF4fHSx0MRSUOSFlZt3aldTe2jiuVw3v78XZSuvb/2Cfi9qmsftLamt5cSSf8JRZy+emflLRgyIcf7ODg+59a+1GuN39PWvmb9jX4SWel6pH4ks7K6tdMsbR7TT5rxAlzqksmPPu3T/AJZxkKEjTJwuSSSSx+ijd45zx1rxz3S5LNz7nGeKxPEfjHTfCfibwM2tMi6HqHjDSbHVGYZT7M0+91bPG0+WoOexPrVtL1ZVOxt2OuDnFcf8bvCMnxE+HN5p1u8a30Tx3tk0g3ILiJt6bvVTgqR6MaAP058PftQeEB47sZG1y1kmnuHOBIMsxVia+NP+Chn7d/hnxb8A/iJ4c8J63/bGszWryXFlOQqW1ukhDvHtyCyn+8QensK/Kef4qeKvhr8TvtiyXtldaTcuyWF1PJJHbHkbMbslQGIBzyMc10/gL4mat8d/Gdn4P87wV4EsPFd2lvq+s/ZVs4YIC2ZJbiVifkVdzHoT0714+Po4qdZexS5fd1btZqV3dWu9NrW1P0rhLMMhw2XTeZVJKqnWtFU+ZyjUoqEeWfMowfPfmclL3dUm9Cb9ivxgdP8AFmqaDNua21q2Dx88RzxnKnHT5lLqT9PSvQPiJp+xjIOGjbNdDB8Ifhj4X+P90/wf1bxF4k8E+HbJbW617VYlhXXNRGQzWqbQywLnOWwWIHABFM+IFos8Tn5dv0r2D81Ps/8A4IS/ttt+zP8AtJeHr6+uDHot840rVgT8otpSBvI77DhsD+JR7g/0xI4kUMpDKwyCO4r+MT9nrxU/hnxzHH5hjWRgAQfunPBr+p7/AIJFftRr+1F+xd4duribzNb8MKNE1EM+5mMSr5cnqQ0ZUEnqyP1xQB9PUUUUAFFFFABRRRQAUUUUAFFFFABXz3/wU5+Nv/Cnf2Udat7eZY9U8YH/AIR+0+fayrMrfaJF7gpbrKQezbPWvoSvys/4LaftCDWfjUdAhZfsPw90wxsQeXvbxY5ZAf8AdhW3x6F3oA/Mz9o3xj/wkXj6SGNh5Ft+7UAcACsXQbgLAPpjiuU1vWG1TxFNMxJLOSTmtvSr3ZGtAFX4iWf2mxf/AGgQa8v8FeNf+EY1uSzuHZPm+Vj2IPBr2LVEW9tWDZIbivDfjB4LmWZp7fiSPnjvQB0Hx58CWXx1+HWpWivCk8xWWNmPFldqPkf2SQZUnsGz2r4bi1LWvhpq95p8gms7iCQx3VpMmVDKeQVPf3H517zb/GbVvBl8G8xopospl13JIp6qy9GU+n5YrJ+IPiXwJ8c5o5Naafwnr0a7BdxoZrWYAYCluoX03AEdNxHFAHlI+J5n5n0+3ZuNxRioPvjmoLj4hNt/c2MEberMWx+FdJd/s2X048zSdc0DWLc/dkiugpP4c1VP7PerWh3X1/otjCvV5LtePwoA6j4W/txeMPgx8BPHXgbw6un6bJ8RCtvrGuRwgao1htw9jHL1jgkP31H3hx0Jzp/sgfDY6bey+MNUWS3tbdDFYsR80jP8rMg/iJXKL6lif4c1znhXwh4P8N3itJcSeLL+PkRW67bRD/tMeCP++vpXqWjeI9S8V3cKxiMzINsKQrthsx0wvqccbjz6YHFAHoWlPJ448eq0oUbSpdV5WFVGEiB/2RnJHUkmvdNNYW9ssa/wjGPavN/hV4NXw5p0bOv71uWJ7nvXfW85YfKGI9u1AGt9s4/Whbz3Xis/zGz83r3NBnZPvKQvTOOKAND7VuX29PehrrPpmsz7XnvzSm7x1/8A1UAaX2rj+tee/Gr4It8Tb6HVtJ1q48NeIoIBatciPz4LyEMWWOaLPO0ltrjkbiORjHZC7ye/Xmmi6weKAPCz+yz8RMjPxC0Xjp/xLpKv+Ef2Q9Rm8R295408VR+ILC1ZZBp1paeTFcspDASsxyUyBlR97pkc17L9r+vvR9q+vvQBpPemWRnY/MxyeOlM+1+/ftVD7WQMdv0pPtJYhfvGgC+bzP8AF/nvUUl1xWz4O+FmteNm3W9u0cGMmaQ7UQdzmtQ+FfB2gvsvfEEmr3QO0waRbtdFT7sPkH4tQBxr3qkctwahe6DE54Nddda34JtZmiTR/Ec2P+WjzWyE/RTJmsPXPEfgewtmmvP+Ek8Ow7sfadRsG+zk+8iblH1JAoA84+I3wY8N/E4L/bGm211KoIWQrh09gw5/Wua8L/sleBfCmoJcQ6PDNNG25TOxlCn1wxIr2J/DNvrGlrfaFqdnrNhIMpNaSiRD+VYVz5lk+2RSnY56f/roAl+0LptsPLjeQgqiRRJukkYkKiKvdmYqoHckV9t/BH9i3wx8NNAhuvF+m2fijxQyCS6jucyWOnPj/URR9HZejSPnc2cADGfz2+IvxSuPhDeeEfElvaS6h/Y3imwvZLaMbmmWIvJtA7/MoOO+0V9M/swf8Fd9F/aa+PnhPwfpttMk2rXZuLuSSIqsFtBG9xMzE8D5ImHPrWGKxNPD0Z4iq7RgnJ+iV3+By47GUsJhqmLru0KcXKT7KKu/wR9S/tb/ALM/gPwR4FibXvDOgWE15Zfaba70+3Gn3Now6qHTHK5HUEHPSvzG8H/FzS/GXizxFoNtcrNfeHJ9jsAFF3Ax+SUAcbh91wOAcEcGvUf21f8AgoVpH7b/AOxf8TNX+FV540k1H4f+JItc1F/ECwpKmn6g0kDparExJgSRY2+f5kHWvzt/Y/1XVLH47aVqIjuJbbUZ3sLqdlJVzIhYqW/vYXd64Ga87JcwliqMlVVqkHyyTVrOyktPOMkeRw3m08dh5KumqtOTjNNWadlJaecJRZ9SfFj4C+G/ir+81Kzja5X5UuI/kkA/3h29jXA6b+xV4T0q78yZr66iB3eVJOdhx0zjGa9mnuvmPOc+1Ubu6G3J9cnivYPoTLj0210HSobOzghtbe3TbHFGu1UA9AK5HxbH5kMg+b1Geea6rUrjA75/rXK+IGyjdPmHUUAed29y2j+JI5lbkMDwMV+0P/Bub+1ivgf9oFvCN5cLHpvxAtBCu9tqpdxBmi/E5ZAO5mr8X/EluI7jcOqnINfR/wCxB8Zb34a+LND12wuDb6h4bv4dQt5RyYzG4YEDuRjP4UAf1sUVy/wT+KVn8bPhF4b8W2Gz7L4i06G+VFfd5TOgLxk+qNuU+6muooAKKKKACiiigAooooAKKKKAM3xj4rsvAnhLVNc1KTydP0ezmvrqT+5FEhdz+CqTX87/AO2v8Yb3xs2qa1fqIdS8VajcavdwhtwhaeRpDGD/AHU3BR6BRX7Gf8Fffiwvw/8A2RrjQ42kW98d6jBokZRtpSLJuJyfVTFC0Z/66j6V+Cf7WXi7+0/EEsKt8kI2gUAeU2l55t4zfxMa6KwvNgz61xNhekSV0GnX+0D734UAdQl58vfGKztf0iHV7dlkXK/yqGK8BH+BqUXfvxQB478TPgVHq6s6x7upBHevD/GH7P2oWckhj3Fc8cV9nXEizfeGfTFZt7oltd/eRef9mgD4Nu/g3q9vIR5LYzjpVzR/glqlzIoaHknuK+05PA9i7f6mH67Klt/Clnbj5Y1X/dUYoA+e/An7Pl400fn/ALuPpjoPyr3TwD8MLXwxGgSMbjgdOTXQW9pHajEaqvviue8d+JH+fT7dtilf9IccEj+4D/P8qALniP4sQaRut9MjjvJ4+HlY/uYvYY5c/TiuM+GnxRtfiN8TvFWneMp9euNL8PwQra2mmaodLjuJpG+ZpWjUuUC8BFI9STVdoPkA4rxnxR4jk8GeNfFF4pZReakLcH+9sjBP86APqMSfCYXy2v8AwgWmvctEZ1aTWNTedkDAFvM8/wBT1xXnHxv+J+n/AAh8Z+ED4J/t/TLHV5Xh1K0udak1GDllVDD5q7o8ZJILMDx0r52l8c29x4hF++7zdpBHmvyxYNu+97dOntWxqviCbx5P4fm3M7W+rImevYOf5UAfXXhz4tyGXydXjjxnaLuFMAf7y+nuPyrs47xXUMrKyuAysrZDDsQfSvIIrbdIx+Uktnjr1ro/ButvpcotZGJtZD8hPSJvb2PpQB332vKdVo+2YPBX0IPess3e38OOaGvMjqaANL7YD+HPpR9qy3asw3mB1oa877voKANVJ2lk2r8zHj/Ir0Dw74Z0vwH4eGveI1mlSR1is7GFd099Kfuxovdjj6AAk8Vzfwv0mGW7a+vGVLe1G9i3Q+n+fWsfxL8TpvEol8VNu23O+y8P28g+S2twcPMV/vSFS2f7oUdzQBofHP8AaGOmaZINZbdb4Vbfw9YviCPP3RK3WVz6nj0XHNfPXib4n+LPidrA0m1hv7q6yBHoejt5MNovpK698dh09e1VfG2p3WveJJPIaSS7WcWdqzZOJ5PvS59dvQ56mvffhZ4U0v4ReFU0/T0UzP8APd3BH7y5c9dx64B6Dp360AeI2/7N3xJEPnDS/DlmzciOS8zKvTOTk89e/em6f4v8Y/BTVI49WtLrTFb5RIJS9vP688rzzxz06Gvoa/8AFAxgE1yvifVLbWbGa2uo47i2mGHRuVYf4+/WgDmdGXSfH92dT0W/bwN4sYqDdWQ22V5IfupdW4+Rs4xuXDYPBz8tXNB+Mk2p+KLrwv4y05NC8WWaK7KrboL2M/dmifoyNjg9RyCARivN57H/AIQTXmVZGNlsYKm3cXiPVf8Aez+oz1rqfHnhKT4+/Cho7VseMvCqNd6NdA4knVOZLdj3DgdP72w+uQDb+KPg2Lxr4SvtJllaFbgB4Z4z89vKpDRyL7qwB/TvXw74gsvF3wF8a3nl3mpaHqE8ctu11YzvB9qhkBVwroRlHBwV9Dgivq34EfGpfiP4ViW4b/TIkAfd19s/5610viHw5p/iW0a3v7W3vImP3JYww/UVMoxkuWSuialOM4uE1dPoz4S8LeLNY8N22pW+l6teaXb6xbGy1BILloUvICQxikVSPMXIB2kEZAr7J+GmtXHjrQPBcaaFD4W8I+AdOktdC08KPtOoXc4H2vVLpsAtNNgKo6IgCqMAlpNI+DPhfw9ercWei6fDMDkMIBuX6cV03nLEu0dPYUKMU20tXuEacU3JLV7+fqW5rvIb5u/rVG5uc9m3fXpTJbr6VTup8f7uaoohv5zhuTzxXPatJuVv8P1rTvZxjtzWNfzBgx6496AOV1+23q31rqP2fvEH9leJUhY/LIdrZ75rD1SLzYm+veqvhO5bSvEEUino2etAH9LP/Bvb+0O3xN/ZT1LwXdzrJfeA77bEGfL/AGa4LuvHXAdZDn/bA44r7+r8F/8Ag39/aH/4Vr+2vpOlzOf7P8fabLpEgyNqzfLLE/1LRKn/AG0NfvRQAUUUUAFFFFABRRRQAUUUZoA/Lj/gtx8ZP7Z+Pmk+HYbpms/BOhtcTxgYVLu7YEg/7SwxQsPQSn1Nfjh8ZteOqa5cOW/1jk9a+2v2+fjbJ8VPiv8AELxW8hA8Qa3Otr82f9FgxbW/T/plFGeOMn8a+A/H12ZL6Tn6elAGTb3W2T1/Gtiwvsen0rlYbzbJj861LG/9D3596AOogveOuPT3qwt7nHzfTArDgvdw+8c/1qwt5x17fhQBrG8IPWk+04H3j0/IVmC9z3b1zmnfa896ANDzvrR52D1b6+lUVufy6deTSibnH60AWbm/WxtZp5GVY7eMyszfwqASf5Zrzv4da9Z+NfBS+JNUfUrO31CWV7aC1SEssKOV8yV5TjcxBOFG0Dua2PjBePb/AAk8TNGTu/s2fGPdCK898JXCx/Bfw7azQvNawmNLlFjMmVC7wpUcnc+0c8evFAG14i+Lfg3RtwCeLbjn/lk+nvn8A4zXifxn1zQ/FsEX9ix+ITNLfT31y+pRQRKpcKAkaxM5IGMlmb2A6mt7xr4WuZDqE15pMlkl4Q0cqyxTC0kC/KAI13KGYcnkAnHvXZeE/wBne48RW0btCytIqsVI+6SASKAPnCHw/M7/AHG/AV6L8G9O0vT7thri+IPJjfz7X+y4rd2EpXYfMExA27TxtOc9Qa+hdG/Y0klAZoj69K2F/Za/sVN3lfd9qAM7SvG3hFraOS4XxZbrM2F8+SzXcR14VW4HXPQetY/x9+I0Xwu8JWeq6HaXl1tvBHdxahLG6tEVJ+Ro1Uq2R97ke1N121h8KazdW9xcx2rIPsJhLmFmtpFBkmDBWLHPCgcDac5zXF/HTU1vvgvIqt50aS4hk8nyjLDHkK+09Mrj2796APcvD3iaHxN4b0/Urdna31C2juIy/wB7YyggH35596uG7zXn/wACvOsPhBoFvcf66C3Mf4B2A/TFdU13gnPTrigDU+15buD1Pt71JbXG+VVzxmsc3XH+PrU9jeD7SvPPT6UAbXxi8cSeGPhNJp9k2261bbaq2cbTIwTP61zf7SniNPAWmaXp8BeOO1msNHjK4HDuAzD0O1MZ965/426015NZ7dzR2U0U5A9EcMf0FVP2+7Wa/wDA97qFrllt7q01GMjnKHKZ+gLLQBmeGbxU8S2t1IVC2mqOZMtwu44BxzgHHAyB9TwPV5fGH+1/9evm/wAG/EaDVlj1BseTqSK0hx/x7zr3PtnOSOzH2r06zv5PEdqjWckf25V/eQPIF88dnjbo2eOB6/UUAdpd+L9w4fA7c1jan4mMjYVsc5AzXLXj6rDN5b6XqiyA4K/ZnbH5DH61bsvD91Gi3GteZp9rnP2fI+2XP+yiDO0HGNxxjsM4oAZ40uFbS7W4aRNxjkkHz7W25IXp0BOcHI/HoZf2aviFIfF01v5n/INltpV42ttmDK4bPUblB9a4L4xfEoajJ/Z9v5SzSELKIT+7tYl+6n/AcZJ74HcZLv2PXbxN4p8Taiv/AB7zXFnZw54yFLN/IZ/GgCfXNM/4Vd+0J4ktLRVhtRqUjIicKqPiQf8AoRr1qz1T7bbK3civMvi1L/b/AMefEk0PKx3giH/AEVTz+BrrPCt7m1VN2dvGc0AdI1wQPc+vaoZrosPl3VXe569OepzVeS64P60AWprn5s7j9SKp3VzkH69ahmuMdumMc9fpVS4ufm7jn8qAG3dz5gNZl3Lv/wAamuJsn+Kqcjs3HPNAFaePeGNZU0bQXat3BrdWMuP88VQ1S17/ANKAPoj9lD4rXfw98S+G/EenyGPUPDepQX8DhtpV0cMpz7HB/Cv6rfh/42sfiV4E0XxFpchk03XrCDUbVyOWimjWRD/3ywr+Qn4G6p+9ktWbiZcda/pS/wCCHnxtm+NH/BPHwmt1Ks194Tmn8PzkNkqISHiUjtthkiUey5oA+u6KKKACiiigAooooAK81/bE+KX/AApX9ljx/wCJo5mgutL0O5NmynDfanQx24B7EzPGM+9elV8a/wDBb34hx+HP2TtM8O5bzvGHiG1t2Az8sNvuu2Y+2+GJef79AH4wftBaiunaVZ6bG3y20Kp8vsK+YfGUn75zwdxOa92+OWs/2nrl02eh4xXgvi85Zj/KgDlzeiOXqfXNXbK/575z1/xrBvbgrKeo5ottS2svr9aAOwtdQ2gew7HmrI1LnqM9zmuWg1X5PvZY+narC6nuIHHuehoA6ZL9f9n1+tSpec9hzzisC31DIB3Z9KtQ3ynBz+lAG5Fc5GDjp07CpPtHAyRz69KyIb0MOW/Cpxdgg/TmgCbxDY/274dv7E7d15byRDPTJUgfrivmnxh8eNa+Ffie80PT7PT44bEiJjcRNI0hGcN1GPlYLgcHbnvX0mlz6H26VZPhXT/Fkfm3FrbzSJ8r+ZEGI/PsetAHyna/tfeJLeZXNjoMhHrbOM/k9fY//BOb4uXH7R2l+IBqel6ZZT6A0AV7QOqyrJvwCGJ5Gw8g/UViL8HdEdgx02xJz/z7of6Vn/sdeJ7b4WfEv4qQxLHawyawkSKoCqFTfwAPTd2oA+37LwtbwwDEa/jXzL/wUY/al1L9liDw1ZaDpekXl54gSeeSW/jeVIo42CbVVWXkk5yc12EX7UTNcLC2n30cZYr57SReWB/e+8Tj8M818y/tx+MY/ix8evhZDhbiKF2R1I3KVNwhOfwFAHkGuft/eOtcdmaHw7b7u0Wn4x+bGuX1r44+K/ivbzaTNb217LqQWFBb2u2RcurHbt9doBznjPTrX2gnwv0j+Gxs+vRYEH8hUGt6Np/g/TmuI4YknfKRKqgFm9eOw/woA5zQbdtG0KytZAqS28CxyBfmUMB8wH455q19sw3X/wDXWclwVPU56596Sa/S2TdJIsa5C5YhQSeg+tAGmbnj73tSpeeWdwxWP/bEIB/eduuDQNSjuPMCOrMq5YA8gepHWgCjqd+t94pWCb/VTKVbPeu01nTrfx/8MG02/wASG0t20u7z/FCw/dSfhhTkd1NeSfEC+k0y8iuoy2UYNmt/RPiqY7aHULfy2mjTy5Y3PyzJ3Q+mex7GgD5csdSvvhd4lvtLvoc/Z52guYc4KshIJQ9unXoRXe6B4/Vof9BvIZowdwjK7WU8fwnkfhx711nx4+Flj8arFvEnhUrJqtmipe2LHbMVAwu4f3gOA3RlA5yOfnW9srjSrtobiGa3njOGSRSjKfcHmgD6Fh+OeuWKeWsl/HGo2hEuXCj6DP5fjVHT/EPif4reLrPw/otu11rOvXItLW0hYGa5lc42BmIx6lmYKAMkgc14UNVugMfaJ8enmGo1mkaXcGfew25zyQRjH5cUAd58bLF/h74pu/DcWr6TrF1bhU1C60uf7RbrN/HbxzD5JVQ/KZI/kcg7Sy4J+k/gfotr8BPhLDeXyFZNLg/tC8Ur88l3KBsiHqwyifnXiHwC+Dy6fMvibxAsdraWJEtvHcjbHuHSRweuP4UHLHHbg97rfiy4+LGs29rbrNHodjKZIUk/1l1Kc5nk9+TtHYH1PABoeA9LuL63uNSvvnuLl2nlY93Ylj+prf8ADc+JSAfl3d6frDQ+HNAS3X5XYc4qp4cbZDuPHHpQB0E1xuXHp196qTXOR16c1BLeZwNx4qlPec9aALctxgdeOmPWqk92A3XHbiqk95z2A9h1qnLd5flvpmgC5Jcb6ZG29/73H0qosoY8YyfWrlmu7v8ArQBctYvMGO3vUOp2mU/qK0rODK/zyKbqUH7rgUAQ/DjUm0rxFGc7fm5r9wP+DZX4yJF4g+J/gGaZt11Da6/YxluAEZopyB7maDp/dNfhXYSNaaqjZxtav0i/4ISfGj/hWn/BQ3wC0jf6H4qguNBuDnqZYz5X/kYRUAf0RUUUUAFFFFABRRRQAV+YH/Bez4ltP8XPA/hcYWHQ9CutZkOPvvdTCGPn/ZFrJ/33X6f1+Iv/AAWK+Jz+NP21viAPM3QaAlloVuQeix2yTOPwmnloA+C/H9ybm4mYktuJ5FeQ+NF+981eqeLW3ux6968r8ZcMxxw3AxQB5/q77Zsnr/Ws37btbt+ParevyMkrdM1gXF1zQBtwanj645FW7XUNx+9nvz3rlVv/APaz6VetL78eOKAOttb/AAPve1XYb3djDHrjnrXL22oYYdevStCHURuweD069qAOjgvcbef/AK1WYrz3Y/jWBFfBT/te9WYdQ3H/AOvQBuLdEE/3vUHrVnTdbm0u5WaH+Hh1b7rD0P8AjWCl8pX7y5z3p4v19fyoA9Y8Na5Z+IkBgfbMv+sgY/vF/wDivqK+V/jZ8Tbr4P8AxJ1WGGxZptQv7qeffJsyPOIXHfOOcnIwR716d9v6MvysvKlTgr9Kz/G2kaf8RRGdesbXVpIVEcc86kTxr/dDqQ2PrmgDxtv2qZ3jwtnc7/Q3AC/ntrW+DHjhvir8bdDW6jh861WQwKshbuhxyBluCeO1dB/woXwbv3DRm+n22Xb/ADz+tdF4R0DTvAEjSaLZWelzSKUM8K5mKntvYlhn2IoA968TeLtP8HWn+lP5l0w/d2qEea/pn+6Pc/gDXl+u+JrjxFqLXF0w3/dRFPyRL2Uf49Saw3u+WywZmOWYnJY+57mmyXixLubaq+rHigDQ+0fNx/8AXNZOh/tQWfwL8cavPc2aS6lCsdvYSyoHEEZjDuyA8Kzs3LDnaoAIGcuj1COVWCyI3POGDYrmfiR8LNL+JgikuJJbS9hG1LiIBiy84VlP3gMnBzke4oA6DUv+CoXiiK+ZbVoHt2EOx2UExnd+9z65Xp6Guf8Ai/8Ats33xYntVjhjlvLGQTQTbPmUL95CRzsZcqVPByD1ANcW37Lunxt+88QSL1wDbqCf/H62fBHwL0XwbqseoSag+pSRndCkgWOHcCCCRk7sHnBOOKAO38a6euo2rrtKq3zAE/cPp9RXkV9rNz4TvXjy3lMfwr2O4voZ4DukhZW53bh3OM1xPjfwtDrUTFWjY5wHUg4+tAHmup+NLmx1FNQ0+7ns76H7k0EhVx7ZHUH0PFXJP2iJ9ft1h8TaHpPiApwJmj8mb6llGP0FYXirwjdaXK2FYrnANcxPA8T/ADLQB3q+KvBN8+7/AIRe8jbuq3g2j88VraT470nRfm0nw/p9nMOBLMfOk/l/WvLIVcP8ua3tGtpJGG7cB3oA75tevvGd9G17cSXHln5EPyon+6o4H869I8GtD4es/Mb72O/Y15h4dZbRR3bvXWae1xqHyszKvXGetAHT3Wqya/f+YxbaDxW5C/2W2Vfm9TznmsfSLVbGLc2M9hVie9HPSgC1cXf8vWqc11k56n0FV5b0f4c1WmuQB6596AJ5rnJ7/Sqslx82ffrUctxuPOfTrUQfdxzn0zQBctn3yVt6VHuf2rn7Fv3i989RXTaMmQOOPQUAbNnDx0NM1KLMZ/Q1ctIsR0zUI8Qn5aAOPu/3N0p/unvXvv7KHxauvhD8SfB3iy0maO48K61aakjK2MeVIr4Psccj0rwTWF8uc+x49DXa/DW/J064j9E3Ae45/pQB/YXZXkeo2cNxCyyQzoJI2HRlIyD+VS14x/wTt+Js3xi/YX+FHiK6+a6vvDVmlw2c75YoxE7fiyE/jXs9ABRRRQAUUUUAGa/nP/bB+JLfE74u+NvEOfl1/wAR6jfRA9fJa5k8oH6R7R+Ff0IfFbxpH8Nvhf4k8RyY8vQNKutSfPpDE8h/9Br+afx3fyPptmkrbpvJVpD6sRkn86APO/Eh3q2NvTNeX+M9uH9M/lXqHiA4ib5gOPSvL/GmFVvYk9KAPMvEJ2yN0znnHauWvLjDt81dN4mO1m/L3rj9Rbk4z9aABLr5uu32q5DebAF5+maxjPg9/WlF7j296AOjj1IRnqOemT+tT/24IiMMPTIrk31fy+/XqR3qrPr3ln7w96AO6TxRtABK+hyeKmg8Urn/AFi15rN4kMZ+8Pz4qP8A4S0g/e780AeuQeKFbjcuPfvViDX/ADF+8P6V5LaeNFjK7pVXPb1/Cta18fx2kWWS6k5/hiwD+LYoA9NXVdw3BvQ0/wDtA5+9gjtjmvM3+MkdsPl028c4zlpkXP8AOoX+PTRnjSH/ABux/wDE0AeoPe/z6U1rvjhuSD9a8v8A+F+H/oEt/wCBY/8AiaX/AIX0xH/IJPXn/Sx/8TQB6a15u6HP0qSz+KsnwpuBqkWl2upSODahp7Jb1LDfz5/ksCrEY2jION3rXlv/AAvhh/zCf/Jv/wCxpy/HmRGDLpZ+ou8f+y0AehX/AO1BceKPEOm32paBBeQaZKoWGDREsrW4jwXkMiRIpcLhQc8nIC8Zqn4f+K8fifSH0630BluLiR72O6uC0EtntYIYA5G1kZSGwR2yMGuLb49zH/mGyH63nT/x2hvjvJL97S2YZzzd/wD2NAHp1r+1XceDEmhsPC+k6bDdy43yaOupbBbjyuPNRiPN5kLcZNTH9ru708NdDTdF+3aoySSzP4TifZEgKJGsZiKRrnLEqAzHk5GK8sT47yof+Qa3zDqLzr6fw0o+PEw/5hr8nJ/0z/7GgD07Qf2o9WN+b7/hFdLur6RpdTHnaVCkeJALQKItmwKijzRHjGcnGSTUniz4u33xBvo9J1jS9Ht7rTQ1zDf2GnR2gu4nwrRnylVTtYZww3ZPHFeVj44yN1009c83ff8A75pw+NsgUr/ZY25zj7X/APY0AdRrHhmO/VsAN6qRzXJ6v8MoZ5D+62+46U7/AIXU3/QL/H7V/wDY0v8Awud2Azpa8f8AT1/9jQBlR/CyMZK/d7nHSrmnfD9Ij/F+VWf+FxsOf7KXp/z9D/4mj/hcnl/8wvt2uRx/47QBt6V4VW3CkqE92rXt3hsIxtwT6kfyripPjPGfvabcgf7Eyt/MCoH+Lumyk7/tVsT2ePcB+IzQB3cutg9WB+tVZNe3n73P1rkY/FEOpput7mO4Xq21sn8R1qOXWsHlvfmgDrm1vJ5YfWm/2lu7jDetcpHrW4r83fIzVuDU8n7340AdGJ9x/hqaJsnj/JrHtrzJA4I+nWtS0fcy46fyoA07Nd7LgdO5710+iJkD09+1YGmDeR7102jLtxnt7dKAN2yT5F+UUzUh+6PNT2Y+Xt+VM1D/AFfegDivEagSsff06Vt/C+923u0kfNxjtWL4nHzds/Sl8A3nkaovPftQB/Sr/wAG6vxHm8df8E1dI0+eTzH8I65qGkDLZZVLrcgf+TOB7Yr7qr8n/wDg1f8AiPHe/C74v+EfMXfpes2WsJH3xcwvExH/AICqK/WCgAooooAKKKKAPDf+ClviI+GP2BPi1cCTyWuPDV1Yq/8AtXC/ZwPxMoH41/PV8Qrrfqe3O7aoH04r90f+C3XiyTwz/wAE9PE0ETKr61qel2GSM/Kb2GVv/HYm/Wvwb8XXXnavJ7HigDnddP8Ao7c15h41GC3p3HcV6drRzA3Xpwa808bD5GPOM/lQB5T4l5dueOnuK4/V2+c9eK7LxQNsjANx0rh9Yf5m7f4UAZtzPsHaqct+FHao76427j/I1l3d8R3waALk2qYP3uvcVn3Oq4J6CqN3qHzVRnumc0AWbvVGDferW8EeEbjxbI1xNM1pp6nBkA+aUjqF7fVjwKxNL0z+1b1VcssK/NIw6hf8T0FfRH7D/wCxR8Qv+Clv7Ruj/CH4aWcf2i6jM+pX0mVs9FsUKiS4ncAkRJvUY+9I7qi5ZwCAeVprUMusW+h+ENHn1jVr2QQQx2sTzy3Mh4CoFBeRiey4B7V9wfsz/wDBsh+2d+1bpUOqX3hXS/hlpN3hkk8X3/8AZ85U45NrEklwvXpJGp4Nf0Lf8Euv+CKfwV/4JV+B7eLwbosWu+OpoQmqeMtVgSTVL1ioDrEeRbQHtFEQMY3NIw3H68oA/nR8Jf8ABkP8RdRijbxD8ffB+nyMB5i2GgXN8FPcAvLDn8QK7qz/AODHGywv2j9pC63fxeX4JX9M3tfvpRQB+Cf/ABA4aP8A9HIal/4RKf8AybR/xA4aP/0chqX/AIRKf/JtfvZRQB+Cbf8ABjjpP8P7SGpfj4JT/wCTahP/AAY4WGeP2kLz/wAIlf8A5Nr98qKAPwMP/BjjZY/5OQus+/glf/k2vzG/4Kgf8EOPjZ/wTX+M2r6XdeFvEvjL4fxybtI8ZabpMkljfwEAgy+WZBbSg5Vo5GBypKllIY/2WUUAfwCyxtBIyOrI6EqykYKkdQa774CfsqfEz9qTxXa6J8OfAfizxpqd3IIki0jTZblVJ4y7qNqKO7OQoGSSBX9zmpfCfwtrN41xeeGvD91cM24yzafDI5PrkrnNbGm6Va6NZrb2dvb2tvHwsUMYjRfoBxQB+APwj/4Mh5Nd+G3h++8afHi60HxNeWEM+raVYeF47yDTrpkDSQJObtfNCMSu/aA23IABrovE/wDwY9+Hl8M3P9i/tBa02tLE7W4vfC8a2ssm07FfZcFkUtjLDcQM4U9K/eSigD+VXWf+DQj9rTR/F620Wl+CtW0mNlD3Vp4oiTzR3KiWNGH/AAJPzr6M/Zz/AODJbxJ4o8GSXnxS+Mlj4R1qS5bydN0DSv7XRLfA2mSeR4AJSc5VEZQADuOcD+h6igD8L7v/AIMffAr2IWD9oDxdHcd3k8NW7xn/AICJwf8Ax6sG5/4MctLz+5/aQ1DGf4/BKdPwva/e6igD+e3xT/wY869BltD/AGi9LuOOEvvCMkOT/vJdv/KvCfjj/wAGbv7Unw7s5rnwj4i+G3xCijBKW1tqkun3knsFuY1iH4y4r+oiigD+FD9pb9j74rfsWeOv7B+KHgXxR4D1jkwrqVo0MdyB1aGUZjlX/ajZh71yFh4zmZQl025u0nf8f8a/us+PP7PPgf8Aah+Gt/4O+IfhXRPGPhnUl23Gn6parPET2dc8o4zlXUhlPIIPNfzN/wDBfv8A4Nwb3/gnHbXHxU+Er6l4g+DFzOqX9tcsZr7wfLIwVFlfGZbV2Kokp+ZWZUfJKu4B+ZNr4g3YG70NbOn6uXAO73615+VktFV/mXB2sD2Naul60wx83JoA9IsNQ8zChvoa6LSbjzQPf1rz3RtU3YO6uw0W93hfTpQB3GkNuC/TpXUaWOFPNcfos+8AdNo9K63SpsqDn0oA37ZcjFR6i/y0Wz8e9RajJ8tAHJeJnyGx94d8day/C9z5Oqrz361e8SuMN/nNYOj3OzUl69e1AH7Q/wDBrF42jsv2pPidoLMok1jwtb36ZbG77PcqhwO//HzX7h1/Or/wbdeKm0f/AIKf+HYFbjXPDep2Le4WIT/zhFf0VUAFFFFABRRRQB8O/wDBwBqi6f8AsUaLCxH+meL7OPGeTtt7uT/2Svwy1i683U5Cf7xNfsj/AMHH+sta/Az4Z2Qdgs3iO4uWQd/LspVz+Hm/rX4tz3fmXrHPO6gB+rNmD6j615x41OEYivQNSlDQt2JFeeeNZcq3f69qAPKvFhwzDsMjFcDrkn3q7rxc+1mU+/evO9fmwW9Md6AMDU5/vViX158vWrmr3OB6HNYN5c+Y/WgAnut9SWkXntVOLmT610GhWSorTOP3caln9CB/j0oAmhgaAR28at5shDOApJyeg456H8zX9a3/AAbtf8EtLX/gm5+w3pd5rmneR8UviXDDrfiiWVCJrFWUtbaed3K+RG53j/ns8vJG3H4bf8GyX/BPWP8Abw/4KJafrniC0jvPBPwrCeJdYikLFLudX/0K2IHHzXAEhV+GjtpRjmv6x6ACiiigAooooAKKKKACiiigAooooAKKKKACiiigAooooAKKKKACiiigArI8feAtG+KXgjWPDfiLTbXWNB1+zl0/UbG5TfDd28qFJI3HdWUkfjWvRQB/Gf8A8Fkv+CaOof8ABMv9tzxN8P2W4uPCeoH+1PC2oSox+1abMzeTucjDSxlWikIxl4WYABhXxvl7SZlPDKcEV/WZ/wAHQ3/BPKP9sn/gn7d+NNHsY5vG3wdMuuWsihvMn00qPt0PHUBVSfkHH2YgY3nP8oviqy8m6WYLtWYc/wC8OtAFvRNWwy8n/Cu30DVd235uPc15baXDQS+xrrfDeqbtvzfjQB7B4fvt23pxiuz0e6yvX06CvLfDuqZ2c+55rutEvyUXn0x2NAHbwXXy1FqM+1f6ZqjaXwCdccdc1HfXYWPhunX3H1oA57xHNnd/Oucsrjy79cHvWr4guN2769K5yCfF3nrz0oA/Qj/gg542bwj/AMFTfgvOu3bfXl9pzk+k1hcRj/x5lr+niv5Nv+CT3iI6R/wUN+Atwsmz/iudLgJ9pbhIyPxDGv6yaACiiigAooooA/Ln/g5i1E23hH4RQ/wyXOryYHqsdqP/AGc1+Nwvc3Tc9T61+w//AAdARPB8PfhHeAfu477Vbdj6F4rZh/6LNfi3BqublvrQB0F9dfufbHPtXAeMrn5GO7n/AD/niunvb/Nq2T27964HxlqWEb5un40Aed+L7naWH1rznxHMNzdcD3rtfF18Czdc8nHpXnHiG6+8fb1oA5/Vrrk/X8qymbc1T6hN5kp7f1quo3NigC9o9k1xMOO+K3tcH9m6RDbqu6S6YMVA+baOn5n+VTeC9Aa4ZePz6Cvef+CX37Gl1/wUc/4KMeAfhrbQtJomoakk2syJIYjb6VbfvLqQMOjGJHC+rug6kUAf0f8A/BsV+w9/wxx/wS88NanqVrNb+KPipKfFWoefEI5YreQbbKPjnb9nCzAHkNcuK/RKq2j6Pa+HtItdPsbeK1srGFLe3giXakMaAKqqOwAAAHtVmgAooooAKKKKACiiigAooooAKKKKACiiigAooooAKKKKACiiigAooooAKKKKAIdS0231jT7i0uoY7i1uo2hmikXckqMCGVgeoIJBFfxd/wDBW/8AYpm/YS/bl+JXwxMNxHpei6k15oTyjJn02b97atu6MfKdVYj+JWHBBA/tKr8Rf+Dxj9hD/hLfhX4K/aE0WzRrvwpIPDXiZkHzSWcz7rOZu22OYyxk9SbqMdF4AP5vT1rS0O+MMoXdjmqup232S9kTsDx9O1QxSeW+aAPTvDWq5x+eK73QdV+6fpk56e1eO+HtT2Mp9snBrudA1baF9/egD1Cw1QbD83U/SnXmo5X73Tn1rl9P1cBF+bPrVibUPl569aAK2vXfXiueSfNz+NXtYvdw+grDjuQ0/rzQB9Tf8E2tVNn+3L8DG/u/ELQAPx1CAV/XxX8ef/BNRmv/ANvP4EwJuLSfEPQD+WowH+lf2GUAFFFFABRRRQB+b/8Awc6+DRqn7DHhnX1LCTw74th3AdDHPa3MbZ/4EI6/ABPEAjvG+bNf1B/8FjvgQ37Q3/BNj4raJBbPdahp+kNrlikYzI01kwugqf7TrEyY778V/J3f+J/s2oMrN0brQB6ZeeIN1v8Aez3rh/F2r+Zu5+7x9ao3Hi4CDhl9ODXL+IvESyBsSAc4x60AY/izVPvHPc9K8916/wBzHHp1rZ8T69vLfNzn0rjr27a4kNAELvvbNaHhvSX1S9AVc4NUbe3a5k2r1NerfCTwKZWRmTdz3FADdcQeCvA0sw+W4uv9HgPoSPmb8Fz+Jr99P+DNn/gn+fhl+z34t/aB12zCap8QpjoXh7zIvni022k/fyqx52zXChMf9Onvx+Gfw6+COvftr/tZ+C/hX4Nh+06l4k1SHRLE/wACs7fvp3/6ZooZ2PZIya/tK/Z6+Bug/sy/Arwh8PPC9u1v4f8ABekW2jWCMcuYoI1QM5/idsbmPdmJ70AdlRRRQAUUUUAFFFFABRRRQAUUUUAFFFFABRRRQAUUUUAFFFFABRRRQAUUUUAFFFFABXA/tS/s86H+1p+zl42+GniRf+JN420e40m4kCB2tvNQhJkB48yN9si+jIprvqAMUAfwk/tQ/AzXP2b/AI2+KvAniS1a117wbq1zo99GVKgvDIyblzyUbG5T/ErAjINec1+4X/B5J/wT9b4b/Hrwx+0Jodnt0b4hxpoXiJk6R6rbw4gkb0821jCjHe0Ynlufw970AamkzMpWus0TUfLx69K5nR7XzlX9Qa3rGzZOlAHXafqmVX5vr7VoNqOR1965ezdkHetDzmxzz6YoAk1O9z9cZ+lZaXObgVJdsz+uKz2lKS/jQB9pf8EPvA1x8Vf+Cq3wH0m2jaVrXxTDrEmF3BY7JHvGJ9tsB5r+uiv5rP8Ag0L+AM/xQ/4KF+IvHr/Lpvwz8NS4Pc3d832eJfoYVuz9VHrX9KdABRRRQAUUUUANkiWaNldVZWGCpGQR71/IH/wWj/Yu1D/gnn+3h4w8Ftbzx+HLyc6z4ZuJBxdaZOzGLBHUxsJIWOBl4HOMYr+v6vhb/gvH/wAEhLP/AIKsfsu+ToX2PT/it4LWS78LX8xCR3W4Ay2Ez9o5dq7W/gkVG+7vDAH8mj+NCibS2fTmsbVfF25W+aovjF8MvFXwK+Jmt+DfGWi6l4b8UeHrprPUdNvojFcWsq9mU+oIIIyGVgQSCDXLM5brQBZv9Sa8kP8AdqCGFpn2imVp6NCuR9335oA3PBnhbz7mMsPSvR9Z19fC/h5rOzYC6nTaXH/LJehP1I4FcTpOufYUwpXPrX17/wAEjv8AglF43/4Kx/tARaPpkV5pHw/0O4jl8W+JmT93p8J5MEJIIe6kXIROdud7fKuCAfol/wAGfH/BNaRdU8RftO+JtP224jn8NeCRNGCJDu2318hPI27fsysOu66U9K/e2uZ+C/wc8N/s9/Cfw74H8H6Xb6L4X8K2EWm6ZZQj5YIY1CqCTyzHGWZiWZiWJJJNdNQAUUUUAFFFFABRRRQAUUUUAFFFFABRRRQAUUUUAFFFFABRRRQAUUUUAFFFFABRRRQAUUUUAeG/8FIv2JdF/wCCh/7Ffjz4S600dv8A8JNYH+zr1l3HTb+JhLa3A4JwkyJuAwWQuuQGNfxM/GH4SeIPgJ8VvEfgnxZps2j+JfCeoz6VqdnL963uIXKOuRwRkHBHBGCCQc1/exX4y/8ABzt/wQK1L9sqyk+P3wZ0f7Z8TtHtBH4o0K2T994qs4kAjngA+9dwooTZ1mjCqvzxokgB/N14YulY+WTXcaRpq3SLtwxbtXmSmbSb5ldXhmhYo6ONrKQcEEdQRXaeEfGixsu76UAdxZ+E2kUfL146VYfwbJGvK+3Aq94e8X28m3cy9K6WLW7OeLLOv1oA881Lw+1umWB/xrltbH2Mt6jtXo/i3VrYIyqyk461+gf/AAb7/wDBDTVP28PjFpXxa+Jeiy2vwT8K3S3VtBeQ4HjS7jf5YI1P3rRHXMzn5Xx5QzmQxgH6v/8ABsz+wLefsR/8E4NL1TxFYtZ+NPixcjxTqccsJjuLO2eNVsrZ8/N8sI80qwBV7mRe1fohRjFFABRRRQAUUUUAFFFFAHyj/wAFKv8AgjL8C/8Agqd4cVfiN4dks/FVnCYdO8V6M62usWS84QybSs0YJJ8uZXUZJAUnNfiZ+1p/wZe/Gz4dapcXXwh8ceEfiRo2WaK11QtouqKOy4bfA/pu81M/3R2/phooA/jH8Y/8EAP2yfA+pta3X7P3jy6ZXKB9Phiv4mx3Dwu4x7k1ufCD/g3W/bM+Kutx2tt8D/Emixu217nXZoNMhj9yZpFYj/dBr+xyjFAH4F/sI/8ABmffQanaax+0N8RLMWke2RvDng1nZ5u5SW+mRdo4wRFESQTiRcA1+4XwC/Z58EfstfCzTfBPw78MaT4R8K6Su2107TofLjUn7zsfvPIx5Z3JdjySTzXZUUAFFFFABRRRQAUUUUAFFFFABRRRQAUUUUAFFFFABRRRQAUUUUAFFFFABRRRQAUUUUAFFFFABRRRQAUUUUAfnP8A8FWP+Dan4H/8FLtcv/GVg1x8Lfihehnn1/RrZJLXVpMcPe2hKrK2esiNHI38TNgAfi/+0p/waVftZ/AG/uJvDGleGPirpKE+VP4e1RYbpl7b7e68pg3sjOPc1/VxRigD+NOD/gij+19YXIhb9n34pBw3l5XSGZc/7wJXHvnHvXvX7PH/AAbP/tifG65T7d4KsPh/YlwrXXijV4rcKD38qEyzcf7lf1ZUYoA/JH9gv/g0x+FvwL1jT/EXxm8SXHxZ1m1xKNFigNjoSSdvMXcZbgDjhmjRuQ0bDiv1k0XRbPw3o9rp+nWlrYafYwpb21tbRLFDbxIAqIiKAFVVAAAAAAxVqigAooooAKKKKAP/2Q==;" parent="1" vertex="1">
                    <mxGeometry x="1370" y="780" width="271.92" height="189.5" as="geometry"/>
                </mxCell>
                <mxCell id="102" value="" style="endArrow=none;html=1;fontSize=16;fontColor=#FFFFFF;exitX=0.5;exitY=0;exitDx=0;exitDy=0;entryX=0.565;entryY=1.001;entryDx=0;entryDy=0;entryPerimeter=0;strokeWidth=5;" parent="1" source="101" edge="1">
                    <mxGeometry width="50" height="50" relative="1" as="geometry">
                        <mxPoint x="1380" y="730" as="sourcePoint"/>
                        <mxPoint x="1504.6499999999996" y="621.3099999999997" as="targetPoint"/>
                    </mxGeometry>
                </mxCell>
                <mxCell id="103" value="USB Cable" style="text;strokeColor=none;fillColor=none;align=center;verticalAlign=middle;rounded=0;fontSize=16;fontColor=#000000;" parent="1" vertex="1">
                    <mxGeometry x="1410" y="680" width="100" height="30" as="geometry"/>
                </mxCell>
                <mxCell id="104" value="" style="shape=step;perimeter=stepPerimeter;fixedSize=1;rounded=1;strokeColor=#2D7600;strokeWidth=3;fontSize=16;fontColor=#ffffff;rotation=90;fillColor=#60a917;arcSize=14;" parent="1" vertex="1">
                    <mxGeometry x="331.25" y="363.12" width="107.5" height="118.25" as="geometry"/>
                </mxCell>
                <mxCell id="105" value="Remote Control&#10;Receiver" style="text;strokeColor=none;fillColor=none;align=center;verticalAlign=middle;rounded=0;strokeWidth=3;fontSize=16;fontColor=#FFFFFF;" parent="1" vertex="1">
                    <mxGeometry x="355" y="407.24" width="60" height="30" as="geometry"/>
                </mxCell>
                <mxCell id="106" value="Xbox Gamepad" style="text;strokeColor=none;fillColor=none;align=center;verticalAlign=middle;rounded=0;fontColor=#000000;fontSize=16;" parent="1" vertex="1">
                    <mxGeometry x="1410.96" y="930" width="190" height="30" as="geometry"/>
                </mxCell>
                <mxCell id="107" value="" style="endArrow=none;dashed=1;html=1;strokeWidth=6;fontSize=16;fontColor=#000000;entryX=0;entryY=0.5;entryDx=0;entryDy=0;exitX=0.5;exitY=1;exitDx=0;exitDy=0;fillColor=#60a917;strokeColor=#2D7600;" parent="1" source="104" edge="1">
                    <mxGeometry width="50" height="50" relative="1" as="geometry">
                        <mxPoint x="650" y="750" as="sourcePoint"/>
                        <mxPoint x="1125.25" y="869.5000000000005" as="targetPoint"/>
                        <Array as="points">
                            <mxPoint x="250" y="422"/>
                            <mxPoint x="250" y="870"/>
                        </Array>
                    </mxGeometry>
                </mxCell>
                <mxCell id="108" value="" style="shape=image;verticalLabelPosition=bottom;labelBackgroundColor=default;verticalAlign=top;aspect=fixed;imageAspect=0;image=data:image/png,iVBORw0KGgoAAAANSUhEUgAAAggAAAEYCAYAAAA5wg5lAAAAAXNSR0IArs4c6QAAIABJREFUeF7sfQd4nMXR/+96kXQ6Vau6yRUbV7BNsTFgjE3HYFqAkAQ+ahJ6CYReDCQhQIDQDeEjVBMCmJCAOza49ypZtno/3el6/T8zu/veqdgy4Hwkz19vHmJJ996W2dmZ35Sd1dXW1ib8fj90Oh3/l56eBrs9DX1PHwX6KPDjUSCRSCAej/N/9DP919NzoL//eCPv3jPJla6Pkjd6vR70X0/v/CfNoW8sfRT4/5ECuvvuuzexZMkSpDmBgD+Mi+f+HHPmzEE4HAYBB4vFAqfTybQJBoP8e9fN3NraiqysLN7oB3uUsDMYDKDvULvUpslkgtvtRnZ2ttY2tUXvezwe2Gw2dHR0IDc3l8dF/ft8PlitVhiNRv6ZBCWNTf1M30lLS0NbWxsyMjIQCoW4PfobfT8SifBQqY2+p48C/4kUSFX+/w1A4LvQMFWG9IGD70K5vnf7KHBgCpB+pP9ID/br169XUsViMe0d0svdgPwTTzyeICWptwaxrXoZJg44FzNnzmTF3NjYyJ0VFxfzfy0tLayoS0pKWCGnp6dze/QeKWFqhxS+3W7nz+ln2vwENOgzUuD0d1LqmzZtwqhRo1BfX8/f3bp1K8aPH8/tqb81NzfD6/UyMKisrMQpp5zCv0ejUVb8DoeDwcO+fftAEyXAQZNUFklOTg62b9+O4cOHg9qifuk7gUCA+6H3CJT0PX0U6KNAHwX6KNBHgf80CpBuJX1lNptRVFTU6/DIECa9S/p12rRph/Q+6Xhqn/RzN4Dw0EMPJlavXo2jjjoK1a6tmDJ6Fs4880xs2bKFFTsp4yOOOIK/R1Y3KeOxY8eyQibFrR4aFE2EAAB5EwgYEJig75CHgECDQiik3Emx07+k1JVHgCx8+vuuXbtYedfU1PDn1M/evXt5XNRPU1MTK/ry8nIMHjwY7e3tPB7qj/oYMWIE96vcl/QZzYMAArVPP9N7LpeLx9oTcuqVsn0v9FGgjwJ9FOijQB8F/o0UIH1HepF02aF4u5WuIw/CoRi/1D59h3RgT+3rHn30kcQXX3yhuevnzp2L8847/9845b6m+yjQR4E+CvRRoI8CfRT4T6eAbunSZT1nP/Uy8lg0wnH95COboX+0nCT1g+oiNVkp5UVKwKKPevhuAgnZXNdEp9SXu/bdtR8a5QH65gkcbCw9zEGNtRONDqUN1VfX8aSSUdJC+9Mh0pDnkDqVnmkgRtmJ0Clf6swK4i0xWf4k5WvJ1rsSI+V9jeopY1Fr3Yl2qXPsntAmOu7MaWJcYlCcv5fytZ5aEG8mx9p5/KnrovrpgV+6rbvqWNJHo5ekGC2lLjn6A41LrIiYo6J3ckKHtq49b9fOrabSq/dxidFyC3Ie4vtd+FGj/XfZc2JOtB7Jb4l1/K7jogYOSLOUPZTk+657L7mG6vUk338X/upMr+S4UltN6bvXfUCkTmEebXMffB90p1+qYJW8pNN1SnoVIz/QuvbwWbdxdZ5jZ05O8k/y7wdSOXIfyCU5+Li+D7915ZWUcRyy7umZX1TLmqxM4T0hb3t6DjTfg4+rZ4nSgz7stK4Hk3GqP95MncSt7sSTTu42ektaBNZMHzoaMxCPdU9coK487nbU11ZBBz1PP5GIy+Goba9DQgdk5OgwZKIRvg6gcn0EUcYURJg4hxZon6QmYOml+oIuuRAsALSBK2GagE6n58lQ30rk6CESJalv/k48AYPRiHg8JhVcyuaQmkXHfelFtrgmqGkeeuiNwLBJepSvjyEa1NFr4uEOk4JdiDuiRWrGeYJaEGPR9lACOr38g9g7YmsSLShjXb4nhi9oqPrjZHBJBzVfo9GMWDTaKw04EYzkjcyGJ9rpeL6KH5hYGnOo9+WXNPpKfSG+lco5colAa8L9KH6Q27zLWqv58XxSx0WzlgIs2XzyJ8ELin5qtSQ1tNdSxqYpEB0StHbEKwlAL9sgOqSeEkilO8tBblPyNLVFTWsCVnUo155OAsn31frIX5P0SpHXQrGpNRbjIh4ifhS8nUBcO73QOy8xD/H7irEEX9PfmWJyvbWF49fkHJgRxeAEdeU6Qo2L1oVeIXp13e8pe46aUUzdbc+KMQjEIb7DfHagcXWSW6qx5LjURhesLWgZ1/guRWSnyALoFS3UhkzKEw1pMr1Ef9o6KvDCk09uZ5FgSbxuYJIleUlHXUmSEs3izOddZZ7Gb0KcaJtdyTxnphNnnn0O6F/6/KMFH6K6aj+vQ6YzC5f/9KeCDJKu5C5esWIFtmzZjDgloMnh9u/fHzNnnor09AyWKTU1VVi6ZAkni/MYuvAb5YUNKRuCTZs2cvv/c/U1sFisPIZt27ZiyaJFiMcTSEtPw+yTj0D/IgfLdHohEjNiw/YWfL1iXQqpxECcWRkYMqgIa9bt5HbT0myYMHYoVqzawjyRQEzuA8lv0GPihNGYNL4YVlME0bgRG7e14ts1mxGihHU5d6KryWzG2bMmYEBJOu+bpOgUC9bcFsa/lmyH0WRDYWGxZlyoPa5kgvoiszELC5KVYmlIQieXSRlzQsazPFUoV9uDmhDhzzZt3AiT2YRRo47U5J4wgolfkgJejSlVVmnjknNrc7lQWVGRIo+ErFLySjOt5RA02Z+iW7QtKscgRQD/xuM6ecYpqWKeiWA0x9B/fCti8QCq1pfAYAkgGrBDSFjxeNwu1FXvl8qNQIRgDsXnvI/0Ohw7x4SAN45gQIcOVxy1W0TWZIIUtjxaSQNnBpXzc2Zlwev3sVKPR2Nym6q2pcWYIIAhhF+KmtV+JCFuNBrw4EOP4PPPFmL5iqXaIncXSKS0qf/ObXGPemDcDBNyBwBrP4vA1w6ECeTI5M+kQFZtKAopJSbAigIFiXjSQ8AAgOigNmgKPBCML0ieP0CPgWPo5IUO9eVRNOwRhMrLzcVv738Qf337bXy76mupzJLkIBqw/KU+pRlIjE5Mzroy1YLTwIJiBwG1iEmE0JXKTwo5tdAEarglXofUUywa9GGlTJtfKVyhFORyC+kkKB+PCQUkFbHgB+VDisu/C+FNwigJLCWtlSKUYEuMi9o3QMcgMin0lcLkzS9prWXTMwiQa5aiDDvzt6ITjYvmw6pdjEsDT4pnJXrSgeOJYspKCSlSCGWkxtUTP3KznXhJgDCmn4ZVJOhjySKQshiFBBupe42Ekl4IAsUjSlmkgrNO4+I9Rw132e/clVxHDQR0HxdzFBOc6CWemFLqEqQwZdS4pNDl3ckKRD1Jrw3xiDg2aUAiIXhIyCGx3nEelxDeDPBIc6c46hQfJQT6U5iVlQxzX6dxSREsx8VcT/wmd0tydKQwiO9pXBIgSOWhAHCqzGOQLIEO7SmxRXR45NHHMPPUWZw7Rc8Vl/8Ea9auQW5uPn5z9z049dRZnQwsmsv+ffvw4Yfv469v/y/nbDkyHHjokUcx7YQTYDaLRHFKQt+3rxJvv/UXLPzsU0EbuS/NFiueevoZfPvNKrzxxnxmyuUrVnG+Fj3vvvNXPPboIzCbjLhs7nhcd3EWnBnJlYnF9WhoDmDbPiduvv+f8Lg9Yj30Orz8hwuxees+PPPqN0znl5+6EBWVTXj8mSVybZMquLSkCA/cNhVDCppRUpgOoyGOeEKP+qYgNu5M4M/v7MOWbXuZd00mIy46eyxu+UUxsjLECbXUx+MzYt7Lbfj483WYe8HF2LG7XAqgTiuWAtK6NdH9Dykirqe3S4tLcOWVv0gaVwAumnsejCYTpp80EzW1NVJf6TgHgOgRi8dgMhoRiUZ5PeIxscdzc3Nw+WWXIdOZqcnOpUuX4NFHHu4G/pVRqckEbV8qQC6n3k3GCUmh9iXJfQ0g2KxWFBQUcCIfPfZ0I/KOWoOQrgmuBj1aKh1o2Jqj0cHd7kJN9T7egAadkbA7bwSF3Ohfkz2BM66zw5apQyRqwpL5PrRVx1jhxBlux3lz8f90QGamE9NPPBlzzjsP1TXVOHLMWLwx/zW89+47MOiJgAIcEAsJy4r6Fn9nDwBIOBgYWNBfbrr5Vpx9zrmYfeoMhIN0PFJ8j0WTXiDaKG9GPQYO6I8xY8ZKsSIVCVlwADNfNG8pCkeFULU9BluWAZ8+4UOMlb2wWhIJHYYOHYKzzzpXO+5Jc0pagEk821jfiM8+/Ts8nnZE4nGUlQ3ByBEjYTAIkKLeJIS+fc96jD29GXQqc8vyCKac58Anv/Mg4CEaAr/7/VM49tjj8Nabb+DN+fPhD3g70UBPbcaF4lLelRjRiQQ0C3sxdmYMEsos+Oh34U1gKksBSwxHiksgawEz+P8lA0pVI10CYlXYuyMVvnCcKFeDAECkMMnUYiErrTNaa15lqRDpM6YjNSSViRiX2M+E3PV6g1BZtGYSidAGYx2pFBYNgKZF7TGPCMVh0JC7nDd0iKWMi+mQSDAP9jQuoqXqQxuXVEB8XJfGGReKkXUEG8FiLPx/tEYxAYTibEGJcdH6sC6j9mnNoE+Oi9aKvy/e4xVWyl96cHQJ4dFS4yewSe/x2ut1QnHSuBSm5AXSQS+9LNx5Co8n95zY72LPEeDRCSVPDjadQfYnEqvEuOgdsrA1hurkaWOARfxJ8yY+ICufQS2xrtwPtJap45KDplHECRSQDU99p3gm+ftx4gdaO5I3NM4ojCQzmN/kHPQSOCjQyjKC6MM+CQYIDD7IsyPBggaPOo1LMqVkVRL2AjaTl4jo3F3mKQdRV34jmj33/J8x7YTpnY6VX3H5pdhXWYnf3HMvTpk584D1IygB/K4778DKlV/jlVdfx6RJk3p8lzwO7777Dh59+EGWDxaLGX99/wOUlJTi2aefxhvzX2eNsXzFSmRliRNf773zDh6f9wguvWAa7vkfE4xw9ahNEzBg0fosXHfnV5wY/sn/XoWy3G149u12PPfmdrz/8qUY078cr3wYxhPPr2E5IKxwHYpL+uHZ+47EhGFetsZ4b8QNMOh5xZmWrYHhuOiGL1BR0YTZM4/EH+4cBKu+rttYYjEjbn86gg//voblzY0334qvFi/H2eeeiHKXHZZoBwrsRticFuzYsgWbt+w9BHTQ+yvDhg7FY4892unFE6Ydz7tm6qzzUFe5A+bSCWjdsQx5hfnwuzowML8QeyprkVc2Bq66HfD520k08AmG++79baeDAf/4fCFuu/kmjY81K4HlBe2LqPRrC2+Whn6k0Uh7lvaohVY+nkBAl8AAmDA5pMNSYwRNJiQBwsUXXQSvz4uwzCsgxqms24iyWRsQDCawc2k6mnbkSN89QAChtmY/SzwSODa7FaNGj8HpZ5yB0v4DUFtTja+3voHiCfVobwH++bIf/nbaaQKVi81C3xW/ZTgy8eTvn8KUKVP4KGOHx4Oc3Fw+sfD5Z5/hL2++Aa/XI5QXtyHMPhbO0iqRxqgkhA5/fOZZVvrXXn0VvB1eWKxmPi6ZtC2EcMnMzMK1117HG49OQigdptyB1JXbV4f8o3ahZKQZW5cHseKdAMJB5TKMw2A04YorrsDO7TsYmStrSkAN8Z7NoUPQC1ww9yJ88snH2LN7F8xWCy655DK0u1zcv6b05IJWN+7ERb/VwedNYM+6GIZOScMnT7WjeZ9YfGr9qaeexXHHH49ly5bhlZdfxMCBA1BXW8ehlfI9e+D1+YSrjHGUHJEUwMy90roXJBVWt3hLhIDYiteRoJQCnDUBWZ0qqCJdq3IrsGuVRasKmUhLkgGXEL7C4pNgWIJEVpFSIWmuoBSrVEQFhBLT3O9KaEsLhd3/ceIuyRea+5o9hcy/WihJWd5yXCzKdQLw8DBYoQo+lX5POUPhO9bWVnpnFAIQ7dMr4ntC6RFQk3Ql/mXFLEwQ7kd2wX9jd6+gN9FQWJpiXMz3pJRkyCbVbST6lB4RHqn8jkQmat7K6aaUsUIIDKA5zCUAI3Wr6XTmAQHQBPAQnpOue47blABSuUQEKFLjEhMlwaR566UMEGBOht4ZGSmvlSwapcCzjhz6RBvRlhhXz7JAQC3pQmfEQB47RXBGxckcBvZKMoTS5IvyICirn/YPc7B087JxoOilQh3a+spdRECYw0YEnpIyj9thUCXoLfa+Hs4sJ2677XacfsZZ3WrLXHfN1Th5xsk47/wL+Du7du1EKBTmtc7LzUNBYaEWorvjttsw+7TTcOJJJzHP19fVobWtDSajAYVFxcjMzNSU1z13/wbLly7Bgw8/wqCE8suefeaPeFN6EJYt7+xBaKpaibuvNEIXb0NTmx51TWFWVBlpevQvNMFsEmirusmGh1/swJxZRZh5dAvCET3e+DiCvDwnzpoW4DDISx9GMO+5Ndo+yMxMxz2/HIe5p+gQi0WxaE0ML73bgm2761E2qBSXn+XErOPMcKRFsbtpFK67eykeu3UUzIkqlBZakJ0p+u7wAdUNcby0II6PF26Q/JbAr2+8Gas27cfM48fh2x3laKzdhxy4ccTIMlS0m7Bv147etf8hvKEAwrZt27B27VpceOGFOOXkE3l9jjvxVNTu242gvRhw7UNxtgODBpVgW10IvoZaZJUOh6epAoFARyeAQKUFbrrpJrzwwgv4fOFnuPXmG+WeEaE3wUhC8ZPxy/uYZThLEum5FDIpK27EzKgTsyKZ6NCFscLoQZ5Oh8V6L3YYYmJ/qxDDOWefjXXr17O1bLbGYM8KIGypRCQeQla+FQ21blStzkM8YuJOKQehrmofD46+M+f8uchwOBgp5uXnsZJs8myEMzcNiz7aDW+HTwIDuVFUvFtO6p7f3oepU6fB0+HBO399G7t378b06SfyiYrmlmbcfdedvBlYAErJTEJWc90rN7dyk5nN7J6bccpMVpJ07OObVavw0ksvIhaPai522ljkgjv7nDn46KMP0dHhEXROiQeRkMkq1GHCqRZk9iOkqceCJ93wtYrX2EowGDB37oVYsngRWtsbEA0lYLbrEIsKSy8tU4cB4/TYviSOq666Bl999SXPh45/zpgxE9u3bsXeyr3CpZlEKDBbEpjxUwucBTrYs0xoa9Thkz96EPZL+zeeYHrfc+99OGH6dNTV1fF8yisq4HK1sWXQ2tyqWfPsNZBAQCgfqXBJmbCVpfSvshCFa5asu9QYddKhqHm8NP5UcWVh0Sbj+GRdCjaV9GUFLZPTlCNcKWstrtx1XAJxsUUmvehaaCjF5SfGp2CO+FmwhnQ1C/eOBt7E+9LNqgYtfOHSz0DfE4BHKTvt02SYMdk+KTfpkdFi8hIsKqIoOmhRcM3Nq3IIFARJ0kuLk0srV4SAJOSWeyM56uTaqHmnrqOmjSWpWNFJrS3YQgAALa4vPSms3Hkuil5qYpLO8j1lCihXuvDsS3e/5HEVs0+OSwgzdq9qK6gEn9qWKpQh14MUMHt4yKOVso5KiLM3RyphSSsxdrEXhHUlA2pEV/KuyNCSGJcikOQSDUBLGklAqCl66elgUEEeSqKXiO0JrmQQItaY5VfKPiCj6IZf/gpnnHmWVjeG958sQnfn7bexEqdz6/RcfNEF2L59G4PJGaecgscef4KPldN37rz9VvaiEmgg4DfvsUfx/nvvwmq24KxzzsVll1+OktJSbodk0QfvvYcbfvVrBg4Umnj2mafxlzfn8yosXf61FmJ45+23MffYdchOb+HPXv878LsXtyAYCmFgqROP3TwQk44UuWveoB1LN+dj7KAGlOQFEYoY8e2ObJTkejC4KIhI1ICXP4zi8RfWaGs0eUIxXnlsLDIsLfh0hQV3zFuPksIcHDV+AKpqfVi9fgt+/bMx+Pm5ZljNBtzzYjb++s6nzKd/+O3ROOdE2usJfLNFj7t+V4l9VU28nuJJ4MabbsY/v1oq5BqH/ehf4WNFQuRAHI5HAQSNx/V6TD3uWF7LY6dNR0X5HiRozxJolR5yWieDwch6lLx8MRli6MmDQADh5pt+LcLjWiKxlHM8h7iWVkZynz15CtHrdJgRysQt4WKEdVEE9BG49GH8QVePXSYR3uBXUwHCps2bcdSECQhEm9Gq/xzO9AHYtMiASVPGYEvDB2iqiqOjxslQlwECeRAAlBSX4Kmnn8Wu3buYscrKyrB79y7k5uSyW+rDDz7AZ5/8XYoUGQfR0I6Q6ufPvYBd7Rs2bmD3L1n+819/DZf/9ArMveBCvPbKK3j5lRfZMhS7LCk01GKyUEnEOVnl/PPmomzoUGzduh7O7Ay0N/ux4usVaGtpFZtV+XoTCY7rnHX2OfhowQJ4yYMg2yehYzTpcPKlFhhMOmxZHMGokZNhLN6DdrcP374fQCwiLAgCSTSHZUu/QtjQDHdjAnmDdPC1JxANJzDyWCMq1sfRXpfA1ddci0WLvsTOXbsYIJCrcOvmzajcV6lJ9KR9CWTmGpBTpIPJYkTIa8a+7R7hDEhJdqQkpAceehgTJh7FNSAaGho4hvjySy+isb4h6WbXCCegJXlkRGhBmrec6CVd0RzzlYKMrSLZp/TaKDChrDQNXSj1IcGa0LfSqpfhCm3Dqris2LuS9kJxq7CDsgC1nAMNIUprU54TlkOVnhKanrQEpSJLhgEEKBLJqZqLR/MSiHBG0rLrNC7OWRIxZTFGsfFEe0nBr+IzAnRJj5eyEmWcOymHFDyRHoUeeFuFsgRrygSulNAGp8nxeiXHRT/HOZTUeVxCRuhZeYl8AnWKSAkXibQkfZQrXhq6EvFJL4MMoylspnlcJGGT4xKQQnlHCCb2OK4kzExJCEslSBI0CZ6VuS0EcBk4So+PlDaSokmuZ1JL/tLWhleS/y7SDSm8IEFa0j+gtSGgswA7ioE0D4NqJcWTI1Mbkh4nwdBayFQMKQGj2YR773sAs2efxsfOiV/JkDjuuOO1HISuAOHSn1yMLZs38XpecslPcMttt3M8mzwAd91+G26/8y4GCNTWow8/hHffeYdHSO3/7BdX4mc//wX/3NrSwuGIqdNO0CrcPiM9CDTSZRxiEDkIZMCdP2U1cjIotEAAQYcnXtgIfyDAYeJ5tw7BaVMpVJ2AN2jB4g1OjBvchtJ+EQYIq7ZlojSvA2XF4SRAoBADG1p6/PSCibjvGjN7G2b8fBcQC+DZh6Zh1FArmlrCuPdPjWhqrMOTdwzFiP4+rC4fibk/f4P7e/ah43DmNAo1J7Bmuxl3PFGBin31EgQIoHbTTbfgq8VLDwcGOGgbQ4cOxUMPPtDpnROOP47B2oyZp7IxqjGFMgpT5aDGXQnYbHYcccRIUclY/n3zpk0cfhdGc2qCJOUyyNBvF9lLya5pGemIRWM489jpOOqt1ShIGBggtOhCuM9YhxaD8jym5CCQB2HN2rUIUWGGRBxmRwe7EtsagCt++lO88fZr0Ge0INDsQCJqgNvtQj0nKepxzXXXgco1EwM1Nzdh1uzT8dZbbyLL6WRGve76X+Luu+9kK1RLLmNUbGQhMHiCDmNPssHrMmDjl0H8ZM4vccGFF+Hss87AiSdOxzXX3oCbb/wVNm8UbiLhWqTQrUEm0YnYIBGJXP3nzDkPVpsJkX4LYc8Jw9MObPwyjMq15AZTbkyhHMl1npWZjbPOOQcLFnwIr6dDuhfjIhaqSyCn0IQTLzNhwe+CuO22u/DuO28gZ3Q7PK1RlK8K8RhMBhPmXngRFi36Cs3NDezJ1JObBpQ4lYDJqhdWvx645prrsPirrxhEUYhh5imzsG3rVpTvrZAu3aSlIqxaIQQvvfRybFi3Htu3b5W5Ap1pMH7sODz93PO8wQkkLF60CH946lG0uVoQpuKRTDYBNfl/MjZPeoKDPtJqU3kk7EzVtIJUKqw4VZ6CML9YZJM3RxmgzMEy9s3BJJGoxZkhagFYWbJ9Klyvsq/UcYlXhYudhDHHzKTiEV4WqaRkOEHF64WkkfGLFC+GOMWgxsUqihV8TI6J5yFQkDxlI13C5GqXp1xUHoxK6mJ+FF8U8f0UoMBhFuZT5UVhf7IAFhLhMw8yQBN5IcqlLXIqVPIgfT8GneR35aEh65PpIN3dSd4W/XUdV9IDJHKFDNLDIdxg0hWfEnrqNi4xOxZqzCNsucv1IRe6/Ex41UR4QAFMFboSeRYCMNLuFfE8yQf8F5U6qz6TOTByXBwGURnWKZae4gceD/cr1bj0GrF1Lz0BImwi+IDmoTwb1BzTRY1CjkuvM8o8ihTLRFlizPdi/N3HJfOddCIRMzXRUkuY5LiTgBt/eu55HHvcVM4Do89fefllLFvyFV56db4GEO66/XY88PDDmgfhyp9dgauuuQZDhgxlY0MlM369YgUefvABvP7GmxpAmPfIwwwQRJJmHKeeOht3/uZuLqhDHtbt27Zh6LBhGkAgD8Kbb87n+S1dlvQgUJLieZO/QW6aBAifGhA1jUZGhgVlJTGMKdoBi9HH27CqyYqPVzpxznEulOaFEIqasGq7E6U5HpQVh/jEw8sfxfDE82tZHhgMOtzwi+Nx84UBNHVkYdqFizCyLAML/jQSuoQ4Vv+3b/rjnnlf4LGbB+PMaVbsb3LghEsW8Xo+88AUnHl8lDlkzU4L7niiHHv2NWr8RmucnpaGSFS4c1iXkCeR+EbuL2ZJ7aCNOsEgfWYi0UnkA0lvpErqU6FAZb1SKCcjI12GxcVpJRcZqPJaAJH6JWW9Mkpksjzxi7BjY5qeVP43sV3JOx1DOBwSXj6Zj6T2sfDeEi+T7iAZF0dBv3547PEnOY/hH//4B96Y/yqO9BhwW7AQYX0E5Xo/HjQ3Iia9s8yjqR6EzVs2Y9LRk5hwChFTXPuss87Eq6+9rt1fQJ+zB0GeYrjn3vsZ2aSlp8Pn82LI0GHYvm0rl2KmMo7EvBfMnSOT2eTJA+nuOHK6CSf8xIo9GyLIKbHA44pj+f/64W81ori4BI/NewIDBg7EPXfdiS+//DIFjUn8rtMhJycX115/A4459liujhgMBrB058NIL63FP+cHkZFnRP+xZiz/SwCuGhJoQsGxlxmA05GBs86ZIwBCh1fGczANAAAgAElEQVSCOuEZICJRspHVakA0Ak4OeuP11zieZ7LoEAmK5DOTwYDzL7gQixYtQmNDvRSWdNmOEEwc1uDkKPIgXI+lixdh167dsNptOGXGKRpAELmsAg2SNUQ5EsS85D695prr8fWK5aCYlnCDCRrQWuXk5eHhRx7DkKFDuaKly12PxTseRlBXj/p94GpZqz8KIehNZtkLwSZ8MsKalvHXFAUvlI+YgzqxIKw2YYUrFhebRCY8ymOjIj4sEgeFy1iFBYTHQgAEYm5yaSVPQAhLWMW3u45L9MqCXYYaaINLZ4WMwSfTJcXsxLjEO0Khdh6XUvAKwIr5RmNRtsoVuCcwocalAA19yEuccpRIAK/k+igPiBqk6luFC5gfZa6DiGokeZsdLJK25A1gXopFWJipdJKu41LejG7jkgm5QsWK/EMCIsqKUXa04j+xxAZx/FagQBkgEPTV8jy4IUrsjIk9Lmmh1lF4gmTAgH5mekmQqYEzQXvFUFrSqRShSf5SmII8IEnPi7KqBCxQ68jxIE7WYo8QAyLxuQDdgjc0vk/dBz2NS3leklkLYu/IhFoBTCnXJAW5SAVAyZZ6bTEJ7IrkWNrnJCdJhpInkR7av+Q+fnP+65zP9fun/qgBgnt+cxfuvf8B7fcrrrgcPrcHd993P4488kj2HtC9Nn965ml89skn+Ojvn6BfQQH388S8R/H+u+8J2uv0mDPnPPzqxpu4f/oOWaRjxo7VQgx/fuF5zkEg2bVs+Ur2DtBDYYrzJ65Crr2VqT3/cyOmHZ2FwblNGt/TD7GEHh8vj+GzlQncf6UdpblBBgjf7MpGSbYbZYVBARA+AZ58cZ3AqQYjrrpkEu64OIRgLA3HX7Ye+dkmzH90BHLTgwjHjHjwTRvWb9qHJ24ejLED27FmbyHOu+4z5r1nfzsFZxwrlOba3Tbc+cd9KN/f2G1/ClAo3e6Sq9lzKBOYaVWVjWE2mWAwiNC6xJiCZxTTSbsjdd+LPSQ8jMqQYa6Q4EMBA00mSN6Q5oOAmyyzKP8GnE/myMwQ1YGlRzDoD8LVlpogquSsyGvi8BZPicaqw5JlKxj8kQdj4WefMfg7fvIUeF79BKZYHO+YyLuelOss47rmINhtycuLaEINDY245OKLugMEOsVQVckDPumkGcjOzmHXBZU9njx5Cv71xT/gyHQgEoli0uQpeOC+ezrZBvFYFCaLAceca0HxMAO2LA8ht9SCzAITNn8ZxAnjL8EFF1zEF06QJfzEvMfQ2koxLxEzEsiKhJsOM06egZmzZrG3gnIOvv56GZbsegBulxeBDqDDq8eAI63YsDCI1v0xzgTXBEoiwQBh7oWX4IsvPucQg0q+UnEdhgoyXnjjTbfgxT+/wACBVYA87kQnEC69/KfYunkL3/ugYotK2Cfb0OPiiy/B3z76CDt37YTFbMas2adx8mTVfjoVItyPqm/NxQ/gyv+5GgsXLmTwRczcLz8fI0YewQLlnHPORUn/Ujw+bx7qa2vwkxuOgXXYUvztj1F2M0+91IrVfwtg53KR0JSM0Yg5aI9UnoxEyXXPrlKp0NUZcoUKutQDYEWV0pb6Hs+dMvIlvZTFyrRhZuejBdomVl6LTuNSWFsCFdGeTDiU2EJFDBhda8cJledDRbRT4urSahDrmIxvi3EpKzOZTKni2Grdk0QT74o25HFHmSAhbUgtIVEccxQbP+mWTnpCxIkYSjKS9UfUwKTWTdJLhuqSYkvjx9RxCcNCTI7P+2jjkopUCiZh0fJxC63WgRByIhSgjYsudEnVf9q4kla5AChKnEqhG1P5LmJ0yfTVpHeGsZsy9CWLCh5gX4wGIpWnRIWgVCKnAizJPSQHKje72vNJkCePnSpNoJ1zFwhH42c1LjVvlXOiHa8UJBGARZ1nF0fWSA6odih0Susq1l3wY15+Pq699nqccuqprPQpQXvN6tUoLinGoEGDeSrkUVB74t577sZv77uf8wzoufIXP8fWTZsw8ohRuOHXv8aECRP4XbrP5sH778V9DzzEp9OI737/5BP44P13ud+iomLcdPMtmDZ9OrdTXV3FSoM8t+QJphg4gZQXX3ieAcbzf35Jq9VPCeNXTFqPHLvIQXjjSyumTnBicHaj4EHo4PKbsGJLDA+9UoXhg3Mx7+pMlGT7ESYPQkUeSpztKOvnZ4Dwyj8MeOJVUW+BnmPH5eHFOwcg3RLC/OVleOqVRThmXB4mjwSq29Lx1t+24cLZw/GbS9NhNfrwyEeleO2tz3ksT98xEWccTbcTJ7C2Ig13PFeNyn1NiKWATyV3WEZrayoMs6Qc1MQwiksGICcvP3Vb/Z//XFRUiN/cdRfofiH10CmGW2++SewnaSSpz5SXnU0+KtNstmDp16u0csrkYV63dg2uveYqPkElQphJj7GSvV1yEDZhlLx3QcmVtevW4txzzunRg1DLxxwBR3oG7n3wIezasYNdVeMnTMDqb1ejbMhgDBg4CK+/+gpWf/utGLvapZSJbACmnGVB4RADtn4dRk6RGVmlJmxbHMKLTyzkXALKXfj8c1KKZDUrhSJEjHRkIj0jg/MWfF4/nvjd75gIH399H/KHebF3Uwxp2SY48k1Y9pYXrtooW0UqE4VYgo72zJp1GrviIhFSoHTtdTp7Lsgb0NbaJgSrTscXS81/7VUGQkoIsuWlByZNmoIBAwYiHKECHjpO2qTTBQQmSKkTWKLNS0lAn336CV9yZTAZMW3qNN6wdPcFMWl2Ti57XXx+cvttld76BOd2vPryy3C1t/N75GF5+dXXWDBVVe/HE/Pm8UkIosURx5lx9i9t2Lk6jtpyoGyyGbtWhrHhc782dxFqSIULUhgzihaeBnqDQULKkU3NWtaARmpOh2LRZNa9aEc82rFP6QFhgSmS9jUlqxByqkIWvCOBijyqqiWFyY0txihElGI2dh3K0wkKu2g5E6QMlX2uKSKZlKmNS+YPKCSesom0nSrjfIo/tWJdKeMSHsTO40omtQllr9ZCFZxRACt1Lp0VjEoHkGEGBv/JGLzIyVGxSYqtqwCNGIdYxxTLXQJBbSzS5NGiNSl7Tp0gUGNkwCZDM+qkSDKkkfRNiH4l4BDeWjl3MfuUMwHK+SqsNem9SI31C6CVLF5Dv/OBOLmWKjylPAfKqtMmn5oQLMchgJCguDqCrY1LAneZ2ipe0sCk5HAGFsrnIz186sSFJv7E/Mnjesstt/MpAwIH5OVbtmwpSktKMWjw4G53xNDcH7z/Ptx19z3acXQ61UD5S/QMGz4cN91yK0aNHs2/33/fb3HddTcgv18/ll8ffvA+90H32BAwmTjxKA14/OufX3A8+/Y77uIwAz0etxtbt21FcVExy0J6SLE89OD9mHehB/k26UFYnobGDjPMkDF16FBe7cXXmzq43sKxR5Vh3k9tKHH6EIqZsWp/P5RmtKEsz494woAdzXnYVBkVnlNKbAzoMTjPhxlHBBA15mP+UjPe+dc+lFfshclowlU/mYG5E5oxOMeDSncOzv3NDrS73czQz9wyFmeO9QmAsC8dd7xSj71VzYK3pBtfLo/Yb3JfanuNgLQ8YSOWN4F+RSUsk3/MRyUpEg+QV//cc8/F5wsJINzYxeDTshW1vDOD3ogLLrgQN916m3YbMwHAJx9/HO+99zbXWtBko/ROKLmoAYRzzz2HLz9SWZOKGOR6Ov+8OXj+hT93CTG4UCtzEAiJESigSl0sxGNxZkq/34d1a9di4aefsOIVCUTCoUcbmTbSkAkmnPIzKyq2hFA01AZXE7DsLR/GDp/Girl8zy6EwiEGOeRrUQJCiBzl3pWIPAF8uOBvDEaee+FJHDPHgKIRRjTXJLgS4t7VYc4NYGJosW0hktLsaUh3ZIDcSTTC8RPG46GHH+WzwF/+658gj0c4EuHqXR1uD280lZQm5qOD2WiEPS2NAQpt+AEDB+DJ3z2Ffyz8DG+/9RYCwQCHMKLxKAKBEOJRAisJWG122G126I0GUD2KiUcdjV/+6tf49ptv8MLzf+KjQHxddSyKtna3FmOlcQ8eNBivvD4fX335L85SjkYj7BYfcKQRs6+2YM3nMdSVJ3Diz2xY91kIu5YHBbiSxV34FEGKWzspgGWYgyW6PEKjKVGxhqpKn/TbyjoFMnddKWplvSlPBHsARLxdxdLEq7woQmSrwjJK48ujYNyyPLojdJdwhwnVIuP/inGVokyxZJW3R1OOKTF1VloiGSPpJhdxlc7jSuFB+lhLpJT1GZTyEaqBYyBintKyUvkDImzR+TiditOLqgHShamKPnHNELI+hYWWWg9CJRyqUxP8hlZlNHmdqyicpRIWxcLIFEWhKFIyobXcASlYkycQ5GQUKKJKpVq7ah2lqKcxyJNGqXtOLLcsmMaLQUtJuTpadQFZk1SMV1tSmXsg0gdU3QfxqQCBssolr6NK0pLFlXgA8oxDihwS66SAorLsJZRLHZekj0pjUYuquXClhGUeU0BQ8p4IAck4t5gsW3WPPTYP4ydM1HIOSIFTknFJcTGfilIPF9GRdJj36CO49fY7NIBw46+ux2YGCIJOdKLpvvsf4ptyKQeBKiASGKBxkSd2zJgxLJuZ1+VD3oZbbvw1WttacellP8VFF1+seSi6KkVKZHzmj3/EJ3f3Q75ZehBWZ+OZBfvhD4a0/UnynldTp8ex4wdh3oUmlDg6GCB8U1+MEnsLyrIpIZw2ER24F/V36Pelu3R4dUkED19gQX9HByK6NPzvihAef78OT143DicP9cKm74ArZMdtf/Fi8do6mVulx9M3jMIZR7iYU9bWOvGbN1tQUdWs8ZuQe1JqSL5lUCj5WIUDxBKKtSSAkJX9nwEQyLikEPO4ceNAHoRbbrpJMywUWFWAmj5wZmXj+ht+xes+b96jOGLUaIw6YhTrpDVrvkUwGOpB9kqErHIQiFmpUNCko49m5cZuUI14CdTW1GDxkqVJ5UyVuPgUQ7Uo7kNnLHU6pNvtOPPMszB12nRUVe3HX+bPR119HbvaOJZrEC7OeEzGLzmeAjjzDThmjhme1jjWfRZEoIMSRlICu8xEgnkSMSq0JBy3pFA1BM9IXo/zzz8fH77/gYiH6qmwjKxUaBDJJqJyoWASkekp7T06D63T4eJLLuETFBazBVablUEO14TYuxcvPP+c0JXKMpPIixQsW2fkTjQY+PZLdQMmJVISPakNn7cD//ziH6I4Exe6EWpNTE2HgQMH4le/vpEraVE1s3A4xF6HvRXleOsvb4p4E4eMSZkJhUh9jx8/Aaedfhqee/ZZkRkrKyaPnmrEMeda4fVQDYUI1n4WYvDGCYW0bsnAOSuy1LoFtKaEPDVrnJdDZL4LvUxJaCkClRVZ0hIWAo2EuNz3RBvNhSt1J7vFlKAXvMFHCCVtOFdAKgPNB0HZ3iqZSGk0CQbYcpSCXGxvGV9OPZEg9Rufhqe2ZdEiXgmhKzSPjZYgKY++aQqYQ1zSLyLdzfRV5nHVr1KaXPqjy7i42h/NN6mwldWuCm2KOL1MWpSWjFbzQyo/TsjrSi+5YsINLxLw1NFWMTnBp0w6GW4Q2YwqIZQ+StYs0MYlJpZMSpVeIRWaEC5JMU9Ft641N8RxTLnOcs+IOYraBGIZZfIsF81RhbuS9QkUP3byuLDEl6EQ0YM0DVNKT0tAw1yodK8qxiTXR9HMKPMTNE+OTCwVuS4iUVOsv1KyEqiqhEjNK6UwrEh6Vec2rRYr7n/oId631A5Zcws+/BCvvfxnjjUrTxTRb+DAQfj9H57W3PtPPvE4br7lVs27cPutt2Dzpo0CQMh1LexXgDvuvgd/W/AhfnHlVcjNy+P1JYAwevRoDTCQTKooL8eD992LtnYXt2G2mHHlVVdzhUYV2mCZHY+zF/fpp59CXW0Nvn5kBPKNzTzBNzbm4okPyuHzh3gPEWgmqcoFrBggDMajZwMlaR6EE2Z821yKYmsLBjvcXfEHy+YlFWZc+WIdjhk/Ao+cGUBBWhCfbIzi/o/cmH/zOIx1VqHWl44nFobw5do6zhVSoOuPVw3H6UPaWK6sa8zCne+4sEfmIGi5J1yAS53IEkk+Gh8zT0gDSnoLC0v6IztH0PDHesiDcM/dd3NFRfUwQLjlRi3nRckk5eGidTAajBh/1EReu2CQPNQcRdRC4wKvCn4WoDQhnASqUujM2WckigYNQ6KtAmmZTvhjZvh8QZjiEWQ707Grzo1ip4mdZHklpXB1BNG8dzdqmlrRFtJhaGEWDK4dCGcPR7jDjWgoiAxdAraifqirbUV2v2Ls2r4dE8YMQSCqw/7aOrQ1NrBgGzJqPGKhIDIz81HT7oYp6kfMU482TwgTjxwDvcUOfdQDr86Ceo8fg/Kz4Krajl2VzTA7stA/PxfeiAEOmxl6ixnZWdlorN4Do53qMcRQWJCDPY1+RD3NcObkIsMURiTogS6UQHswiqb6OoSiArzYM7JRnJuDREY22qsqkUjoETQAkYAfo0cORdyYgWZXKyyxEPLSE/AY7Ni2YZMmWEkI5+YWoHDYEdAHOlDosKK6djccWXmIGMxwtbZB19KC7EFFqNxbjWZ3UFhMqYksiTjXOx9YkIP07HyEIiFUdFhRau7guga0aCRKWRhL1yZlWDvLxiETPiCaQJ7DDI/Zjrg/BEvEi+xsJydAtvlDEtFLRU0V5qQ6E/hEVBfkrS2L2ihGVJZ30jUv3fApJW2ljOaviOx7ZZUJpaFOAfBmlA1zopuyzOSRTc4vkRtWvCYz/BnIieM8CuBxS6lZ99KwVsc/lVWs4hsiSVJluYs5q/iwaFU5QZKuYVGKWG4oqUTFm0oRCsWUGg4RGf5qlsm7G5RSE9a9ln0oC0SqypUi1i4qEqpIvSgGJPSYyBVQIE0IBaHcxSOOYCqArx0LVuBMvCxJK+OOcv2VFaqMdjoSxsaCOl0hKyUmPT4p9OLkK1mIhQGeqPSpAQd1CkTeM6GNS55KEomsSq9LEMHOK5kAoBxGGgBS94aIuajCS4K75Jpp/CVPAvExd6qs2HVcsvw1GSxaMEztM4WMpOdFUpl5q5PXRfSsAQFpf4pEzSRYzc3JY6V97PHHs5KnsCLVMaAiRT6fXzu6zFtcBz4q/pNLL9OUwscff4Szzz5X7AydDgs++IDDi9qayuTm4cOGIRAMcplmCpfSu3RqqrCwiH+nvKW9FRX49ttV8HjcXIVSW1cdMPWEEzmkSeEISjSn8s1kcbY0N/N7980pgD0h3Pqr6jLx2dpGPhmg3aUjx09e3+ED8zFnbBxOkx8xGFEVzEeGrh25ZqGwOj06YHeLCa8saWd2pNNhpx3dD7qoDws3eHDN6YMRCEbwrx0RVNXUC2DEwF7Is8umF2J0NgGPBKq8GXh3tQ9fLvka4SB5TsWaEmca5BkaJY0035XcX4LtxD4tGzoMRcUlUhp1GW6Kh0vJkNQ3tDwqzZOZjLILzlLHadWWlMXptOIpgr9pHU488SSk2e1aA2tWf8t1fRTPixak8cx5WJQ0LAzfkpISJIJeWB1ZsFt1MOoSCMRiMMEKmCzoaG2COWsQXA1b0NBCpbEl6J112pmJwsEjYfHXYmBpPmpcIcRiJnQ0VcNmAir9NpTlWWExGeDol42QLw53Uw02bNsNNxxIS/gwbYQNXmM+/G4XvB0BGNv2wTBgACrKW1E0fByCrjZk2o3IzXFiU/k+VO3ZzcUgJk6fjVgggGDEhB3NHkweaEEs5EFFeT0mjD8KNgvgbSqHN70Qep0ZToMbu/fsRWVlPax5pRjgzETIloVMPeAo6IdsSwRLV23AyDGjEAl4kJ6Vjs17Aih1GmBKd6LQ5oPH44IuEECLL4iqyip0BMKcxOfMLcKRo8oQsWRB765C634fIrk50MdDyDEkELbmoSkQQJEFKLD7EMouwhcffyrJKBRZTr98FI6eAnugHcVoRofJBKszD3q9CQ2NbTC2uGAtyUNz7T5s212LKHkwOLNaKZg40tLSMWZoKWyZuUC6E3tdOoT2bkBjY508BSDKSIv4q1jEfhNPRaElhIg3itKMKOJFA+DdV4Pa8t0YNXoQ1q3diMaAcP+Jgisq6Uwwn3Z5lHK5S0tQJP2J3sha5W9qxWhE/Fh4c8QmFY5UWeFOHZFUkk7tGgkQtPiwRK8a+KDty+5P6YpVIQoZPxeOiRTlS2+ycjGknF2X72gloEXngnIqFCGz6JVWkq57VcufrW5ZileId3n3A2tpWaxLrYGigYQ+mqBghU6lllOFgJScKfd+aeNSY1FcJUGEAgAi815WWZT0UMmDwnqXdxBI74WoUqooK9aFbYSUzGZNgMnwkeasU0BPW0dFdtmeXBeV2CTtak2wiBoMqRZ2aq6BtKzlMnLhXLWk6pSDtszd6SWyY5J3ByixKDw1Yq3V8Uu1s5SvTqyjBBdaGWexTp1lsrTDUsalwC2zoAKmspw39ynip8lHlg2WDjc4Mp2caHzMMceydU6Kd+vWLSgtLWXFrYohpSoYsvJJmauQQCgU5DPxystLxxpVefyu36N3ODQpPcL0Hnkr2FrU6zkMSsmOqWEc1Qa9R99VoVQ6pabepe8TsKF8BPY6mM3see6pHWqP2lJzoHeoHfobtd31UZ/TvJRlS3SiPqkf+pke+rkrvegdGrO6ZZjmS30t+upLLhlNXm/mFWXNqLAQA0Yhc9g40vaNDDJwXkrqvqdWZNI1iz51dFqGvaWHj0G9BgB64mMhWTTjotO4RH9iD4lS8sxakh+FTKATbp3HpRkfKvAgj1pMPGocvK4m5OWVwmqOIc0MtEcSMET1iJnT0NpUi9rmdLgb14AOibJHhv6ZccrMBNUOMBr0MOoT0BvNCAVCiETDnKwRSeiQkWaHPxCEkUIE0Rh0JjOaG+tRX0/n/cPIzspCIhZhxOX3erlCv95sQjgYgd5sQ7rdygkvaXYLAuEoIlzOWQeTLY0RPZ3HDscSsOjj0FutiAaDsNntgrjRMEIxwGbSsUUdCEQ048vpzOby0Ha7DWGqO4AIu7nsNgvHRYm04WAMaWlW9hQY9XGE/H5YzEboDCZ4/X55fpSOkZh4nFE6t56IIRKOQWexwqjXwe9xw2ZLQ4AqIlr0iIX9MJgt8Li9onSvCssaDDBbbbAYDYgFvUiYLIjGqEaCHkF/GDarGZF4DGajHj7Zd1LVySiKXg+TQQeLLY2zOInePln+WbAifUNk/QuhBFjtDliMQhVE6bpMowVxFgyAzW5ByOdHkDejVFQa6k3hNs0hn7yUSTC3sL5kZoGAEMSs7HaU7lwlaOVuV3PSYrGqToFUqMTT4mSDPGSprA2JgDWhkaJAUm10gVtkkqo6bcBtCxcZh1AY+QggpXZVclyiBxVRkNErmSsvLVKpDcTaija0AluK9lIhaVaTtOTlDRBaSXD2Bgitpbz0neRi93EJZS7Ozat1lmCORqMhEMUPah0lmJNSRNQdUa4ReQBQC+mIuD9TQV64xUJB03DJ1UtmBgiBKTw5QtCqdWQlmFp1ULOaNYkswkWiSnfyiJgU0hw2k5U9tSOvmhKmWSSprFyoBxyX8lxo6RLK+yLzOlQ4RIIiARtVtVDJLQcYV2dwoKC6WE4Fx2SUSlJSvEMWaf8BgzB2/Dh2+9LjaXcjEotyZrrm7VLrpcZEhFb3ZajjuZ28HMn8CZmcJCo3MrGlRmE6qGyTpJZRr4gwj5AuYv2TMk3bkhrwSfIhu6HlcVlRGyCJjlRSqdiE8jvyJlCVb9SV35LWvEy61caRMi5tXyeVpeqC78pQMkiFp/geDgN27tjBnhq6+Za9pXK+rOZTin1xZFvycVI2Cw7hF1UdHhUaVn9W/CJPZTHH0v7i9ZM3oipjRzMEUr2pioeS6yDGmRyF8m6p7S8+UZ40GfaS8koV51KrbbWnw24iJ7MB8bAPOoMB4WAUVqsFCb2Jdb/XF+ELGgXvyDDkZZf/ImGyJOManSTXQX8R8eG+5z+PAhfOnY2Cgu4xMwohhIIB9hhYrWndBt7a6sKXX61CQ6M4Ttr3/PdTIJGIoqJ8C9JsJhx99FH//RP6L59BJytb5j78l0/pv2b4mrfsv2bEP+5A2Ytz/a9/nxgy9tofdyR9vR9WCpx+ohn5OcnCQ6rxaCyEDnczH610ZBR069PlTmDFugha2pIZzod1YH2N/Z9TIBRowbIvHkEiUo2KvXuRHo+jIBZHjdGAoI48TsLVm+qu5cJcBmOnY3ZklY6edDyfqFnxz0//z+fR12EfBfoo8P0o0H/gIMyacSIWL12GlhY6mnpoz6xZs6C79pePJ/oNOAM2ew4sVgfHYtyu/bDanLDaRO3tw/VwxTyOpchKd+qEQcr1qyo+xnFvWWEvtcre9xkLOcICvhZEo2FkOIrY6xPwuxAJ+5DuoNifAaGgB4FAG39uMIiLUA7HQ/T0euqh0xuRntFPa7K1eTfs6Xkwm+3w+6j8plDKjsxi6RP+/r0TQMjrBhAoPhfArp0bkZmVjQH9R/QIEL7+NwCEYMCFSCTAJUNjMRFDtFgzYbFkfP9JHsI3w2Ev/L4WpGfQNeZWRKMBeD2Nku7dPSiH0ORBXxHJnKI0Kj1cLVIdp009BsmhA5lP8EM77eH7RG+ftxlZOWWIhFxYmgIQxgUDuMMdwGPODCznrGaRiGgyCZ4Xp4xiXBOfxkgJbfRQCO7qe5/k+O6bj5+NSUcXYuVKO9opzNb39FGgjwL/kRSg3I+Jx52Ad+c/j+tvuAmbNm895HEyQPj1TXclhgwdB1+A7l+Yjta6xSjIp+zaOIzpx8BoOTwVpPS6MNL0G9Hu7we9uT8i4Q5k2XbD7fZDbxkEnakEnta1KCkwo7E9HxZrLgoyd2LXPhOy87ors0OdJYdToo2IB1bDbDKgtjGK/OLjoAt9C4MujsbWBLILT0S0YxHsNh1a2/VwFpx2wISbQ+1XKQhjog4B9xpkZ7VO0OoAACAASURBVGdhR3kIpWWnwu2qwsB+Ndi6x4TikkEwx9ax27+1tRW23Au6FUj5Ln3Su6ed0BkgxKJCEdTW1mLVquWgS0TMlgyMHj2+U9MuTwIrCSC4Dp8HIRzyAqGNiMb08Hr2o39xLiLRCAKxwTDahvWYmPVd59vT+zTnsGcJjPogojEzjI4Z8LV8hSxHDKGIAfr0GTAaLYejK62NprotmDopE8tXtyK/aDxaGzegOC+IjnB/HDk0mZBF1/Nu3O5GZu7Ew9o/Nebv2Aubbjf8vjY4c8rQ7s/G8i8eAeJe9iCMDgXx23Y/7oiHsc2Rzsll5C3o+pBXgRLCKLErv18BjCazBhCmDqGs+hn43cMu7G9wp0RJD/t0+hrso0AfBX4ABVpaWjBhwni8+tJzuOb6GzsBBErivPyyy7By5Uq+OLDrwwDh759+mdi+fwCGlAawY3cbjhkPrN1RiIHFUdQ3BqCzjOhUJ//7jpUE9dCC9dhV4UIAU1ioDMjdhqaWENyeODLyZqBl/0vIzbYhbpmKhiY3Zp1gwqpNuUh3FH7fbtmCq9/3OfJys+Dy6DByYBs2bKOLK9LR4c/A4KJGlNdm48jhduyuSsPw/o2oaBgJe1r29+5TfZG8FI37/4bC0olobKjEwKIIQqbT4TDvxLCBMfz9ywCGDx+BeHAHWjoKkeEohs5g/8H9dgUI0YgbbW0tWLBgAaZMnoyVK1dh0OChmH3anH87QKjd8xdMP24gtuyKoDg/jJXrvRg4ZBos1uyU4ig/eMrdGvB59iPmX4u46UhMGNmBbzaZMLy/C9XNJRja3401m30oGTj1sHa8v3wxLjuvCDv2eFDdOgxtTasxYoAPLb6RKMl3Y09VGiwWh+hTb4fV/n1yfw48ZLqjIdNSiYTOiGaXBS3V76OodBL2bFvAx9QIIBgTCYTb2hCxWGCR3oGDEYFAQltrC4pLB2gA4fo5l2Bvw+l4+AE/yreJkuN9Tx8F+ijwn0cBAghHHzUBL/35TwwQ9pTvZaOMSnrTSZDHH5+H9957H6tWreLTMHRxV1OTuFODAcK773+WqPdORbZtN9avX4XTZ47GtuqJyLTS3QAVcBacIrOdf9jkCSAkOj5gd6YvOgx6yxAMyt+DrTubEA3WIqv0MuRYFqOm1oWs/KNQvnsNygY4ELOfpblsf8gIavb+E4OK2rB9ZxWGjLkFjbWr0M9Rif01zdCbyzBiWDHagyNRVrAD67ZbkV8oypUejmf/rvcwZYITXy3bjQFlx6O5ZhmmHjcaS1cDpaV5GFUW4jn+68slKBp2vXYxyPftezZ5ELKTOQgEEPbvq8SHCxZg9uxZaKhv4NKh4ycc38mCbycPwvrD60Eo3/kvjD5iAOprtmPc6HxYLHa0trVgf4MTaU6qG989V+L7zrvr95obtkEXXAmzMYiw6SSMHR7B3sYhyDCsw849DRg88sLD1RW3QwBh9gk2bNtRiQgGobHZhSMGh9DiH4khpWHUthZw6I5Of3jJQ2dM3ntyOAYSCXthCK/F0EFmPtmycOEiFJSMx45N76G+rp4BAil8qrZpt4sQizoa1u5ygY7QUbiNCuvQHSGqmp/X28EhiJsef4FDDCOdZ6OiIhsvv9w9j+VwzKOvjT4K9FHg8FCALi88dspkvPSiAAipIYauAKFrjwwQPvzoi0R1+xTkZezF+vXrcfqModi0fwxy02u5GmJ67rTDIsQJIJhCi7CvNoAh/c3YU+3E+FFGrFzrwojBMWwvT2DSOCdaPJloa9qOwjwT9lTpMWB4Zyv3O5MtkYDbVYGO9hoEA62YPb0flqyhPIgIfN4WzDg+F/9cXI5JR09AU8dgDC3ajY27nMjOH/Kdu+r6hWg0CHfrbnS4m5CIuXDScfnYuLkCxaVDMaAkA2s31mF3eT1y8wfD7hiM2cf58cXKdGRml/6gvmdP6w4QaqqrsOCjBTht9mzs3rMHeXkFmHLMSZ1CKQwQNhxegEBHXdJM+1Gxezka6msxevJNSDfVIhSoR1g3FiaLiHEf7ifob0OHazfa2poxbZIDi1bsxcwTx6KioQw59m3YuqMRg0aKgjOH6yGAMGuaHWu2GuG01WHP3iaMGZmDVv9IjB/hR5ub6lDQ+fcEdlXZkZ0nat4frodyajJMOwCdAy0eB8YOrsCajXWorfwaNTU1DBDoOnfy3lFogR63u50BS6bDoQECug2VzrnT7X1UzId+j8biuP33L0NvMuO5B247XEP+we1ox9p+YEtGnY6PUhtS6xiktEk1S+gItPVAL8h3I7Jkr6z7pbUQiCZgM4piZHxwVq+HO9Q9lEffo/dMXRtIGUsolgC1l/rQuKxGHXyRONJMdH6e6g+E+e4CSrria6xTivrwoUx5hPlApKOxcs2DUJQvP6NxWy0mWEyiwmrn4mDiYreuTyQaRTiuZ9r9GIfe7EYdzL2s2fdhHXXUkNYiGE0eCT5QW7SexF+H0xwinqQSAFQUNyT5gcaVbpKVgiW/Tj9hKu668zZcdc0vvztAeO31txKVtSaUFpnhDg5CoWMXdu0DCvPNiOqHQmceJKuafB8yJr9DAMEYWozqliKkm+pRkBtDWkYu1u+wsmW3bcs3iOsLYHMcgZhvJSaMHYI1O0uRk1/2gzqm4kDu5lWwGFrg8Rlw5HAj1m+NIT87gjaPEaOGGrF9rwP9+7lRXR9FcX4UPv1MmC0/PIktHPQi0L6Ca0RQ7a4h/fXwRIbD6XSgKKsJm3a4Ud/QhCyHHoGQEWWlYdR7T4DVnvmD5jxraneAQEhy3br10OniiEaiCIVjmHPeTzr1owBCa/vhy0EgAUMAoXL31+hfZEdFjQkFeUaYrP0QNYyCwXj4EkJTJ+P3VCPhXw6334ExI2xYtzWG/gUeNLWZMGSgDfubBiA7f/gPonPXL+/bQx6EdKzfMwg23XbEgvvhdGZwiKEwx41d+zPYg0AC22bPgtF0eHMg6K4Om74cQe9+1DaGMXl8JvbWmLBl7VtoamzkapwuVxvfvEoPJSM2NzehX0H3EJ7P64XRZOISv+T1IxBxw8NPY+DwUWisrT6sdPu+jeXb9eiXTnc4ANWeKPwRoYKorgo9VEo9coisnG3TY4DDALs5Ve0lR0Z1ViKxBNLMPSMIAgbUf0cogSybHmmmzu8pgOANRtDsT8AX06E92F1lOsw6jMg1wZy8iqETeegb/nACle4o3HTVvPzUYgCKMwzIsOiRYSZAAL43prY9hMH5GegIxxl02OW4KMeE7ksgzxCBwJ6ecJiKqyUQjgtaslKUZ/jp30gsjnZ/lGvD5DrsXO+l6xOORNHkT6CmI45o6v3I33fRv+P3CCAckWeEhcCZLMwkLjzrvSGiYYs/Bm8kAYtBh35pBhhJGdNVAVTwSQ/UdsRQ2d694FPX1q1GYEiWEZnW1FqdvY/hYG8QP/qjCQZA+9pjyE/TM1jJtesRioJ5iOZNNzRTJcXLrvif7w4Qrrn+Nwl/MIzi/pNROHAGwoEmbFnzMvKLxqKk7DQYjLYfNgv5bQMBhOBiNHaUwWbPhz32DwwYdATW7UiH3ViByeNysHBZDM6cwRiYX4Xm+u2Ipl3YYwLVdx1QOOhCzd7P0dq4E6MmXg6jJQ/1+75EU90mjBh7IeyOIWiqWY66/SsweOS5yMof+1276PF9Uo4Bby2qyj+F192AMZOvhslKd7PHUb75FdicE5CXPxC1ez+H21WDkeMvgzWt5AcnSBJAyE0NMYTd7AWq2FuFL774BJmODJx+xjnIyaUTE8mHAMKqDREcboDQVLMS7a5aFBQNw67NHyArdzgGjTwbRpOMxx8WanduJB6PoLF6OWr2LsKAoTOQ3W8K3K3bsG/XpygZPA15RVOh7yE574cMhQDCrGnp2Fo1BkF/A4aXNqLD3YBm73AUZlViw6ZK6HRGYc2Z+6N06Kwf0l2P343H/Kjc8Te4mndg1FFXQKe3Y/HnjyIeqmeA0NjYgAIJCCJhqiIqynt3fQgUUDhCeRrIErz+wacwcvzkwz7m79MgWdlTSsyslAkgkGKnEvL0KOuOfiYh3+SLob4jhgFOA7JsBrQH4/AE42yFt1H1M8qHchpQlG6A3aSqZHYfVWq7qZ+6AnFUuaMYlGVEgy+GYIS8BXoMzemc/OkNJ7Chngq/JcTlc12egjQ9K+OJhWZxjcUBHvpqIJLA+vowfBIU0auksKjI2rElZgZJpCxojQ3xMCxpGVxEiEsIJxKoq6qEIysb6RmZB5Q39J6vww2rPQ1G8kTI21jV1cLkVKB7ZagvE92LI0EZFZdLfagI3oaGcI+A6Pus/Xf9DoGEKUVGBPweWK02vhMnPcPBibcHqv6o+iAlrNaK5lHeFmVQWpRhQCASR7Unxsq5t4coQiC0f6aB+bQwozsoO5D36UBtu4Nx1HREUZZlQrU7iiE5Ji44SPRXa837ge77iERwyRVXY9vWbVpzhxRiuOHm3ydGTPj310GIhjuwd/s7yCs9GVk5g9HSuBuB9tVw5E+Hq3k3ov7N6D/yf2AyW1FfuRDNzQ0YO/nK3uj+//3n2sU4KZToChBCAReXe6bqkVQHgdyERlNaN/f+vwMg/P+0QFV7v0E8sB6lI67iPJJ9uz9HwL0D+aWnIOj+OlkVkawxQylKh57+bydP0N+CxQsfQTxU3Q0gBINBth6pHG3Xh4QKhRaorC890VgM1z1AAGHSv33MB+sg06LDyFwTW2Jdnz2tEQzN6T4X9Z66CEtZj/S70mUBnziuabWlpZQeP/hUSVGTZe0LJ/BNrTi+S1Y8KQICMBkWHQtroTiBrypFeKenh14jRUvtDcs2YoAzCS5onMFoHFajuNxOPd/WktLt7iIhkEBtFDvEZXae9lakObJkud4EqqtrkJGZCZNO1Luw2Gz82YGeDnc7MjKdPX58sFpP4WgC7nACG+vFzY4/5kPhl/EFJvawcAXVeBxNddWcg2Wii/nsaUwLUpqH4l6geccSCaypC8MTOrTgSa5Nz2viDiUwvAt4JNq0+ONIN4tQ0aE+NAbyZmyoC2NCkZnBcoM3hoL07l6Siy/9+Xf3IPzy5t8njjjqGsTljW4HG5jZGEMkRmU8e5mADjDqY4jGDsx01I+eSmPq6fao3iMzVnMEwfCBN78aN7UpqscefIwGvbjmubf3WGgcat96eftgL/QxGWOIxfWH1LfFFEUokhQWqpxrp3XiS3ToVkRRHvPULh4E9S6VYfZ721gqOhzdE8wIIHyzMYJWOubIF6XEEIn2voZUSjUe730NbZYIAqHe15AuJKL5EI0O9tAa0px75UcAh9q3nusAk+V5cP6hNaSjm4fSt8VMIZ3uRwl7WkNqr7cKpV154kA0IjpGw0344uN5GkBoa2tFjrzbXtTbD/L9H10fSkYkkKBudyWvxw0PPY3hY3+8aozkSp1YaEK6WVr5CYCsLlLCpDjJm6Bc6KnzIQVLlmCzP8YWNsXoLUbxvkMqDHK5t7a1wWa1wWqhsFeCaz+QAgn4Kdwi7iJIfTyhOHa2RFlJ96QiyNVflm1khUSWJimAnh5yBZdmGmFLhLHXa2Ars9Rh1MAAjd8bJuXRGSDUe6PY3Bjt1iS5mElBEJgiZUOF0ltcHpipfHvEz6GGtAzhvQuHguhwu2BPy4AtLV2jpygpHeebEumiI/V+amcUAycvBY2rp4f4eEsThU1/bHggRke8QbR1mPUcBur6kJVNwMFgNGiea5GncWBZQCGGrU2RQ9Xn/N7RRcJDROPpmh/R5ItzqOBQn1gsyuBujyvGoPBgz/cCCL+65XeJo477BQK9CTAABVkdaPWkMUg42EOCyZkegKvj4Ef2LKYYzKYovAFLr0JxcGEr9tb3fiyM2iTF4e9FEaXbQogn9PAHe1dYh9I3sRABCVJq4V6Uam6mDx1+SyfFfyB6luS6UdNy8JwEUmoE3sIRcl8DM461Ijer8xoRsIhFA0AiAl8giExHsmiT6tvdkcDqzSEOMdAa0jib2w+eRMj0NsQQCAn0erBnaHEz9tT2fm0qKV9SgsQXB3vSrGFEYgaEIwcHMdTGkKIWlNcd/E53kgO0hgQaU0FZT2PIdfjg9tsQifa+mfvnu1DVdPCiYwSIzCYByGK9gNviXDdqe+EJGrPREIdVX423//IsAwRKUiSvAT0qdNDuamMLKi0tmXNDsWev1we6e14kKQb5Ctjbfv8Shh454VBl12F/j3LNBmcZ2UonRU8PKWliuyzpUaDfSemnPuQiDkXjfF8LPcrqpbgyJY6ph5QduezTEOKkPLqfhpRDbXM7CnMyEQmH+K6atDQh1+j9LU0RLUzxXSdMSoLyKLLtBhSk6/Hl5lqMGljAcWWaA7mhaXQUmqAwCSk3SjRU+opAz9L9oW7hCgIF5GoucYjvU1sOYxQGxFFVW4fhQ0ReF91LQEdjWxobkO7IhMOZzclupLSoD1p3ClGkZ6QjltBxQlxqbgXJGvJ4qLXoSnMClduaomj09e6C/660+yHv07qXZRkYlHV9SOEGfD4GhnT1Nv1HwIFzNYzd3+dQT0OY1+hQHwKEZPXT2pPHi/Ia6CHatwTizN+H8tDaRCJ0As6A7e0GjC+wHNT58b0AAnkQxh5zFQz63heRlAEpv94UATEXCafehCcpNtoksZi8VOYgVDlkC5AvoiLrsxcPgkFYir29R0OyWaKcRNjbY2APgkgQOthDyjx6iB4EqzmKYBfwRmGFaKgVeoMVBlOGuHVLJ/qmtZk+OQ05zi5MlqCCQVGOv9EtY87M7h4ET0cc67YF0Oama58Bk64FIX8dEsZBiEZ9MJqd3GfqQ5dD0uqRUu1ti9gtkV6BG7XNF6awZ6k3L9Ch0ZvaPNS+eQ3ZBdmbB4GsK/Ig9MYVBDq6r2HXb3Vdw4O1ekgeCdmA3+vC5x89jpgCCIEAH1XMdAqXMWWqezxURTTARx/9Ph/MZhPfPKgsZm9HB0wWC26a9/yPChBovDk2PUbnmzQ3LHkBKP5a4jCyoCU6HkrWejQOtAdjnMRFVltZltjfJKRJoZFydQdifKPtntYYjiywwO1q5bLUlOxmMpN3wYimiBV7PZ1uHe+dIeQb1DflC6jxfrHHi7w0MyfFlToMHEahcAUBgY5wgn8nizY1xt8WiGFdfaSTzOFwhbjjiXmZQheUxOi0ANmJdhT2E8ZBwO9jLwF5kZzZud0s5aQXycJJb5SzQeCD6Nw1z6DrpCvaIih2GLGyOnTIiaKHTLjD8CIp6Wn9LVpCK4EZAkB0uZ7dGBcXvtH133ryMosr2CkfIyOzM9Cn/V/liWJPa7THvJKDDXWQ04gh2cJTROvgC0VgNpn4Mr/enmg4jKaGGtjSMuDIzEJTaxsS9hz2Phxobb4XQJgxY2aiN0Hc22D7Pv8/ogBf0aWuJaWQAv1OzNSZoc499yzk90utgCluXaT3w6EwdAYdzKbuiWmutjb8P/beA0yO67oSPp1zmO7JCTPAIIMAs8AsiSJtWZasbHm9kiXbcuandViv8/62f1vSytYme21p19q15aCVbUXLCqQkZpAgCRJpMAAGmBx7Oueuqq79zqupmZ6ejhMQCDx+84EzXeHVq9fvnnfvuec++eQzWFwMiSphzHgQ5Z0VpudpqVJgweB6IaYrNBw3b9PICKiIxSPo7GgXHgS2cHhJuNKdJV4D/p2LFN93aePuiZkOvf0DQijpanoQ9H7tbzWjz2MSuydrCcGSizrd3pblBZYxcGuFeC6nsZZ1UITPTrKZitmkjAE/QYYBJH/RGM8mFZER4LIaMR6T0eczraQfijRCkdIIPDtVEN6EZhuN7UM7Vr1k376UEzt0up59DH0YgHC2KFzSyXxR9IM7dhoyxqr1RqBzcoFlnDWGPT9ZLgK5rkt8uw/ssGEpmUM6V4DF7gJBhqUo4UCHFeRi5LIZkcFCAiONo82ulV4mUKnkLaj23PTcPD2RF96MrWoi9LEFF9NIgwbxnskN4Dwg+NIzYCrdIpWIwe2tzMU4tSBhLlV/k61fl/c/3GGB35QHvXj2lk54bCbEQvPwBoIr0ufl/SA4JaDLJBMItGubPD0EQi/f+GICTocVXf713vsNAYSf+s3LKkz1XfcbfSd58ySSxTm0Fq8N9vNGn+PqnqfCpEzhyMBZxKMhTM0mIFnuhAlhBB1jmFd/oaZWhckg4Z49L+PxlzvgVE/BbZlA0vGxGo+kIjz2GfR2t2OgxySEdS6GfxBS7GsYGtqLiSjdzNV22PXzq6/uWN54d7/06p/AUXxlBSBwBGj03W6PIGVVSnPjTpnggJyFru6elVoM1wJAyH99BBc+/hw+NvWzGJ+Lwx1VkFpM4J/e+w04Aw68/X/9AFz39IrdLnfnJAyG0opwtXPXrrdSkiINMX9nmmHpMTyWaYU2C3flq+deimiAgcbvpVlpQ0aQ/Xug3yZ2kLzO98fz6yYn+7I3YBapa5WMM0HKZJyeDgMIiObTDLHwebUsjUqN9zvSaoBaVGCw2NDmMiGUyMKh5teREdPJhAAJNIx8fHpYCEJ0sh/vr4camC0hwjBGTTuDGQPhghFnI/V3xHo/mYlBTgNB0qDfJDwXMSIienItTDU04+RCYYXPUc9bW+vbTp7GkY7VEDOvlZWLiGWLgnhIQiHnj+4xIYAIL87CanPA6fasZHbwHgxtnZrNIF2s72nm8WZDETucEqZzFuQVowCa5EUcbLMAom6NcQ345TkEB5l0ChdSNuwOWsU7KG8EMfNpAzqCHnjKuCEECOdGLghAQe9QeRYD1wGGHtPptLisEEr66d/aXoAw4fsjHC98Bu/LTt54K/O6J66UKKVCkdJQ5DSs9laANcTXtSIcxZeRio/hXT/QjW8/cQJF5wOIpRz44A8l8cWn9sNsqV74yGiQsSfwDZy41I/ewAJC8yMwtf+72u9DVWDJ/ituGcrh7GgeeecHgMTXMbRrF0ZDt1QGCKoMt+kMggEXpucNUMw713k3bk6CKz8CoyfWAwQudrFYdAUccEFiuiN3J9yJCJKe0QS3R5tXerGmqw0QilkZE///01j6ygge+J2jmF1KIvNyGFImj/C5GIxmI4784u247TeOot1nEbvjVqcWi2fTdQSoZ0AvQqkgEePIBYUFtgwIOrXFV/c20DiXQ2Lu6sfjMuZTGrhottHw3NJuQTsNdKYo0harGXSGQOjhqJT+SCMt3pHRgNmELHbFwyEZ0QoZDvr1CYSoD+C1aWx3hht4mVIuin7s0vwsDN5OMSaRdAGQcvB5nCLEQrEnPkciK8GDrJDrJdlRbwzXkMTHkE69Rh5Jj9eIbo9G7KzW6NmhQSaoayb2X3o9PjNJff1ejWdCr4lqtiGcIy/EJHglTGdk/ylCpZMaqR1B0iaLmXGT5FhWJCUwWoqnMZ53NZTVYCjK8NqNSEnGldAEww0MO5BUmsmk4XA612z88tmsyLCZyWrhNBJZy1symRCTNlx0CUDMEJXeCBAuj00I8BGPx9cBBAKGlpYWLCwsiFMEQPjob19SDebt8yCMef8Ix/OfxY/mJ+rNj9f955VSgoqFRbQ7X0VvlwdnRqKQnJULRbEqHyfk+x86j3/62nH0DT0iSJs/8UNz+OtvdsHurEH+UxX4DN/H3p0umA0ZPPlaB6yeOlLSqgxD9DMYGmzH2JwDkuOtcOU+D9m8GwXLfRXfVSJ8Brs7RpDItaOvo4CRxaOQpQIUKQ6bsxdGU31C6Ot+ElyFB7z4yp/ArpzA+OQk3vHhX1jTA4pmsXgWSVOMs5LfwlASF3pNhU87nIvKobsfgD9Yn2S6nY8ox3IY//2nEP32JXEbs8MMs82EXCyPDJyQYcbQHU780F8+it7DrSLDwF+WEskdMIlqlRq/ozwnJgyfAcyhDzjXi9uMLEnCQDHFcQPYQNyaPfDZDdjTYsRUUq3J9md/b+2woFBUxc7Qal71aDC8QU+DRmjUBJGGQxJCWYKdym+DO2OGariLZiP3xGxzVIx/Mx1QNtmh5hKwOVxCQ4Ay3AQO3mAHTEYjluJJdAZ8iEeX0NrRvXJTAgOGZ5h6V6rZUNorhlVIwKSXhDoUtRqvxZ09eScWo1EIQNHbcDnGDLvG38SA34RdfhMMy1VW6SXN5AvIqjbARKEqg+gPxaAmF+NodVtgVGW43B4w7dNmd4pqw/yX4IDhOZvDiVgeeHm20NCc0HkiejiIz0EPguCdFAoiw8Rqta2E/ejV4y6f4Z9qLZ3NC/Dkd9kEQGT/yc/hO9pQiOGjv1MbILztnhC+caz6onDn3gReueCpmu415lkGCIXKAMFkUjHQkcXYnLMqCj84kMZUyIZEujH3zXYuUJu9NhfgROg4XDiJSNKHvYceRMC1gHPjHrznTWH83TcAb3u1cIyK27u+hDMXJXQGVYxNhnHXrT14aYqCVnVU+VQJxUJICF+pJsbRapPwDGoBbYYvYGGpiIBfxvi8F+/94T346tM+OL2DlRfXogyjQQELJT18RxjfOWbG+x8tgiqOwxNBxOQjMG5hKe3Nvosb5XwBEOQTmJqZwcf//ts1HruaFNAySNCYlFd12KRwFhO//ySiT4yt6wej7wVY0DHkxDv+1w+i/57ulYyF8oNpuLgbFwSxZTEZgiS90bsgmuAraClpbDRyIyENHDRujqoZaY1IeKBV8yI8MaZlmFRrNCgEAvuCZo2rsOxCFmTE5fg5vQnkVPAzhhzOLkoIV/AklAMEegAWUgp2t2ncJBqn6fFLyKsm9PfvwMW4Ebe004OhyUSzUTyLY64pKKp49djTOHDXA7Bb1npBtf4JcWehNClSLw0Q3odLUVkQT8nmrzWzGILhmPNYcXeDJoutz9hIrgjqYPC4bEnmJ3faPJ4CVGxtTiP2BC3ifZZ6Y5glcmEpD0s2jIEWCwxFRRh+eghY2MjT2olc0QxzdklwMkSIwWQW4VemC+s8DY4/+Qj0CG2k8ZmYrNmT5gAAIABJREFUxbC/zSJCChrJlD4F7R3T21Er7ZLjzJAQR6aQz2NqbgHRghG3DvXgwx/ZgJLiz/xubYDw3ocW8E9PrU+J0x/+3kMxHDvrqw4Q3H+EF/OfxQekygCB2Q67erK4OE1EVnmK3DqUxPi8A7HU9Q8QTNIo2uwvYSZkxDve0o9vPTmNvr5ejIYOAImvor+7BTP5t1XlFBhjfwPF2AkVdkAaR8H+COyujVe7rDWJxW5SkaAmn0ZfWxwjMz3wddxT8ZSikofdnIacOold3XHMLBrQ15bGmctmWFx7gfSzQOBDgLF6KGQjX6ib59QfgQsv6wBhFp/8wnfqn3ANHxH97hjGfvO7UFIFDD7cj8MfPIhvfez7aH/LAcx89SSsHgse/O2jOPCzt4rsBKZFljYafi6iNCRUO+TvNFjMEuDiTMNBg6ZrKuikP7q1L0bWaw5sdKgICDpcmq5Bm9ME2lzK+p6Yq51T3+XWlCDJL7in17oupbNSf6gaeXJREvwBfZPNZ6YHgf0QwCcv46XLYexqcyBgB3KZDILtnSK9koRJnbtK7wQjUIRHDLEwdZTud5OqIJNKiFRJNt4nU9Bi+RRZpAeExEqOY7/PLHb75gphm1rjeTkqid1wvSwVKj2Si0G1w9LGv5NsXd7oMaOHo91lFvLU5AAwO4BeM7ZUMo5UIo62rh5cimphDaaiHmy1rIYeFI3gSIxJvYvTC4WGszfYI5HNt4w4OQ/fOGBfSX/c6BwrPe/SXAS/8+9/rXmhpJ/7vUsqaoQY3vPQAv55EwDhMgFC7rP4MbkGQOjO4uLMjQEQ7MZpFFKjyJtuxZ39T+L4qTR6OiyIqfcjGkvivQ+r+NcX+2GyVNaQyKUXYXMEYDBeO2BJVRW4cAq371rA9EIBI9NByIoN73xjDt94aR/aPBEU4i8h53gnYNx8jYut+MLcSNcgQLBJ9CBc3wBBSUuY/PizCH/tPFS5iLaDQYTOhqHAhB3vux2zXzmBobcO4n1ffMeyWJq2aNOgUXGOPAIS0PR4Mo0f3fN06ZaK/Yg6BjLP1Xa+BAkvTDfmNm50XnEne3uXph3CAktUSaRxeeJybS8CPQe6q57gh/n89IbwOUujJjovgWESupzpeZiIKaJmBY8nkZEhC0eJS38pEoXZbILfuyqBzmcnKGDIhYaM96Bs9c6AWWQocNzcFiBoTKPF74PVZBTjxXElGCCYIVcyYDeK1E3Bc7AahCeBoZ8K5RvWDSH7yzGihDX5JJXOqe37qvxWhLImnWLLH3OeUI+E6YwUjmIYhX8T0tyhGQzuWC2ix3MZZmLdDBp3ZjD4bRrBlTt8ejPIYyDwrMZP4XN0Ltd34Hn0/OiN/AGm2pY3HsNja0lxV3rasbkl/Ptf/jUMDw+vfNyQ1PLP/cdLqsFSnYPwngcW8M/PVPcg3HMghhfOVfcgXHJqAOHfFKsDhJ1dWYwSIFRJnzuyK4kJehBeByEGuZAGd9tK+gzuP5zEsyMH0eOfgs1cQCRewNAOJ07NHq0fMmh0JboCx5EN7bVOw5g/DYc5hYKhExPjE9jVp2JOfh963Cchw4tQdt96YENJ3/QsFCkDh2eHEKJZ02ppuV6BZ3s93OL88dcHQMhNxnHmh/8Bvl4PnEE75l5jlVQVVrcFCn3IBhVv+eQbMfThw2IRZe4/DSe9BYzNc9HVc8T5+3RCwZ6gGTlZc93rbvrSPSYN07mQLNzbW9m4o2aKY2nEhkaVwkfNNNaPoAGiMdGJldwN87rM3qCRIvmPxEXu2mnIzi3J4m+UHtYzI+iWzmczgjlPQSCOGYtBMQ4vaocsWyTuni9GJFHJkQCL1zFDgt1qwVBAux7BFe/P/w9nNDe5OM6oZZMQINTjGuhjQPVLZo8wauE0VwYUXCJIJmQ2RjOFG0uzWFbHnHULZDEGNPTc1ZP3MBdO4kiXDQ6rWdRwYOMYcQ4RqOmKnvrcITmWRZzSBXp7Kr9Reqvu7rGu48OUEmnLz5xOyKJoVDPpprwG5/b7/81HcPZskwDh5/+/2gDh3Q8s4EubBAgvZD+LH1ercBCMRezqrg8QGGKIXwcAQZFzyKXmYXd1wlRBa4AvS8oncf/+8/jmk9MwIQ+3N4hUcgGZ+By6D/w0VGPlXNtmFo5qx953KIoXhv0NCUQ1cz9OwKKcht1aRC4TRSa1iPc9XMQTT53CwEAfRuZ2w+xcX5mzkJ7D0d1nQQWzs+NuSPZ7t6S8eDN9f70fS4BgLVyHHgRVhRTNwWgzweSyInspgjNv/wKsHm2BjqUsuP1d3XjkEw9h7HuTeOVzJ/DQF9+PzqBVGEfdqNEwilLNyyBAq6LIyozGlcVZ37uVggPOaYoQNQIO9N3jQrpxIEEDTaDAvjG2zh3yU5PNAQSOA/vMHT0zHfj/NNA0Xty9ng/LwmjS0HO3S2v9+FhO7EBLMyMSsaggvzmXMxAIoAiaIhmNJ3BrpyZOFc1qnhXWIBA7cDkramOwmmOpN4L94ucMC7BAFjMBCAwEabJk105vw/klSagailDG8gvgcbKqCkDB1MZ6noZyA13vO61X+iSQoUeEZEfyK6iJMDc7g972FjhsVrgcNuFxYS0Mo5yFqrAKsVeALb5pAqbzYUl4Wch3YI0FggpKcJMkyMep5kGgN4hZLJXqilTrP98r77URKtCGSIq/8Pu1OQjvemABX64BEI4eiOHFGh6EUecfgQDh31YBCOQgCA/CbPUQw2F6EBYciF/jHAQpt4R+30ns2+nE3Nw0Ts8/KMoal7dM9BQeviMJj9uKS+MLeG20Be62e5o2jCR4Om0KkpnGww0/ePcSnniFIYDGyGZuhyyOzRUak/8sfdZE5BwK0edh898DT/BAhTmvaSYkls7AaSsgaBtG3PxesPosZbBVsNpa4znU9RaFG/XzkesUIGSGQzj/c9+AHM3Bc3sn9n7uRxD64llM/OHT4lV6ez3IhrMw2804/BtHcfC97ejs6RWuWp1kyF0aXcGiwp2BfAOjSCXTmyB1lVB2delg2rFzIUnUUKjUuLgzLY27/tGojPv7bUjmVIyEpZWy0/Xm2319VlEueG/QImLgDAucDW2c50AXfpebdQa07yrTC3l9NgKRva1MoQNeW5BEKWAa/AGXBL/ThmwigpZWba0qNT4cB1agZFjjzi72s4jLMS1MscNHDoNRGPgjndaKdTCqjUHl3fvao2lgGYaotVKxfwwDcB2hsWZYg/1n31jhUxhn8Y5VLKWLghipgyO+W3pdSvUCaICF94OeJ0nG+NwSBrtaReglElqAL9guAFepoFimoGAmoQhyI8mS5Ehw7PXy4/XmAe91pNMiQGLpvAxnFUzEleWaDVpaYz3+Ra17bQgg/OIfjNYMMbzzvkV85blSVb61XXjDvjiOn/dWJSmO2v8Yx7KfxQcN4xX7bjaqGOzK4BIBQpUQw+HBJCYWr00PgiJlYVJDgCprO5bk95Cxvhl+y0V0taq4sHQUZtvaWgq55BiMhfPIqjvha91Tb/7U/JwhnmPDqx4Hfpm0YkeAxcy4Kyu2kRCkTfyj+2N4+bwPkqIVqqLx509BZvEorUhRKTt7b18akYQFoXiZ639TvdYSzK3qpPAKmTLPYqhPxcS8EV7/DhSzpwFTG7KWe1A0VZ97m+3CjXL+yAt/Cst16EEY/ZXvIDGVA7IFWE0y9n3+Xbj0q99B4rmpNa+OruB7PnUvhj54u1Cj4yLK3SqbICRSfVBWhdCOrnugx6z5dxo/Lvr8ztBVTVc5d9Bc5Fl5r7zxuIcHbCuEtxem8xWPqze/bu+0oq2kMA/leml8N9PYt7cMapkINIZTcQWzywp/HBG6pnVlQ7r9D7aZkYsuwN/ajnxR28ELT0sJaKKy5JmQJAwwr6GPCEmW9ACQiLg/YECPzya4HvVkmNk3xvUp9FMrJEAiJj1B1Rr7kcoXRRlpVs4sTWdl+inXQV5DcDQMWk0KfffNc2NZ1u0xrCF6EliKZ5Q1sujCUgTxTB47ezsg5XNYypvQYsrB4/WJUEMsmRaiQ3zmQIsfkwkW4lNF2qVefrzW++S96N1h30sJtVT5ZBlpviMSSbl2N8s7KL/vxgDCH46qxhochB+5dxFffX7jAOEiAULms/iQsTJAoPY9AcLlGgDhlsEkJq9BgMDYe4ttHPGF4zAb0ygU2+Bzy8iabkNGbkWf83uYT/YBzjs2852vei4nzbvvXxAAIeCRRP0LfbdPvgYXRwID1rzgv2wuGwtZMW7JvCPKpy4DhaIBLrsCr1OGhccS62RMCHolTIXsmI/USaNs8gk5dnuDz+CplzPo7d8Pc+ZxSGoQO/vMOD3Zh/62PGDrw2Kqp27N9iZvfcMdfo4AIX/9hRhevfdzKHpcQE7C0B88AEuXGyMf+gqUxFo3fOdtHXjzJ+5F+4F2uNpdYt7riylVBrlb5kJbrpBYPhG4YyW4IDuf3y2mq1VyD/Pa/csxfy7wpxaZXtfctOI1HtlpX1EhpIGh94H93WxjdgPd5TTeDH08MVY9bMF49r5Ws/AwlHoOmPJIoSC9ESRMJ5UVUfepJF3/RuFR4M53bwvXFgvykgwHZSeXGz0sBGHNuNG1GhJM19RKF9NTQ6IluQg68KPx5fPRGFdSFGT/HVaDqNy4kSYqeJotUA0mzMUyCDgtsFvNWIimYJaSQg8iLRvFs7Z4nKDiJDUSUrJBhBwi2caTYJnWyAwPakGQ20HxLT4fn5kAh6EXglu9XshGnofnECBMz8wJjROKIZWTFKmi2NPTg0uXNI0RIZT0SwQI1uokxR+5ZxFfPVYDIOyN4/iF6h6ECzYNIPyEaeMA4dBgElPXIECQCikc6L4swMvi5JPobnNANbfCWEwgYXsnpNA30L9jAPPZWxs0cqoWw6/hzndYFezozKK3NY9U1oRo0ozpJbvwFvALLmJ3ihF5STP8Wv7xaglhb2IeSU+HKNikLQjaeZrHoQirWSu1TICgsHqbXUF3ax4Bt4RUzoSRKRfiKUtVbw89Fmazimy+dkiCLsHc4pfx8L29iMWzmF8Mo7PVhVfH2mF2DKLVfAxG92EspbsbHLuNfm1e/+cNH7s+AUJmZEnoHYT+7xkc+Mf3YepTzyPyzdF1L8zc4oG7zQqLxYCfPfEhER+eiDMGrJV/3h1gDLuc5b+qg6BfkDtrGlbuIvn/9CDoSn1cpBlfphHnjpmt06Wp4DGtrXFzoN2NX703D9qF0iOVhO1mhgTkDUk2lw8IDQ75BtwE0GPw7GS+prubGQ008nr1x/G4IsIw9CSUNgInrhMk5pFroUs5uy0GkZHBZygqJPitAgQ9g6QZ17iumXAhLAuQQo4ADSRDKARS9O4wdELFQ7+jcgiCx1yOavU1yqt7VvvG813OJGThtQg6uH4qAiRk8jJmQlH0tHphUCTE4nHAZIXX54XLrm2cqERJaelC0YDnNlCgivc80EZOyjJngWvyMn9heEmCpEDwQBp9lkrPSIAwcv6iphyZowiTFZ/85CfwxS/+I44dOyZEmJxOJ5LJ5CpAeOyPansQ3nHPIr5WAyDcvS+Ol2qEGAgQnk9/Fh82VwEIJhWDHRlcFkJJld1JtwwkMRm6CiEGXYasCiNEiB4tXYTBZMa77lvE+dFpFOESZXsthhwCbd14/LgJ3vajDVuhR25fwuMntLLEmuFW4XPKuG13Ak67guFxNy7POYTRb6YZVBUHz30LOy8/j6i/B8/e9zNQNxDfD3gKOLIzgRa3jOPnfZiL2AUI0d9dZ0serb4Czow3pneQjI4hHRsTBUY63ReRcf04zMokenzjuLC4DzZXbzOPefPYCiNAgGDOXX8ehPJHeenQX9Qsm2hvsePX5tcqRdLQN2OcSu/J3ekLM1opX7qAGd+/FFW2xIjzPsww3Ok3Yz6tbChEofeVRpuGk/2lkevzGrG/1Src+CTfMWuhXiM5745uKxj3Nhu0Ikbljdd7bV4SRY54/e+N51YKQ+mghxoHzAzRm9iwsKiVsXpqXqVlloDr5HxBiAaJWhGZovDsEJw0YiiZPcD3Ri8D9SuO9lrhqqLSOLHMqSCXhEBQk6A2Irq0iJZWbXMsAGCxiLFLF9HeOwC3Y9WjKuXzyBdyIjWSHJLZVONE1dIxJtmTXoRKjWCM6pjUdqD6ZXOrv3bFDYUYHvvjOgDh6CK+9kJ1D8Lde+N4qZYHwboMECxVOAhCSTGDy/PVSYpXDSDU+1Ytfy7lY1AyU3A43TAkv4uc7UGkEouwufvh8jF3tvHXyWddiFlFqKCjpYAOfwHnp13ib/VKEFfrLuVEd11+Hu5UGOf2P4KB8RfhSS1ieP8PIOPYeMaE265gd28aDBONLzjE7sJqLiKVNTedkppPz2GH7wym5wvo9McRUw5Ath656sp9DU6Bpg/TONAq/IlFJD3tKFaswbH2sowMOzIx5G1uKE3IVg8///oACDN/dhzhr5xHfj4lyvF6e9xIzKTEt4vg4CPPfAD+ocCauHYpGY6LvEjZW/YSCFVAaAZMFCAqcUcTWDAl8PIyIKALvtdrFDvnjer/Nz1JKpzA7xi9Inof+PvhdnoLgLGYLEiT9EywNVNhkO5ruvLJwSDR77bOtZwjwZ43cVcNnA0VVmShSVIkyKGbn8W96D3QMw443sxC4GfcIetAoXQ1JD+AlTT5JiihLJQtVU1XgICHwlAUVCpt0RIti0pjSnIgQwydbnIqDDgbklYAXnmmBc+np4I6D8wioSdlKKiFXEhKDLS1C37dUlYRglbVGlUX87kcxjI2zGq1jppqvB+BiS5cVX6yyBJbTrlkxsdGQO+GAMLHPl6bpPj2Nyzi6y9WBwh37Ynj5YvVQwznLRpA+Ih14wDh0EASU1fDg9DgK46HzqLX+RKcvl1YXEpBdt0Hk2VVbKTeZTj9XQ4Zva055ApGOG1FJDJmzEdtDWcb1LrHwbP/Cn98Fuf3PoycXdvZD469CHsuieEDjyLt1NTPNtrIcfC7JHQH8iJ9kryGeNqCpYQmBNNYU5GLX0Rvu4KFsASDcz+Mxtdv7YZQ8TQyxRAenLLBnwyJWOf5vW9G3lpZSMqXmMOeC99H1u7D6O4HkbM15qHh2J8lQMhe/x4EqidO/scnEf7OZahKEd13d2L2+LyYXvf+5l247z/cBaPNJnbAbPxHSO9Ky3Fqps2xCI/LJAwpDRYXZkop8zid5Ma/c7dGMLCRIkyNzffmj2IogDtcEu3IlucumR4Dv80odp4kY7K/ZPBzt0/D2AiYYXrefX02EZohD4PFkvg3zdWvhWJodPWKkTyGIEKXE2a/CCg46pV4HhxPGmr2iceWkhhFGW2vSdynEXIjR42hg3KFzPLR5DiQN0HDT6NPPQiGTPjuKzmEeTyBB8GNPg/i0bBQhmQIKVFQ63IA6FEei+RxMdb4hlDvN50bDDHotTH4d2pTUPLaYrGCRaKYhkr5ZQvrM2wgz3FDAOHffaI2B6HDn8NCTEOklZrPJQljUK2dM/8xnk99Fj9lrwwQOJQOm4xMvnqqnschI1swbYmxbP5rWf8MRWIdd60yXiJrhcnib9hpwPHb1ZnBfEwDA9x9M37fsF2t3z10z5xC1uFfY3xMigRHNo5YSw8KttXqaw1cruYh5DF4HbJ4/r09KQHspsMMQzT2pRF646WJ0pvt0DV4/pnC3+G09DfYYX4I95g/htapMyhc/gr2ZgG7ewe+NbAbUnERrs4fRO/8edz/3F/hzJ0/hpzDJ96XziFp9NHOPPunMAmAMIM//J2/RepCBN3v3ovcCuWs0Std3ePoQVj4m1NCZplNmymqKNb0ji88gr2P7oFi0NyvWlqjZuRyiianzKar1WnkL81YcaeqaybwGDLjn99i5cTNjByVH11mbYdNLwcVgGmwCWqEFgE0o6bnH1FXgXn4NOKNNAIA7tR5De70qSzJsRPpgxzfZcanXguA4IpjRoCg6yzQJc81i4aOXAaGBfRvvK59QABCZwCzK+iNIHfhxZkC9rZaxHuhcWyEqd+odhrHiBkqBAjsiw4Kee9yfkWlcQovziHY3iXSZJkS+fAgS3PXXscIgvhMzTYCv0PtFkFW5DhTzdHOSpEk3JpMAiyYTMw0KyIVj8FitQo56GaAwsYAwicv1iQpNvug5cePmD6O5wgQHOuLq2z22tt5viIXYCpX9dvCG9IV/8itSxhbcOL8jEtLL9xKVLCFfd3Ipfg1omeB4O62nQmMzLgEX2HLW6OrxZbfeOMXfCr7uzgp/RXutD6GN9h+GUcC38Pw8KiowBZX7sLPvfxnMLzwDIrd+3H2zQ/h64UB+He/E0Vj81oU7OWZZz8NU+YEJi5P4kOZn0R+LoX3fvVdmNzZcU3tkOuN6Mu3/IVQTtSbwWyEvcUBKSPhR//p7Rh88w7xPCzZbDNpRo4uc+4aS5u4wrLMbqV7kjl/cqF2TYR6fd3Kz/kcrCp5VxXVPcpH00AzxEBypsYJWk1HbKQvDAPc02NdI2JUfp4uDkR2AtMnuzwmvLZQEKRNhhpICPTQwCkk93GnXtmYEtgQXPC9MJ2PAIQeGwIFns/GNEWqJzbjSic/gemONLb0WoTSRVFSmZoVetPTN88tFUT6I6WbCY4qNRZiYg0Gtz8ojD4B04M7amdzbUQNk/cmMGAlR4I03pNiTNXGjwCCPyRGZlJJWG02+FrqV2TeEED45f+0vQBh1PjneDn9D/iA49lG5unr7pieYE54BhZiNhGrp8FkKIF8guGprdu5X8sDx3WirzWLrkAeF6ZdyEomEUrheDx8OIzvvKaRMm+E9tnEYeyxvAMnC5/DnbbHsDf2KD70qBXfOdaNWx0jMA+fwtHj/4inj/4odqVHIE0v4tidvwLJGUTc39MU90AfzzPPfBrGzAlMTs/gtx/7K6TPLKL9x2+B2bO1qavb9f6kcAZn3/OPKLb6YblvLzL/+2kYZAW7f2gAyekUfDu8eNPv34e2g5XnkaitwOJARk0Ap1Jj5kKmoAp2PIl9mtri9jemX2rFolbDGfRuVNoskHvAGg47fKY1qoU0dDSI55YkUaBqM42jQ0IfAQd34ORs6HUqqCh5drGAg21WEeMfDGiSzPRWsE809i12E2xmjQ/B49hoNDn2BAIcZ7rs+dz0NpR6bvgMPIb3ZNqofk758+hGnsfx3fIcegrohaBXiKCQxpWEvlr7fQKeWE6B3ViE3cSdukbM1D0lLLmcTafgbQnixVlZjMdDA7Y1c0jTUygKtU3ej++Ix1F9kmENDbDWn0v0rOwLmtDhKOLkeAh7dnQ3lbFAUMEQhN2xtoaPHt7htN8QQPiVT20vQMgZ5pBSQmg1Ht7MvL1uz6WuQJuPLFciahUOaxGzUZsIJdxojc8/2JEVwIDPT95CKGEVXIUbpX02fhh7rO/Aa/nP4S7bY7hvbAjvtgzjtHI/DhVO4njgIJRdnUgllpCKT8FhtGP/xdMIyirG2x9huQGM73wDCtbKxbwqjeNpAoT0KgeB6YOJF2dg6/Wi5eHKpbuvlffBAk0ivfH5Odg+9lbIn3kcmI8in5Zx20cOITGdxOFfugP+oz2CeV8pJ17fsXKXRhd6+a5UJ39xUd8o54ALvG6aS407wTHJbeyDXhiKsXGGPUR4lWqGfrNI52MMnL9TlIjaDTxeT6ksfR+M41NVjwI7pfoFNIzVtBuaeZ8s4lSqgcDnoYud16fR406XrnQa2F6fSfSRmQA0QoMtZqhSHp1eq6jPoLdS4SX9bzy/tKYAjXzpbr9an9kHhkEY5iA44jV03Mf6EFRHJBG1vNE9L0sFoc6qg4GiUsTo9AK6/E6hY0AeAYEBKzlOj4+iu38QBqMJI0krEjlVgKfS8ATfK70d/Bt1C8jTILgSGgYSs0pUnAlpXp16bZdXxWDQhrSkiTo11VQVmXRSkEQZfjAaV3k2nO/82RhA+JOLqslW3z3RVGev14NJVFk4CU9gD8xWx6afIh09D6/hMu44vANz6QHEk3nMXX4KBpMdlpZ7YLGvVVjc9A2vkwtQy4E8hVsHEzh2oUUQMjfVuJNg/fZ8AtnkHLytu2E0XZug4zPREoBgfwwPztyBD/XN4v9mHkb3LhlLKTti+XYY5SU4pFfR1e7EUrYHO1tmMHHCBZ9cwHTfrZCamJ+nnloLEOb/92uY/i8vwn1bB/b9n3duaui39WQViDx+CZMffw7mD70J0nfPwGXOo/ODR5BPFRD5lwtIHJtG3y/eia6fv0u4l7mLI0lP5Mm7NHVQsuBpQGgyyo0S+88F/sR8oWFpXJ7Da9FA6+ELljTWFftoDEgQ7POZhLubxox57LqwD0sFEwjQYBVzKXS1taxkU3DnzLLPNNAFWRVcCLqdaQxZW0FvBCQERNyx0mCzXYrIYufagC2q+dpIGtzfZoFcYsCfHM+LXT89Hbwn4+Un5gp4Q49VcEGYiXAhIgt3PQ1dvAC0uiiVru3IxZhVMNoEQY3wAfQOc0dMDwu9GrwuOQFzM9MIBIOi0FQsmYKimtDiZtZXURD8SOwjyU8hwc9iEcZT70sul0GuoGBOcmJPcLV4Fe/HLAbG/9ViEWZPKxIFjcBZGp5i/wmWyJ9g3wiWmCpKgSaGL/jIrKBJAaxK0ss03JxHWakoMhiYJtoID6PSC2Q/+ZwEN1R5LK/bsCGA8KufvqiaSoSSHj2yBLe9et5sOGXBU2erAwrWBnjkyBJM3OpUaU+eDSKSqk5svGNnHP1t2aruoXjWjJdG/Zs3LGX9SyyexJ27Ynhu2Im2vrs2tfbJUg5vPTKG8YlZeDxOPPlyGtbiNLwuwO32YXxehXfHuzd1j+v9ZLulCOoqdLfkcOKyr6oORq3njEx+C+3OJezfO4BAiw+xWAwvTwzCco3qJ/xl5DD22t6BV3Ofw90OchAew27rvyKakGG1mLCE+6Bae7Ew8nfo6u7D7p0dOHb8LN75yB58f2SoagGwWmMGE9UBAAAgAElEQVREgGBIrXoQlHQBSrIAg8UES3DzQHi75iGrN178uW9AffAwt4lQvnQMu//8h+C+tVOwD+VkAcW0BJPHCpNbA4R6Pr9evEdfzEnYo9ubHgLm1pOJT3c9te51Vb5qz0EwQCNPDzQXcH2Xy99LQxZc8ehmFwWYilr8vHyxF/K7Bk36l3n2vkBQGCy96dwBfk6BI10GWkvRXN9DvW99PiMuRRge2Sw80LI/CDro6WB2BA34sanCSpYEAQSN4i0dVlHRkQWdCJAIzAiMeG5eVuC3KIilcghLFgy2OivKJhN4CM+D36wJNVWJCbA8NBUKqcHAASRXgWRMAhKmV7IJlj+NpMjm0IiIAggwZs//SPgjw1M0Fcl4THgTGO9PSVphqzu71m4s9EwCgg8eW94/Ak4afl03Qpf25rwoLTyl9QniHgyNBOwmdLg18iTDLDrYqVeUqpHvGkFPOp6AP9iKfC4Lp1vLeNoQQPi1MoDQSAdqHZMszuAf4u+EAk3eM1eMQYUCh3EVVLzL83l0mo9s9lZben4mPo6d/guYWLBChh2FbAiejrthsrU1VTCIE8hqVrCrfQkL0yMIqfdiwDuMY889g/f88N341xfNMBtSGGyZRNj+b7f0Ga7Xi/mcEgbas5hcsiOWbjw1Mp2Yw+0Dizjx4jdRdN2J/kAIScMR5Ax9MBSTMFharzlPwsnc5xEw7cKifAad5lvRbblD7HAmznwZLZ2H0NJxULzGpQt/DXfv24QynRL+Pgq2gwh2bSxMd7IMIFwv8yQ3EcfoY99EPiGhGE7De7QHe//n22t2n7tbVkmkq5duZhovGhamqTXbGAOnF4I7Sxr90sarlUo6N3ttHh+NhGF2tawLi3AnSnEfEgHr9Zp9JBjZjkbPBZM/qETJ2gIMMZQ2AqChFi37gVUvae0G/SYhJrUvaBYyyTyXhE8Cnfv7bHCyoORygSzyJU4vrpJBOcIPD9rXVW6kKiJ5DnpVTR5HTxG9GOFUAYZcFIHlQlPs32vzBdxapuNQPj5z0TS6WlzCM0PDzTBFIlcUQIFZI6w+KTI5VKokpmCzUqlTAw9TcVm8Mz0dkv3i9CitBbGZ91EpHLOR65Fkmc9mBQDaMED49f98UTVuY4jhqdQfIFGcwdu9n9nIM16Bc1QkQiPC3d/tGEEhm0BrWxCqwYZYNIIo7oDJ3tZQP1jvwO+k0E8el+ZdSLPQfHoYOzsyuLDYifc+ZMHfPi4DchS39i/icv6tDV33RjiIWR27OtJIZM2IpKwirbWRlgiP456do5CkPC4tuCGZ+mDOnUFn0IKZeBCK/SDMVbQFGrn+VhxTVHIwFmbFLga2fnFJNTsh0pYUczeMZi27o6jkYUUYRnBBbRHeAosahslQQEryw1oSkspEziHQ4kYyZ4fF0YZ0ZARtQbcofmVxdq7p9sknPw0kr08dhPxsEot/fwb5iRiG/ntj3xfu9ql62Ok248nxnFjkSxt3dvypZFiF5LjRINzoFNrp9VZ2+dITQBcugUijrTzhJh4JCw9CadMFmggOaFTLG40XuQp6oyGmXgM9ItvVhlrMwjhXuwd36twVM4zCHtPDQnc5wQGzKgh2NDIhsNsPyLKCuGIRoZ3yZ+z1mMS5/K7o3paxqEYcLW2dLgP2+ovIZzPrGPwECMywEGEcVetPKdeB14lHl+D1B4XHhXwBxvyZQsr78Fi9SBSfmf1wqWkYTWZNCMpkEvLYDBmJbK3ldFq3rXrlSY4Pk3LryRcwBZTeEgLTZjI4Kr17SZaRzuThp9t6ox6EX/8v5CBsTiin1sSck05CUtPot967XfN3U9flDs2X/TIypoPIKzbs8JzH6dk+uDytMMaegL3zYbGI12sk3u3uSiOWtggDV5ANSM8+gaEeE6ZjARjcB/DQ0Dl87ZgJJjWOXYFphGzvX3fZA32pere65j9n5UeSDzfSGG6gu5K1JBbi9Vn2i1MnsL/1AhKFIMbn8tjZbcKBQTv+5ekF9Hc5kbfshsm9r6l84Y30u9Y5ybln0e2LoVDIYSbqgcnqwY5AGPm8hPmYA/7+HwCVFd3GecSmHkc8nsCRu96KcMaN9Nx3EYtEcNvdj2IiuVvcJhY6hz2BUcQyNrEAxKUO7O9cQDzrQC6bhuy5H3b3apnx175PgPAqpmZm8ckvfGerH2/br6fKRfDHSLH/Bhpj5Tv8JhEDppueceLSVg0gkBhIAR4aB8a46e4t9xzo1+E1mapHEFEtM6K8qwQqpY6IpYVZtHasXVtY2IiGh8b29GJBGKLSxrCILlDEv/N3GqnFzPYBBN6HWgK66JLuLi/tF1MS5WWAQGBAJUTuqJntQCGqZpou0qQDOz2Mwvsyxk8j2+8xYoeLyo1WWEvIkLwPQRZBE0mpIgvDYhQhkVLiZa4gw2JUhcEncAtlFMEX4Uwh4NG5Kjq5UJEl8f0NL86jZ8cuRPMaD4V9FQqcyxyXas+p61XUAwgkYBI0ESBUm3uNjqUkK0hlcvB7nGL921CI4df/6wXVvI0ehEYf5modR2JHt/plMSFC0j6kmIJjuoQWnwM5yYwl5RbYXKuLbaV+Oq0KyJs4MeZDpmASEy6+dAlvPriA733ve8hJFsSyHuzqtcDt74bH7cbl8Ul4Bj+47nJMg7zeW0EyIi83ycIteWibuSjSIll1cjZaWzshn43DZkqjKEuwZE8gbdwDKTWKwW4XZvOHBdnUaG5cdXA7xj5z6X8IkKKoZrQ7prC4FIfROYiiqQWtlku4GGrHDzy0D7FEDpGkEeG0C0d3TuHSjASzvQ1zcTfeuH8eL10wQslMIhmdgcVsgjH4FtizxyAXUihICozt74A1+RSsrfdCsgysPMqrBAiJ6xcgNPtOGDenrj0bF1yS6cq9CEyx46Jd+ncWY2Icvd4izuuK1ElZFcqBeqyZ6XsXI5rLnOS9uqI64RD8wVXvJI0Tme/0XrCdX5LAwkl6Y+jk1fmro89AYHN3j1WEbVg7giJHHCcSE+kJ0Juezz+8JIvaCRttHAOGWmh8WduBY01PBHf8HB2dSNmoDIqWuloU2R9sx0ZmcHTvaiE4XaqagEuIPlXQyWCGQ2huBu3dfWLekETajAep2bHg+JE7w6wMp0UjpDbTFEUWWgmKLItQw8d+/fdw8tSZlUuUF2sqv7ao5vgb/+3CDZ/FELv4V0AxjyMHeiAVJJyY6IaSm4G38w3wBDSXcKUmUpg8eXS15HByYm1GwuUTnxfSw3qbWlSw87YfR3Ls7wXS9vS/GzbXjZP/38zE1o/d151COmfCTJRlcWt/OaxqBB4MYyY9hPTsU7jtYDvG8w+uIYBpDtDmvmQb6Xf5OZaF/4ml4iGosOL2gRBmpqcwn9sNkoMPdk/j7OI+JKOTuONAC3LGPsRyLRi0fgszCxn4ex/EYjqI/d6n8N1XJBhMbuzwXsbEooLgwFvhU47DZYrg9JiE1qH3wJF5Fq622xGXu1a68er3Pg31BgEI3NHtC1qE6qDeBPjPFMVCW7oro0Iep0M4rQjCXWlqGXehNBLVSkSzxgCNAz9/aaYg0t/qAYLyecHYNuu3VHM/00B+t0ap5q2Ym41egyCIHAJ6CrgbLfWE6Ln2rExJrgCP3ShZUhSwajELj4WessoQwEuzmrCR3mjID3dYxQ6+tN5Grech6ZLOJJbAHpuew1D/Wu8N70PCIUMMvH95uxCR4DNK8NmwTm+g3jjqapKNrD58HpI9qenA7Ad6FAgO7uiyNgUSmK7J1EddROkDP/4RnDp9tkmA8N9vbA8CR2tx9GsYaE0j0NqFfDaGi/Fb4G/dVfOdM6RAdzhz+2ejjmtWBrrexL3WP+/058CiUJSiTuWqu5iZ4mhKHYffkRXs/2PDMgLdd9Z8PMY5tXI929uk8b9AwX4IctGEAf80QqEwsuYhwBxAt3MUcdd7oUhZDAYXEMs4ES8EcEvwFUzMF2DzDSGUacVd3afw/WE/3C0DMIS+gmgsDk/f22FNPQULkpgPS/Du/AAMkW/D3XkvcsZVYHuCACF+Y3gQyG7XSg/Xfq+lCza5AG6vDyZzYyEMzhaCCxpCxsurkdPq7W7npyfQ3rND7I5ldW2xKEJZqguSyNeI0M72zuDVq2t8A4hdvQ62NIADzKeKmE01Ju9crb9He6wi9q7vzEkinE8XcTEsi9CL3lhq+1Cb5u2ZThXRv+wZqHZdPU2UfeVu/JXzU7jv4NrNH69OmW0+DENM5TMonUyIy+ukv0bHnNdl6irvSz6EznmodT7HmB4PpuvSC0Zgdm+vFnJlqIfZMkyPrAVKRRotUzSX5/WGQgy/+WcXVLP9xtZByMUvY8B7GQv5IUBOIpp1wt9WGyDs605qBZXi9Xe3jU6km8dVHgGm3Xb58gglLYhlKnMbuBhLhRSy8RmY7T64PJ1Xw1lQ8QFyi09jd7cZilrE6GQKqsmNvd0KVKMNl6diSMgdOLS3E5FwCK2eApzeToRnhwW3oMOXg9PXjfj8aUQMtyIXH0cmr2J/+wJsgUOYmbyIcNaH3a3zcLbdgbnJs0hZ7oTFtUpUfOWJGwcgMExA93OpQl+ll0LimVZOHZoLNs9yvZWVTWnAdaU8/Vq66l/ptTkHSWqjESDjv8drFsaApMIBP+sMrJqcVDIOWZJh8wTE4l9eqGgmoYiaC6MRTcHvWmmM09NQl/I6+FRb1UOvVfPKMBWV96ExpEhTeWt3GrE/AKTiEQTaOtekk9K40jXPtEm2ybgsgNx0QtNpSOZkpNNptAV8gh8RYB0LA0R6JMdacC2YDlvihWJGwMLMFHp27NzUq2Cq7VxSEd4PhmPqNT4HvQj0lNCDwH6yWJVIufVWD4cxbTIRi8Ll9cNk1J5vQwDht/78JkBQizLUQhSwBpZzXde+OC7S6bxZ7GDpMbhtRxzjISci6Y0R8epNipufrx8Bh0XBYHsaE0tO8S7IUyBwiGUsooLktdwMqgSnMSpEV+I5J4wmC1ym6LIr1o1sJomONh/CsSz8LhUWs4qFcA4miwceewE2qxELSym4vJ2QcmEUTX747FmochaSwYecbIPXlkZRSkEx+ZGV7WtCKwQIxdjr34NAY//mgfVpcvXmBkW2mEvPXPfSxp07F2Maby7QVDys16j/T8EmGjcaU9YHYJolY+mM4bPlshkh9uP3uEQcW6RGL/vsCTxoEMZjGkAgOLnRmhgPI3UOljMZygaA74IpjgQJzPOncqDJtPpuOGJ8D8z4YMiCoQVmGOSlItR8CkWzDU6bVYQs6L5nOua+VosAByRX8voOhhmcRhGS4DywFnNCxdTubFzBtNJ7I9iJ5xSROst3Lq5dlkJbet4rcwVBgmXYRQcUnFv1CIyRpQXhHfW3tgtPCLNJfumjH8WlkSZDDL/1P24ChHpfQE7YfZ1JzMTsGGjN4NKCC+lC/cWi3nVvft7cCBgNKu4diuKFSy3oD2YQzVgQvaFBWjmnojLH4pXHbwyA8KYBW0XeAHeElLylwW6kkbPAugaaK92ipbzVYakzLZHKieWNb2QxpQgdBrL7w2kJF8ISMooR9/UxFLK2T3RFn5iTtmxH3sjzXm/HMMzx0HLRpNmpMXT31ZcLD6fzmJiPoq+zFT67aY1RpvKh02wUHgSSQCn0xJ0+02V3+s2aJyO6iNa22mT1RsexXuiJ12FIhARQzqs3D9oFaGmmPXExgQcG3bAtn8h7/tgHfxKnmiUp/s5fXFBNN3iIoZGBd9lkHOxO4lLIhXDqpuegkTHbrmPu3RURYG0ivDk0v139u9auS4CgRF+fHgTupHx2A/YENHEkxpjL3fWNvA+KVRlEiegmV+LliwsFPe7slrkP3InqhZhK709vhcry0lX4DroOAlM0x6Myphss2dzIM75ejqHGxeF2C6KRJaGMqJPwaOAZxlndkKuYixfgMuSFxHLeYFujiUAPAoEj5xC9CPyd4YhenxnUY1hKK2h1aXF+ZjDkczkhltQMV2UzY06Vz5mEjKO9LDNd/0p6kSkeeXpiCf0dLXAxXdegZZwwxHD6zLDwKCjFIsqzGAT51GSCLGuZdCKL4Xf/8vxNgFBn7Dm4u9rSSObMWEjUz82v/ypvHrGZEaAnYag9jVDSJrwIN1vtEXj5O//5dQcQuDFijD9op5Z9dYneRucGQwxigWyCqFh6bRoXVgZkX9hYm4BEN/6UL+5MPbPZHSWyv+t7Gc4URTohY9AbLSDV6LNfT8dxLO/ttQKFtHhfpbwRhgsYUqDLXkguF/KCX2J3ugTwIz+EsXvdk6RXgCTZj40KiXaLEemClg5JHYpSRUaGhjhPapVi3sqxpOeC714XbSKYYdigdD6R3+Kyri9ANjwZEv0MuiyCsEvQTIBw7tx5GIxG5PP5dQCBYMtutyOTyawChE9//qxqdbRs5XOtu1Ysa6mbpratHdjExYm2bumNYybqQPiGdmdvYhC34VSbWUFfSxbzCTtS+es33OO1SzAbtzfO/NTX/xtSi6euqFASd8mRb44i9sRl7PzkW2CgCtEWNS7yTGXUSWhbcVnmidODUM5D4LW5CFNrv5FdnN4XveJgpb4xbs4fr3+tQB1Z63pGBBX1RBlnRVMwnElqv9/ojQRUV+ySUFq02e3oqhBekAsF5PJZwUsgP8Fsrr6JKA3Kkf9BLQt6oeJ5VVTh5N9YiElrKjKplLimxdrcRlH3TpDH0sw8Kn3f5FJwLlDdUw85UCuBnrNyr9n3hufwpv2dojIk78c0yQ2RFB9/ZliNKT3bNu9sFgXnpxVkCw34SLatFxu/8JGeOEZDNzkHGx/B7TvTaipif2cSp2e91yUA3dWaRk9QFmmM29UoYf0vX/gUpi+9dsUAwthHvoZspgCj04Lk8Vnc8cpHG1ZBrDcOdB+TF0BD0YigUb3r6Z8X8nmxI+XiX97KFRAbvWbV41h9VC0iHg2jJdi+clilfH7uhGEwCtGhsRjBpAE7/RZcjkkirbBcAGozfdNlg+/q1tJEWQPhQkQRmRjXStvvkaFKOcyHFrCzw4+2rrW2KxahhHJAcFGyuTwsZiNOhg24u1t7rzT+0awq+AVs5XOIJEKmEFIwiyCPuJbP3+djDR2gWFSRTsRgtdvXaSHwM86h8mtqaoxMZV1b3EsfU4ZGSEztdptqCi9xfvCHALmeNT03NoO0rU1kg1BBkiBhQwDh+8+fU8Py9gEEss9HpiRkChuL7V2tiUk3dm9LVjDmb3oOrtZbqH9fu0XBUFsK5+a9TWczFIsyinJeFHRiZsGVasyE6fTmxJe8N6ggKW+f1DmzPf7lHz6FydErx0E492NfQvrMAjresx89v3YvjMuVFjc7vlzkyObe1bLqMeLiSrdrsySuSn3JpFOiIqC1gd1hOdGM3AGW9d3hs4i+XAjLQiugVkvGo8INzGqONFyVctrpImf2S6VSybw2SzKTWMcS0uzDRsIRNGisgkn1yUrKgHzWpyZy62SfN/s+mz3fbzfAJydx/LUxPHSkHW1tQdhsdjE+BHgMKTjd7pUMnlSuIFIKBwJ2oUPQ5WHdCkWAh/GYjDaXSYQk6LWhSJYozCQVxbsjUZHyy9yt04vAMtr0JLCkNsmohkwULX6/cNfTNU/3P0Wi9NLb+rPxfXBe0FCX7vJLpZf1Y6h5cKTDKngS7CPvy3fDlFKGqppp5Bi8MJnF3X3OlToUGwMIx86pkZsAYc3Y86X4HQUQ3Cwk7U0bnmZe5M1jNz8CQVdBpDxORR0oNpTyqCK1dAHdQQtmx07D5u2GOXAEBuOVIZ/2+DLCGEzH7bhzRwap4vaF+AgQvv73VxYgqFIRU596Dn1v2gHHff3YqjpCjC3f0WmB197cYllphumErlwmLdQ1GV6gEA4Jb6U8hFLiV+l1ygECF3mqK1KFj5+ROFmPLEnCIvkIDqerTPGTBY0kUAaeMW8thl55z8hQBGPqNCZjMQVjUbmpDAhedYfPhD2tlpq7UuoxMGZPr4Jek2Hz39zmrkAJ7VxoAbv7ApiensHevUNIJeICFPA9utzeNS6BWEbCyMQ8Dg92IFPUanOUNr4zSmPzX5FhkikKvQR9qJnJQKIp0wvpBKB2Bj1YBBAEUv1uaq/kRepjcZkbsJQuioqVHCumtlaTYmaWAmv58b3ppaL1vvFe7IumtaGlbO5vW93AcPwb0VA4ORnBYId/RSF0QwDhSQKEbQwxcId3/ip4EDLJEHLhEUhyES29d8BqryyCUmmKWkxF9LdkMB1zbqqmQHPT/+bRmxkB7sjp9ZmNO2pehmxkc3YUHuUSujt8ODeehsdlwUwqCE/HLZvpQkPn7mpNiXod8wmHWHTuGkhvK0BgGOZKA4SGBmIDBzGOyhoHm61yx1tzYc8XjTApWmiBViGVzSPg9wlCW2lGQrNdZRybLuxGYs2cj7lsdmUnzHsxo0KSCqIfVlv1WDcNBf8TxYKWy09/d2x99cpa/adkMYl4jfSVhpQ1DVhtkHOXO1vqRFyJxv7d0m6Bmoqgoz2IQi4rgJP23KoQPCqVxibHg14F1iNwezSVzEIut8xdcIh3zuehR2E2Qalti3jnpTt1hhbmUkVQfKu08e8spkXjbzcWBZjTuSuvzhWwt5WVKjXZZoKaauCOWhgcQ4KQNeATENkLnOcELOWN3o9GNDkoxuV0+1be7TULEC5MX9kQQz6bQqvpMiZHX0ZHkHGqHRiZs8PdfqBuVT9ixbt3RPHajP+aAgdum4wDHQmQ03EttFMzfsRzV84tX++ZCQ76/FmkCrVDQvGlCQy6xhDBEGxmFXL0DFp8LlyO+uHtPFzvNpv6fDCYQjxrQSSzuujfSYCgbJ8H4fUEEFgLgIztSo2LMRfserFZGuRENAKLzYas0YmAQyuuNh2Xxc6RmRF0F9PIU3XvSrRMKimyGuayBihSAT5k4PZ6K5LrSj0auhok3ee6IXnicnMAgSGboYC57rhxHGjMKNyk73hzUhEn5wtQYBBFpuiib5ZuS9PIc+qd57eqyIUW0WpLYefuvZhZSmKou0VkeXCnT4nt3T4FhWwGTrdXpOuRv8F/dQOtp5imU0l4fH5RL4LEUIIL6h2UOmlYGIrGnYJV5QCBY0HhIeplMHQQycjo8XEtNIj+dHu0eaMLbbGmBD0BHRWMvQ5wykEElTtJSuT7KW+VhJI4fiTT6twKnpNMZxGRLCJV02UxboyDQA9CtLh9HAR6EDSAUO+ru3VfxXRsGtL80/D0v1moI6Znn0PQEkbKeRdsvh1Vb8QJsr8jgQuLbsjFzbsxt+6Jbl6pkREwG4vo8ecwF7ejoFR+f9H5UQSKZ6C2vwVKcgxtngKOn5xGR/8huHydMFi4u9jad8+Z3+XLinodi6m1an137EgjXdw+DgJJil/7u09h8uKV4yA08q6aPYaqebd1bT4EpCgawGbcP68UhVARDR/Z4VcKEJQ/O70FZNyLWLbon7pGGbD0+NOLEgb9Wlycxo3ggAZ7VwvLFqtIS0W8OKNVfOR6RvBTi5fATJADDC8YtJLHDIuU72h5rcmELFL/GGKgbgB3t5HQAgJl4kE0ipqcMAmUasXMC7rpCUrIAWC8nY3Pw3z974/nBJmPf2WfyNEk8OswZSGlkxjs6xDPGMkVsbdd00F5ZiIHSz6Ku4Y6hKxwI21xKYyMwYWkYhSSxRxDhgXCgnegyWKzT9SzWEjRxW+G3aRxDQgsWEiJRn00lEWfU4bT7REhiOOzedyzXDOB/eDYX4pIwnATKFTyfpEYSVBRKqhI8ME0VwJYfYwW09r7IU+CQLZemw9FcDGUQdHiwhsG/fjIh3+q+WqOT75wTo3VAAjZdBLZbBJuTwvSiSjcvmBTKR4ixDAtXbEsBlVVkAjPoNUyj2xiHubgbUgWTNgZyCCcVKE4h6p6EVpdWvXFpXRzKSz1XtTNz6/cCAScBTitsggPVWokJqqRE+hrs4D/f+q1V9HT04OBXfuwMDuO6UwPvB37trTD5LIEXXnMxJ1iwS5tt/enkVGrA4RcNo1MMgZ/aycS0UXY7C44nJ719OsqPaYH4auvA4BAVvm+1tqLIl3uWs539ddHlzMNab5oRlIqil3dldu6VO8X3eEMJ2RzOZGj7vetVocVxZDIjmc5aFpPlpPPa9Up4zmSG7Wy1iTb0chcjskid14w8XPUUmDqnhYeKJ9/7NFbdtrXGKdKvXx+Oo9b2iyCf9C1vENORMPwtlSu48MYe4FqgGFZGE7u0rkjJhmQO3MaX16LYKc0Tj+fkpEqQBhFHkuw0e81IJlMw++yY/jiLHJ2D+7aFRTvmvF5jgVDRhRE6gz6YDJp4kD1FAtzuRyWktQDsKDN6xTjQ5DASo4CNGaLKxkA9JAwHNHvMy+HWFThLXAYJLQak/D4W3E5rgpiajnZVC+8RHBQiTvAe1G5kyGUct6KTl4VpEWVOg8GUZuCIIZ/qxUaYiiEAlA2OY3OgAcf/shHNwgQ1MoehGQsDCV+EafPnMaOwT1IRWfR078bnu7bBHO0kWY3K7gwIyErXZmvYXj8RfitMcwuFdDXFURk9jTae/aKdJekaRAmd29FgOCyygg6C5hL2CHd9B408mqv2WN6fRmxW59PVeYjiJ1WPART/FX4PVbEil0wefoROv0FeNsH4el/05Y+m8OsYDCQRlbSvjPhjBWJvBaeub0vjXQVgEBwnouOYvjMa+js3glIEcGl6d59H0zWxlQkBUD42+vfgzDE7IVAbYDAsAB5ClxUS2PJfN8LsQz8Lq1cMTMDGDOmq1aw3BuosbClE6LCxWLhEPzBNiQyOUxFsiKFrxrBjUZsgQu/2SBqOSxkFGHU/DZyJyBqENBFzVRQNnpHaJzobWA6XWnxJ57H6pf1OAisKeG1MfVRXXGhMzTCnXMjjUaQu3F6gqjup7fyeDoNcflz857nZ+PodRvQFvRieCqMQ/1aajCZ/0wPZBXJxXgWA24FS4oDnW7zSmovEyoAACAASURBVLnoev3LplOC88H0SN5LK1ddFNwOApnSMuD8fSKmiBADx8NQlGHLLaGvoxUWu7NmOeY0r806D2WVRqmRwEwHZpLoJa71PlcrUK97hpjyWK0RkPE7YSwk0dPqxU98+KM4f2FUeKoohlSupMiqjy6XC/F4XFxSKCnSgxDHeoDAxcmSH8fY8IuIpWV0d/fC4huA1xgSHoEjRx+tN+7icwEQZq+MB4GsX8x+FdGcE30dXrR4LIiEZhA37YHZ2Yqi2QuTeb13gPHrNlde1FdgDPtmu/5HYDCQwmyiOslUkQsI5p7DZKYHBosHtvQwOlsMmMrvhivQt6UDQA9ClycngAFbTqJ7W/tm39abRgbrPQjcEWWWLkCKj2Lk0hyOHBxCshhAu8+Mibk4dt3yUEN91AHCxIXrO8TAnebuYP1YOXdr3L0ym4CNcWeK2yxINnR6rGuMEz/XswAaGsxtPIgZFA6XG7FoBEtFN9o81oqufr0LNLjMLNjbasa5kCQAgBAREkZNK/Kk8zV0ASZRzrhQxCuzBZGyyMqJZMfT86DvcrnrZFydhodEPKt5ldeh5+HrHhrqOOgyxxsdmnKAwPfBfpXG5AniZqIZ9LkNCPpdiCRzaPdp4F/fYdMlz/7NLUXh8/nE+6+VGsjjWR+DAImtkM+hQC+E27tyb46xXjZcL73MNEaeS5DG3T7DIOF4SvAQ9nX7V44nH4N9445fb+wfyYv0IpRzDuhlIWAlgC09p/QZS8eY71eX9a429gz30EsSzcjoDrjxoZ/4KZwdHhGeKIkg2WrFJz/5CXzxi/+IY8eOCeAgJKnzmiddAISnqgCETDqJeGQB549/CcHWVtx19I2Iym2YPP0vWAgn8eDbfqahOSEAwtwVAgiMeY19AZFYCjB74ex7ALmJb8PV0g1H/6NVQwtOi4xubxaj4cbQcEMPfvOgqzoCVFocbEljJOSt2A/uKkMn/xr7dnWgNRDAa2cuQu18FC7fqnDNVj0AAULAUcBMYr1H47ae6gAhtDCFxbEXEVkK4QPvezsuRVuQC1/AyPBJPPC2n22oewQIX/nbT+FqAgTa6q0Q9Hl0p71pcSSREVDIw+Zwit2ULqurD16moMLZQNndhgZ7EwfFI2HkFAMsbr+Ic9MwcbdPglytdEkaWIYdmKp4bkkWGQnVigNyV8zdK6+n70y5E+VumDFwPT5OJj6VBPcETeJfAgaeJ4wwNDc5DarJbBEkwM00uvHp0dBLK3OXzeqX9GrwO8pnoueBzzToKmAsZcEbB7XvEcEMx4gkvA6nCYVCTvRHV04UnAqDQXhUyhsrKrJoU2kj/4PeBKYtlqsv8j4MjZQ3iiNx/BeWIuhoccPlWMsxKj2egEPghWUyJ0FY6bvlOBB8lfMURpYkUW2ytNH4M8TB966JJ2lARMsv0UAdU2Qj8ZQgZDJU81uP/QwuDDdZzVEABEN1kuJTX/pT+Fv8uP3u+5FQO7Fw7juYWojhoR/+aM15wSloMsiwmYo4N6deMQ5CJjyG3f5FjE/OwNp5FxZGX4Qv0A5bz4Mr/TUZVbgsMhTVgLxswt7WBIYXvaDkys32+hgBvsmAIy/YTnTtU86Y/5aGj/LZBOYvvwSntwPB7r3bJpZUCyDc3pNC3qDNPUXlArR2Do689FXMTF7Gj777bbgUD6CYGMPw2ZO4760/3dCLEgDh81cXIOhlbRvqcJWDyFK/t686N0gw4VVth7yQlMQOmiEJ3nuzRqyRfpfXYmjknNJjhMfW5hDkROoW0iAyfkwDXYlFr5P6nprI43CHGbEcJYFZkVCrNUDjyTh8edYHd7VZWYvxk/RGu1KuD0AgkcitGm1xjqQKQ56SVOGpYP8klsiuoDzZ7LPT2LEf9FgQGBWhiUax6iUB3fklGYc7LFhaiiCeK2B3X5dw5fN9L2UVuAwSaG8odOXz+ZFVzSKroZHG98Z76xt9vYYDd/iVZLdLr3l2bBY7uwIinZKAKW+0web0YiImo8tjFORGAp16jd4Dggw+U2mop1p4ofR6BAdnQxp/gY3vid4OijqRvySpRsgGq1hffuLDP4nLI8Mrp5d7EMr7qXkQXqwDEP75T2F3OtDd1QPZHECXV8JYxIr9t95fFyBYDHR9ESDgigEEzppsfBpBWwJKNgpPsBtjEQc8LV1r+uu2MoYkidz5RMGCxDWUsldvQt38vLERoGH22QqwmDRwsFSSXtjYFbbmqNoehBQkg0d8gWXVvA6kjhz/KuZnJ3HL3kEkFQ+CHjOiWTP6972hoc4JgPA3VxcgNNTRGgfRlfqGbmvVmHxeLoKqedki2f1AIp0VDPlOn5bvfr00ygT7A611yXV8HhoBGnnqEDBuzd0pd58cq3anpswojJ+xsrzvVozJ7Pwiujs37nHjMzAjgLwEtsWMxicg4dJoNIjnuxiW4LQYNbVDi4KXJxJoD3gFb4QGVM5nhb6Bt2U1TEePCAmajTTei6CExnm1qUjG44Jn56rCsYikCwKE0CXPRrDyzEQWWWXtfCOxtrwv1JHw2FaP070mNPJ6aIzvk8aez11vCvN6JKMyC4ehD3p7+EwU4YrEk8iafUjnCvi9X/0YLm4EICSN1T0I3/rif4XHG0BHdx9mx85i94Hb0TZ4Z80CGKUvxmZScHFeQu4KkRT1eyuyhEwqAqc7IFxh1ZrHKiFZuHby+RuZ1DePaXwESBBkyiO9RVerMczGEMNscn2I4UhXGllD9SyGE898BbHoEvbdchcunz2G9s4dGDz0ICx2TSSmXrMYNYAwfg1yELjAMsbNRboSu57Pxh0VVe7IHi8n0mmKc5p0rtNUhAzTCgmMTtZaBK5649bo543s8hq9FssJswBRI40S0zQgNCipfBGxfFG4q2mMaFAYDuCOn+GAeoqO+v14PM8tJ9FV6080FkeLfzXbopF+lx6jV1NkyiBd5AytMP5OHgIhA40cQ1N87zSiDBUsJTJQ5YL4jAXBrDbrupoIzfSD3gt6WirNFRpYhqjsDucKKZ+Ak6GPxXgG7T7nCgAlAfTMorROjvpIh0V4sUr1CcqJmHxGkk7p9WKohyCP74LjQH2LaiEj/Tl5PR7LxroL+kpHTh6zYkg+hFrEh37y53HqdLMhhheH1aSpOkAo5LMiL5xuOhpdatY3UxJVAIQ5CTn56i3QzUyYm8feHIHyEaC4jojr1YPyVYaOIKXFXsBshayKI50ZZI3VhZJkKS8WJLPFBrmQg4ExVtaNaLAvVmMRX/6bP8H4+WuLpEhDQLcxd5GMj1bK1adhoDubAEGPsZYO8eVoAT6TjBaPsy4Lf7tmNRdyGqt6WQDbcX96DyikQ4AUzSmI5tQ1gj/10vzK+8SwBF37jcj48lzG60ms3EwjMW88KgupZ4IAagYQdAXsRmEszSaD8I4wW4FucycdAyVokrUQShs9J5ScLq3XsZn+0cjq92D2C932kawitCAclNWGAq8/KCSuWa+hnGtDcNDhMuJAiVRypf7wkURRsOVCTHrIrJl5VanYV2mV0g0pKT5VByBsZnB5LgHC6MKV9yBstt9bcb5aVJAOj0NRirC5WiCn5oQL2dM2BJgb2ylsRT9uXuPqjoAOEObSyx6EEsW5w521PQib7TlDDF/+6+0HCEz5IsP7bEheqf5HEEBWdmlanf48PJ4lmyn8I3L7yxpdvofbKWCzSgyjQAyBmtDQn5rDoYEuYUBu1HZyQQJ3qGx68R+m+3FHTre8Lja0XeOzFQBhMSXD79CqDTLFkC51ekdYvZLVKknOq/UcnFt6eECrrSALQNmMYW1mfBbTWo0EXS2Ruhq5bAYWqx0nFrUy0eWNc51FmNaGMSrflVoL1RQXm+ln6bFMOLBYrMKDcPLUmZWPGuIgPH28tgdho53Sz6N7dXT+yukgbLa/W3l+bOI49naaESk4kJwfQf/gXhQVCQtxCWrLIZgtN0HCVo73tXotAoSgI4/QMgdCLtJ1qu18rgRA+NL/2X6AINQiKTubLYo0Q6aYkWHNnf+r84V1HgKW3yUwIEAobXSMcPdIw0e1PBLoyHRn486W+eIEHmS9ExvQKDTqQt/s/Kjlji6/drO79430rTQNj+fTA8D7UoGPVQj5TrbTu7EVAIFZGJpew6qbn8/F0BH1B3RdAIIGuhb0GL0+Xpxvuvteez+rjP6NjKmWyqmRJMtBBj0cnH+lGQVMo2WKKusxRFUvLmoSAuvagJ+eMMu2AZd6zxqPLOFnH/t1nDq9AYCQMm+f1LLwIJCDcAOGGF79+ifw9ne+HxfHpnHX/k4cn2uFy5TBwvkn4d39g7B7NLGPrWp0RbNt1BW+Vf24eZ21IyA4CLYCFjIaINTWOm3ne0tHGjnj9kktk4NwJQBC6RPf2mkRBLl2lxGvzUugE8BtM2IqrghQQD0DggCq7GkiPqx+aITdZBA7SC74ev453a46QChPUdTcslo++lZyAarN3ysBEOjGbjSES/c8NYf07zsBAglrrCTpMGuywARTBF3caZcLSG32e7oVAGE4xBQ+xg1WDTLHmT90z7McMx1HE3FNZIm7caZaMuZPIaPyXTnnkyD2Nfhw1CWI5VVBjhTSzssAgfNXn4O8FGP89GqwpoGo9luhoig9Cy9OF0SmR3kj3+Zwh7Xh8E2D3a96GN+1NhdWQzAbCjE8/dKwut0A4RJDDDcgQMgkltDjLWJ85CXcfWgHzsuHUPh/7H0HlCRndfXtnNPkndnZnIO0CotWQhIGBBIiGRsbRLBEEE4y2WAcftsYfks22OCEccDYZElk2/gHJLwo5w0Km9Pk2NM5d/3nvpqaqenpUN3Ts0n9naMjabq6wlfV9e533333hU9h+sj9aNv+Bti91QHCzMQgtn363fIQ5OxOjHeuwOgbbkfPpivECbDnS5/EkRvfgfbVW1D87hdw5RP3IQvgp696C1a99j1zubND3/oMrhw4gdF3/RG87Wo1R+HoM+j7+4+LGIgjHGzH0JU3wPeqt0nOu/sTb4Kybgcmbv8UbE6VGp9+4HsI/eeXcPr6N+LKh38EeyK64AH97xtvwYrTh3HZoafVfQbacOLSa9F+87thdxpz/lvqD+N8/L7TUkDQkcVocrFIcUdnAmnLMgOEf1t+BoFBnYzBoam8PFN8wTKfytXgS9iB0WzC06NZoZHplEdPMwY4jl2SSlADhNGMgVa6SKHbQCQvL1760xsNDPU8JzzLmVSxbD19PfupuS0toNnZ0W38t8KglMlDAiXLApmS3xBSeyvox+wC3PD81jzXJmkQNB0Fj0c9Cq2TCSC1wQCeLaqNjyjk431eG7RJGoLAsHSVr7ZINv4U8BHkd6gp0A89A0RgG3Sa4LSZRNCoslblZ4hA4tFBvoUXDu6dOgTqEeQ5r+Mca90LjfEo3Y6/Qf15NgwQEsvMILxYAQIDbbtlCgPHDuKqnSvxTLgf1swEhp79Cdq3vx4uf+eie39pR3jub0NDZ3Dzm2/G323aCrfVhmsnJ7BpYhRf/tgfY+U11+IlH/sd/PA33g/v/mdw6be/gW/v3AVTMonbnzuA/37Hu7HlfXdI8xfPK69C2mbD5K+/Hx1vvkXN4z71KEwf/wDu2bAJOZcbO2dm8MYTxzD8Wx/A9GvfhD03XIWBrh48+Yk/wYar6SGh4Pgv34Qd4Wk89NZ34t33fB2f61sFs32+Nj1+42ux5cGfYeWxo3iweyXWphK4eXgAB3a/Evt+607YvcFaz/pF+TkZhKD93AGEb58FgMDae76MpCKhjrsYcqorK/1qzcjX9V0NjWy/lG0YpPhCr3SO9QalSueib9pU7Xz54k/ni0K3PzebouGKlnnxeudxKfPSDAaBBkRcXTPgM51ULm7SSfGALhX10n7H3Eqcc18uHVDPdQlOVZSmBG0Ci4lEAcfCeWESylXniOlT0Iq1ocpaCa16oxbUIWt0YCyHa1ep72GmQMislGM4CBCOHD0ujomJRKKs1bLP50M4rMYg8UF44InnlYRteVMML2aAEDJNIjw1Br81iTOjM1i1ei3Gx8dh7b4MNkf1lcLU6Em8//2vwef/7Cvo2LxbXLLsv/eLuLpowrfvuBNv/+wH8KVbP4ZVX/0LrOteg4O3/ymcoS7E/u1PcXmwB0ff9OuYfvzH+J1PvRf/uvsXcFmoGwff+yewuXxwH3gQa7/w+3jsw5+Hd+NlyKXiCP3jJxDwBHHoV+7Ae955Gb4casPa19yG0Vs+jMTUCG67bTce8gXwzGtvxUd++O/4zCe/gu4Nu+Z+iyalCPOnbsOONdux/9c+DrPZCvPBh7H1rvfhyB1/idye19Tzu71otq0GELZ3JpBZZgbhXgKEQ+dXFQNvrnRPbbch6DLJS00bXKHR8IjvbWoZktmipCa0lsbcLpNOSak1a9XPdUqNVscipqv1Nq/xRDOX7fGVd/7Uf5UszJlIXla+BATMbWvmStUOIUJGU6kVV+M/s2YABDIDTDOwQoH/cLBEU681IDPCygRtcLVPVoqsCe2m2bSqXAfKWlfG+eDxGWQp6jRavVFrv/ycz+4jg1lJS5Qb9EFYE7Ci26s2ltKGBihoYsWyTs1VkfsTx8SSZ4ypI56/NnfVUm0NMQgCEOy9Rq65oW0c5iJOTDDF0NDXL+gv8WbblQSy6ZSAgp0bewW5TaVtcPi6ar5QpkZO4XcIED75FXRuvVLmYuyZvXj7P/wh/uW9f4Tbv/pX+NJtH0PX0HHsvPcfYVu3E9betXigawWcN75Dmof0/5+3IxyZQO5tH0HXP/0xhj7+BSibL4N7/0N46advx8mX3ABrqBvWTAqZp+7HmTe8G+FXvhnvfMtO/PXWS/Hy0Ao891v/F/G7P49r7/8uZqDgmdffio98/8s4cNn1cAdVFiRrMuHJd30C1j+/HTtXb8f+Wz8uL+/syGms/OStsPzi+zD8qltgaiK1dqE8HHQTJYMwllosSt3WnkTGWrnMcanXaDMruPdLf4lTh/ZhYGgYd33zx0vdZdO+z5Xjji5Vr+Cw0t1PzZuPxtTmQgTETF3QJZCAobSpElfcUoZmMsPWBEc/oxdWyl6wfp3nqwcIfFEzOOgb/RjZfz6XhdVW231P2xcDHOePK3CyONWG0VWpkfPkNs0ACNwPxX+8vxqDwJJGOkBqQZ+ph8eG5ml7Bkmms1YHVafMRgcDLkEWwUitvfD8qvV2KHcOvA66HFby+OCpU9jL1IP++NRR6AEPUwjJnKqDoO11o6MxgPDk80pyGQGC3VzASQEItW5Bo5d9YX2vHmp0auQk7vidm/E3fzYPEKLHD+JNd/42/uX2P8T7vvJX+NdbP4aVO/bAenQ/soeegu2nd+MXJsZw5A3vxtPXvga3fvK9+JeeXng7e3HVE/+L42/7EHJveA88Bx/Gzk++B3s3XQL/+CBeMzaMf33jrQi95YPI2ex4+5u34c9e/jpc+cIziL3/M3jZp9+H77/yTdh233ew7/W34sPf/zK+uPtlcPjV/Dnxve22P1ABwprtOCAAwYrM2AC6/u/tcN38axh51VvndBEX1l1b2tlSqBuwZzGeWqxBWH6AUMS9//oZnDzPAAIFiZf22EREJb7xs7ljvkxZT876fiNYUrPG5b9dbmPmUUu7m+qqkyK5Xl91tz5NaGf0eKlUAibFJL0AjAyunpO5orhGdrqZ4lHfsTwutRmNrKqNHFd7hzULIBBMUYhKgyYyReyZ4bRCzLE4yJg8PpQRsaI2KF4ka6OVGxo5b26jX2ET2BEcGHnOCPZKOy0aOSbvEZ/naoP3qden3j+KMLmY5p0kQ8J/7xvPCatCsLmtw9awAVhDAOHBZQYIfDmqDEILIBh5oPTbECD89h03428//RV0blEZhINf/EN86IUD+NqH/gJv/8sP4p/f8UFc/Te/h8ff/QmsuuEtss3UD76E1+79AfZ2dOO6R36Mw17V7Wx9MoFTLiem//0JuF94Eqv+7vfxxO8yxbAL0Q+9Fi9XzPjJx/4G3lAXbnnzNnz0nR/Arxx7HoesNrzx4f/Bg5/9HoJ/8Dbse8Ot+PD3voy/vvPrWLHxsrlTpsMZ/vQ2FSDcpgIE28nnsf4jb8LkB/4Sky97Q71TcFFsz9+AyiAsBghb25LILiuDUMQ95xlA2NllrRlc673x0nxrdAidPX3nPOXAc2cfBY32NXItk2PD6Og2zuQSANBUiACrnK0wAQwDTrlctJHzqbYN1fFeBrImGCXpj/PEcBaX97C8VcFkooBN7Wow5Er/eDiHE+H5NAO/x8C+Z6V9QXqq1rWRaWEbZLIVqjmXqmHgqKYlofCQx6p38BDszXB4Ki/BvpY+Z3unVbxE9OOKFWRKzJJm2dZhXVTqWeucxPlxZADv/+j/wcFn6+zFIADBYfzBrHUypZ87zAWcmGwBhHrnTQL9yEl84NdfhXvf8wn4+zciNjmMl3/u43jgV34Dg6+/Fb/8x+/Gl971u9j9lb9CtzeIkTe9F2arHYPf+GusVwBmMx9fvw3uX/+kHD726P/DGz/3cdz7kc9ipd2BVX/7+3jiY5+Hb9NlsEyM4IqP/CJGrnstjrz5N/D2t12JP3n/p/C6yAyCX/887tvzCqx+6wfh/divzAGEb7/742jr2zB3aafdHji+8pe4xh3AsRvfKsKf4e98AaszWRx5/53wrt7cyDRc8N9hFcNabxzm2dfDaNqFqYwqKjprAOGF8yPFwFXiVSvtc6pxVjmQap1vz8xa/sVt0zSnRdKtol6nXL9M0p9Nc8xmi6S3ZBvdoNGSi0vPszDYD4De+Fz9MpBpTIn+0GRLGLBIk1NTwXOGxQY27ykVGzI9wPNn/p2BZixRRJvbvMgWmcGPx6rWyXApl8+VLAMqAzebI7mX6KRYei4UJDKI0suBboha2mQqWRS6vtRUa1e3TeyF6xmcdz5j3B+BAlfmTHFlC6r2ZSJZVN07TSaxsNZaQtdzDG1b2iCzWieaUZtcPT6ckZRZpcG0G/tTaIO6iJXZ0/D1rscTwzlc0mWTtEQ9Ix6dgdvjw9tvvb1+oyQBCM7qACEanhSbZQ5/qKNqb4NyAOFkCyDUcz/nto1MDmPLnXfI/7OfhNvfhujqzRj81d9EJhFD97//BY68+lfR7fJi/be/CJx4HigUgM278LO1m9D77BOw3/IBmNbvkH1kUnF0funPsddUxCWvvgXF7/4LUm+5A/5Vm1As5FHc+33EHvhPFN72Qaz910/jqTe+C/1ODzq/9yUM3vYxBJ1uTH/hjxC7+tW47NGfwpGILbiuh9Zvhcdqx67D++XvdpcX5r61eP6lr4Fr556G5uBi+BIBgt+WxXi6DIMQSiJjq65BiM1Mg5bLHC6PH846qHT6INzzL5/ByfMEILAzodYvoNy9pTOd2WSWVJRmP8sAy9a2fFmSdq2Vd2Z753Q2D6fDPtdMh8eaShVhnQ3Wy/1cPTaYwaU9djGNGk8WRZBWrvRQ65fA80nGY8iYnUjmzXPtj/l3giMGGdLw1GQQJDCElOv8R+MhrZERv9ts3pYKfQr6qBFoVopBfy94z6nEZ7Cmj4Zew/HCZA4DUbX3hjYYyJmOWspgqSVTNExhcK5L/Ta0fWudEplqKO28WOn4BBxaHwk+t7QVp//HXPfIEqzQwX4TKTo9QESKZAws+RROJ+04FaHLojonPF96ixi5x5HwFLz+IN7RKEBIu6oDhCd/8k2s6V+JbDYL/+pL4Q20G74fokGYZBOLZj+qhk/hgt2Q/bwjk0Ny/qwIsLvc8Gg5/3we8ZkJOD1+2J0eZJIxZCdHwAJze1cfTGaLfB7oWLFA9BSdHkMuk4KvrRuJyDS8wXaxCVUBRALxmUm4/SEko2G4fUFY7Q7EZ6YQaO8BXcMikyNwun3IpBOglbR+WKx2EYzlc2n5M50iuS+brhTygr0ZSzhxsmgECBOZxQBhcyCJnL06QHjuwR+iuyOIbC4Pd8caBHrWGKbRrSYVIJw4DwACmQKKErk6rkR9EyDEsiYEXBakc/TVz4swi66KXB3v6qlN83KVm8jk4UAOhUIOXt98QyEGZL6cGXBrifoq3XKhbJPFipa4XAWz4Q7bJhvtKshjcb+jUxHA6RP2QRuy4i0BBPpzIwsxGCkgmVckL78E3V7Np1xvFrUcAEHskqdy6A9YZQ55LVp3Rqr1nxrJicZCG1xxc9s+H/0FjMcYzulwLA+6fJOd2NltE1MpbZTTj/BvquGU6upZC6jKPRUR5rzAkQCHVRvakSpxCXw22atEM4J6aiQr2gz9dXN+OLRmV9T1sKKDc8a50Kbj9GQCK4Iu3HrbextgEJ56XqkFEAae/C/MFL3YvPMKUcYzCBgdBAinplopBqPz1dru4psBAQjWLCayiwHClkAS2RoAIXPmSRwajmLjjsvhcvsE/BkdNlMRd//z+QEQ6JNA2rjPxzzqwisQi+A43fIUTCQVtElXHtU8hyIufkZa/cre6gBhanxUbG/VbI4CihetNpvk97VyyNmPalYRVZrjaLaIQxN5KbVj0OB16YOT1jSHVDUZBKNaBAKEM6OTMLnbkC0UsS5k3JqXzMFgtIBr+h0CgLSUjBEBntFnqXS75QAIPAbTTsQAbPfMIU2MZiMqgyuDrH5w/nd12yU4Gh0sTWVaiwZdDPRuK/uGqAchU8EUzfWrFlcdqSmWxo2O+Byzh0a1weuh1wOBdDqdhN3uxBMDCczky3cd1peu6u83mQYydrwsXuM7f+099VstP1gDICRiEXgSJ+F0e3HwwH50bb0WgfZuo/cBBAinp1sAwfCEtTa86GagGkAgg5CtkmJIxqPwpgZgdzgxPDSAqOLF6q2XGwbpTDEIQHj+3GoQ+OolLU02gCu+0lUuKfmtnTZ4rOwoaIbCNMOsV0I9D0QsOgOff6EhFwMvu/DRN6FZbJbeaW/hf7NlshpoaBrF0jSa4hgdTI3k81mcmAE2dTrhbFAzEorW1QAAIABJREFUQRB0fDqPVQGLoZWu0fPTb7dcAIGAgBUGDJRMNej9CahBuf9kZlHXRDIuZAGqcQgETRRvcnXO1TePwzlyWSFMgnafCFD2j6oC0M1iAz2fquE+WIpLfYJR8EWzOpav8jc8FC3i+amc6GjyBQU7Oq14djIvaRPuj6DgulnTIx6XOo/p8RH4e9fj8aHsouuu57597uO/gZFTx0Sbk06nFxkl0Z3U5XIhHo/LbsUoiQAh466cYhg4cRiHntqL61//Tljjgzhyahhbr3xZzfNilsyiZGEzKTgxo7SqGGrOWGuDi3UGVICQw0R28Ypksy+Bop0tc80omKxzPRq0uRg+cxyP/fjbeN2vfRD56AhS8Rl4ejbCYdC6mgDhW/907gECy7c2t9uk7wJz2HwhMnhqjXaYSuALWq9BaOR5qOYjkErGRcBIPY/VajxoGzkPTSdAEaY2pDdCVllQu87rpsMeV8dTKbWfgF6QyOtPxuOiCYqYfOh2FmCx8XzLrx6NnNtybbNsAKGoVhSwUmPfaFZYI70W4dh0DsdLKhoIInZ22Sr6ThAMRNNF0ICo128RTwNqCrRW4+tDFrGsZt6fHSF5n/QNwTSqn+fFNAN1IEzt6L0ReL5krgiESwc7PgrzbnXg8eHsrL8HUw8m2ReZMg6agRHAaGxIPp+XZ5XMBbUL7NZZrjW6kXtMgJCOTMJmtWFwaGgRQHC73VizZjWef/6FeYDwEAGCpzJAGDlzEtmxQ5hKKuhrd0Px9qJnzaaa56MChBxIcZ4IK8gUjeeHau68tUFrBi6gGbCbCvBZc5jKLQYIG70JKHYfi61QMKld7fRjfHgAytRRDE6lEPI5EOrqg2/FBsMBgxqEcw0QerxmEenpG8dQqU+qXqvVH4kXJO++VIDA1RoX8AQC5UY2kxEtDVf5jtkeI814lGhWFE4X0OmePy4DCP+uBw0MSgQNDADhVEHy3vp5kZ4Js7a/XMkqmYSkSYw4LDbjOurZx3ICBKZueB8JIjknek0Gn52j02qqQZ9KIYhY4TVLJ8vS1T23Izggxb+hzSqCVa/NDKtF7RtCAShz+UwzELCx7TLvJQkcMkEOC6QttTa4P1ZUaGkQ/p3AgQCC922xbbSCQqEoq/eHB7PC6vB41OLwn/1jWXkWyCwQNNPfgewhgYp277l/AhpqXHQyDMO3jADh9JE6yxwfero6QOCP6ei+R/HofT/E5de9GtuuvK6uKga+HJliqOA4afjiWhu2ZuB8mgG+tEmFG5GJO2YBwnROLW0U6/fZL27wppB3VBYp8jijJw/hvu9+BX3rt+KlN/4SHG4yDsaGAIQvnjsGgS/bq1faDdPcSwUIDK58Z1kslRkCSTkkEzBbLXA4FutCjM2sVPEKFa6JxRjUtP+utA99QOOqUEyCZjsQag2D9GY+PFdWkNFTpLRs0+h5Ltd2ywUQWBrKSgYaJTEAa5oO7ToYhNnDgUGewVs/mFKJZxQR+JXeCwbVE9M5AR08xobZ9sudHrMcI5YuIpxWu41qQI3aEm5PkFfr3mq/baYOGOgraSYfOzYGb6ANm9pY2aKWjGrlvlpfCQIcamnIOmiNybh/XjurLdgOm4CB82AULDQMELJVGISlPlw2UwFnwqxiWOqeWt9Xi5vOj7G4Uv38OK/z8SyYYmi3ppEoqDRxqmhBVlFXI7UAwlKvRwMIx8+RBoGrpJf0qcK5SoNBkJbJXP0zuDNX22h/BUVR92OEkudxxwbPoLN35YKX8FLnvBo40NTxfNE/O57DZT12WYmy26W6mlVXzpo/f7FQAMvUErEYuvpWwmazqz4RolJfOKkyj0oRuVxOaGkCinoE5fVe93IABIKug+NZRDIKLu0unzIgsHpmNCtUPIWgQu3rBoV53R6LdA0tHVqLcBoXkUkgKHt2IicOhaXPKO2d1wQsAuC4LYO+1r9B791Rz7yNJwt4YSyNnW1FtAV8Fb/KhQHBssnC9ILa8prsB82jyLbRm0Gronh6JCvzUGs0BhCeeV7JtQBCrbk955+bTQrsJtbHnh8gIaPQiayVNjLyYFCo67OUTzFs8KSQdy5fLwYChG9+8TM4/tzZFyny6eBLvpaRjQihdaWIRua00jZcdWVSybr2F4uEJd3AHghLWaXzl8mqBQb3cqtHlj2OxdW0il5xzwCXyVOPYZHSSNbNd7lNImzLpNPwBVimqf7WCALY1MlitYi63WK1CrjKZbOyCZkRf6hd5kDlJ0wCuJZyXZXmerkAAul9pg/ob8AAXtpESVi1eB6Hp1VKv1xOnuWPdD5M5SBAoRxA5XeZXijXAVNjhnhvKIzUmokxTcEeCwQn1MzUUVk5N43swLkppPp8kekqB4YL+Txy+RzGMjZJjVDrQEDAVB0Zh9Lx6GBGQFW10ThA8C6fk6INBZyZyUlP79ZozcCLcQaYZvOac5guLNYgrHcvM0DAuQMIzK3S90Cfpy13/8OT4wh1dDXl0WgEIDDo8ns0WHI63aqjYZ2DzABzwxS5MeCU1sgzyFAxzzw589yaOJOHYcBhTf7uXod4PUxGE+j324RNqWSKpa4wC+LAaLfZkE6lpIcDwYB+0HzJ5nCKcZTX3TgzU246mgkQaCikNeViwCcDwBUzdRyl3he89nQBouVgaafeH0A7T+bzt3RYpQyV+XztftCTgIyA1hmUK/Nyzye3I+2v6UO0Phc8T/437xP30QhAkB4QZjWYC+wzmQT4cfAZJGskje4KwLGYRbw0hqJq10rqIuh3QY+QDo9FUg0EK9migieGsgv6VZTes4YBQt7XAgh1vg9am7dmwPAMVAMI69wpFJaTQUAR3/jHc8MgcAW4IVR7lTUzNYFgu9oVdKmDL1d2eWxEgEhKl9/ny7o00FY7Lwaq4WgeTpsJK6WBkwLL7JJVWiwDYJ8BggRS1QROWsDhfll3z1SMGPAUEyhaHAi47bCUWyqWnAjN1BhMGFjIJmipFRpB8bjSFVNRkM3lkEnGBXDYm2Rc1kyAQMaA3gP9flV3wJw/DZIIElb6LcKuIJeC07mQDWGApHlSubUzmRrqCYIOplrUiSNjwL4O/T6mDAC7rupEP7Valc2pmYI4OpIF05fmMkVBF0eeX70No8o9SxpAIPjRrCLzZIZgxZkZGm+pTavWhnhMgpwCXtLrwHSqgNFEEVs7rJJqoSaBoKncaAggPPzMc8qyAgRqEFoMwlLfe63vX8AzwNSQ15wtyyCsc6VRcC6s22/mpTLF8PUvfPaspxj4UmV+3choKkDgyjqfX1L7Z4oCZ6an0N7VU/H0i0UFZrNJgs3pGbU98aXddmEPDoxlcUm3eu3MDdOE5+nRrNS36wWI2s4ZjA5NZHHi5HG89qqtGIzlRWFfT6OlXCYjQIEggYNKf6nmmDVNYvUEz5GBiJVpK1atbVjnoZ13swDCSDSL8fEJbF3VKaV3HAyATC+wJHbfSAqWQhZbe/0CrPS+E9yWLMDPTqYXgQQCC2oLSttw6xOjvB8Dkbwci+xPLXdEERhLXwwFeaVxN04jv4tEPIZo3orJjEWukSXCmztsYOMonoP4JZhUAEpw1e6ygCWgbOrUXIDgX0YGwVTAwEyrisHIA9Ha5uKcgaoAwZlGwbXMAOEfzi5AYFB6Sa99QfletTsbDU9J3rwZQ0SK+YK4Jy5lMOVAoMEVOYMutQUUWjNAcHVbSXRJ216CBAZj0tt8sbNEjoGNTAPbM5P+1lIMZCzYYCprsuPARBHXrnJgMJrHcLQgvRyMKOcbuU4CiqJSXMA61LufZgAErfyQaRetKRLBzXgiD1MqgpDfI9qQAi3kbSr40TwztPPlPpiD1zc54mdsjkTzLT0gYGqAngaaa+JYXAV3ej+DavPAQEw/Ampr+J1qHSDrnU/99mJ0NZUVv4cN7TZMJoqiPaAAk70g2D+CzxnnTHtG+OzRN4KmT80DCPueU/LLDBAGI60qhqU8LK3vXtgzUA0grF1ugMAUwxc+i2PPnj2RIqnYV6y2SeDTqFPeQVHos/FYSXTNptMItHfITVZLtlShX6NDO2ajlRDacTWQQLOarMUNj90spXVslMPufHodgfYd0rxcjZK+Zr6aeWS+yBmUCBjY+pc18mQHKM7UBIQENMylc5/MUdM4x+80wUNTKZ07RjkGQjt2lnqEOrwdSGdLasKiGlTVm5ZpBkBgRQLntNSOms9KJK3Ano/B55/vpVHumRAGZion9Lp+cC63d873M1gQgGetvdmYSQML/JwljbxPXI2XA4FsVkUxINNnRp0UG3mOCXrGZpI4TA8hxSIW5eziqOklqI9gN0qm8KiT0Ko/RuKVxX5MMZw5qpogSRrNbsddd92Ju+++B4888oj8nb8Z7fcjToqP7HtOKQSWj0GwgjmRlkixkYek9Z2LYwZsKKLbnIDaow2IFO1IQKVS19jTKLqXj0GwoIiv/8PZBQgMabtDCXi8bDiuLmdIyVKdTqtl/Qt57mXlcEq5H8VYDBZGV3TlA8asAGwJIEO/XzFXMlngsGlUrypS0xscVXpSxWExr4iSnuCH1+c0FxCwFgCTGXaHYwHVXwoA+B0GLM1sqVwToTlAk2NzKuOBnvumGM9jg3gtUM/A8zFSIir3NBGHawntnhmIyLDwNukbJWnXw/4S9EIoF4hjmaLMp5aGoScA+zQQbGiDc0Z3RaYOSgfnmfsg6OOn2qPCCpJEjnNCFmjx9xiYeT/pkklDpiY9YovPb1aEmiiYBZDwN6FPf2jMC/8WcpqwbywnALOay2JDGgQBCMHlAwisYmgBhIsj0LWuorEZIEDwmrKIKJpR0nyxKgFCYbkBwt+fXYDAEr0N7hR8gXngQ+EUxVzVVl3ZvBow3HaTEf+pijeDfRdY/1/virja3VVXVfQfMN4QiPtjDTuDuma/OzI5g5ORItJmNza224QGr3rc2Zy3Nm+kuPVujaXfjUcj8NZYceu/U2rKFJ2ZhtvjNdSzYikAgfNJn4E9K9XfRLlBkSJFi7x2zftB247aDrIPmkCQ1Q6HJvPSFlw/yCDQMrkaH3U6QnGkWpGgHefBMxn5DlM+FJcyfeHnczmLCJYrtaCdezabQT6bhdtLl9Xyfmxa22taN2tWzdWepfMXIMRaDEJjoaX1rYthBuwowm3KYkZZXOa4xra8AMGKIr52lgEC7xlLr5inpbJfU/HvrtGJsVn3ml4AJnNzAQLPLR6dERdZhyjp6y+FnIknYSlk4As07ntB58ByqQ1t7qT80YBIk8GlWCWVMzk6gmB7hwgfK3koLAUgcKXOUa5vgXYtzPWTcaKREUWvBJBrZr0RyOAw167pFgjCWA1ChX/p2NNnTA9DFkLrucD9scV4j8ci5Y70p3h+Io/Le2wiTiVYZPrnXA9pPZ4oCoNQazQGEPY/pxSXm0F4UQOEalnDWre09fnFMAMCEJDFDBYDhNW25U0xECB8lQDh4NnTIGj3jNTujtkcMAVU9bTjXcp9pzcAV/qky5s1GDAYD7R9F4t5uAxaXvMlPjqTlGquq9YuXzpJu9bYTBi+YG0QwpQOtRLl6H3uixoMejEoRaUsG7MUgEA74mPhPLZ0VBaTMt+fzgN0H6SjIbUrBJ4arS9+AhZVMMoAfmAsJ6WApYONwliSyFLJSgyWtBr3qJ9zXtgno1dKViHOhRROSl8GppYci8sem/WccT+Sesmkq+pJyJ7wvChYpNCSLEit0RBAeJQAIbSi6r7p5jU2NIiOnh6hn+oZpFeHYlmUuW/17OaC3Hbw+f1Y3xnE8aERdG3ZBbtzcYC4IC+sddJ1zQB/A24lh4hpccDqt6SheKoHDb4wTh87gkBbO0KzYj6jJ2CBgq/93Wdx9BwABDbYoVmNPnfKQHsynJdyreUadBUkFbzUSgbt/Ch+c9mwgNonUGDraHaIJFDQVtmko8UGefbLrH4YDifhsJpho94AakVDqTtgs+ZCs+ilJXOtQQ8Bl808t2out70Eq2xGSG7qFHjNvFYyC/x/MiqNDK7KU3m6StZmYhj0OV80B6JiXwMIfJY4l1pQp0OhXoOgPy/qEZiO4DNZylqQlaGmYE2Q3VTVlJDmIcF98HMev1YJZCPzoP+OGHblssJO8T7aZks+S/fLZ+zoVB6nIgXRStDzgv4OtUZDAOF/H31SKYS6q+577z1fxc5tW3D8zAB2Xv9qOD2eWuciDxFzgDaliKH4iw8g0OXMeeZZPHb4BK7cuhERZwi+7r6a89ba4OKbARUgZBExLQaI/eY0FG9QXgilqn9tJh783t3YsHolUpksLG09WLVpi+FJIkC4+4t/i5MvPIeBoWHc9c0fG/7uUjek8prGQPpBIRnr0/Xte5d6nNLvNxsgMN9NWl9vlKMdkzbNFGNWcl9MJFM4EVGwpcuFkxGaMLEzodpDgPPT7MH0guaFwEDC5j+VhmbiZERopwWvFG2sPd6GgYF2LpwH+ghUYi8o5uRqfXunXQAA7YYZFNn6uVzpZyUNgv7auR8yCXQm1F8zgys/4z8ECqyg0YMIVjZIaeQylS3wt0+BKAGBiHTFxGnhfSuww6dUGKiyX5YzGum/oL/+hgBCIBhUSCElkwmwnEcbDodTFLH6v9XzMHet6MWf/M0XsXvP1RgmQDCAcOrZ//m+7dF9T+JlW1Zh2NGJ9Mnn8NDP9+KVt/32+X7arfNbhhmoChAsaRRdfnz/6/+Bz//p78uqNx6LNfUsurq7ccXlV5xVgMDXG0vBGATnFeKs5Vbb6V4og9UXDKSVcuWR6Slpx2u2qI2RGKAj05Py7uzq7ZeVHZvpXNFrF1Ed69f5703tVlm9N3tMjY+gvWuFBBFSzyypZN8CKu7nQE2mKNR0I4MglmWRGghpZB/adygqJMNUOii446pYykVNgNViEnfAM5G8zCe1LQQJXD3zM+1pOh7O49j0fAwrd27s0cBOj+WqZDhn1DYQCOrnh6CBVSjNAggEBOpvwiS9M7RKELoijiWK8rvhsTSMcHAsJ2mPl/SprBCrNwi0SwWZte5FQwBhx46dyrUvezkOvfA8ZmbCcgymFPyBIIaHBtGzYgXSqTQOHthX6/gLPzeZ8No3vxW/96k7EVasyBaNvxRc46OwxqJLUjLXOtlsIIh0k/zfyx3r4EP346Wb1yLasRbTzz6BwwefwdW3vK/WaUHBMiIpBXCPjyHV2QVlmdCweoH80Rq/3zUnpQkbmJQifCeONWFPlXdRcDiRWLlq0Qas5FFTDIsZhJXmNCK5Im55+dXYumUrLr9yN/7x7/9GOvL1rOjF+g0bZXVx9MhhTE9PNXT+5wIg8ET5AufLnC9bvtQ0k5qzARCYO1dp/6U9h2J2VKhcWZGI8z1lkly9w+kuSwvvH8uJwQ3L6iiE4z+sYGD+v9ljemIUbZ094jlBapz1/DQW0pgcsgp02muUvWgmQGCQ29Y5n6LgXHOFzF4Jmi8Ct9HmieV+FCryltJ8iukJtnfmoBaBPS0IwAjomMKoNCh8ZI+Q0kHgRh8LfpMMl9weEytR5lMZjdwvmmFxoZ2HGS67FYNTcXT5bGJ5rVVF8NopyqQYk+WKZCyY8uAz8+hQVrw3+P/ElLSl5m+Ids/1jIYAwitueLVCtuDK3S/B0089iZfsuRrRWBTf/869GBkewh/88Z/B4bDjox+4Y4HpiZETu+Tynfg/n/5DWNonkC0mjHxFtln3g33o2D8A0zI2LhzbvQanXrPT8DnVu+GZI2ewZ9Mv43T2CVginXj80b3Y8/ptNXczlBiquU0jG3joHf5UGmv3ncbkpn4c22DDyHbXUt+fZU/FZ/PBb2cN/PkzzLkCdv/5fy/rCSV6g3j2vdctBggmF4K29UghK59l8hPIFVUwvtq9B88dPor33/YBrFq9Bjfd/Dr8/d9+Trrz3XDja/Dqm27Ggz/fC5vNinu/9Y2Gzv9cAQSe7C4D3RwbuqgaX6I2gAF7qV0MGWhobsQ2u0ao+NLT4gv+yHReOv9pojqu/DRtBqlxrooZ8KqlA4zOUTQ8DX+oTTYnSCBjw4CpT4/wmhoFac0ECBQG6g2S6JPB/gn6XD91BayE4bV4Z70JWHLI3hVkEbjSDhMIuc0SyPkZ79d4jfbH16+yV2RwtD4WZGAa8TpgOobMgGp9rTo5ZrI55GFBOGfG6ekset0F9LV54bRC7s8w+yukitI7gtoQh4XzoAokCX4IjFhhS5BNoKSVOBp9LrhdQwBh12WXK3d84CPCEHzn3rvxtnfcCq/fj/t+/CPs/dn9+No930U+l8etb/uVugHCTW/cgd/9g7dgJPoTpPPGVz/OcAa2ZH3oqJ6J4rY5rw3pQG0hT7371bbP54soDPwmYIkh4FuBadM/wR2sTR2nC6lGD1n2e7ZkEXv+aRL2pILpTQ6MXOmBPVrA1m+HkQpYcPgmP8a3OtHMzs1Wsw1WU/Pzq0uZGJOiwDucXMouan63YDcj2elatJ3D0omA81JMpx6Vz4oKbW7VsqTNHe/HZOwg3v66f8Yv/tIteOl11+FDd/ymMAivuOHVuPSyy/G1//gyfunNb8EX/u5zNc+h3AbnEiCwDp2ag7M9kvEonDrxYKPHZ9474DSBjntE0/USb8ydvzCZl+9x9ccSOSr4r1ih5tIZHLgO0sx6Suv96z1vtoJmykM/mCahTW8zRHbNBAi8bja56vNbJRASAJSmPjRRKw2TCGpUrwJencqEcH6pS9Dn7JmOIKCotsJmquGa/spVLuy1QaBQTxqINt9qBUmbNP0ymU2YSql3lykCs1lBJqc2i7KZFKxrt0uJYofLLK6b/QGrMBf8b/6b4FGrnqBnBNkGpjsaHQ0BhFAoqJAxaPZoa3fjw3/0Crz0+stxaux/kM5PNvsQ5/3+YjPAA/9pxrYrFazeTHXz2Tllc16BezKPnd+LoO1EBhObHHjiXe1QdMsIUxHoeyqB7T+MwpYq4tHb2xFe40DRZmoqWDg7V3x+H8Vh6YLfsQMTyfsXneiWzg8ibTqEH95zEF/4zANlu9It9eo6Orpw+WWXn1UNgnbOfNFd1acKzZo1SJl3uRer0fX7T0SjcHk9DfkVaPthIKKdbTKrYHcfGYTaF6GRnhS2BexmKeVL54rY1mnHoakstnbYcXQ6jzVBi+TY9YPfZXDwlXHwMzp35QCC0e8a2a6ZAIHHIwCgtoApKP7D5kqlg4zA6uD8goMpCFbCsMMiUwrStKhkTM5EcShqR6KCPQCfxytX2Mu6LGq7enI4K70carUrF7iiFEV7EmjrkmsajBUkxXP5CjueGckKyHSxksUMMOXksTAVYkKyaBEAzdTCaKyI1UHLnICVz98M9SJ2WnsX8MRwba+DavewIYDwe3/wG0oir/ozN3MEQi78wqs3wm5px8mx/0HmRQgQmjmftfZlKijwTuThnspj7UMJWDNFTGx04MT1PuRk9VN5rHwigZVPJWHJAyM7nZhZbcfMSjuKF5CYrNb8nMvPHdZZgJBYDBA2d30QOfNhTE0m8NgDp5CjeX8Th9nsxKEDCZiL/nMCEOiDQCe7Zg4CBK6sSisk9I4jzWAQBIh45v3va10DUwh0OiQo0qo0RH0/nUe7i/bMquUyV8O0aa4NN2odcfHn5xogMDgyZcLrrPf66JzICoPSQR2CpHikjwdA0R79E6gW0Moc+R3VJConYtFMJo2o4sbzk7mKJYDM829pt6LdrfofkL3hyl/E+YoqkGRZZy1cyO2ZUoDdg1TBJFoCllQylcMUCptvsVST4IApi3hOwVQiL427FJNF2A4aPpFNoiaDaYQen0VSJRQt8rkiA7HU0RBAePDxbykp6wNLPXbF7xMgCIOQe/ExCMs2qSU7bj+ZQdcLaYTO5BDrtiLeZcPQLheyHuMqKFNRQcexLDqOZdBxPI3p1Q7EVlgxstOFnNP4fs7WNV9Ix6kGELZ0fwhZ86Fluxyb2Y+7v3wMJw/H5wACqe1uj3nu5bNcB+dLly2QuTpq5mAOn5Q0aXr9SOfZSVE9VjIeg9NNBsHYsdU2vmr9u8YUsI1zp6e6T4B2fPod8GXOw9MgSq94PzqdE1qc4jNS6KxgKGUPmjU/bADl8VVvbrSUY5VjEBjg6GDIVTKBGwMdeyQ0gzUipU5dAVM8vJOlfTy0a+F50T2TXSpZCcQmWAQrB8fVHgWVhiqktcPnMGE8moajkJDukezcyWfJalXBLfdXbhCU0Nqbn4czZgEHZDb4LPb5rMIIESzxHMgosBKBoIbndmgig1TeJGWNvD4CCmowOG+cU+6L1uP8uxEr5Vr3tWGAkFxGgOAggzD64kwx1LphS/mcAs6+fUmsfiwpKYKRHU5MbHQi2mtD3l4vdp8/E3NBgW80DweFVD+JgvkGsgrHrvcuSFEs5dxfbN8lQAg4dmC8DINwNgDCPSUAgc1dtnfZQbvbZ0ZV4aR+qEaySx9UXnNFxNwxlft8SWqq89K9U13PVZYRfwSuUPkCLRXaMUhrnSLpQ2IhONAt/3gMltaRedDy8awvp8sjX8IiSANweConeXEKDBnIjThA7htOodeeQFeH2pVSP8TIpgAUoEjbXgbPoNMkgILGPc0a2grYaAliIx6vbFxlEfGdutIn3c8VLg2K6DHA+S/nF6G/RgZ9Ov/xPmhNqCrNwYlwTlb4dC8sHTwmtQRcmdMG20tgRJMq3T2nuyLBZLlnnIE86OD9ZXMwEyKJNIqpKEK66jaWrbJCRW2C5V6UZkonk7A57FL6yXQU/TKogWCgJytwYrbh1LHpnLAJ7PlAgMBzz+SKyEQnsHalalRIEMAGVWwwNZNWwQ2fnWaNxgGCZfkYBAEILQahWfdY3tzdh1LYdW8EtnQRT781hFGKDC3N1w4QLAQGc7j0O2EERgs49RI3nn19AIUlAJDmTcSFsycBCM4dGI+X0SCcBQbhnn9fyCBw5rhKYb01BXOkM0njsoUxX2qkR/lyWupgKV0YGVlnAAAgAElEQVS3M49cvohiIYeJSAITU2FYbDZcunENvC6VAaAY6+enMyI2KxcIlnoe/D6FYXwBk/je3mWTFzGDMwHJrOZtDktwtc8gRm9/bltLE0A1fsihIJ9Owuzywm4pb6rElz1V+ZMpta/nDeucddPw1eYiSVdHl8eQVkLbD+8zhaRGV/t6gEBQxWtnG2K7ed7hsNI5UsvBuZ5MFYRGJ6AoJwKU+c8WMRorYEO7TUAs9QKlg/eHGTmW0tKQymx3LgIc3GaABlVlTopBfFePTZ51pjbcSgKsAulZubrsJeRyWUlhOF2qUSD/n8CALNWz47k5z4+HBzPYELKJD8X6dquABV4TBa/UGDw0kMG6oFX6SrBFdxIOEVsSNHE7SXfMNulqxrOv7aMxgPDYt5QWg9DM29D8fVmyCtzTebSdzmLTfTGkglac2uPG8KUuFGvB9Sadjmcih50/iMIdzmN8sxPDO52Id9iQ9RqjcJt0GhfkbggQ2ly7MZ18TM4/X0ygoKjVKmeFQSgDELSJJCXOlbjmYc+XE3OzVL4vZfHCANjjKmJDhx0nZorY0bXwBR9NF5BJJ+F1OZAsEJDksWelvaHyO67YyASzsY5+6Ev++He+fB8aTGN90CaMBld0lQyQ+DmBi98+7/1f7uHj6nkgmsfagBknxqMIF92iRq/EDDCocm7KuQE2+nBTIJdOpaSu3ih7wHtLpb5G2TNgMzfexmAGVUNA8MjnQWNleH6k8s1mK1JF1uuzTJFBvjZjmcoVcSxcwNaOxS6BpdfNcj9OEgMrB8FaOWaJzA/FoJz7sfExBNp7Fp3LRKIobcZ5HbzXrGzQSgTJPPBZ5z3u9FjgLsagOPyyLf+u3StNU8G/Z9NpZLNpnIjTx8KEbT3uOfDBWSArx7QCKyxoJb2r2y59IjTXSs0WmdvQX0PzXWj03tfzvfMWIJxopRjquY/z2ypA/zNJBAdz8I3lkGyzYmyzA6PbXFDORVxWAP9oDr0HUgJW8i4zxjc6ML7JIefWGuVngFUMPd4bEM+elA0SuVNI50fkv7eeIwah0r1iwGBjHJqxVDObqXWvyfK22XLY1uXE/okiri5p60s6PJpIYyaeQHswgEhWbYDTiHkQgx1fzqWrYK2ZkOaGaLNAVpNsJ00dA7+zq2e+wkLzDdDCHV/iqTx7MFT+sREgSMojl5EGP10Bd9XeBrXmjcGZqQ0O0vflRHul+0inkgIMjPRfEKAE1bqY6RPmwjl/pNrpw0CgQNfbXh/L7RRJxRBAMqiOxTJg4zGCg6xikfuldT+sdV2cSw/BVo0NGUgpVqRvhDbI9tAkqNzgfQyaU7A73SAvw+dXfwxeH1fy6YIKOJg+IvjjcbTBKgKmGMrNNb9LkSnBpKSGbHlwvsdTZvS2+xYB2mNTeWSZ6poFJJxDrSEVnxWtqRIFikwxnc3ROEBY5hRDCyA0+BgowKvuGsPhV/kQ7bYiusJ21hiDWmcsjMaZHDpOZBDut+P0bnetr7xoPyeDEHTuwFj8Z7NzMP92OisA4T8Wpxgq3QwJtGaI2GwpQ29py658XKGVG9l8AccGJ7BtTc/cx5HwlNDk/mDbHIvBFy5zwTNTE2JnzHwAGQgaSnl9QemyyGZoFIx1dK0Q90lqDoJtHZIjJ+ChMJMiQU30xZWvPqXBoKEHGQychyZz6PGYJU9dbnDfL4zGsbHDCY+zscZFErQVSAUE54kBjPfh+HRemBGmgiqJGsXq2e+HtY6mSVo5JfP/TCvRnpjHo1CP6SWmVLTUAc8tHpmBJxBEOJGD3UrTIhMCLkvNYN/I88N7QN3Ats6FTb4q7Ys+Aq7cjHgPEAieiealqZa+JTbnlmwQQSsZBT4Xz03M++ysDVqwsa28ERbvL1kKNuyiiZHfRjCYg9lmUzUuJYP3juCLgIaaGA49A6Pda1bIEHiczdEQQHiAKYZlBwg/alUxNPgkOOJFZKgCrwW9G9z/Ur9mnc0rtnQJlWfSKRqEnRiL37doo209H0ZmmasY7jUAEFjvfWYmLxa0NGVZyuCLmOWNDDZGBkHCiZEpbOnvkkoCCsKY152emIDV4UQwON/tkuJDjSPmtvyH22oGQ6TbzRauNhlkTaJs5+Aqn8Ge18eXOIOJJj7k3yu1Heb3jkznsDGgIDILTuiO19HTK/tlAHl2nL0W6m8tzdWtBkhIVxOUsYxPG/x/shoU2RHgUAGvBwosyeOo1Ciq0tw/OZKVOeS1sZdBsai2S17tt2BVUA3M8tnsuXDF7HQt3wJAy7dzLgjKHh3MoM1pEtForZ4Rz42lsaHNLoCR500goAVkzq+TjMLsu5NswHOTKhjiZxx0K+Tcv7TfUVWHoZ+Pas8090pgUNpsiQJdAlJqLR8cyILiWCMdGI38foxuc14CBPFBGPnRi9IoyeiNa213cc9ANZHiuQQItPdlidfxGXXV1ekyYSBaxKlI4ysb0tGknXf31udSynz4C6dHsK6nDTabTcrLSgNmuaeEbAAtdilWa3OrFLawH8ydzwYGiQWzwjfGPHoQlBtKsYhMJiXmSrFIFIU8HS8VnMm4sdZbRGdX14KvcWVK/QHzzS9bXRsgcEHJ4EHNBPPqPqdZxGpGBrdnrwFS7yrlrwjV7XLX7qxbun81iM0DgGrVDARrvDdkKGr5ARi5jlrbELwxeJPOZ+0/WQ7OGVMfXse8DbPk8Amo0hH4g6G53bLskPexkhaD36PehYBI7axpQTxXlFbSr1hbvpSx3moPfZdMXotUeaSLYNnsUtJ2teau1ucECEMnjgg7R6dWu92Ou+66E3fffQ8eeeQRAdr87WUybO8N3HTTTTCRQUiYl7eK4cRoi0GodfNan1+8MyAMgmsHxmKLqxi2rfgwMqZl9EGw+EEG4ZTOB0Gbadbrsw6cL2IKvvwOlXJeymDpGuldTWBWz75isThGJ6fR29uLVEH1oq9U9siVteTMM8VFx+JqjStxngNf1hSp8d8ELuXOS1gJsgzZrNTQmyxWlebPROFwuWGx2DBO+n/WUEd/TXTyYxCjkr/SoBCNx6afPlsY++0mUe8brRzQ9svg8vhwFtf22xFNZuBx2mHTUw4GJ5urbFZ0sJGTumpXS0xLK0iY0knG4wJC8iaLrNCXm8h8eCAzZ4FMLQKrasp1XqSnAJ8BVz4KXyCEfD4HdiXO57LIZTOwORwC9AikCG6YgmJ5ps3hRDxvwkhMrRrQjxvWOhcwONpnXOkTbBoBSAQdU6mCaozEBlLRgmhJzodBgBCfGoPVasXY2NgigOByOdHb24fjx4+XAATTMgIEazsEIGRbRknnw0PSOoezPwNOm1rmWBYg9H4YGZwFgHBk3ihpuWeAgi+KElnrTcEdV71GXq4MSKlkAha7C9Gcaj9baTDIVWq/S0BAipfBhas32h1TiEaQoAcIPB5d96hrCLR1LDJVor6By0yrwzGnC2CQ1AspqRNgqoIr3nKDgZjpDJaSNiO4MtXAioDJeBYehw1rQ6p/f72DgUyDgrw3vE+l+2EKg6V80nXQoOFUvedRuv0jg5kFglbaHbP8tXSwGoDXYMpnYHc4RJfCzpoEMzQtSiZisJh5zxVZFbPKI6OYMRZJYWXIDZ/Xi0NTOdEWaIM2z/2z3SGNXgdBGwGAVrXC55JWygQwjTRUMnrcRrZrOMWQqAEQSDGlZpsn8WFye4yLcRzWdhxvAYRG7ueC77hsPVgZ+EXYLcvnklbPSZ4Mfx3J7EA9X3nRbksGIejagdEyDMJ2gwAhEVd9CRhknG7WXhsLNzaNQTiLAIHnSf0BgYKbro2zZkAMyNLwqEqwoQOizW4Xi1tazUqNfZ2lvFqTGzrRrQtZJK9NMRuV6BRPcjDwmU1moaIpOiNzUG5QMEmxJGlZpgb4fS1FIfqEqZwE6VLDH9Lc8VgUTq9fQEgj1RnlzoeU9dOjOUzPRGG2OeF323BNSYVIc35o1IKoAEp91ow9b0s9NlfeLuu8sO+nJ9LiF1Fp6J0jeb5klSqBmUSW5kR5WLJx+AJBqXqgQPMMm9e120QkSiMvMhZGu13Ot5ZWKyMosKTz4/k4lg0gIB+CDzcik0ni8Sd/jl0vmzF8/XYyCNQgtKyWDc9Za8OLawYIEEKuXRhPqEwdOzkqiprnNwIQstkCeuy3IZ6I4NCR/ehadwregLEX9rkCCFxRbw4UYS5kYIIiZWZHYza4smH0ek0IhdrFO9/pXih+Y529CM7sDqkRp4GT1OLP2jZXYyI03wYpa8srcw1+qCrny7tXPDsUxOMJRKfG0dXbL2CEY241XebRmxwZEhW/w+nCkWlVoU4fAwIGlk5q/guZVBJFpQiX2ztXu89SS4KeUGf3HDAi7S0iSvbvLTPkc1kez7YunHUH5J8yuRxOnh7AyakUTME+ocypwNeAS51YquIPjWJP3gtecyVwMBRlLl/BhjZ6AjTnN0ttxLFwDpvbVcB2/8kMfmFNZQGhOCj650WsRs6Cz8n02DA6ulcI8OMztr7NKmZHl/XQNGrxb0tf4aJ14NQMtZ4YXpqo18g5N2ObhgDCz6lBqMEgDJ2wYd3KPUgWDiGWGkawrU4GgQChlWJoxj1u7eMCnAEChNVtb0GxqJojTSQexUzqWfnvHX0fRrpGiuHZp6exa8PbkbU/hVR2Ck5PDhaDuWcChG9Tg3CWGYSgvYhdnSYJwLlsDtFoBCabE05GVKUIt8cLBlSXx7vgjlIUd3JgGCt6uqWun+I8ruj4Uie13lGm3JCfERBQR0FKmat5rvLJPLCGXnpPuIpIJRIieDuTsmNzmwUOp7oy5QufWgauGstZ/zJYDpw4hmB7h7AJLAHUFPNaKkM8+ZMJuL2+sk9oLBKeDbaQKg2mL0iHixOfZV6/QKe+fJ6pljgcdqeIJqmDSGXziOctkmtf0REE6+0HxyYBmxMmiwUmi138/C/T+TroT0Sr+zdIPKlNi/J5aVnM3gSVhpgJmdC03hIzqaL4VBBCsWKDc009CEs9S4fWUrkS0Kp0ztSNsLSRaQhWZ8RzZhwP5+U66O7I1JXeyIpzNxDJi4+DVnGh2SKfn1xB+StvHCDg54v2eOxwGMcPheXv+bQPO7ZdBjN/20oe/dtHDRNOkmJoAYQLMKy1TrlZM0ANQtC1E6PRxWWOlQBCZCaDR/cOySlEpizYsOZyrN8SwPhoDKu3hWF3Gqs0EIDwleNnHSD4rXlc0laUFzAlWjMZ1SOfQczIODE8iXW9HfJC5st7ld8ivvQMGvqUAwMU8+csbaPokhUNE7OCSwILbS3I1bAIEE0WhFM5tLnnFzlctXLflUx/uKJPxlTBopaKoD0vgxYDLkEFt6E4rlJTH14zAxIviHNCUEC9BQVjmXRavuvyqO2pS/dBwDAyPgGT1Y6VXW0yfcx7HxjNIB6eEM1GV3tANBer2E+iZAHMtARXu5wjoyv98eEBtHevEACznIPBl3OvATPeC4pmaSTETpocFBQyYOu9Dfh32hQTvBgt8+SzwuPxGSK+JqgbD0fhc7vgdjkEYLKktM+30EeBc81UBB0eLyRAUHrfGgMIj35LiZsWA4QTz5kwetKLRCKJePYo1m0OoK3DhR7va2Fuv6/mCsZq8sJv2w2L2YH9A3cimR1ezueste/WDJy3M1ANIFzW/ynYrA4UlBji+WdRUNKzoAA48JBHgkcscxLBdgsuubITqYmN6N04BbM9buh6CRC+cw4AAoMVKxrGY1kksgVRmG/ssMM323+BJ89r4+qcwZEBjOVqolNg5cH4GFasUL0GDk/mhNZn4BuJZNAftEkg1Vz3er0WoboZ/BhISLOX6haoYicjYTSYlE6u3nOBYONMwiKOgxRgWotZ8V5QWR1jqR9t/9wvlffMn1NMR48FI4P6h8eGMogOH8eV2zaIgVHAVf67lZwmqx2H4IXnw/OjHqRZg5UHvG8nwwVhbagRCToXOmhSh6AHCCxJHIsX5XliQ6St7WZhg8g+EXTqmzNVO0/Vd2ChR0Eyk0V8ZgqhUJv0cyg6fOJPQP0MS2epYyHASuZVkLUcg/4W+vH4En1IKp1j4wChDIMwdxAFePgnRaxZsxoTkxOITZtw7etUqrT2IFXT1mIQak9Ua4uLeAaqAYSdKz+MlHJ49urLvIEUYO+P4ti0Zg+mkwcQnfBh+544/CFjgUgAwlfPPoPQ5gQu77ZiNKWWlJUq0Umzjw8PIhBqn6PlNRMkCgcj05OiT7DaHEilUnC73aAgbWJ8DP2r10ognU4riwRltLll4yD94EpRSt/sLH0zxmBUexzHhs5IiiCh2BEKhdDuc4kwjv8wJcKjk70wSueLxbMEuvp/BAzgk5OTcPlD8NgtEiwzqTgi4XFpLOTtWA2fWxP5keko4vizj2Dd9j2YmRqRDoUe37yPgP4MKN5UAUJ9nhZz4Ge2j4JWPklDKq7OmbPf2WXH4ekcru1fDD5mUgXMpCkYVBsh8VfBElEyINzH1jZ1ojSvA2GZpvPiE8HmS/U2/KJGZDjrFC0FK2CoSSA4WK4Roq212SQsECtHyJ5c0m2TZ2ffaE4YlOUYywMQ6A0eKeDIPj58Zmy+LAePQYc0XiRTDMeGWyLF5bjhrX1eGDMgIkX3ToyUSTHsNKBBYBXRY/dl4PW2oaMvgp5+46Y15wog8M6wTHFrh9otr8ttFiMjtj2mgHE8koTfrlRsMMRVumIyY3ImDr/HDZfdjFQmi5jiQtCUhGJ1Iq1YhFavNBjcaBNM4aDXH2gqXT4xOoTOnj6MToZhUoroaA8hV1T7FhgZrLSYThbF1por1B4PWyUb+ebibagVGBmfRN7qwYqADTMTgzh96FG4vCGs2XoVHC4frBYrnvrfb2Hd9pfiJ9+6E9e/8XcwMXwcazbvliZHlUZCUiuuuqyctX2RKaDL5Po2G0ZirChZ2DVSSxnpj815tXnbEY4lsLo7NOuSqTY1YnMlKwqivVjdN3/OPM6+0axoFRhojZZ9SuqIaR+LAx6XClTooUGA0KwgTS8E2kaziRPFsvQZIdNF/xGyXiy7ZTnw2RjLBhCWcvJzAKElUlzKNLa+ewHPABmEkKsCQFhZW6S4lEs/lwCBwZuthLVuf6S6x8JxaWgUDk9LGoAmN5VW9dQWcC2lf+EzCEzF0sikErB5glXLIFWjn1jdKvdK8800RYZshtcnbAGNdzgOHTuF9WtXYyajVG3spN8vaXS6MJJl4Mq1UvUB6W56OVTqOskgxyBOhmQy74S/OI1kdALjA4dgd3rRs3o77A4XfMEODJ04iOnx03j+8R9h065XIpOO45KrX49gh5rKKTfIlGQzKXh89ZdXM3AzJdDhUn0ijHR9pAgzByuS6RxCUs6rtkqmwRQ1BO7cDEJt7YtOlc8FhYOdHnNFf4zSL2WzGWGCCjaPaumsKGBlxtFwcc6KuZHfHpkgzeCJQIAeHBwUzB6Znu8m2ci+l/KdhgFCTFmsQVjKiei/KyLF4R8h1QIIzZrS1n4usBlwUaRIBiGyWKR4ST9TDMtnlGTXUgxHz55RknZ71sw2wWEQ5MvdaQFOT8axIuSBvYpajmIwLSDqtQQEC2z8lMkD0ZPPoGP9LrR72D64QnDLZcUdsbRSoubjQ+YhHhXLXpbQkRNIpZKyio4m0wj66K44L95jKaPN5cZoXIHDCnSwkZEBIoE5+Ehakdp7bWgldAxWpLl5zZy/cswEjYE8Xr+4BFLHMJGxojfgQHRyECeeexBuX7swBnanB1DymBo7g4MP/wDT42dgszsR7FyJ7btvQtfKjRWnhABkanxUSgLrHQzsLAXt9s5bJBvZRyyRkk4aHid1Heo8c15oOHVieALbVnUuaoDEbQimaKXMMlf6Z9RiEmYSGUSSGazu9IsXBis22IL5+amiCF1rDYpa14esImwkANI8NtTGV4u9FGj6dLbYgnLn3hBA2EuRorK31lw0/LnD2oFjw//dKnNseAZbX7zQZ4AMworAKxBJqVqDZHYQ6dyE/PfO/o8grbywbJdoswTwXWoQzgFA4KqYLXRZeui2mdHjVfPyzL9Wi5/iZU9r25JZIS1PsRpNmMITo1CKBXT09FWcu/DUOEJtnWU9clliSR1DqUES6XrSzm6PT20EZTFLapVggQJHzZ5gwUEVBTPTk/C3dUo5HDsyGm2DXNpBkvvlSpjASPoQ0MmxjJghmYiLVa5Wgnh8eBJuhxXh8TMwJycQmR4W/UaoazWcbj9WrN6Kg4/8AD2rtuHogb1Yu+1qhMcH0Lf+EgTbFwd/+gvwmoJtnTIfXStWNvSMlru+ajuaGBtB2No+211x/gmgsRVBUDKZhtkTQshV3tpa+l1Iwy/AaauO0qh5oZmV2+2SuZqeGEV71wphbB4ZzEp1hX7QaIusFtMdW9qt6PVTXKk2u+LzWktzcsEChFhxGQGCrQPHhloAIZcFIsMrEZ7OoWtlDpMnV6NgnsTaS0ZgcxgrWWvoF9r60jmfAQKEDu8VGI8+LOdSKKZRUNSGKJf0fwSpZQQIdN787tfODUAonXgGzS3tNnR45ssPq90cBmMK+EjHU9DFZj3UMmgjPDkOXzAkXRsleBeLGB08BY8/KKkLCh39obay2gP6ErCcUDUCWjwobFQdFq3IZjJwuiobBhFIzEyNwxnskvw120P3+cvU7Stq8GcumitP5qdLB2MSBXmsSuDHZF5YlkfxJYfWzZHUOEV6WnomnsqgQMbDacfMxAAOPP1zSSv41uxBf7sf+eQ0otOjiM2Mo7Nvg4Ce8cGjWLFmW1mAwNSM5ulAYWM8GoGbrpBmtX8Dx2SigFQ2h76AvU7xZ5n2R4qCTCaNfZMWXLVSFUUmohEp/eQx6XnAa53JQOaNVQYcBI1kWqhP0LNNDPJ6L4NaLwHea6aM5rt/KnhsMCsMTn/Ain7//HXX2lelz5luIaNyrkbDDEILICzvLcukzHAXr4Uzdy2Onn4M/au6cWpwHzavvRpT8Rfg6lEDR2tcnDMgGoSKKYYXD0Dg3aX18qYOK7pna9yr3XEKxWiUwzLGci97vtSnJkaEZnd5fFIXr676LQIK0qmE1LrTq5/uhvUOfpcraUlRzLaWLudzQDbCancgUzSL9TI1BVoA047JlScDGNMKWn1/6fkwGJEep1GP1oqaYILfI+VNRoH5bH3JpX4fzw9MwmdnDX8Bo2cOC3PQ1bcRQykrHJlJuCwFHHrqx9hz47vEkXFkZAAhfwCB4HxOn/sW06dcHh7nfIUB/xaJ0jo6MOdZkMvnEZmZgc/jEfOnSiZR+nOkVoLMDQM+AY5Woiitq00macfMCgdtUJPANJFUidiciGQUAU0EKUEHOz4WMZYoCmPDvD/TCsMxlfIvZXE0jwVqIcppPghQHI7Kts71Pj/67VmhQFEiAaRmWrWU/TXy3fMXIAz+94tagzA9ZsHavmvwzAM2dLb3IVscg6d/L0ZPm3HjdR/ECxN/Lmrm1rg4Z4AahJBnJ4ZnFmsQLl314gIIvMMM9mxusyE0r9yXioNZ21wtaLC7Y9HmlnxuOfqWQYX0dzWrXdLSsYga5JmrpxOiBHvmrNny1lG9xj86My3fYVUFRW3eErGeyjRkhY3gPlnSScMmzfiHeXNWJzCo1cqJ8/vlmiZxn1aLaU4AqXlFEAiR3UgqNsltc45OjISxe137gmMxME4m1fOS7o1s9WwxSYtj3gtNw8EqEa7Lp9NAh9e2yEtCC+4aa0GKXhNqUofhdHuqehLwvMOTE2jv6hGXRgICzh3/IcAbS6qVCqVumdRaKIUi8g7/rJgQGE0UBCBoWhUyBumCIjqA0XhR5qqUoakFEJZa1lnt7UWjJRp+nctx3gKEo4MvvhTD4afccJg2IJOLomPVEELdOQw8fT262zcjh0HYun6KyJQVr9z9u9g3+EkY9Ec5l89X69gNzkALICyeOAYlVjgwr8vB4MNVIoWA2mBAjyTS8AeCZUV6DM5kDehwWM0sRw2oNOhRW/9ycNXPgO+jj38FRSFBy8nDz2Hdlh2zgSwnQVA/mMN2uedFiyyT8zlMkgpgwE/nihKoyukI5DxowMMGXBXKI5nvZqkgfRIu7bbBjIJULRAUMaA60tPwhTrA0nmuitkN8YoVdlmtah0GeRzpOpgqCkggI1EKuKQaIh6T+THbnRUaZM12UJydL86/vgKFIEG6PzpcszbWinRRlHbROaZE5pkDpo72j+bQ7mSViglZRQVVWiMs/Ryrnhge5M0EYar3xXIMzgHtsslsVHPErPfYTJWxoygtns/laAwgPPItJbqMGgSnrQNHXoQAYd/eILp91yIaH0P7+gPo6MvgzFPXI+DpRSY/Cd+qBzEx5MQrrnkvjk5/Zu4d9bLN/3Eun6GmHPv05Hdxauq7TdnXxbCTagBh1+qPIFlcPpGiaBC+fhynz4FIsda948qaLXZDtjzSqaSYDumH1KlncrBZLbBby4vSGJBoV1yvHz+PMzEyKCLHauBC3wyIgZlmSxrroLkgUiio7YMaA67m1wSsSOaLoqzXt5jWXx8/Y1Avh08YVBhQzCZl1kXSJGp5L9MEYeIdRTwmvHYgl8lCsTkkPcHUBAEA2QEaC2k0O0HIVLKAZFbBqqBV0gjaObNjJYfH66vomsjjUbchDAz1AbGIodJHSVnMik7ZBInliOyayDk5OpXHFb12AS+cN1ops/0y3Sn1nhA8VzIONGxiyonXWKnVd61nzsjnBCQef0DcOpthrEXmgqkndo08l+O8BAisYjjaEinKc3HisWtgsRTQ0RlEsCOHyTM9ULxPINh/9Fw+N61jL/MMtABC5Qne1GYFlAJSRbOAhdJBFoHMArs7lhuk/km165kHo7czFonA4fVLsKGdL9MBLG5j7TrTARRH5pMRBINqt0C1d4JNAhUDFhspsdqh3GCqYDBWEL0B2RLur1SS+Nx4Dls7bcIgaDlxrqyZZ+e2XO3rv8Nge3xgBLHhzpMAACAASURBVOv6e2cZgYKIIZlmoGsiwQurMgguxpMFYTGYi+cgU5Erqkp7tlMeHx+Hj+ZRJqWiULMUrE2NDSPQ1jGngagk8CydD+bfeS5MZ1BXQqaAjogEAnptCUEC5+nkTF6YJd4HDj1AMHpvl7od73U2nYbH7xe9BOfWqKXzgnkDbaXzODp9btkDnlPDACFSWL4qBjIIRwf/60WtQdAemKmBbthdeRSVDNb3X4NTp07A03UMFbq+LvUZb33/PJkBAoQ2zyUYmvnpojPateajSBaWl0H4HhmEY2ffB8HI9K8LWsWPn6vd0iG6hHgMhVxOKOtUIiYBSquNp9Ke4IHBmk6J9Q6q/hk42WFyOlWUGnqu6vnftIbmqq/dmoHbXJAVJY9ntdsFrPCYBCe1PBYY8JkT59X1zRrmaOcZYWWG3aymPmavnywBAyUDpL45Een78YwNDksRPQG18oJiPJZ8cnBFT8dNXyAo+5tJq/oCLcgSABVSGQR9DtB+ilUJ/kCoYnql3FyymoGArZAvwOPz1zvdsj1TH9QJUM1PUyMCB7IKvG4CCXajJFCL54pQEmHYzAq8Pv+irpdGDk6HSs57uWoRI9/nNkx95fN5OJ0uKYlkuqS0NLbavsge3H8qfc6EifpzO38BwkALIBh9IFvbXXwz4LJ3YXPPe2E2q+rswen/wXj0UflvAQjLnGI4nwEC2+6yK2KlHD1fytQQsD00V3QUkrF0kYMBevj0SfSv2zjny69/ekjRl2sTPBegw1OiQdA3cCIdft/JNLrcavfILR1W2PJqW2qmM0g7U5hnFCDwWNznUCyPXp8V0bTqDsmVvYaJ+P9kE9qcJmQKQJfXjIFIAZva562JYzNhKA4v/LMNmQhkBqJchc+zLrGZaXgDobIrXW5f2PtzFNevgbmzQ/wTtF4G9f7iWE7KyBuZnkKwvbPer8v2TCuk80Vp1ERgwHtFQMT+CxzJZFLutcNhR8FsQzzHTqDGSw3JojDVY7csdOLkvkUTMJ2TUlL6dBgdqkjTqj6HBKUESTUcsc4HcaJ2fcsGEEYGo+js9iIez4i1V7CtfO1wuYkWDUILIBh9BlvbXYQzQIAgDEJ4MYNwmQGAMHg6gu5eBqgC0sk8AiFnzW6q2jRSg3A+AwSeJ614mYtmoAinGC4VuOwmcIW9ymeCzWKWXDBV81wpa3lwMgwUGpYrTWOumjn5S3sqNxrSGjiVe+S4OmcPiatX2uEyqflvHo+DVDNpfZ5LqKPL8BPLErdN7VZJJ9ARciBWFCFhIleUdtYOq2orzJgjAsmZggAcUtwEQ+yJoGktBqIFmTe9fbHMRyYzy7bEhV1ha+mxMyfhOXoCvu/9J7CyD8rHP2r4nKttSC8GlpLSc6LaIEPA6oTSlfyDAxlp1kTwQrAwFC1ic4casMNTE8LUNMpUEJTlixSILkzTnInkpRzSbTcjlqaglEZYjU2H9jywFJPPZ2lrbIKQ4+FzqzvQXxkBQmpmQtJkw8PDYrR111134u6778EjjzwiDdFW9ffj0GHV0O2mm26Cae8j31Ii+fIphlgkh0TYi3UrX479L/w/dIV2wOnw4PjAI9h2ubFZbQGExh6+1rcunhloFCCkU0VMj1lxyYZfxdOHvwx7/lK0tQdxamg/Nl2qtoWuNezW8x8gbO+0CtVOBTsDJ4Mkqeh+d07U71ofAAZKlh2y3p7BaWpiFKvWbSo7BVq9+Y6u8i2QqVYnVaw5Eep3QqByOpLHVErBWp+ClQGbsAZ6gMC6f64ka6UYtP0SsGgVG/pjkYLmZ267qaKYkQJOBqBaynqekwgvu/ukQZVUDlgs0rFRxmNPABvXA20qA7PUwf0zVUGzqtLgaGTfvEc0jKpmaESmJhYNi6NjPYMrdwodKRZl6ohAgLoQGlFpugyyGCPxvFhjSy+GBoaUa+o6S2q7IECRdtyZ5enM2MCpLkGDUAEgPHT/BC7Zdg06Qxvx9P692Ljdi8HhI9i+5hZE8Z+wEhbWGI5ZBiHd6sVQa6pan1+kM1ANIDDFkKqQYjh+KA5Trh/XX/0m/NvX7sR1116HidiT6A3cjKJ3L2wGfn82awDfP481CNotJ91OPYL0bSgocOaiWNnunVPVM5fPNIQ0TEqnxI+AavNQZ7fsotSbjzltquSvX71Y3EiKnMyDzWZfkF7QP34EKS9MqmV47U5FgARBiWrCpKYYaKzD1Ic2yvgDzn1WCSBoG1CYR9GeNCvKZmbFkA5hTXJ0cnTPBvkKvxHZLkvHx+rbNfsnJiJS+hnkcxUFm+WOySwFTGxYVUCnu7o1Na9NE2EaFQpOpwrCrmTzwEymWDGVwEAuTaBq2DKXXgPBIs+JLo+aF4R+G97vFybzS2r61Ox71VCK4X8fXsggnDw2g9gM4HSb4PFa4PZY0eF4I36290e46vp2ZDGGDZ3vxInJr8LjLY/O9RfWYhCafZtb+7vQZkAAgvcSDE2XSTGsXShSHDoTw9R4AVabCaF2K2x2M3atvx1/9fm78PJXXgZ3+xDWd74Vxye+aej3Rwbh+984f0WKpfeS9Dtf7Ou8eXjcLsnfq+V6VPrPs5Z8ObMfQTV6mymKcnX1mXQauWy6osES+ymMJylaVLAhAHS6FFm905SJoIKK9no0CLzGJ4az2N1bOd1BdX8qPK6KLcVAKCfW0QQGPFYt9oDXxHLPRnUFS/1N8ficn5BBTQKFlCx7pCAxr7CRF1NJ5VlpBmOCM/6bJaZGQILWHprpC1ZNVEoj0EDKZTPPiTmNzINW3mq2sJnU4vJbMlDPjueEBTufRoMA4ZsLUgyP3D+NdX0vw0z8BHrWheH2WuHO3oxHHv8pLr+6HZHkaWxecSuGE9+AtUpHNps5gA73L8BstuHRo3+IZGbofJqr1rm0ZuCszUA1BmHPhr+A0x5ErjiDcOoJPPXoMLr916CopGDyPoeuFU6sbb8Vf/uFu/DKG16Kov0Q1nX+KsbS3636+9Mubh4gJDAwNIy7vvnjs3bdSzkQYwUFgmzKo5bmLQweE6PDEiwCocWtf/XH5QqVPvr6wVUvc/qVwAVpaHoGHJ7K4dJuu6jpVWGkglgyA4vNiSeGUrAoOYS8LjE5Yl0/W/muCVqltLE01g3FCuibrTgoNy+TY8Nw+/xwz1pCa3bKTIVoFsakyp8ZzeHyHvuC9s8qq5KGP1hdC7CU+2Hku0ef24+N2y81sqlsw/bHnC8GaQbycikY/c6kqiUShm/Wi6HcgfaN5qR7pN4kqtoJEaCwz0W5MtSy31MUAW9kkvTi1lL2YP9YzvA8nK0NGwYIMxVSDDzxXK4IX/FGjE3vx8x0HkODk9i4cR06150ydF1S5njmv5BspRgMzVdro4tvBggQ2r2XYLAMg3D5uo8iUaXMMZ8rotfzFjxz5Ovw23bhhcMH4XV1YNvV04YmSgMIZ45dWACBF0dQsK3TKiwA0wvl1pfMg3N1yZp802y3RX3FJAWA3A9Xq9oQ8x42/2FznioKNYILCtq4DorF4yiYWSJoxqlIUUoJKb7TN/yzWSD20VTbc+3I4zJVwVx4aYqB36VgbnObBYlEFE7nfPkcy/N4vlXWXwuuJRqekuqFcqtZQw9JkzZiKoAakUCwrWLwLHcozlEiW4TTps51tTEzNVGxcoIaA/oN7Oqx1+ysWHoMHp8gbmObbZa1Kn8WBGO8qXTvLDfYPIoOkeeyrXOl+VsWgFAoKIiOdSCjnIGl0AOl4IAzNAR/sLqHuXaSkmI40ypzbNJvsLWbC3AGCBA6fJdhOKyKgYvFPBSo4qZaAKFYUJCY7EPRfgrRSQdc9g7Y/ePwh4yJhFnF8P1vHseFCBC0Wy19G9qsZfPEzLuPDQ+ivbMbDrdHPAz0Xv4M1PQHKPVZ0DwUWNdeaVD3QOvksUQB0bSCJP2MawzelS0dNmkixBI6Bgyf3Ty3Wta+/uRIFlf02ERPQSMgvZaBQk2yEkaEc2KRLNbL9ftA1LqWRj6X6ykUxC+gnvIAakYCjsUNlkrPgdUNrGIpB4bo0Mi24pr3QyPnz/tFbwwyGkxv6b0oyOZIya23sgcEgQHbOp+PozGA8NA3lWoMwlIvVAMILQZhqTPZ+v6FOgMECL2h6zEZOyCXkM5OIJMPy39fUYNBWOo1C4NwgQMEzgFL+voDlrKdEGmHbLOzdbNTTIYY2GUVPytAY6tozVBIm08yDywJlMBcwiIwMHDFz06KfOGz0qA2NJi/U8ylX7nCJup86khpCkQRnB64ECBcucIuAEHVGlQGKqXPgDg+KphNMyjIpNQSyHMxWMlBC2abwykmTWRk/j977wFm11mdC7+7nF5nzvQZTVOzqmVZcrfBDZtimgkkcIEEAqkmCSHJTedCci+5odwEkvzw3OeGJJQADo4xYHCJuy1bktV7n15Pr/vs8j/vd3Tko9HUMyNpRtqLR8+DZ3b5vrX37O/91nrXu8iZkGRJaEbM1hhRYaSl3M56uvNYOcHnl1N8iAQ8U/SNmO2dJz+O0QiSZRm3qvPKQiRLVIRMQwLl+8ZeGIuNe1CeYfUAoXhxlRQZQbABwvxeWPvspeuBUgRh0xsRBEuHZZXqo69f/hlk9IuopEiA8L2lHUEoP3nuqldH1Aty1eQT8OPNZkAEB1xsuPtmGmAoxZ4DELv/cqfEkEtCUCmKnXsl698wS6x6hprJbOcusloj76E9pIBs/ZNxHRsanefxEvqSOvpTJrY0MaYuzTo9wGoHdjFkKL4cYWB5IxeyqXLik82BXIrB8Tjymo7uljr4PbOLCPNaAz0n4XZ7BWmQwMbpdgt9Bp3RnP5eRBqbkE7E0bSsc9buo8/J45hNNQF38azsMCDD43YLDkP9LNqHz3owZw8kKGQ1BBU8G4NuAUKnMh67Z1DDcHYeL81cBzjH46sGCDEbIMzR1Zf+cElS4FD8VTWluRijLeopmNbl1xe/GHNb6GvKkhONoRtR0KOIpQ+KjnRluxQA4UdXCECgzxjCp3hQW1A51wGxrE9APgD/USCJhEHu/GeyaxtV1LgV0TeBtfMLZSQp3tlVWrzIRSBLn4Mnt4Bz4G55JF3ESDyL9W2TpwcIUg6PF7G+3ols0cRw2sTKyIXKf4xCMNUyXdvrynnphomDvWPY2FkSeRpL5hBLptHVXCdy93IFiUMrGnh17yHU19fD5XBA04tY2Vo/qyZGyVgUgXBYgBfDNER0QXAyJmH+l/keUwEEPuNKvoggmhZ1eDweUTHgcqqiedV8rFSdUCxVSzidIrLEaghWtXSE1QuIspX3OhMv9Vuo5KTMZywX49xFChAiOHLmp3Yvhnk+cY+rEV31D4Ah48Vgx4a+h0y+bzEMZUmMQVU8aAzdhKw2LEDCOYCw4mJHEIL40fdOLmkOwmQPmIssRZC47pbhVk9SP6vEePlfCY6PUYSgWxbtjBn92NanCWEgWnkN5s9JwjyvKRMARjOYGhnPmiI3T1lgEiYnM0ZCGHKnVsNM3Qe5+CUzeYT856ckktmCUK70sZWyxZxKqZVzz1ga4aAfy2pKu+fZlBiWx8h7sa02+1ckxsfgcJXKQ1k9QpXHSqDAvD9TM5O05BBpGEZHWGJatkLRwN6ecTQ4NOQMCZ0tEagzNO0qlUsWxMJfbv7F6AtJrjSOhyWsE20mrQRGrAhS+LwWs1UNEKLFZy/avAQH4YydYrhoDrYvvGQ84FB8IpKg6UmMJHeIcW9Z8RmkL3KK4bErECBUPnQurnPhCFyqF4bjCrio4VBa2BnZmDhOqvqVlSTJe2C0gQsSlRXHMqZo8FSWX55u3KU0y8w6CFwko8kMIqE3BJ4qr8vfD8fSwqOKLGMkr8CQFLGDZiXJdARApmRYHlqqOsG5/hoTd//cpWtaHoqsnuNOxHKmuDaBEK0sQsTwPtMXVL2s1IJInNUa2NDgECWKpYW+AEUpdducaOSbWCb9X5Kz4vVJXmX6iVwJ/tzHzpxTVLWQ/Bp2n18Nw3uwXwfBAcmsi92qBwjaRQYI5CAUxha7/+zx2R646B5QZDcaQpthWgaG469eOoBwYumVOV70h3GZb+BUJFzf7BBVElxcuTRyfaKiInfTs6tTKU2CRMdUMl7anVcscoV8FrkM2fclvkUsOgpXIIK6mtlFIpnmoDFSw8UwVWDbaAvLgmqpZwSYKjFEOof9MwiFWJHA4+MFC00+GZoJ0TSJQKfcjImVDqwKGB8bQWNLG3J5DclcAUGnjGBNjQjz0wNsiqQ6VGTTabHwl0HCaNbE3uGS+BQBgvCBZQk/xGPjIk3icnnOSWGz/JLqm2WeBiMuVH+cClBMfDXIJTkSLV6QxnitvyA6Zy5GgDpxDosWIByxIwiX+VNk334xeUCWVDSFb4amJ9DVdB/SxTdSDgs9TqakRATBBggL7dp5X4+Nm0jMOzBaFKqNb+5wCS5EOQ1RzQ2GB3rQ0LwMpqELtDFZj4SxRBp1U0QQZntPcitY4cESzokVIlNdg2mEU/EiVkec5zbqmXQKPn9AdK+MeKcmKVI1kymPMqmUWhEHRnUsr1EEQGD1CtMyEe+FlRPsZTFRgppAIpmICaEtklnZM6Hco2Gy8fN+ulGK7JRt15CGkczijxyUx1sVQHjhlUetnLVvtu/FnI/jB2rXsW8iWxiZ87n2CbYHrlQPqIoXjeEbsaL5AWT1Uve0i2Gq4sPD396JU8eiS0pJ8WL4YrFds6y2WCa2+ZyS6G44H+Mumjto1e2Dx6Fc0IxqPJXHqVgRW9oDc74Nx0k1RyF/LeFcxQElsGfbEZElmuM5Q7S+5lKbiI7CG64T5D7yMaaKmpC7wB0/Iwiim6Zh4UzCEFLNLH9lLIOApYuNtWYQW2KKgxEFduLktRgZYbvp6UiO+aIF99l+Dbw378XUAn2xVKwqgPDdH/2J5fHNJZg1N3fwkR/tfwQFPTm3E+2jbQ9c4R5wKAG0198Fj2t24d5q3fHo9/ZgqNe0AUK1DrxE51EMaj7Rg/IwNd1EPJVFJOASpZ9lyxZ0nB5JYnlzzbQdFCebLnfoJBAy968ZpcWcpEmuHFORC6dyG9dU7vZpyfEReMINojyVHT2nAxqZdFKQCyuJhEfHdQykdNzc5hJjq/HIcEzGdKwYTDw6el53SOpUtATk89Q2J46d/RUYqSiDCbYDn08Z7CV6pc67TVUA4bP/sMpS3dnLMV77nrYHbA9cAg+89pQLxfhqGyBcAl/P5xa3LXPCzJU3UqUF1DRMOJxc5EubOPZsYB49GI6c5RpYIo3AttNl7kEuX8B4LIG2pvrzSHc9I3GE/R4EvdNHKbjD586cxrA7F+7BlIE6X2nxna5rJZn8XDjrvdNv48lHYGhf1/KI5i2kdBXNQVWUml7XNHlTK6YFmGrwBd5QMiQfgvoWtZ7ZizLFo2MI19aJ+VHUKJ430MaIxhT7ZEZNCGgCLgVsUU0y6WIuZ5zqHawKIPzl16YHCEUNqKgumc/7f965WUGUleANLKEYzYLN3r6Q7YFL5wECBD1hA4RL5/Hq7nTfcrfoSdCf0tEaKElL5zNpuCtbSpumYOwzMlAGBAyZj48OiZJCj8eLSFMbioYBtwAWb9hQNCkAwsFxCxsbHaLK4Hi0KEL1XLDLdkOrU4ACGn/P3fP1La5Jw/88jQs0Q/Qs1lgZcQg+BUszZwr18/rj2SJeP5PA2tYwWoLqufQFQ/is6JioizDc14PGtvbqHHz2rMp+DiUxJAKM80tNyzfg3Al4qENxeEwX41uqK1bVAAFKHsvrPoqe4ybMyL8IJJUa7sR1q/4bWtsa0ds7jNeP/SPCTaUGMbnxFbj12t9GX98Z9Kb+Fa7AuCidLcbXYePKX4DLEcQzO7+AYMPoOW8qDqJFGYpqQVYsWEMfwWjxYUSaqd0tQXWYkGbIHc3rrbBPtj1wmTzQf+AaXHvdaoxpj2J8WMYv3fdN/HjbRyGz5NySoDhMFGOb0N3Vjp7oY+LvQZKtsx9tCapa+tswDOnc34qhl7Y7gkluAqrTQrEgA1KpdMs0ZDichjjPBgiX6cFPuC2fWIOPYWoIUl2lNfpkbGx0igoAWtBZ6sWQy6TPMfH5c7Lv2cmyoaVNMPa5WFXqA/CYeCqDaKaIrqZw6R0RDH9gPJHGcEHFqnqX0FdgN0WmNBiWL5oQYk6GZYEy0CRPsnER/5sR+1f7NGxudp7Xklkncc8qXZ+y0ppuiWsy5cBrcuGlmiTPJ09hYuR/LF3E64MaWoMqVtY5hWTyy30FsVsv5/a3trhwaKwoujM2+6RS34lQaV7V2oUpBl1wIsrjE9ENAPtHNHSGVDGnoSVERpzKL1UBhL/46ipLMkPIDm/A1s334pWDf4lwYxaddb+AkcEchhPPQMtF0Nldi4yxW9y7Sf7v2HX8H7Gi80acOjmChhV7kE0rCFhvheI/huPHenHnlt/DvlPfgc/ZBofDAR0xFHNeyO4hZPVT2Nr5t9jV+2dAbjkMzYcm5pCM5+dU2lPtC3I5zuNLpxUkOFylPzgaNTuYIuRCYduV64H+g9dg46bVGD8LED5w7zfxyFN/gqC3G5Yho2D1A6YPrU1dSGUHcOzEAfiDDtQHN0HXDegYgxo4CY+5FZmUBUMawch4H1qblkN2ZJAa98NTvx9O7VakC/2o8XciPl5EpCWPtLEd2//LjiAshreLf/fM3TOPXanySM0Alut5FUOU3VWGuicChBJIoI5AoaT6ZxqitLFSZrl4lkRXyseX1Bsz+SIKuonhnCyAR6JgoDPkgE5dhGxJjpq7de76T8cN0ZWSi78iWULHoWgAA2d1GmqEHgAE85/EPcFDkIG8XipnJNhgKkJsNDVTgBPqQfjO6kFwDol0DjsH8miq8WNNvePcd5+AZyBpCNEhD8cjQbSEZqdIgqMySXE+z7MyxcDrlHtvsBqDlRbsAOpWZEGm7EuaSLJO8wqwqgDCn/3dKqvGcy2y8VoM9qXR3tGCQuC7cFhtSPVvQFNDG2oaZOw/8Qj8kRGhLf6mNd/AYy/9OrzyWsSGatC49gWk4y4Ux29FXecxJNJ9eMuWr+G13T9GXb0fQ/0FeB0tkH3HMTZkYTh6CE01m+Ft3A1X7p0YGDkAh1ODs2EbHM6lGsCZ+g3KpRVcs+yXIFkBpHN96Bn9GRzmGly75m4ks0M4dPoRBGryV8AraE9hMg8MHCoBhLHCo4iOyHj/Pf+CJ1/8v2hraUdP3wEsb3kPjg38EFvWfhDHTr+IkdzjQKETm9a8DUdPPYfOhgfw6r5/xvpVdyFReB1dje/FK/u/iBvX/RrGU8dQ570NL+77K2xd+6vIW0fhkGsxEt+Fa5d/DNuOfxq7X7QBwmJ+M7koc6fayXQrd9vKG3LKTCeoFUTD8jxYec+lmVEENi8KhGvOmyIXOi7Q3JXTRhJZ9CeKKCoe+J2SkKouay0wjM61+1SsxDMgIKAoULn0L6dbQsQoo1kC3OT1UsdMLqwUf2IfBIISCiSR4c/FvUxeZCSEWgokNobPhvFj6RzS2QJUjw/1vpIA00SjcBKjEhy+SwFy2Ywoc5yuWdJsn/FkLaN3DhawocEpoh6cKyM5TL0spSqFmeZPgNBzrNT3pSwn/Td/8wV8//s/wCuvvCJ+XpLDLq3B999/P6Q//tJ6y5m9D23NK5FMpHHTzTfgWz/5KBzF9ahpGYfLn4IWX4mV3etxePD/iR3vTZ3/gB+/8inRgKbnKNC+eSfScQek5JtQ034cI+Nn8LYbv4ode3+MQF0M+19PoCF8LZyRHRg51Yz62i70JB5Ga2cR42e6cE3Hu9DZ2YEXDn0KHv+VBxDc2pvRf1JB/aq9yA1thSeYQVfLbTgV/wb0+DVobgtgMP1TO5Iw0xu+RH8/cLgbW2/Ygv7k9zE2yBTDv+DJF74uomZ7Dj6Dd93+dbyy9+tY2/5BvLrjaQS6H0dmdDk2rLkBOw9+F/dc/0X86PFvo6nVATm8DXdv+hp++PTvo8nxEfT2n8Fb7n4AL7z8DDLFg9i8dQWgJNEz+jzuXPdPeHrvb2LPy04YNgdh0b49zLVf2+gQC+xE1cGJg2aun70oyjY61C/K9SaCCH5F2UOAoXkCgcF4FjnujD0eQSCcyPQvSztzLNwwM8VQJiOSmLe8VhWdFkksTBRK3+g9Q0U0+dllk797QzmRiyr/sf2yWyEwKKlBEgdQlvj0SAKdNU54vd4pn0l/0hCqjOsbnSJKouVzojFUpQgUwQl9xqjMXKwSIJDzQf8QxLAygSkX9lRg86grCRzQP1VFED7797dYXfXvwb4zX0Wg1oQ8/iGk8z1Ysboeh/cUYHq3Ize6Dje9uQ6nx38gUGn0yL2QnQms37AGR069gJ0vjcHplvGeB+/AWHQEx/dZaO9shsuXgT8Sx/6dSdQFN8Bd/zr6DrfglhvuwancZ+GRu1EYuxZ59SXcuv4v8MTOT6G24coI5/APokz80TWgkJfhJGkodi9kyQGXMwiz7l8Qcq+H01yH/uQP4HRfGXOfyx/r1XCsoncghHeIKJxXuhZt7U1Ia0fR0OLEvkPP4R23/CNe2v1PaGnuQEPtajzx7LcQCvmwbs1W7D78Pdy56W/wsxe/jBs3vROv7foxbt/ycRyJfh7ayO2oCbWir2cY733nx/Gjlz+M1Z33Q3Kk0DvyAm6/5mt4dv9D2EuAkLRJipfrXeOOnWV4T56cPErIRfn6FqdYgEVPp4r1jksxvyNcwHcPF3F9k+NcMyWKIjW2TE/YowjT2joHRuNpDCQ1pCSfkEHuCJVy7rXuUn6TEse8D6MJJCgy9cCxkDtQ2lmWvHcqpotFmaQ+GnfaPI//PZuFmpGGVDYPr4vfwJIWQtm4IDMCwegH0xlcpJmKqXWZ2NLquaAPxEIABN7zyFgRbUGCLksIHx2PLVzTrsv1zk1236oAwh/9r61WQ107UuY28bBiw0F0t23FmZHnUO+7FctarkFP/yEk9BfhI585TgAAIABJREFU8ZUWMF3zIOK8H7HEEHTXDsT6WxCu8aOA42ivuxcwnehL/ifc0kp4g1n0ny7A7WiGL9KH4dMRhEJheJteEzl5t3UtWhuuw8vbf4a2VYOzFtxYTI6fbCzxkQCWt1+PeHIMWeMo9IKKWufd8PhcOHRoP5pqtkBq/BaC7vVwFNdhIP0wXB4DXlfjYp/ajOMrGhkUdZap2EYPaAUZVnYNVnXdiIGBXiTxFORiJ4JhBSNjJ9HV8F70j72CmtoQBgYH0Nn4ZvSOvojmpmUYie1Ba/jtGNd+imJ8I7o61uJ478/hi4xBMVrBVtKne46iu+UeJKxH4ZXXQHYUkMqfRJPvPRhIPoLdL7ptgHAZX0UunCtqFOwfnXzhYe7/+manyNc3+hRRBcCdOrkDLpW5fUssxExDlFMGnE58fAShmjrR+GgqY41/wCkJbgA7JrJ8cV2DE7G8AefZkkUuwhwDF2cCEgo2MVLBKEKZ3a+cTQNQ6ZGAptw4imRLLuSMfHCRnU6NkGMcS2sYiWeguP3oqjl/PtzB7x9lN8XzZ+PIR7Gus1H8nOmMssBUtY80ERsXCoqVwCSeM6GZFvYMF6u97KI/ryqA8Gd/t9JSXbYOwkI/3dR4CBvX3I6x8SH09J3Aipb3IaefwVjmGWjZAFY1fxRDxlfgwSbUhVbhTOwHUFULAe/8SngWeh7VXE8rJlAoJqo51T7nInhgxzM2QLgIbp3TJadrKMU0wJq6Uv8FLtKjmbMEPRlCylh0RTwrTlSZrmdZIzkKsqJeICVcHhyrEI6N63ArFlyqLBZYLrRsLkTwwf9P4LCi1iFaU3PxZYSAvQ5a/IogClZaWcGQofhSyoACSqVulTyfUsfTBfxfPpOGz8phdVudOKeyU+LOQW3SpkdGegzuYB0afPTTG0qJFFeai4pjeR4TAQJ/vntIE62dCc6uVKsaICiuLMYGFIz1heHwJrF8XVGQZfiz0Z4w/JEElq2sQL8smRmWkc9KaGo3UMGpwUifglRcxvL10yOxbEpGdKAGbavHr9TnIUo8+QfYFvwlbL7mA0hmBmEhj30nvg89uQqdXZ3IZ4vYd/Lf4a49eVYLZW75tMXpvCv3j6waf7MMcaS/JOTS0FoqPZytZZIyeo4pWLmxKPg/1dhOGyBU47aLfg5D/SwlpDX6ZdFumXl3VZHO6SDMNAh2JUzGY4KHMJkxNfHC6Rz8Vhq1tbWCnFgZheA5jFCcSeiiSRRTACdiLH90iKZM/N3EXTujBowikERIoMF5zBQ5KI/txTNZbKqz4Pf5xI/IUyhXPOwbLopF+gLLjmNFW6MomazkTvDbykZXTX5FcBsoeMS5zQRSYuMjqIm84S8CjefPFET1xZVsVQGEP/3KSqs2sB5dkQ/iueefxT1334Oeoe043vcUbl7/EJ586hncftvtiOW3IVr8sfCfnm3EupbfR6GQw4FTP4SvaY/4eXq0A6tbfgmZVA6yK41x6/+JOu8SsYTeZ4KN+SwTR3Y0oC7ShNrOfZCgiG5jsnJlPqGixvr1N1491UEtCAiARXDldNkL6pX8h2lmV2J53UfgdDrx6oF/QLCp99zfAlGkLCmijMs0qJ3PP5BiqUQs6sGmrt/GgX29uPvu2/H07ofgPpvmm4u/BEBI2RyEufjsUh3LhZYLbFYvNWsio5+LJCmCnoqywOnGQwKf0+254BC2M37+0CBgFPCmDV1iMWZ0gFyHicYvUDxniIW2wa9gx4CGG1spjmQJHYI1dc6zggolPgKjBQQFHC9TI171DZnkcqpie7+Gm9vO1044E9PQ4NahyAqGek8jVFsHXzAEVkrsGtTE/SeaExo21JioqyurR07uDUYjyh0xp/MXIzIjA71obG0XFRfsqTDZfS/VO3Cp7lMVQPiTL260rMSdcIT3QFeOw9BV1Khvw/j4MAK+JjhrDiKTLiLg7kBUew4ut4WRg7ci3KAjVTiMFY0fRlT5mtgtd9Y9iKGx48hhD9Y3fg4vvPp95JO1Qio03JBC/0kJda1FeBv2o0F6CEdGvgrFaIdSXCHa37qbnq7qA3ipHGzfx/ZANR5InLgfkuc4ND2LZTUPYPeBpxH0LoOiAE5/EorZANU7ipZ2LzKj7Ujr+xCsSwJaE4b6LPiaX4Oa+ABi+ddQ235izkNgisG0AcKc/TbfE7jwz6TXz5I67uq5ZrMagDt2AQ4L5ow7YY6Pix13xLV153OXuLs+PhjDsvoA3I5S1QPJf1wIndyUyNJ5okeVc+UxJCty0W7yldIMTFWw1TM5DE2BUhqBPIYatyKiHjmj9Dsu0kyLUBBqYvif11SNPAbGk/B7nAi4VKgOB1xuj+jF8Gq/NmmIn/5ZUysLmWUeq6rqtLyL2Tw3Nn8qFHWcTisixXI1WFUA4bN/f4MVwFtxavzf4LBa0NF6HQpaCqf7t2NV9w1IjAZgmhKCTWcQzW2HqgLJ4++C5dkHyT2A65f/AY5GPy9C6d0N70c0dQRJbQ8ixkPIaL1C5evg8afw8V/8P/j2I3+KhuBNyKnPY3P3p7H91J+j3vkuWIYDsFQMF76DYOTKZJBeDS+gPccpPDDyEcSNn8GU8riu63ewe9+zaGtvhqLqojx4NP9T3Ln1U9h2+H8iOhjADWsfQijsxZHj2yE5x6E5X0T0xK0IRfJw1u2Ys5t3PmsDhDk7bQFOYI6dC/5M1hpQRP397R0uJPOm2OVz0WV/gcqKBpbncYFk34WymYaBQiEPj7cUsi9bNF0Q4kgttT6cIxgmDaFb0BpURFh+OhvJlCoICHI4A+b/aQQN/FllTwamRhgBIdhhiJ9zEaWUFZEKAqWXjgzh+s4a+NwkZJYE4wYHB7GyoxXUPdg7UrzAXxRlWltP6edS1EMrFIQeArkXluKCU2WTpZk8fOHvOafBRAFHYyV+x9VgVQGEP/nbay0k7gICr0FyxlAbWgYjdhNMZRQZ/SDyRi8igbVQtLUYyv0A3mAe0aN3wROKIW8dx5qWX8WQ+RUBEJY3vB8j0SNIG3uwIvRnGBh9HYo7gTOD2/CRd34T33/iEwjL78Do+AAM04C3aTtifa1wSm3YuPYO7D/1bdS09V0Nz8qe41XkgXzve5BXdsGysuis/wCOndwOb0BD67IIdu84gxVbzmB5ze/i1MDzaKm9CTt3v4CONUnIRgtGBjQ4Ittgjj2ArHEQ4WXH5uy5158jQLjGbtY0Z89dmhO4sLaHVJFjn84Gek4i0tAsWjiTe8C0VCaVED+r1AfIaTr6xlJYVheAm+GCs8aoxKExHesbSmqNjChMxR0Qyq+GJbRZGBlgp8RlQVWkEwgCmKYgWGCInseGXUyKlNogk2S5tt5xXh8F8hoOHTuFOzcth88pC6lpVlaMjIzCHaoTXAKeN7EJEgHC6jqH6O1QNkZNNK2I4VgSDTVBuF2TN3eazpe9SV0oRl4NqYWyH6oCCP/9SyssCh6tbPoQfvbEf+KGrbciGHLjJz/7Ht5270fw/AtPYuXKtahpTGNfz9dFvjwXbcbqlo9hZGQQA6MHYHn24rbNv4FDJ56BnNuIo8cO4MH3vQPDyZeQzWZweuDV8wDCspbNePXIX8DrV1EjvRdHjx3G2+79EJ585StoWWUDhEvzWbLvcqk8kBtbjZbQPSKa9vrBH8Ep1cHtL6Ctox67d5zGiuvPYHn49/DM9r9DfasJp5scBAushFlR/1E8/vPH8Jnf+1M8+sKvIVAz9+3O64wgpG2AcKmedzX3YdkgF+HNTU7Rx6BsVBAc7u+Fzx+ArMiorW9CMh4V7Od8NgNfMAx/8Px24emchoFYGqtaas8bCgmFBAWMINCm68o4cQ4EAee0EOK60FEgoZFqi1RXZC8J5h2G06aIThAApDQDXeESCXP3iQGsbGuAz6UikUziwGAGdUigq6sbqtMp5r53qAjKHRNMsLyS0Rf6pVKKuTwugheWcDZ6AauQFn6gzRRMoA8ooXwmbizZpkvVvF88hwDBpwIejxs7d74uOFGVSooksd566y147LES17CkpPjlFZbiyGK034tiahkyuSg6142JngFj/V7o6S7ktBG0raIYUilcxqYxoz010LIuNHaPIJe2EB8JYdnqGAZOhJFLBtGxvhepmBuWacHjL2DwRAStq6LoO+aDW21G+8aj4lqxETcyo60w5FG0X5O8YnQQqn2I9nlXngeKmozRM3WCqNq0fBTH93gF18bpkpBOmFixsYBT+0JoW52Ay/NGSJof5dFeDwrJNvgbzqCmQavKOTZAqMptl/yk7rCCRpYWqm/wA9hvgbn3QCh8gVDQVAMUACGaQmtDLUhUZO8F8a3Nm+K/yfKfjzGF4HGURJQYRaD8/lDGEAqPXNSZmuBC3BIoiSeRyMh5REeHRHrE4XSKKEh0lDoOtSJtQuDCVs/rGhyC/8DzGVGZKMPM608UZGJEoT+aRoPfAYfTNaWfeN1Do0WhBDlz4mc+Hlqc51YXQfjyCkt12joIi/OR2qOyPTB/DzDFYNkRhPk78iJfgbtf7sTZnIg8hLKRYyBL7M45u1B6Jq+hdywFXyCEvGGh3qsIkiHD9KyQCLpkQYIkoZB8AvIB2DPB65y85fFk02aEwC8qbiCEkphi4MLN/0/CIQmXBDqVNjY6gmBt/bkyy0I+h7HhAbR2LD/vOIIAAg+mPyZGBKjPQPnmMuipPLGoaaJplUL27yQ2lDawd7h4VYIDuqM6gPClFZZiA4SL/KdvX972wOXzwK7nbYBw+bw/tzuXW0JfU+cQCy5FfUxDh8cXmFIMaeIdsgUNyUwBTbUBsRiS+EjSYXNAwUCqlPsvCSaVhIbIK6C8Mo9lC2ey+kn8IzGQ6QJyDggmGNKfyJNgtCCrmyKlQI4C7VRcFyChwaucB3SGEzlYivMcQZLlmbwnIwizMaYyehLUTYCIgjAaUgZSHF9R15HK5BAJ+S+IIjAdsmuoKKIoV6tVBRD+6Et2BOFqfWHseV8dHrABwtJ6zsz1N/sUrG9QRbdGBsQZQZhOUrk8Q9FboGcEq9vrhcIhTSz8piWEmDyqLMocWTXAXTq5BGVjSovnsw9DubkSQ/zlKgFeY7LOizz/aFTHqtrStQgaOGqCj8oKgxd6CuJ+BBnkUXh9AVHmOFsjQCCoccgyonlTgBmCnjfGb0HXdYyPDKCpteO8y5LjsK2vuhTdbMe32I+rDiB80QYIi/3B2uOzPTAfDwiAkLFJivPx4eU4t9kvixI/yhlzrecun9GEcjtoisuVuz+y+TMbHKGQxbL64PmL49nSSfZ3YIieO3tejwv5sWiJGEjVRPZCaA8qOJUguVAVEYxyrwU2fJquGdOR8SLag6VzKkszKwfyYm8BVjaGm5bXwdJ1OFxT8wUqzyMwYBSkzlfSX2DJJEm8BECTkRLpk2RsXLTAlgisJAmv9GmC27BUjPOioiazNARyC2FVAYQ//Nvldi+GhfC+fQ3bA4vUA7ue9wA2QFikT2f6YXWEFNE0qcZpwqEqiEdHRbqBiyAsU5Q6shaxYDlhQkLE7zwXOeCVGSnwOktlibSeihbQ5TuzDwGrBqiXUOedXGlx77CGjY3TcyDYUIqNoaiRQBnmiXZwrIiBgUFs6qxDrd8t9AyqMRIYI56yQu/kV6B/SpwEGXFNAfs8LCUjf6PcYnvXkLYgraerBgg2B2EpvTr2WG0PzM0Du1+wAcLcPLZ4jubCvrZOQdhhiHQDBYLEtpmpANWDrA44LQ0OVYXP7TgPHHAWlEze0nL+wj6xvPF0XBfEyLRWarzEzo4TjYs/NQPKHR6n8hABCdMUEe+Fi/8zp/MoZhJY01aHZWc1H6h7wJ09rzuTsdKBfAgSLqdKdUy8RiJvYCRL6CSJ8smlYpwnwRojJ+nJ+lNUMZHqAML/Xm6TFKtw9qU+RZZVuBwhSNL8SpQWatx5LQbTvHJboy6UnxbDdQRAyNophsXwLOY6Bi7VQRfVBB0wM1GEwrVCkICEQbZe3tzshEKOguAKXLiw8zhKFU9n+4Y1bGh0Ct7Bybh+tiW047zwPX8nyiQtiIVrKiNPgQCksqlS+dhjUR3H+kbR1VInujLSWLGwfUDD6oh6Tq1xqmvz3nNVTTw4WoTfxcVWwQtnCnN1/2U9nnMVgaIFGoUNEBbIkfZlbA9cSR6wAcLSfpqMIpCw6NIS8IUofmRhMEUp5lJp4VTG3DvD09c1TZ8a2DmgYXOLU6QjWCHA6oVsEUK8iPyEsrFEsixeNNU9yWXgQl6ufBDNk/iPix2AJ47n0OCVsK7RdUFXyamuWVokS5yDuRjHcWC0KMoimfKgiuRitDLo4XgvphEg9Bw7JG7BFMxEoST+nGkfcltoQijpD+wIwsV8Jva1bQ9cdg/ssSMIl/0ZzGcApA+sqQWag07E8hYMLQ9VYrfHMiGwvHCev8Io7A8uO6ZsysQxMW1wOqGjM6SKbo/lqgYuVgz9E4CUQQirIKir0Hi2L8NkcyKoINBg7wZyBQg2WFbpc1CDwcRLZ3IIqDo2tAQm1TKYj58mnjuaKZVrknQ5nl28BMUmvyyIl/TXxTQChOhgLxTyMuKJCwCCw+EQLcGHh4crAMLf2CmGi/lQ7GvbHrjcHtjzop1iuNzPYL73Z1XBilp1TiH2ZDwGXyA4pXAQeyyQd8CUQdGEEFGq5AJQH4GbSWoNlNMPJM9VRhUmzouAg/+YFmEUodL48+dPZdDi1rB+Wc2cIwJz9SH7O5CrQIDycu/iJCm6FFyyZlFVpRj+4AvdlmwLJc313bOPtz2wZDyw5yUPpOwau1nTknliFw6Ui+0tbc5JqwOmmlYqEYPPHxTqgpMZywepVSA6Np5tzkQyIrtLshMj0wVZzRLllYzun4zpAhwwXD9h7T93eZIOGb6eikT4+mAesVQOfo8bm5rdc5rPVPPcPaxh0yQVFuRDMOIylDJKJaCL0OjHiQ2qLtYwqwIIn/lCt01SvFhPxL6u7YFF4AFGEKScDRAWwaOY1xAY2t/UNHthId4sm0kJQaLJzNB16HqJaByPjiEQDKPo8ImeCNc3l3gLTDMwlTEZ6XCyaxJoMCrBioGVtaro3Fhp/N32/gLy+QJcLhfu6p6diuJ0jpup6RRTGy/2LM4IwrxeiDmeXBVA+H0CBIfdi2GOvrYPtz2wZDywlxEEGyAsmec13UDv6nRNyymYeO50UYRcJi2aJrHHg2kayOeyQlSIi3xPrIBr2iJgCSRlmdmSejbGLov853XIYFMncgBIppwIEvYNZkAJh9u63wAvPG9iWmI295zqGApBkSFJ7gQrJZaqUTBrMD1/fkJ1AOF/2RGEpfri2OO2PTAbD9gAYTZeWhrHUDiJfRpmawz3J6JjCEfqzzuFTHWtkIfT6Zo0BbHj0ElsWdMtSinZcnli46Wp7s+eD6x0EH0ZJAglRqYwAhMiCYfGijg1MIpbVzeJJlIEJfwZORCV8smznWe5yyPvR6DBNAivS6PEMjkR7DFxNVvVAEG2IwhX83tjz/0K98Delz2QF1EEgZr91O63be4eYEXBTa1z4yLks2mhuMiWy5KsIBAKQS/qoqRNUd/oxVA5mv0n+7G+u1U0ciI4mK0wETkM+aIlhJfIWyCPgYs3UxSVJZlpzcL2viy8so4bO0OiBJJcAYogaQZE6+i5WDn6QBBANcdyl8rhtIGWACWgIeSWr2arCiB8+n/aKYar+aWx537le0AAhPzi4SDw482yLtvm7gEuuixFpLDQXKzU9KlkBAblHg5TXWM0GkckHBICTLM1dnFkOH9NveOctHP53MPjRXT5TVimgXQyIVQhj+b8SCRTWLmsCSsjqhgfyyv3D2sIe+TzGknNZgyMXhCEsJ01jeQ/TbdEquPweKnD5NVsVQGE37MBwtX8zthzvwo8sG+RAYSrwOUXbYolgKDAq8pCzngyWeSFuHksmUbI7511vwSSGalaSNVGqhZWRgsYRdjdm4TicKG71ilSCevqHaLuf5yKTMkhrG4OwR8IiXQHSyu5lCszqy+fm2qqUCrZnCw9wQjGc0tMRXEhnuHEa1QHEP66yyYpXoynYV/T9sAi8cC+V7yLKoKwSNyyJIdBQHBbu2vSLoYLOaHheAaNYd+sLpnRLNEM6dZlTtHwqdIIDo6N5jEwnsKq1hr4HAo000Kzv1R6Se4BjzEK2VIrZ4dTRBecbves7l0+iNEBRqUmU5bk754+tbRkluc0+VkeXDVAsDkIs/SwfZjtgSXogf02QFiCT23yIXMBvLnNKdj+zLe3BUqtmxfajvaNYlXb+cTGye5BLgHbERumhaazi37lcamCidePD8Dh9uKm7tpphZ5InGTppUm+hF5ELptGpKEZzEZRr2E6I9BgBmGqqMPPT+QXxEWs5gi7ZVCEabZpMtG6WS6lPC5nloMAYfD0cVGpUigULlBSZOrJ4/Egk8kIXwmp5d/9KzuCsCBvjn0R2wOL1AOMICiFxcNBWKRuWhLDIjDY2uIUEsbsbtifMlDvlZHSLNSwN4MigcJB3KFPtmDPdpJjiTQCXjdcjum5DmzgRLGfct5/4vW5IB4bTsHtVNFe65l15COZiAmg4AuEcHg4h1DAKyojpsIJJhEC+RVTHEDthWh+/hwEzpUiUiRFcm7XRFTBb5jJ2ONiMQAE9mIgQCAYm9iLgT8nSBAtxCsBgh1BmOnxLq7fO9GOiPog1LONWlLpGHYd/BHWrLgFRe+z0PQsHIXrER/xYHB8Dx6451PI5dNiEkeOHIRn2ROQ5LmzxJxSA6TMDUiYT8LtLwCGD5m+2xFLDIiXLdi2D8sbPoDTsX+DwzX/P8ZKr1smUOyRsfIpDZvH83i90Y3j9zoxnFfxwUcSyCsSUrKCoxuc0G+zII8Cq35YREdew3OrfMi9HZAnfOvM3RJWndJw5D4nFK8F65syMusk+LdOXg7Fb5ByRMI1T2royGn4r24/8g9YaD6hY8VPi9AUCUlFxv6b3ZA3mZC3ybhlexZey8QzW7zQbwGk2VeoLdhLxwiCDRAWzJ2X9UJc/5YFFayOOMRieRGCB2J+pmkhnSsg4HWJBWUqG8+W5IwpxzyV5TUdqiKLf3Ox2NgwQrV12Dtiij4RGxocVYMeciR2DBShW5ZIa8zHznbbFpcgYGNUh9efzpgaopx18VLJJk4ymKpSDL/7+S7LBgjzeV0u/bmRwHpoY5tx8PSjcHqKkKTSG3/Hll/HsaFvIaBuhN+1HKfGHsZQj45f+cBX8O3HHhLHWJaJxvZ8VWFJSw8gYDwA07MbWfMgzGwHrlvzXjz93A9QzEUQ6TiKB970v/Hi619HrhCDoQwApgs1/hUo6kWkCycgyTOj7ck86hgArvtpHns73BhcrWLlPg3+rImnV/rxfx4dwF9+sBGBmIlffimGHzwYwNaHC9jX5cKZNQ6898kkvnNLGF0rCnDmLCQbZMgy4Ntu4ROPxfDd+0IYuklBxzcMnNnogG+5gcaYjlGXilSnBOnsdy1/SsHHvh/Dv98RwmhEwbtfTOGJGj9u7s4gf0TGcxt9iMQMvOuVJP5tUw0+tDeO79wTgscwseK1IvrvVmF1z/PrVMXrtn+bDRCqcNuiPSXkktARVkXkYLblh3OdDGWYE5mC6GMQ9k3NB2BDJM2EiFhMVfAwmsjC43LA754bOiYnIRkbh+KPCKEj7tar0Ugozz2WLeLIWBFJvaS7sBDG8k0u/mxSNZ1RLIpkSfajqMYIRJjGmQ++qA4gfK7LkmwdhGqe2WU7py64Hs2+9yGZPwSHy0CukMCBoy/i5g2/Dsh5NEc24PGX/xSuQAy9R4L4nY//X+w9/n0x3tNDL0LHUFVjNw0JbTX3I5vREdWeRq30QSQLB6DrBZi5DliBZ/H2W76GF179DzQ1dGP3sW+ipfY2ONUgJKiIpo4B/u1V3Xvlbg3WMQmH3+5ENifDikvID8hI+WX83Y8G8Ifva0ZdXsevvRzFtx8IYdlrOroyGrLLJPwsF4S53kJEN+AatJC5WYLqsODZYeFdL6RwOuDEq+90o/2HBmINCmozOny1BrSTCobukJG6toQQ2v/ZAALAqfeoyCVkZAdlKOPAPaEU0gcVPLXej+aCjre/kMLDNwXx1n0phJsNnHI58bzbh9qNOpRwdR+Iqpx29qQDr9oAYT7+W2zncgd7TZ0qRIUCZ0v6FnqMJ2NFQMui1qsiHDhLVuTuW7RufiOiwB0x1RZbg6pYKPl7dk6sbNaUzebgcKhgt0AuzFxM2cKaEs7TWXx8FE6XG3D5BQmS2gjsEzFXI9AYTBRQLBbFGI4nJMGbWErGKAU5D/Mp1awKIPzO5zrtCMJSelMAMILg1u7Bid6XoDgMWMgjUziFe2/9DA4eOIw1q7Zi97FvwXDtRe/hEH7tw/+IR5/4kpil4TgBtz9R9YzNXDuCym0Yzf0ED7z5C/jJyw/Bba0FCl0ouJ7E227/HH78/B+jLfwunDzehw994HcxPHoGDtWJbMbArr7PzPne/Kis2alBHgb23uuC50cS7htIYcSt4idrA/jKk4N4pD6EuKogsxpI3iyhkJHQOqCjcFjBnT0ZfG9rCM4bDZg6oHotEUHx7ABu7c3iuOJEeMzEeEFFSDIgt1rYebcL6m4J95xK4+kPecWYb/n7PLav9CBxi4Trnixg+UARDp+Jni0qun6q45DfjQGPA9n1QHojEI6ZcA9bsPbIuD6dw563OzHWPfcP3JwdNuGEA4wgaGvtZk3zdeQiOp9iQOsaHEItkPlwkvgqI/jkJ/Adn410MY+l8mDZGC6nTLFH1pHPpGAZushlhGrqMJzMYyyWwLquZhA2U9gorwMuldGMUnkiu0QSAJTHoxUKoqMkRZmok7B3pIhVEXXattEcy+hQvyAp5g1JAIQWv4Kumtl3tCzqBsbTBaG9EPR7BVeC19ozXBS7+avNqgcIqt2LYSm9LJHgehiJTehPfh++UKnZSia0EVuWAAAgAElEQVTpxJZVv4VT0X9FKubC1rWfwIu7v4TYiIyP/eKX8eSujy/IFPWihBvXfhovPnsUwTBQ9D0GKbuxBBDcT+Dtd3wOP33pj9DkfzcOHziND37gk/jX//h9SJKMdMyPFdcNVjWOpoMGQs9aOP4BFUYtIA8A9T+xcHiVC3/xwgi++ufhc9fVdeChL8bxt78cgb/RAH4u4/oTOez8LVfpC3b2W+jZCdwxmMFP7vPjk1+N44jhQiYow+q0sPMuN7TXZbz3aBI/+3BpB5X6mQMfPR3Fw78agKwAsR4Ff/6DMbx0rwcYkbDjTjcUtfThaX9FR/KQivhHiPolbHy6AKMeOHy9s6r0TlVOO3uSiCDYAGE+Llx055IUyMZNU0kgj+dK5EEy7iczNjCidgDJjlzMSXIk0Y/nMCrB1AV33rRyxIDAYWgsBiUfR00ogFC4Vvxdn2Y1RVCdFIzwGoZB1UZFEOB4jSPjutBBoMohF/ypjBLRwZqIyN1TO2E4bYpSSq9TRiaviRpJv8d13ulHe4fRUl+Dvcf7sXFFK/zuUtOpsvE6PYnJOUasUFheo+J4TK86FbDoXpSKAVUFED71P+wIwmJ+qJONLeBaiTDeieHRITDoV9QKGIruweZrb8NY8T+RL6QRxL2QFQN79r+K99z3Gezu//OFmaYF+HAb1i9/N5547U8QqtOgJ1bDyLZBCr2EW9d9Di+/+hQ2bFiPXSf+CSH5zVDlAFxOF6LJHkjh56oaRzEvYesLeahHgQNhDzZGc8g1SPjp8gAeejaKRz7zRs02v2stj5hYPqDhkNOFO/IZ/PPtYTS5iwj0WRh4kwKH04KyW8LmkRy2v8WNxAkFv/HDOL63IoTuuIZjIRfu6U/h8Vv9cGwu5RdNA7jl3wrI5WUMyCpuyWewv8MNeYUFc1TC0dsc5wBCbkzGO55I43jMjaxXwnJdw777nMi0Xyxa2dRuJUBQbYBQ1Xu3WE+qdcvY0Og4r+5/Ls2OJiopkpHP8DVz6hM5ibzu6biB5bUKDI3RAPWcRHMhn4NW1DGQkdDgV0vVFfkcVNUBt9cnQAa/T7KiQlVVsfCOZQ20h9QZ1RyTsSgC4Rpws39kTBcVG51eDe0hRWD8obQB0yginS2RKVmeVxP0o6WhVrSm5mI/0aYDCIzKrG9w4OCoPiOngNflXDmfytLFxVLSONl7Wz1AsCMIi/U7MOm4dM2NQrIB8tkYHjuxFY04VMUFb00MkmzAKHiRGg/AlBJwqRH46/sXbI7ZlAojXw9//aD4Q80kPMhnnAjWpVBMtYo/GMkRhzeYgqGryCeaubzCUzMIRZl79UR54LouwTgjwT0CFGoBqctCISfD0QO4Npy/K2AqoXhCgStqIdMqwdtuQI9KsDISlBYTigJwEXcWAKW1JEObO6jAjAAOCrb0ALlGCd4O4zymuK5J0E/KcMUtZNok+NoMICahmJOgNpmC/Fi2fFqG8zBADmmxA3DUm5c8esCxHHjNBggL9vIvkgt1hxUsr3WcRwzk7py7/4WEoLEc/zYs1HpKqbHKDpBlVxAEZFIJmJBFBIIiR9k020z7IYHkOhM5TUfA70MinRVEu7DfC1Xhb6c2tqAO1dQiqQGv9WsiqsE+FNNxF7hgs2ETyZVUdJxo5EuwnfVkZD+mY+jXkawpIh3UmOD/nwuxkABrVUTBQMoES0AXk1UFEB5iBMEGCIvpOdpjsT2woB44aAOEBfXn5bwYF1Qy4klS9E/okHgxxsXdPkEH0xC0VCIOp8sFl9sz7e1YZ09FRK2QK3WLVNhS2sSRgSi6G8Pwud3TSilz08N7+YNhZHUJOwY1MYYtLSWRqMmsBGaohQBRdjnZUaMZEwdGi2CVxmRGHkVLQMFwxhSEyIxmiv8/G2O6hxEIPp8TMV1EMS6nMNLEMVcHED5rA4TZPHz7GNsDS9UDAiAUbZLiUn1+leOu85J74BQ79Uth3HHX+xQwP0/jos8w2HTaCJXjKkcXVIcTLrdXRBMoxzzT+YxUkNTIKgYSCvcOF0Vk4I4O1wVyytypU4iIVRTif9P4ZjRr4sDI1ACBYyfAEFFQCWLeZV4CJaWnM9727i6XmB91JHYNaRjLLR4yJAFCYmRAEEbHx8cvEEqilk1TUxN6enrENIWS4oc/cbtVbW36pXhB7XvYHrA9MD8PnD6Whc/ValcxzM+Nl/1slrptbnaIlJV/ivJGEg3ZLnmyngRzmQB3+5lkXKgPcvEtKyXqug5fIAiH83xy4LTXpp5BPFbiE+hFyNIbbaYH0jpa/BdyBchjIEAgl4GLNXfjJ+M67mg/HyAQPPQmdaysnZ3GAnUbDozqU0YQJpsHm2MRWEyXaqC/qQVBnoZlldpNE9C82r94WkxXFUF44J3vstraWufy7mD37j1IJKovlZvTzeyDbQ/YHpiXB/ix7+rstAHCvLx4+U++sdU5ZVVCeXQECOzRwJbQ87UykbEvqYuSREoMV2sGgYGigpUJ5Ch4fYFzlyI5kjv/clkkqx5YGsk0hmhNDeBMXBfVDzc1Wgj5S+kNajAMpkuEx5mMxzKrwEX78NjcAMJM1y6XnPIeBFIcE/3P+z19Mn+uzfZM17nYv68KIDz11FPWhg0b5jS27dt3IJubW2lkdDyK2kjtnO4z8eB8Lg+3Z/ZdvtiQwuWaPdKlkIaqqJBm2QNdaFazNEid+QWtduKFfB6uOXY2m8u9ipoG1UHZ1tn/8VumJfKJijr3mn5+dLSCBpd79s9lLvMpH5uIJ/D1b3wD2ezc3tNq7rXYz7EBwmJ/QjOPjzvUm9qc57gA053BHfcsP2HT3rgMELhA9yT0BQEdvGFlBQWvTR0Ggo8y/mD0IJfNIBiuPddumuJK+0eKcFoaNjaoAjywlJOL83RaD4wwUBTJ75BEJCJeMHFojhGE6ZxEP3eFVayoLa0B1I/gWMlDoO0Z1jCUnh2HYea3YH5HVAUQjh49anV0dKD/zHF4w02oCfkxHo0ilohjRVc3dj/zH7j2zgfPI3ykUqk5LbycVi6XE52i5mOapom8yWytrJw12+MZPmN+ZraLpSDiECCQhHORbK5znusw5jrn8h+4AAhVzJv+4j/uDC6mjYyO4kMf+m+IRqMX8zZL5trLu7vtCMKSeVoXDrTBJ4teBBdLWnky11Qu5K8PatjcPPtv72TXIzmQ+geVRuGk4ARCYbGoIZ1MiGZNtfWNpe6DhoV9w0UBCm5ttuB1OWFRW2GSfhQFwxSVCkGXItQmSR4sRycYQVhIoSQSJ9c1UPb6wjWAc9s3UkSmSnnlhX5d5wUQDvREsW3vXtyyvA7Dlhf5gePo6zmJO67fgL0vvoL3/dYbCngECLl4L3KFHOrb1oMCmyeP9WBZVxtgFuFSFWhFo0T2kFU4HQ7woauKiR8/9lNEVm7Fdd2NcCgGju99AU8/+wo+8dt/gJNpD1bXkvmqQVKdOHBwDMsaZXYOQX1Lo5DKLGZjeOqlXVi3/lpEQn64CRgsHVBUaPk8ZKcbCgwBRsTiJ0vY9sR/IGkGcMfb7oOUzSJfMCDrOfhqG4Q4iJbPwef3iy5WXLj69jyJx547iY/8yi/B6XTA4fKiUMhDdrjES+tylEAEF0na4L7/wl9/bxe++Ce/BknPIa+GIBcLkJ0OOFVZ1AmrLg+OHzyBtRtWlpqgWwYU1YHTJ06g70wPtt7+Jph6SfVLUZ2QZUnIgnIOiZGTePLxp/Gm+x6AJxCGSylCcnph6BY++xdfwG3vfhA3NOYQbl0Pp9uFZDKObGoQLa1rIckyvvz5v8bv/Okfi3GYxQJcXh+0XA5en+/cnI9u+wleORjDhz78i1BkE5LiAkwNhqVCMwwceW0PNt5ynXgGbrdbzD0ZT+CfP/9ZvPUX3onmdVvhdiiASjEitmvV4fZ6kMtk4GCkQZJRJJL3ec7tID7/l1/CqrvvxTuu74bD6RbNXB5/8ud46913ApKKbK6kwHb8pz/DhgffjV3PPI/njw3iNz72fpimLiI3J4+dwcqV7SjqJlToYr4Hog40SWP4oA0Qzn1jbICw0J/bS3u9zrCCFbWOKcmJDGcTcjMQKPSNFqCRU2UE4fBoEWsmLO6VHuDunHoJbKqk6UBrUDmPB8GdNVXK+D0u/T/gVFRHd60qviX8nmZSSZiGjoAQYJLEt4b/zd8X2Z7Y64XT6cLBEQ3LfDqcLg88JEicNUYLKABFdcnpgBTJgyOzrEyY6SkTgBA4cVoTozb030C6FPlYDDYvgPDEf/47apZvxKFdr4oFPJDvRzqno8WTBSUrt977i+fmSIDQ13Max3sG0L5iNTpaGnDq0AkoNbXIDx9EY8CLM8cHEHQqGAm248br1olF2+mQsXvPASxra8XPXz6FG7oz2Hu4BzUNLbjthptwZNxEm7eIp374CPSOm9Dk98Dr0bCsJoSm9hboxSIK6RhefHkbQm4Lz+5J4KYNqzF+6gAywRZEe46i5cY3IZztw733v00s5ooi49ie16GpCpq7VmLvz7+HPqMDb71tDRJZGVnLwK7nH8eHfvlXSdEVAGH05GG88vpuZGMj6OpuwobbH8TBXdvhaVmD0XgMN1+zTLQvLQMEvhiP74/D3PsD+CLNWHPjXXj4H/8/eK9Zi+6IG0eO9WDF7W9HMN6Plq425FJxKFIRncvXIDYWxUBvP6JKCLnYKex6+mlsvOt+dDXWYPWaNaI/eiGXQGL4JDLjw/iPV+L4rV95Cw7tP4QTYzqMaAx3v+NeIHkcOw72YtNNW/CTR5/A229ei9qmFfBF6vDi48+gce1qnOgbwd4nHsadH34Ip157Eg/+4ofOzXng6AHsOnwCHR3d8CtjaFh1B6T4cezpc6A/kUGbmUTHhk4c2HcI99xzj5i7Xsxj+7OPYvhMFH0FBRub3XCsuBVyZhhnenux9d7b8S//5+/w1re8CZLix4HeFD7+gQfOAYT//M6Psf7uO7Dt5z9EZMX12LiiDUcP7cZ1y5xII4xnXt6LZW2NCCQ1XP/O+3F4MIWI34XTA+PIFFJobGpGur8P117Tgm0Hh9HuHERD22ocywbR4szYAKHiq2QDhMXwia5uDPy+cOfN8rupjDtr7pTJ5GfIngsxiXLzsTJA4E6YKY5KOeaJ1z2TKJX0Mdw+mVE1scHHjVXpt2yc5LCK8HrcQkOBKQPRd2GCcWPpcDhBDgNRDzcFL/UWsK7GEhURkWBJBn0udnRcx6l4dU3jKu/D1MaWZgeSBUtoM5TTCpXHRHOmaDS1GGxeAGEuE0gmk2L3m8rkUcylEKmvRy6dgCmpYsfMLmBuqQgLMkzFjVDQJxY6h6oKwQyHbGIsnkVtyIdMKo5gKAwYGqJZvuTAiYNHUfBFsKKjCSqjAS5V7DBL4XAZubwmdsK6qcMpSxjoHcJY1sTyzgYEQjXIZzMIh8Nid8wdaDadhCkzimFC0rNQuLN3eZHNpCGpLhRzGdQ1NIgSHoFc82mkC4ZIZ+SyWSHW4YBR2oFbOJcqORcul4DxeAYBr4psvgDIDrigQVc9MAo56EUDNbU1yCajUJxu5DMJuAIR+DweEVlJJFJwqYDiDeO1555D98ZrUR/0nouCSJaBVCYHVbJEu1ISfJKJNCTFgiW7EPa5kMumYVgKHC4V6WQaQY8Ch9sH1eHC+OgwJMUJt9uJ/a/vRc2Ka1CrGojU1Z3zUSGbQlYzIasKivmckDgtpOPoG8ujJuxH2GWIqEUhX0AwGBSLPP/F4wm4nRI0uGBlkpB9QUhmUezoFaeF3Tv3YtOWrXBYOjIFHQ0VPJRoPCkkW8dGRxErWGisCSGXjiMSiSCTTkGSFfjcKlK5AmrCtdByaWhwopiNwxuoEWxtS0uL9yNVkOFmKZapI6NLUMwifvO3fhvxWGwur/aVd6wEZDJZtLa02CmGJfp02fiI7Z25W50DVWjesy0DBBIE2T1yOtver2Fr6+xTECeGEqjzSAiFgrMaJ6sfGBphuSRJmA7oCDkleCZIKc/mYkyXsCphPtbok0Xraf5j9Ia4pzKCwCgOnxXXC1YyzNQOej5jme25VQGE/fv3W7t27cKzzz0/2/uIRWW2efryRSdKe876ZhUHzvka5ac065tVCPXP+pyLfOCc5zDX8VQ752rPm+v4qjueTOje3j7xrl6tRkD+lre8BX39/Th+7JgNEJboi8BFaE3d5L0OLuaUyt9bLm6MHpTFkia7J8PoFAmarWXyBThVVaQfy62X05opOhbSuGFi+qBMnc7nsiJ96HK5UTQtnBzJosEnoSYwtwgCCYR7hopVd3MkCFgWVESkhOlpEhD5M0Zuwh5ZSFXTGDmgFDP/mzwEVjZcbqsKIOzZs9f64SOP4Lvf/e7lHr99f9sDtgcW0AOMgH38Yx/DeHQcO3fsvKoAwrlc/AL683JcimFsggOChEttlRsyLnIkSU5l+0c1eBSmOGREvKXSRC6SLP2j5DEjw2eGozBMC00RRv8seB3ArmEDKY2ooLSw8rlxvgQjBCUBpywilUIXQWEkuRSl4H8z4st+D9NZ5TaG5ZQHR7lYzy16wDExXUPp5c6wWgIBZzke5d4SVF2UhYBUaTScH/+bh27rK4hmWJfbbIAwyRNo6FiB9Eg/VB9D1EkEQn6MDpQ7CkporvVgMFoqhZNklwhdaezKw2YcLgc0w4SmX370d7lfrkVxf9mB5ho/rEAthk6fmHZIbcu7oeWKKKbGRXpmqj7qoWBJ3c3jr8Ho0BudJlsaazEwHIXLqcKlqkhm84vCBXMZxNUMELprVPQlDfGhXspGJb+tLc5p8/8XY35clBnWZ/6fdnScLZpnHyGYOKaTA2PoaKwVKeKysZSRaeNkKoVIba0ot6YwUtmGM4YAHCxRzOcyIl1sKi5Iel5EsPlvOsEmRgtIXOTu3ueQhZbC0ejsuQflEko2hyJ/gt8Qkh+pLkkiZI1HFnwP3odqkxMLxVlJwW6abFW9GMwGCBc8BRm//ImPYLSnB5naLZDNYSxf2YQ9L7yIM30FWJlRvHeTH7sHNQxlZcgOP4yUCQdiaIzIqGtuxfbdxzAwOLQYnu9VP4bajvVYFZbhXb4Gu555Fctq8qhr7URU9ePknj4E/SoK471ornPjnQ/9Lg7vH0Hi0DNw1bpwasCF3p4jiLg1NDc3YdgIYqynB2++rgl9o3F0tnZhXPWg73Qc46cP4a4bluPU6AjC/iDGcwr27N695Px/NQOEJfewphgwd9LcuXNXfimNJGTKHXv9AbEQU62QfK/GOUYyCNCGk3kMx9LobKxFnW/ySAhTgqxU4IIvyqAVBboliT4IYoGXNOiFPIpOP5AZR01d44zuYASDeISLOK+xfaA4J8C4qdEhejqUVSlZasnnQUBAX5SbRpVTJBP5IQtZLTHjZGdxgA0QJjjJE1mLrS15hK5/D3KmBy2dAdQGDEhaHrsP6ji14ync36XBF4ng54dTaGmPoK8vgPzp13D39V4Eb3wbvvutxzBw4sgs3G8fcrE9EOneBHd6EN6mrVDSCbS6TmLj29+LRLgLL/9wF5AfgzS0H201edz+0Kex6/lXoY+fxO23rMXDOyJIDu5DoHgSd795C54+bmB0IImN9XFRpdFiarjmIx/Hzx49hcThV+GWhhFujeDOt9yJR549haOvPXmxp7fg17cBwoK79JJfkAvb5iYnfM7ZC5kt1CDZppmLnwjrSxJYicCUx2Rs/cnu2Z/UMRjLgBkEWXFgXaNbNH6a0iy2TrZE6sC0TEiyKu5bMABNt5AtaPBZGZi6LvQRZjICAy7abBPNsScKc4smUdZZVG5PqF8k8ZCRCQKE6Z4Kqz+2XSKpZQ6R6o3TVWfYAGHCG6M4XLB0DbLqEuWLisrHSdUGCxYLcylyBAOWoooyGm/jJpixHqTSo3A5JNx47Rqc7h/BmcHRmd5F+/eXwAOSRJISdS9YI61DViBITpolQ2VLZTKdTUMcI6kK9KIuyjh/5V1b8M3Hdp/VxSDduCSwomkGXE5qdhTx0fe/Fd959L+gFQx0b30zho7uRjGXRHtTvaiqeGX7rksww4W9hQ0QFtafl+NqBAgbI5YoCfT4/BgbHkRtXYOofmJZIL9rzPOzrHEh1BMnzpHkQO7oPV6f4BUMpAyhXljuzTCVT5iafWpfH7pam7C6jmmD2Y+P92PVmxCtOyuoJtqxFy2Mj43BZRXQ0NI24+Ng9ILiTKxYKO/yZzzp7AFtQeUCUScCgwOjGtY38BtU4ktMZQQk1GQ4Fr106elyk6mpxmQDhNk+ffs42wNXgQdsgLD0HzKZ8De0OOCoyN1zVtR4GRsewHDBIXL0LIGc0ipWDi64gVC41IJ5lsbFmtEExcFibwWmJcGtviHIpExQRSVg2d6bwdpGN8JkJ1Zh1EZgumGiNsKeIS7QjnOCSxMvTRBBYPD6kCbKoKsxLvy3LXOJtESlEaQwKkBewUTjPanQSL4I7dBYET2JKgdQzaBncY4NEGbhJPsQ2wNXiwdsgLD0n3TAJeHmNte0oey5zrJUEaCAfVjKF2Z0jgsygQDVChnipzCdIClKQDw6Jv4/NVjISdC0AjK5PApFA4rDCb/Xg1Qigfr6OvSMp6FbMlY1+qcd2kiGarsEN5RCPn8xZuRCZTfHsyTJ8oUIPihdzPA++QDlvhNCxTFjgoJN860YIEC4scUp+AcTjZzXqXpWMbpSFrOyAcJc30r7eNsDtgcuqQdsgHBJ3X1Rbsac/7p6VbDoF85YoaALAFA2LvqsImC0gNEFRigok07lQrfXK0Lq5AYYZkkDh5EI/nc6k4VuSggE/EinU0JELa/p8HtcQjp9OovlTAE+mK6YuOhqhbwoa5ysER5BApsukShIbgbBBStWjowVhWjRQtibOs5vKz2Xa3IIh0aLQtBpMZkdQVhMT8Mei+2By+wBGyBc5gewQLfvCCm4ps4hyHZk1EfOdgqc7vJpzUJBN1HjKfFtZmNclGnctfOU8lrLvjDM4aeTcaGgSz5CWSiPEQfTtErN+6TScfNVeyQHIZNOivQCoxmTGfUUWOHgZJsXALuHi+dElmYz15mOmQ9AYEMoCkctliZN5ble1QBBVb14282fw4NrNyNn6FD0FP7+yb/Evv79k74LsuzEzRs+iY9ufRcMNk6ydDy24xt4fP9PoBMlyyo2Ln8vPnrzL4taXIbCth38Ab712r9C0xdHXetML/mV+vugW8Jf365icwhgVbORsfDgf+mIFSafsdsB/PGtKu6rk5DnTqgAfPgZHX2Z0ifQqQK/uUXFB5dJEAqsReAPX9Hx2ugCbUcu04OwAcJlcvwC35Y9FtbUq0JwaKa1vkSkKwoyIYEByXZrBElwZmPqgakGJxf7OVgyHoXX578gHTDZJTg+Lu4EHVOF6hmZIHGYEY0yv6H8l1g5fwoskXOwa2jhmyFdE1HRHlIF2KFyo3JW9Ggmt5D7fixaFBGNhYpmzHTP2f7+fIAgiVYCX/jCF/CDh7+PV17eVgEJS1e8//77IV0pSoq3bPwkfvWmd+PrP/odvD4+hLdt/U28Y80mfPpfP4wU2ewTbFX7Xfjkmx/CMy9/EY+ffBXXr34QH7npffinx/8IB4dOoimyDr9+72dx7PB38O97HkVn2x34zbsewo+3fRnPHX1J5L5suzwe+Kt7HFhpWfjjl3WMyRL+4U4VRtrEJ58zMJlg2a/foOJX2iT8xpNFHC5K+MMbFNxVA9z3mA5GOd+3XsHvrZbxR0/r2J6x8PFrVbyvFXjHY3oJMCxRswHCEn1wkwyblQNbWpyizHAq4+KU1UutjrmgkeDI0rcZIv3nLlctQOCOPzY2jNr6plk5nKWMbHDEksfK6ZBHwPkxKtETzaG+JniuWoIiRSwqLM+FwCCWN4Vo0Xw5B5MNmpEa6iAQINCvQja5YrCVkZIyEOCvOQf2XqDC4mKzMkDQPRHkItdAdnnx/l94P7Zvfw3Hjv//7Z0HnBRF2sb/3T15Zmdnc47kIKCiSxIEI2DATDChp5jFdHKmUzGfenfe+ZnPHM7seWbPhJJzXmCXzTlPzt+venaBhVWCS576fdyHdHdV9VvVU0+99b7Pswlr2U8I3Z+OcsgABElj5cbxD2JxLueB715S389s6c/scx7nl3m38MGGdZ3GSpJ1jD/6CkanJfHQV4/R5nWh16fxh3H3EGj8L88t/Jwhvc7k0iPH8bevH6SkpRaNxsqZBbeSpyvj/35+Fdc253cH2kQ4lPujM0ksPUvLX+b4ebUs8hH2SlV4YZjMrd/5WdzW+e01eon3TtGwdEOQ2esjq31mvMxnp2qY9bWPr1vh8VEags0hbl0euZ5slXllnMIr8wO8W3Pgfei7Or5RgLCrljo47hN0vr+ld9ARsCcWtF0FBdu++Z4CBFGHo60VvdG4hXlxTywqiIgaXSGSjSFaXX5VGr5D/0EsyOJLFF4RARbW1Pmp6SbJ5q76Khb7QclatCrds6Smkta5QqoXx6TZSqksnu1gaRV8CeId5lf4VJ6EA60IgNBWX403s4DV2ZMJGOI6dXHglxeRnhRPSUmJ+u+HDECw2YZw/cl/Zt7CP/Jtycb2l9bw2LQ30flWM/O92Z0Modcnc8Ho2UgtX/H20o9VOmWhpn752D9RkJnMjDduYfzwh+ljrOBfc56mVQicI3Hq4Gmcd+RYbnv3ZppcrQfa+B8W/SnoofBCgcI5H/nY6I68ssiyWnq+lqeXBHlhY+ctf580madHarjtSx/LHNvcf4GO7zYG+GsxPDJC4dWFAb6ui3zUYtfw4UQt3rYQk386sAKNdmeQowBhd6x1cNx7So8dJZG7q+e/ByCoeglulxpU+Fv0x7/WVyHS1OwRHAsyOjmMy2HfAjiEu16Ao45vc0GFl1afUJPtrjfvup5j03UIumcRUyC8B6lmmRSLpksZbSE0JY6iCxsPvPTGjrcTAKG6ZBOutKGUDbxyB4DQ500ECaIAACAASURBVNPJqmS4yxWRHjhkAEJ6xglce+JdvPffKSxv3EqLPHvaO6TrJC5/+YJOM8BiyeGS8U9Tufaf/Hftl3SAvYvHzuKk3qO55MVJTJnwNqamb3hj3rOqG1qUEwdP5pIRlzPz9ak0OqLkSXv38+y69slHa/hTH5kT/+2jvmPtlmDpFB1vrgrwxKrOAGFML4UHjlKY/IGPyo6TJiGgMllHYVWQJzaFeXCYhnu/8bOkrf0XR4J3JmhJJczxn+06d/v+sMdvtRkFCAfaiPz+/qRZFAal7FpMwe62ticAQZzPb2gMkG/TqAGUAb9PDTCMsdq6zEDoqk/bCiqJNMVsq4y9tQWD0aQGKooFWnhHBC+B2J2LXfq+KMKDkNYOTBrdIZVroqw1oAo2dVUEmFi+F+Ihtm1LHDAdl61neY2Ptt0UgDpsgxRzciZwzQl38MoH57KutTNAyDTomP7S2Z3G02rN44qJL7J+2V/4cv2XdKwzAiCc0nccFz9/OpdN+oRA1ce8Oe9ZOkISBUCYPnIGN7x2fhQg7IsvtIs2/jBMw3V5Mse/46Nlm8il5VN1vL06yKMrOu/4T+2rcM8QhTMFoNjmfgEQNteEeGJTiAeGabjtCz+rHJ0BQrYCI/7T/QFQ+8p0UYCwryy979oRO1lxNr6rdMe707Nmu0sNCrSaI14KcZ4uIvEFEZNoV7jZtz2HFwu3WBSFA7bBFaJvYiQdU6RIinRIscXfmTchQlssNBMi0sgiuDJJG4k21hs7Szm7/CFVT2FfuO/jjIKgaveCNeudQTVgcm/ClxSzTEaMhmA4Qsy0O+WwBQipacdz3Ul38/7n01jesBUgPDTtHZK0Pq545eJOdjSbs7j4lH9QveFZ/rtmqwfh0rGzGNdrGJe+eD7nn/oqMW0/8vrcZ/G0b0pPHjyZi4ZfzMw3LqbR0bA7YxO9t5sscM6RGu7pt6MHYcUUHa+uDPDk6s4ehJE9FB4eqjD1Ax8V23gQFk3WsboiyOObwjw0XMP933b2ILw3QUt8KMQJX0SPGLpp6KLVdIMFxA4yowsa4G6omoZWoZgoE2cxqtUJt7mICRBS0wIoVNojKoYpQrlQgsVVPkQ6pYh3ECBhdAd3gKBKDgYpKy4kr/eA3+yaWEzFGb43gOqBKG3xkyS1YYmNU2mkty0CTOwLF75WRg0I3Rmd9PYvtrrOR6W9e6KaRQyEkLsWehLbOkxEiqsYgypHcLeB0mELEKyxA7j+lHv5ef4d/FjWEYOg8Ni0t9C7l3Hjh490Gku9PpHzjvsz4ZbveU/EIIS2xiAMS4vjyrdncfKwP9PH2MDLc55uz4IQMQhTOX/IaG5974/RGITu+EXagzqOylN4ebjCmR/5KGmPQRA/UEvOa49B2NT5A+2ZKvPMSA0zv/SxxhlpUPzuLBExCIUBntgc5pERGv61MMAP7S4GEQj1wUQtnpYQU36OAoQ9GKboI3vRAsLVLYIVt6cC/r1Nut1uNZ1bb9ga5yAWcAESBDOgyBwQ39pRaTqsOolqh/jWwngCUNIaOWYQMtsdpbx4A1n5vVUAIOr9NT4Gt1gEQ2HMOpmNDX7StU4ssbZOryO8BqIfov3d3Tnvrl3EMU7/JG2XsQa/VpdYxBdXeWkRedTdUMQY90vUUNYWpLIt2C1eicMWICCbmXnqQ6T6lzLrm1fV4dFa+vHw2U/w44838Gnpps5DJmkZP+QyTs1J5p4vHqfV60ZRsxjuxlf9MS8v/4bBeRO56tgTefzrhyhqrkPWWJlYcAs9pBKem/867sDBezbdDfN3v1UhKRKrJ2v55y9+nimJfIwpqTJvFyjM/MbPykh8zZYiyRIfTtCwqSjIbesi4CEuQeL7U7TM/MzHj/ZIFoPFHmLGssh1a6zEm2M1PPejn/8277dX/d0NR48YfrcJD9gK1Dx9m2anvAi78wK/FoMgMgYq7BGgLDwHQ9N06hGHkD0Wu1nxFappf+3XxX1r6/30S1Rw2e2YrbG71A2VYKjWgzbg5Ki8JMROfkOjX02JzLUpxBkUFdx/XRQhdNobJckkq+CgQ+J5V9tw+sIsquq++Aih93BUqlaNM1ha7euWtPrDFyAAY4++jkuGTeUv712OPRRgzJHTOSajD7e8eg4iJfXovmcxYdCZ/PODK2kO+uifdzJXjpvF+9/9mdK2KvrmjGbCkHP5+yfXUtJYQkbSEVw7/i/MX/4SyyqXkhLfi6ljbuGd//2ZRZvndgui29XJF72vswWePElLhhxm9sKgSpT0xIkaSqpDXP9zELHE3z1KQ5oGZv4QUONHbirQcFGuxGXfBHCH4bqhCj11cNpnATX+ZNpAhZkDZWZ8HUBsii4YIDMyXmLip5HrB2uJAoSDdeR23m/hgi7I1KlR/x3pjTt/6rfv+DWAIFgBBRgQxwkiyn1wqlYFBjsrIrOhpblBVc41x1jxo2AxRMSMuipCoVJkL1hiExA6DcLF3lWshccfZkFV96cSCvCTY1VUl74IThTpjMJjIewr+BZ6J/x6cKi4Lvgn9lH85M5M3+X1wxogIGmZdOyVHJF9NFpJotXZwLfLX2JF5XrVWH1zj2dkjzG8+8ND2IN+kBRG9j2D4/qdiknR4va7mLv2PeYX/YI3GABJZlDOaE4adA6xepPKrrh442f8tP5LHL5foezbo2GLPrS7FhCKz3ccrZBnlRAK3puawzy/MkhF+5HDZUMUkuQwTy4NCVJEVRb6j0cp9IuXEA7QKge8uDJIob09rVGBGQMUhqdFrje44Y21QRY1dI+7cHffr7vujwKE7rLkgVlPnk1DeoyscgVsGzy4u70Vok2KKo/uV3UYNJodF0JxDCCUFHvEaUky7xwcbN8HEZPwwQM/k5doxRBvQGvUkDwwkarFtaQWpCFbxNEGKpDYvti9IZVUqaOI4MmFlb5upzIWAlD9EzXq5k8cp4gjHItOsOiC4Dj4LcpqkckhMjAOZAK9wxsgiNkjKaTG5WHVG6lvq6TF1axqmYuiyCJ/VYMv4Nlm9y+TEJtFoslGq6ueurYaVcVsa5GwxaSREpOM09NCdUsZQTVeIVr2twWMWsi1Sojs6I0tYbzbbPUFP7v4OfFs82/i4863SZgUKG0L07odW7bYPeTGSlg1UOUMqyDh4IYHqFSql192GY1NjSxZvITyyioefefr/T100fa7yQLCpZ8bq9ArUfu7jhrcTseWjAERK9CVmIL4Fpy+EGatvEdaC21ON8/kvIghRk/eiTmU/FyONdlCw/pG4vsn0vPyAQyb3B+dZkfwIVgJt423EPEI8yu8nb75XTGp8HoIj0BTR976dg8JQqRhmbqIGNWuVNh+jwAFq2oFcdOB7W+MAoTdGNTorVELHOoWiAKEQ32Exc4WNWAx3qCg3UPBR4/LicFk3ivGanW4qahvIi8tiVCrny9nfkfx1yX4XAHVd29MtjDgimNwup2cclcBFvPOOR4ED8KiPfAgiE2CWPh/7RhA0CkXZOhUb8HuFAE4hP7FgUivvO17CIDgd7SoGwfBlij+/6OPPsK7777HvHnzMJvN9O7Vi2XLl6uPHTJESdsPpk6jRadTCIeC+ANCNEPCoNfi8wcxGxTsLr8qVWqxxuDxQYzWT1Bvxed2Y9TLNDa1YjTH4PO4IhMqGMKkk3GKXJxoOSAtIORntRodJqMWu0OIzkTGjXBI3RGEJQWdElb5x4VLNRwKEAqGUBQFRWdQx1rMiUOpRAHCoTSaXb+LAAWCOEdwCOxp2VsAwevzU1zVQN/cNNUdV/jJJt6f/B9E4LA1M4ZjrzuSnx5aSI+zB1D9/Sb6Pz+RkcOT0Ylzw98o4rNe37A1cHJP33v75wTY6hm3e8GfghtCqEqKLI8D+XhBvGvUg6COuCCSsGLUBxjcO5PShja0sQlkZZhZsbaWiUdl8O3SKpXgI2/IURjNSRwV34zTnMeqNcX0TJF4882POG/qVH5ZsI5gWx3GQBMjRw7k1Y/ndddcjNbTzRaQNXry8voxdFA6X89ZSUZKAm0NrWg1fsLuJppiBxHTVEiv4WNp9YVw1hbjqawkNj0dl6U39au/pMWxXQpEN/dxX1cXBQj72uL7vj2xqA1I0iKi3oXQ0Z7ghO4GCIFgELvdoVLYJ9hiVYVIQezzwhEv01rahmLUktAjloAnQOPGZqy5cfgdPqZ+MolAjwSSzZF3+bUiYhCWVPvU7IbuLskmWZXWFtkSoh2RzfBbSo4VrQHcQShuPvA3j1GA0A4Q+mTmMnBgPg01pQzKT4D4DAQp18dfLefc0YPwh43MLW5i6cp1XDG+L0sbk4j1VNBmSKZ0yXdUN7Vw661X8skcJ83Lv2bsAImkEcfz97++1d3zMVpfN1ogo8+xBL1uEnLy6B1nItZZQ/IxI/n4rX/hSDmO2Io5nDFtMuscFvQNxTSsmMuxEyfw5XIndQvfodqx99KnuvE1d7mqKEDYZVMdtDcKgDA216AuZgcCQBAhX26vV+Xzj7PGsuad9bgb3RwxrT//7PsSPnsk+MeSZsZV7yYUCGFKi0HWKgy5sC+j7h6usikKqeVfKyIG4Zdy3xaRpO4cPKteUuWxRRyTaEdEI8QaIoGKXRVxrLCidu+Ale58r6gHYRtrGvQGLGYzdnsbZqMGFKHKpdDS5iI2xoQkKTjdHhxOJwlmHW1+LRoCBCQJv8eNLCv0Oup4StYuIehxYEvMJJ5mNtRFBZq6e9J2Z30arUENSjWYzWgIoQn50MbE0VBfj6KxMKqHmTWNPuyuAFopRFyMhRuuuZgNmyt44833sDujHoTuHI9oXXvfAsIbf0L+7xNw6k4PQqvDRSAQJMEWQ3GDj9V//I7N35cx4Z8n8OG0z/C7IzvtvLHZVC6qxufwq+BAnOVqdDJTiq9RAwnT2zUQurKgiCHY2OintLX7gwKF4+KIFK1KGS2ORYTn47diEuy+kKoPcaAfL0QBwt7/FqMtRC1wUFkg6kE4qIZrjzorAMK4fMNOo+5VZ7wgM+piJ9wdACEcCquLvzMY8RAs/8syfnlsofp3EXMgijnJyLnvnkHSgET0MTrev+BT1n/cwXwbef1JL48n6+w+OPxhUs0K1Y4gmdat0ZdiIRbn/gurfHstKFCQJQmQsCtxHc3ukNqXg6FEjxgOhlGK9jFqgX1kgShA2EeG3o/NiLVXRN7vTDdA5PWLxdWs2xEhdAdAWP3OeuY+tZjBs46k4IwBvH36h9SsqCMuz4a72Y2j2sk1ay/DnLRVgGnjF8V8OOW/KrCQNTLhYJgx945g+B8LVGKmsraAmt4ouBfEEYogaapxBFWOgg1Ne+/Mv0+ChpxYzS6lc/5U6kVwRBwMJQoQDoZRivYxaoF9ZIEoQNhHht6PzYjlXixmfRJ//cx+Z91rbWrAaIlBp9s99cKOeoV64zODXqV1cyuZIzIYOmMwreVtxOXbMMYZeH/Kf9U4hOlzppBxbFqn7ix+djkl35dv8STkn5TDuZ+crZ7/C24ToZDYK0GDoDIWC7GgYy5v7R5tgl+zi1krqcqUIvBTlK6OGARIEfEf35d4Dxq+lChAAIZYY+lr0DK/zU6JZ+eMh73MFgpijKxxOFnWRRR7jtHEcbEWSt1u5rTad/atRa/vIwuErArOURaVBD7m6zZ2yoksg3O0laBNwvyTA6Vpx/NL94gYfOkKpnlOtJW7J6W6j157t5qJAoTdMtdBe7MQ9hECSl1wDO3SOzntrYRCYSxWkXHQdTReS1MDeqMRo3FHvgR7awttG1w013lZ9ewyapbVobPq+MP8C/nurjkseW6F2o/EvvEMnNyPUX8q2NKvoq9K+OqW72naGBE90Zi0nF98tXqsIBZhVyCMwxumyRNSjxSEJ2FfFCGrLLJDhIplB1DYtl0BYFbW+mnukPrdF536nW0c9gDhg0ED6WfU4Rc65LLEHYWFfNzcLuHXhXHvzc/l3KR4AuEQWlnm1YoK/lFVRwfR1mXpaczMSlPZFTWyzP8aGrh3cznN+2iS/s75cMg+HrJqKP6pN2E5jIgzFrSJeaPXoW3q+scjrJUpWtiXkAakUJiwIpEzvhB9eQQkhIXM7Kc98WVpkQJh9b/Tr9yMZW47d/NBaskoQDhIB243uy0kgI9OEwyAu/lg++3iiEGj0+F1uzDHdBZWEu7/OY/NZdyfR+N2OQmFgpgtETpkkYFQs6yWz677lolPn4S+fxK1n2/i40u+QGvW4HcF1Hu23WLbcqyc887ppB2VotbxoOGvKAYhHy3hd/nJuXU4Fz04XA02XlsfoNK+d70Fv2UxvQK5No36R31fVbHRp3ox1N+NPTP3fnvqsAYIM3JyuTzRwhlL11ATDnNOehq3ZyRx2tJV1HWxoI9LTOKu7FRuXlPIcq+Po2yxPNwjm/s3FPGL3UX/GCuP98zl/4qL+azVQbrRyD/69uD9ikr+Xd+80w3rfpsFh3rDkkTZd31QlraSdls1MhJV7/ZACL1kXVyGvP3GX5KoeT4XVxbkTixBDodpuC+TpvEmeozciOIN03h3Bi3jDOSeVIwSDNMyI5mGS23kHb8RpZvkW/fHsEQBwv6w+r5vU8QfDEnRIrQE9qT8FkD4/p6fmffkYkbeXsCYu4cTDASor6nk9SP/g88eQKirChBw8bfnkzoiA78/xE9//IElz6/YsoIK4KK3GbDlWhl+yzEMOK+P2k0hAz33wXlqMOOIWcfQ7+I8krPS1YVYCB9tbtl7cQa7YyeRUeENRLwY7cz9u/P4AXOvAAjlmyLaRKFQaAcmRQHSZFlG6GaIcsgwKeoULY/3ysXvbOKW8kb15XQaPe8P6MXi2nLur+mcnqhIMtMz0jnOEOaGzdW0BoWHQMM9+TnE++1cX1rHiYnJXJ1k5rbicoq8AWRJ5tKMDMaoz1Spz0TLvrdAMNdE8ae5pMwowjo3coQUGGCl7KlkUm4sxby6M0IIpegpfzmbmP+rIP6/EY+AWscnuSRdX0TsqhDVj2Wg/aWRpFciR0ihdAPlL2UR848K4j8/eL0IUYCw7+fn/mhR8B/0S9SQatkzrmUBEPRGk7prFwtERxFgoGpFNcWfl3PU5YOISbdsufa33OcI+MLYeiXSuKqay3+ZSmK/BLWOTV9sZuE/l7H5f6Xq/QJEZBakcd77ZxIUwYYxOsK6iHTzU9nPkXpkMsPuG4ElHZJSUtWdeWlLgI1NB7b40f4Y69/TpgAIlcUbIt4av38HgCDGXqvV4vVGflcPGYCQYrTwaM8c3i3ZxOf2jrgDiY8G9cUa9nDCqs2d7GrS6LgpLxeHo5FnahrxtfuK7s7LZqJNz4jlm7g0J5/euHm4rIrWdixwYWoyM9PjmbhqE7X+AwPd/p4JczA+67owhcpb48k9fj3alvaB08psnN+LhCeriX+zrdNrecfFUXV/ChmTCtF1qDNqZDYu7oP543qSPvZQ80A6CbNKMK1uT1dSJEo/yIcaBzlX1R6MZoqA5KhY00E7drvTcZG73yteQ067K3xnz4qvxrGNQqIACFq9Hp/Xi7Fdk0Es9D6vG0XRotGIs7nO3omSH8p597z/YIg3EfL41HgDQX5U9nMlC/6+hObNLdStatjSlZgMC2lHpuBz+ul/bm8GXzYIwSFQ9uVKMvplY+kRpypSBnxedHq9qoy4sfHAlk/emZ0PtOuH7RFDboyNR3pk83Theua4t+akvj2oH7kKDF+2rtNYxer0zOrZk80N1bxc16RKAosyKy+LCxJiGbpkDTf26kusp4XHyqtxtq9DF6QmMysrlfEr1lHjO/iD2A60Cbwr/Wm9PYu6KWbyhq1H00F8KEtsWtYX27O1JD7T1Kka53lJ1P4xkawx69B28CDJEkVL+2L4qZWE953U3p9G8uVFGIvax1SSKP8wn0DYT97ZZbvSrQPynihAOCCHZa90Kj9OoWecdpfjEIQbv4MdsOOIweNyYbLEqP1raawjxhaPVqv71f42F7fy88PzCQZCjP/7CWhidCx4fR3fXfEF5lQTzhqXGl9wzNVHMuymo3mx4A1OfnwsWSPSVW+E6ENbUx22hGS1jbpV9bx+6vuYk01kXDYEzQk9kUUgQLR0iwUOW4DQzxbPw/nZPLBmLYu9nQFCT63MMUvWdDJwgt7Afb17s6i6gjcbmujwBdyel8W0pDiOWrSae/oNwGtv4InyajrWIQEQ7shO49Tla6mOAoRumbS7W0nzAzk0nGakx5HrkTuihARAWNGX2BfqSHoqcsTUURwXJ1M7M4Hco9ehdNwvSRQt64tuQRuJAiDcl0baeZvQd2QutAMEvz5I/oSS3e3iAXN/FCAcMEOx1zuSZlHU1Lzf0jD4tU50HDGIdEUheiZKyB9i1RtrqVpSy/H3jlQX7V0p7mYPbZV2jDk2jCaNSnhU1BRQ6Ys7OBj8Tj+OWleEZjnJQCDsQ6cxsPHLYr6++Qe8Dj/GPgnk3ns8xt4Ju9Js9J5dsMBhCxCyLLE82iOHl4rW8z/HVoDw7qB+pMshRi0v7GS+GK2e23v2oKqphheEB6F94bgjL4tzEmI4dsk6ru3Rh2R/G4+WVWFvvz4lNZnbspKZsKIw6kHYhQm5N25puzGT2ukx5I1ch6YjQUWR2LSkD3H/V0vC85F0qY7impRIzZ+SyDxpHbqO04cOD8L3zSS+56JmdhpJ1xRjKmz3IMgSZR/kE/L7yD2/fG+8xj6pMwoQ9omZD4hGxAGAyGRIMG2NIdjVjm1LlFQ2p4Lm4hYkRebH++diiNVz9lun4W314m3zkTcuu1O1ImhP/Dx2pVVQ5wySZFJUT4GgTxZlxetrsFc5WPXmOoK+ICc9PoaSn0vwt4Qo/HgTeSdks/GLzcSf3Y/Mm4ch6/ec32FX3/9wue+wBQgxOiN/6ZnLLzWlvN60xY+sxiDInhbO3FDVaQ7oFA0zsrOx+e08XtmAWw1Nlbk7L4uxJjhhbRmT0jIZZwxzf0kl9WoWhMSFqSnMSDZzzroS6vzdzwN+uEzU3/OevrHxlP4thexTC9FXt6cb6XUU/ZhLwoMVxH3aWU8hMDiGir+mk3L5Royb24NJdBo2LuyN9cVKEj/3UfNwBta/lhMzvz1+RaNQ+n4eyvJGMu/tDDh+T9/39bNRgLCvLb5/28uMkemftPvpjtsChI8v+RzBihjf08bx948iNitG5TUQWQmKTmHSK+NJ6BOPq8GNs9aJvmc8lY0+Sv66ACUcZvhNQxHxBr9WHjT+lX5n91LFm5o2tVAxr4rC/2ziiKn9KPm+jNZyO5JGJv2qoaRddfQWmub9a9lDo/XDFiCIqMwneuUxSBPgxLWRM+NUk5WX++Tytw3r+cq5PVe2xIVpycxIiuGcdZvVxd6qM3Jffg5rG6t4ob6NUTYbj+elcM2GEpY6vRgULdfl5GDwtfLEFlBxaEycg+ot9AoblvYh7slykl6KZB24L0yldoqZjEs2o23YLrtEK1P6Xh7KymYy74nEJ3hPjqfsiVSyx69HXxOm+vFM/JKH7Bvr1ev+glgqHksj9VIBKg5eIBgFCAfVzP7dnRW7+HF5BjqUkuc+vlDdqVuzYpjyn7O7rF8EIzpb7FjiItwGH138OWv+vZ7YbCvXrrtMpUB+ZfTbVCyoRtHKHH/fSDVV8aXhbyJZ9Zz6/lnEEOJfQ15WYw5is2PUxb/gxqNVvYXtS+OGJtq0WmxpZsyBIGvfKyR7VAaGOANvjn+f2pX1yAaN6j1IuXDQ77ZJtIKtFjhsAYIwwZD4JP6en84zRUX84PJzY04mo8xajlsWyfsUvAh/yk5j0sLlVIRC5FiszM7PYnFtNW8125mQlMTVqXFcvHYTG91eEvVG/pSfS5u9iWdqmzjCFstDuWncsamE/zVHGRX354fXMjuHtr4yyXdVIms1lL2eg+mrJtJnRTIOKj/rjdcUIm/sJlXExj4jldorbaT/oQStHWoeSieIf8vxgeucRGr+mEjyjSUYqsI03JqCO0ci78xImtbBWqIA4WAduT3vt0kjMSxTp2YEfHzZF6x+ax1ak5YTHh7N0VcO7hTEKMDBz48uZM7980gakMDRMwbz9a0/oDVpuL54BjpDJEDw7TM+pHpJLba8WMY9cBwx6WZeOOYNlRnxDwsuVAmRnHVOPr/uWwpmDuXTP3yFu8HFbfXXoTFq1HiDivlVzH9ykQpUBMvi9oyNX878jsXPLFdTIg35ceT/5SRM0fiDPZ8IXTx5WAMEYY+JKamcFmdWNby9wQBPllVR2h60ODw+nnMS43h4UzGN7dqcw+LiuSDJhlGW8YeCvFdbz5xWxxaGrAExVqamJJCgUQiGQ3zX2MxHDc1EGRC6dd7udmVhrUTTzWl4ciPnk0qtj5TZNUjtm/3Gu9IJ6MMk310dUbmToPn6VFz9IjsapdlP8v01yNuQILVekoRzmDFyntoWIOGpOnSVB3cqaxQg7PbUOiQeiNFJ9E/UsPqtpfz8x3mEvCEGzhjM8Q8eh9XQzgoYCmN3eVjw9FIW3b+QxH6JHP3HAhY8Mp8Ym55T/nMuKdvxKgjxJSHZLOISqpfVknJEEpfPm4YgU1rw96UcefkRHDtrGBULq2leUcvou4YTCoYo+rGCb27+geb1jSrnwYhbjlHBRWL/BGRFRihBCoCw/JU1GBMMWCf1I/3qoSpYiJbus8BhDxDUH39JwANBixnepYVcxM7IkkSIiNrZ9qXjuiD1jTIsd99k/d01SaiUyer6v4tqaoJCWb1fDGQXY63WJ/5PTIRDAAVGAcLvnmUHbQWCfjm1xcGqZ5apgYEj7ypg4IyBBENhEqxmapraUGQZqcFP8eeb0cUZyD67D/bCRhJSTfjjzepRRWy7YJEwRENhE59e/iX9L+jL93fOUYmRpv88hY8v/oJ1H25Qjxf6n9dX9URYMyy0tjZiMJqo2uRgxTMrWffqahUMCFAggh3Pem0CmlgDTXY/i2b9wKp/F6LPttL/g/MPgVmU7AAAH/ZJREFUWrsfyB0XAKGpuhxFUWhpadmBKEmn0xIfn0BNTY36GocMUdKBPCjRvkUtsL8sEAUI+8vy+79dEY/gfX81Ve+u5bRnTya+ZxyKRUMwFMKg0+L2+tFqZDTKVp6BRldIZTcU4k8iblsII4m0ScGRJP6+od6Hpt5JdqqRlW+uJa5HLD1PzdsCEMRb62J0pAxOYvz/jcOYqlV5FVxBGX+ji5eHvoa7wa0GHoqjh7GzRzHggr4sf7eQ9KNTWVvjJWDSqUcM0dL9FhAAoWrzRnVD7PX5umRSNBgMuFyRQO9DAiDExueheCoZmJfE0qI6nF4/ikZPRp/B1JVuwONoVSe7mOQnDevBdws3M/mqG2letYDP58xVJTfC4chH0C79o/53jDYWk9JCv349+XnVZoIqtbJEXnIMlU0O5LgeBOo2bCFZ6v7hjNa4Oxa44s7ZyOXLWVJUy8olS1VGNmtiPmedew490uCuux9FkrSMHNiTivparpx5JU//7SWOHTKItSsWU9JgZ9rpI/jXh3N2p9kD+t7tAUJJWRkFY05m3ndfcMYpx/D5/5YSCIhjFCniUBFUuxodAwcdib+xhHWltZx48Q1s+vg5+oyfyqmTpx/Q7xvtXGcLlNz7A/Xvr+PKRRfirHez/sONqtvfnNI1p4E/GKa4ya+KEwlgIBxtlY4gekVCL4CDScHhC6NVUP9N3C/UDuVGJ++c+dEW5sTYPCsTXh1Nj4LeaoeECqMihXk693lc9S5yxmQhuBCqFkd2qqLk3HUcyVOPiA7hXrTAYXnEkJIczykTT+eLbxZy7sRjcFSVkDLqLBz1bpatLKR/epjFq6o4vp8ZXbCWp95fyZTxo/ny540MP6YPGalQ7MoETyV43KQaAxSFM0kN2Fm8dBkuT4ALp56KNc7AimIXc39awEWXTuK95/7BMUf35r2vl+/FIY1WvasWmHzD1fzyv0X0KTiRyuKNTJkwmB++X48/6GDlskX0GTyCFK2C396KXVI44cwCPvl8LRpHDX3y41ld6qZuzffUtO1cInxX+7S/79seIGwuKWXkmGmk5xpItTio9SYQ27QMrSWelaVtzJ+3UHX/jj17KsWrF7Fx5UoumzSEKqeWYGy/KEDY3wO6m+27ChspvPw/JGTFkNQ/QQ0UnPrp2cT32nGH7g6EqXME+eryL6j770Z0MVoGnN+XY24ciinPhkUXOZ5z+sLUOgMkmxUMwgPRzm/w/uRPWf/RRjUVcuiNgxg9awR6i149thV/NpY5+XjwS+rx74AL+tC0sYXyuZVqndpEE7n3jsE2Lm833zB6++5Y4LAECHpzLENHjKRiUwknHD8cR9MmWvWp2O0aFK2f5k3L8EpxnHxMJo7GEt78cjX5+b0I+Ywka9zY+mZiTsrFV1uD1+cnPsZPY1BLxcoNNLt9+Lx+hqT5SR51Ao2OWDYsncvY0cP57qO3OPqo3nzw1bLdGaPovXvJAqdfcimV69ahS8pjw4ZCppw6jE8+nkNsipWSjYUce9ww6grLCTbW039oL8jpQdjhwd9YRXGDjz7ZyXz08Sd7qXf7p9rtAUJxSQn5fYehNUCKTcLt8qMEWwnLGiqrW6msFDs6iaz8Phg1XoqKSul31JHYi1bRe9wFUYCwf4bxd7W65tx3ca2NaCKc/PjxHHPdkTtkEIhrQhxJhPKUPb2Yip/KqVpUo3IhnPjIaPJOyNnSh2ZPCIMi0eoN4Q2GyYmNBD26mzy8dsK/seXGMureAmLzzciGGDz+IHLQT8DhY/Xza2gtaVVjF355ZIGqyyA4D1IuHkzWLcPV+J9o2XsWOCwBgjgb0GlEJGyQ2MRUfI4mQhojcljC7faRnGihqdWJ1WLA53HRYndji08m6Ath1WtpczThQUOMSaeesykhL06vhM2io7nFTmqihTa7E9lkQato8bhdWGKsNLU6sCo+6g+hHefem5p7v+aElDSkgAenx08AmcQYPU1NbWh1Glxuj3q8EG+z0NzYhNmkAb2FsNeBN6SogVNmbYjmbVg4936P934L2wOE0vJypt/+wB41nJSWRVJ65h49G31o/1mg4dNCah+fxzHXDqH3xB6kDErqsjMi/kBNcGjx4HP4WLuqmV75FuJ7x6Np10MQIEAoNWaNysCWY6XGEaTs680Uv7ZKrVN4BUbNKqDftH40trrQ6/VoCCD5PRjMZjQaLW3ldgK+IHWr6/nmth8Rnou+r05Cnx7RgIiWvWeBwxMg7D17qjWrGQ5diYCrQQtdhMLv5f5Eq49aYFct8HuDFFsa6gkEoqJku2rvPblP0QiBJYmAf3syt0htkiQjyRpCQR/xSSnI2wQV7kp74WCYI6yQlqhX0wa35x/oqKOiLUimdWvA4rZiTuKeNm+IpnkVfHXT90x6ZYIaiCh+/Rb933K+vuk7tZqUgnQGvz6JjDgtqTEyPrcbr9tJbHzilnaFINNrJ7yrPiuOI/p+PhXF/OuCULvyjtF7ds0CUYCwa3aK3hW1wGFhge0BQtHmzaRm9sCo+GltbkDWx+J1NoKiJxgM4na7Vcw7dOxpTLv+Vp64+TJOWbKQBbE21igSlhA4JDCLH/dQSBW/8ktgCIVo0GqRwyGO8/hIRuYLvUZdBET6cIbHw2ajGWsoRIAw4tg6bITzcx18U2mi3K0hQRem2Q8GJYwvKOELiXZkHGGwGQM4vAoi404sXK4QbKvxJ7JXBQWG+DezLqR6qoMhieRYPxvr9WrwsT/eTWuGh/gNsRGui4BEWBYprRIhJURYA3JQQvbKuHo2IDv1aJtMal1hJIK6ECGDH0OjnpBIpRaZslKYuNTenDM8C2fyOOL8JQRlP5998hl1jW1ccdVVLPnfJywvqsOgN+B0eTGa4zDrZBoaq9SMgvgYE2efdxZGfxNvboyjbcl7GHQR6eWwkkqSoQVZ0HoFgsz46xvEJaXs9tw1aCRGZum3xAt0VcGaej8DkrS/WbcQVxIUywabHk07n0LN8jo1jXLAuX3IHJ6+0769ddqHFH9Tooo3xE/oSY/HTtrpM9EbuscCUYDQPXaM1hK1wCFhgR2CFEvLOPaMS8ixQLbVydqaVPSt3+GzZtPU6GDJwoX4fH4KJl7IBdOn89ebppO0fg1FWoWkYIiB/hC/aMMMCirIfg9ZgRDNisxSgw6HVk+jLHFWm51GgwGbx02bouCUwBYIstxk4jiPHyXgIzYY4o2UOMamePDLQRY36piR5+btch29bH7cfoWFdQb6m0OsaNOSZPFhCin0ifNS2aZnjVNiiM1LcZuGXJsfTUjBowSQ3QZyUu1kaSW8AZkNPok1lSZaAgIJhPGYw/jTWwnKEoZGLX5LEKXNgN/mRttqQOuR0Tq0eNJb8VlCKngIKyFCaJB9srpQG+oM+IwS+EOEDUF6xB3H4AwTTl0fdI71xFlN/DRvAQ0tTmJ7FjA4NUxFTRsjjhnCwvmr0ZktxCdZWTz/R5xOFwlxMZx8xgT0zjq+q07CULuIfr1601zXwrINtRw3sierlizG4XRy/d/e2iOAIPgMeidoyY7dD9LJYahaUoMAEkMuHcj3d/9M4adFuJHo9czE6NHCPvylOewBQmqugeMKTNSUe1i4wK0G0fxWkWQ4+rgY8pM1rFvnYvUa7w6nBqk5ekYVmGlr9vHTdw48By81/z6cinu7KQl/bi9cBUegX7MSw5pNOz/uURQ8w0fgTbNh+nk+2uqI7sK2JZCWh2vM0Wg3rMOwcj1S4OAe7B2CFDeXkNFrILEGCZNRZn1hAylxAQKSFq83SGNjo8p8N2TkSUy78XbWLp5LamMDdVotccEgMhItUgiDpCByPeKCwj8QplKjQey12ySwhsOYhXpfMIBLlglIEonBIHWKTFJQkJeFMYXCbDDp1Iwhf0jCHpTINAapcGrUWBCDHKbCqSXbHKDEqUGWQyRqQKsLUO/U4QtDXoyPMoeWHIsfd1BGkkJ4fRo8UohkDWjkMFV+CTmgqPULgBDUhgnr/apHQPbLhLQhCCiis2i8ikqeJQUUgiYfckAmKENYK4BCZJYIj4PiU9Tnw3JIDarT+cxkJJrxKLHYm+tJjouhtq4OXyCENS4ZkxLA7vaTkRZPW1MjiiURpyeAvbFaTTE1m4ykpKURdLURMCTga60mxmJB1ugpq2vFrFdwO514PC4GDxuDzmDYo49LSC0PTNJi24b4aI8qEt4Zf0j93sQRgXrKGuEX61QEjbM4zhBHHD/eN5efH13A7c03qMccK36qYnNzAMvgFDVIMVr2jQUOX4AgwWXXpzH1LBtxVgW/L8S6ec3c+XAdVfVd/8hrbVpm3Z7G+LEx6DUSHk+QN56v4ZW3m3GLY1cJJl2QyNVXJJEYq6g8COsWtfHoEzWs3XxwU/Dum+m491ppuftvNJ00hJDFiOR2o92wgKzLblfdvl2VsNZMxYfv4EuKJ6xVkB0ObP+4jfj3t2agtNz+AE0TRhKKMSF5POjW/EzmlXf+ap177+26r+btAUJZRSWz/vEazjYvil6Ds9lNTJwelzOIwSjj8oaJs+rwNHmQNWYScpOo31hLSCuhU0IE/X7MmamYQx78BgM64Qr3BDG2c/Z36nkohNPuR2vU4m50gkmPyaCgaEASDH5i8QgFsbf50elkDCYd4XAQSdq6y3W7AhhFQGkohGDwcXsCGNtd2+qC7fcjabe6xX0iDN8XRFYidRMO0doWwGTRItzjZqueQAicLR5siSYCwTAaBRpqnJjjTRh1kcVKHLe0tfqIjTN2KWPcfSO0b2vKM0JKyE9s5taAwF8eW8iA8/uo2QfbFrHAe5o9yFqlk+hS0dcl6oIvjhqmz5mMPjFyDKPIwuZh3I1u9fghYNBg0kbsKQSaRACjIFUqag1S1hrE3xVt7b41x2HXmgAINaVF6rfnEb9xOh2PPvoI7777HvPmzUOWZawxMbS0tqq2OSSIksSL9B8Ry4P3ZVD8VR1/fLKBY8bEMnt2Jv9+rJQX/+PYYSKI+MIpFyZy28wUZl5ZzM8rPJx/YTK335DIpRcVs3yNm7z+Zh79aw4VPzYw67F6cvsY+cezuXz5cg3/91oT3ihG2C8fWODICRS/+RCxrzxF8pOv4zrnD1TddRW2J24g6ZUfu+iTRP0Tz9MybiBpM6ZjXlFK/YOP0DLheHLHDEdX78I/dDzl/7wH49evknr/i7gmTqb2T9cT88xMkl6dt1/eszsa7SpI8YGXP2XpVxtpDesZOiye4pUl2DIS0djiqFhYzKizBjP360K++KqS62aNYOW8ErxtHuIyY5EUH70H5bHkhzWEQiaOHJbJykI71Zsq6ZEawufS01LqJOmUXpQuKCMuSUffwTmU/NJIzywHhZsDKrve/AV2sixhep2UgcYVRi/7WbOogoyjMqhYWUfOUT0ZMkDDL9+2kpNlos1uZ+XCJhKHJOEsacBiNbGpyM60KclsKNVi1bmp8RlI7ZWOa1klKQOtBBrqkJrsuBNS0epk/E4XWb1SqWwJEnD7STEFKapwM3RUJgvm1BD2e2heX4dpYA7NUpiBGRZWfVNEYqoMzSYak2R6xukZNCq3O4Zmv9RR+sAc6t5apYol3VJ9DQufWsoPf/6FkD/EnZ6bOvXppRFvqgJNghnRlGBQF/2z3zqNjZ8X8+O9c1XAJRZ84RHIODaN4TcPxVnn4tVx/1ZTI0XGhNKe/aCCOSGa5gkxr7LrYMz9YpDDrNGuPAgPPDCbDz74kAULFuxgjUMCIAjazmkXJ3HDhVZOn1JCbX1ACDIw664MJo8zMGTMph1e3BKn5eZ7sjGVtzH76Qac3jDxGQbunZ1F/dwGZr/UzJgT43j0tgSumVnO0rVeNahm6iXJ3DDFwplTS6htOLjdzwfrt1H92rs4+8WTP/xE5HaQVvnZ9wTc5WRPvhRJbBG3KeGYVMreegFl5Wdk3vmseiUcm03Rjx9h+uAp0me/Sv2Dj9J6ytH0KDixXfBJpvpfr+Hon0TP4aciHaTZKl1mMbz5BTVlzTg8ElUVDvKzZDZX+om3oKb+HjEin6pV1Yg9RM+BqVQVOQnKXjzNLtWNn9IrA3wO4pLFjlNh1epmjEkxxGpaaVxfT0mpj7QjM5DaXKpbP7dXEoX/q0Q2ygTDAfTxGoJ2GbcikZYt/u5DMmhpbgwSn6LF3uTFnBBHnN1OpdtNal46jjYX+cmwsipMkkVDbUkDss5AXpZM8fIWjPF65HgbhuQ4fBvrSck30Oz0obc7ic9Po7bOJZRWcDuDJKUZqW8IoNeG2bS4hrHn9mX1kjqMpjBKMEybwYReCuGzh/F7giSk6PDLfrJyrOg0GjQcfBH34UAIb0UbVU8vovGzjepif83ay2hY28DPjyzAmGDkvHfP6PTd/LPvSzjrPZhSLRiTzNQvrmCS0E4waBBeh8oF1SplslCBHHPPCHqOz1c9Dm9P+gidRUdmQRpj7h6uykWLz6fBFWR5rb9LvZuD9bfoYOv39gBBaDKMGDGCTZs2UV1dfWgCBK1R4crr0jky1sctD9XR6or4mS+8IZ2bLktg9JBVOLd79YweBp56tSfvPFrBB5+2RHR5ZJm770pn3BESJ1xQwXlXZnByjzB3P1RNVXNk0Zl4TgJ/viOV807bQGl1NP1r338gRko/epOQbzV5F9yzpXnnDY9Td3IPMi+cirbF3alb/qGnUvn4nSRefx6WVR3UrhKlP89HKl9K9pSbqX7iUTxJDeRdfP+WZ+3Xz6bm8vHkFQxDc5C6i35vmuOejG9FUSMpefFohRjAdqWlwYWkyMTG7dk5+p70J/oM+BvdFN30FZ6SFvwNLlXO+abyq9FZtDSsa8SSZlEzE7YtAiC4m33E5NiwZFqp/K6IW+uuVRf8xsImNn9XpnoRBCeC0FEQRRw/vHX6R+rfBXm3EG2K62Ej7dx+lAQUPLsoqhYds71jge0Bws5aOSQ8CMY4LTfelY2xuIlHX2jG1e7BOnFqCvfdnMzUsasotXc2Ra++Rt56tyf3/qmczz5r2XLx7rsymHSqmWOP38jVD+WT1ebg4Sdq6VhzRo+P5/5707nmgkLWlkQBws4mWLdfN6dR+vYLKMv+ReafP9xSfeCEqyibNZ7Uay/BtGHreIobXGdeRs0d15B5xjB0tVvPhSo+/YFgoJrsi2+l5rEHCVX9h4zZW+v0Tbia0ocvJ2PSSEybD0765a6CFLN6RPjxo+XwsYA4QnAXRtgU1cVblkg98rfTJQWRUdC71Uva1TMi5kAc10b+B1VnobWsrZNhtSYtxtxYgkIFKlr2qwVqKkrxeTpvoH6rQ4cEQDAl6Jg5Owd5WT1PvNISCTAERp+XzIO3JXPp+NUUNXY2Q5++Rt57ryd/mrUjQDhnYgxHjy7khr/2JLmqjYefrKXNE3l+5ClxzL43gxsvKmTVpihA2Oez3ZZF6RvPop3zFOmPfrWl+dDwSyh58BxSbroU84qmTt1ynjeD2j/OIPPUo9BtMw8qPvqWIM1k/+FWah55EArfIO3xL7c86x83nZK/XUvalFFY1rRPgH3+wr+vwe0BQnNLBDzJ6u5+93htRdCa+BMtUQtELXB4WOC4USORVqxYGf7wo494++23D8q3Ntq03HBnNpayJh5+bqsH4eQLU7h3ZhKTx66mbDsPQs8+Rt58ryf3/4YH4arZ+eS4nDz0RA0tEfVLxkyI5/4/p3N11IOwf+aKKZXSd15AXvk6WXe9u6UPgZOvpey2k7v0ILhPv5TqO68l46yR6Ku3BkhV/PcHgv5qsi+6RfUgBOs+J/Pe97bU6TvtWkofnE7GmSMxlRwaHoSi4mJSU1MZUjCKZnfnGBqt36HSjItiNBjJyMzAuE1K3cJFi1i4cNH+Gfdoq1ELRC2wzy1wSHgQtAaFK65N49ikADfOrqXVGdnlXDoznRumJzD6yFU4OsetkZ5v4G8v9+SDJyp4T8QgqNRqMnffncHY/nDClArOvTydif3grgeqqWiKVHDauQn8+U+pnHf6Bkqqoh6EfT5jMVD60VsEQxvJP+f2Lc07bv079WOzyLhoGrqmzi60wJEnUfHk3STcMoWYpRH1OJAp+WUecukSsqe2xyCk28mbcteWOu03PUzNJSeSO3I4WufBmbKyA5NicTG9e/Vi0FnXMKc0THq8ljZfGH04jHP5p4TqC9X3z8vN5dprryEvb6u63gsvvMgLL79OnNmM39mCSxeL0ZKCJUaPQasQGwM6PEhhP7LXgdsTxO4M4vRIeOzNeCVIjzdT1+LCKdvQYkRvsWAwaNQ/thgZveJDDnqRAy78/gAtLW5a7B6aHBHgImiJk2OMtDqcuPSp6GWDmtHgc9bjtje0S1fv+1m5L1oUKWi/RpO8u+0LT1BIpI5GS9QCv2GBQwIgiLOxqRclctPlcZx2TjE19QGVfOOOuzM4e7iWo08u3sEEplgtN96RSVqbkzufrMfuDpOca+K+2ZkUfV3L46+3MvoEG0/clcxVN5SxZJVHTeeZNj2FqyeZOOuSUuoao1kM++PrqnnpHRxDUskfPg5Z8PEC5V//RKilmOwp05G2I8cKmxIoe+dl5M0/knXjE+r9oaTeFH/7DuY3HiHtL+9SP1ukPQ6nR8HxyCKQSpKpfvUNHD1i6Tlq4kHLhfBrAOGUGfdR50uCWB32Gi8GXZhN379I88b5nQBCZmYmV111FS+88AIvvfQvXnzjfbJjYwm1VFEbm4ctsT85uQlq1H9+jgZTsAlFDiHXrqfVp6e62klVI3hry6glREHPJFaXtVBv6IHWrSc5Lw+rVYvFYqBXjoJe8WDwN4O9Bn9QQ9H6Usrr3RRWR45GdHojR6TFUl7fTFPiUAxuLTn9stHTik1XzY/fLVb5Sg7FEhcXh94cQ9gvwJKE0ahTlWYFXfPOyoXTppGXF0nPFMBg4aKlvPHGazt7LHr9MLfAIQEQxBj2ONrKw7MzcK1s5so7aznu1Djuvy+dp27fzL//50QxKky9OInjs8NcfW8dPn+YC6YmcsesVO6dWcJ/f3Fx6YxUbphuY/KUYtas95DVx8SDj+cQWtfKVXdW02ewhaefzeH1Jyv517+b8UfxwX75fEI9j2PTf54m5qNXSbn/aRzTb6L2+ikk3DOd+A+WqH2qfOEZcDaRMfNO9b8bH3yaptMLSL7lWmLmrqf2ySewHzeU/IKhaOwBgn3HUPqvh9Et+4L0mx/Ded506mZeQdzsi4j/ZO1+ec/uaPTXAELiGXfweXU8VotGZcVr9YbJXfcv4hoi9tvWgyD0GYxGI6oH4cWXyMhIp6amHikUINZmxe4JEGfSqGI+Wo1MyOdFMdsIOluRtVoMOh2NDQ1IGg1mSwx+eyueUJj01GRVLVXRaNBrhIighEUbVDUYNFo9vrZmTPGJtNTXEWyPfVAUDVabDWdzM8Knk5GWSEOznThbrCpiVFlRudM4CbETnzTpTC668EK8Xi9XXDkDu327M0ih6WA2q8QxXV0LyVoq+l2nymTH1s0ntm4eUnjPvUyjTjqRAWY/z33cFY9HZCYkJydzxe3389rfHsSSmIEtuze1axfi92yfo7XjzLn77ruorqqitLSUadOm8cOPvzB79r3dMcWidRzCFjhkAIIYo/MvS2bKpDgS4xR83hArfmjikacbqGsOqQBh2iVJjMnaChAkk8LMmalMOCEGg1bC5Q7y+gu1vPtRqyBjU8spZ8ZxxWVJpMRpCARCrJzbylNP11FUHUUH+/O7sF99D42nH0vIakZyOtGt/pH0W/6yJeyu8oVnwdm4BSCgaKl69VW8aYmEdRrktjbiH78Z6/dbvUv2P9xG46TRhGwWJJcb/bJvSbv9yd0M5dufVtmx7a4AQs+ePTlm6FBWrV79q53NSE/n/PPPJzMzY8s9r7/xBm+88eaB9YJ70BuR+33rLTer7yfK+PETaHO6ycnvhbe1Ek0QjGnZtJUXodjSscbGsKmonFFH9ebLb79Xn3HF9KBu8I3oNBIhVwupy/9CokVPQd9YFqyrRzbE0VpdgtWiwxuQCGoTuPXG6Tz/jyfxhY24vW78Ps8WMJOS35tgaz3HD0ilxSXhDhpI6z+AjR/9mxXtaVnZvQZy/tQL+fGD52mT4olLz6euaAV+b3uA1G/Y4o47/kR8XJzKnmexWFi+Yk0UIOzB3DncHjmkAIIYPGuSlsH9DTTV+igs9LIrabc9BhpJj9NQVuahtHTHuILYJC1H9DPgavOzYrlHVY2Llv1vgWBiGt7++Wg2F6GrqIlQtf1WkSR8/frhT4jBsGotSsuOu8aQNQnPkD5oykvRllYi7YL7dv9b4td70BVAsNlsDDriCJXueHdKaUkJJaWlu/PIAXmvAAjXXH0VF110kepuP+2002kQc0FnJtHix6YxU29vIVFvpk2Jp9XZQEpyb84ck8k/X4mkwbpj8nEV3KISADlbG8hY8QRHFhTQL91Ck93B+o01hJpL6N8ni83lDWyu9nD6yccyZ1kZQwf2p7CsjOriVfj8kd+b3PweWGQP2PJoKFmNKS4dnVbBUbuJisZITI3wIBgMhp16SLoyuvAgxNlsVFZWcsQRR0Q9CAfkzDzwOqUChJUrV4a/+uprPvr44wOvh9EeRS0QtcAeW0AAhClTJlNeXs6SxUsQWQyHexGBfrm5OfTs0ZNQOMScOT/j8/02/a9WH4PVrNDYFImFCGrMtKQep8aqaDwNWBuXEZ9gw+sNoVPA6XJiNcj4JAPutmZCkgaLHtwBDbZYEy5fGLe9ZbcCBbOysjCZzTsXJetigG+55RZSU1NUQKNRFObOX8iDD2wlBTvc50T0/bu2gAoQ1q1bFzaaTHjcu06gEDVo1AJRCxwcFhAu5Wefe04FCG7PwcnncCBaOixHRKKksBCFEu6rnbmwft9baDRC1XL3vD4dLcbExHR6VgCi1nZBnt/Xq+jTh7IFhhUcy/8DjQVeYYGrFIsAAAAASUVORK5CYII=;" parent="1" vertex="1">
                    <mxGeometry x="1232.5" y="310" width="455" height="245" as="geometry"/>
                </mxCell>
                <mxCell id="110" value="&lt;font style=&quot;font-size: 16px;&quot;&gt;Ground Control Station&lt;/font&gt;" style="text;html=1;strokeColor=none;fillColor=none;align=center;verticalAlign=middle;whiteSpace=wrap;rounded=0;" parent="1" vertex="1">
                    <mxGeometry x="1352.3700000000001" y="556" width="215.25" height="30" as="geometry"/>
                </mxCell>
            </root>
        </mxGraphModel>
    </diagram>
</mxfile>